%
M48
M72
T01C0.02000
T02C0.03200
T03C0.03600
T04C0.04000
T05C0.05600
T06C0.08600
%
T01
X94000Y31500
X109000Y29000
X114000Y29000
X126500Y36500
X124000Y41500
X106500Y44000
X96500Y56500
X104000Y61500
X116500Y71500
X131500Y71500
X139000Y76500
X141500Y84000
X156500Y89000
X149000Y101500
X156500Y104000
X176500Y94000
X179000Y104000
X191500Y91500
X211500Y91500
X204000Y79000
X196500Y79000
X186500Y74000
X176500Y54000
X196500Y54000
X156500Y29000
X149000Y29000
X129000Y26500
X129000Y61500
X114000Y84000
X109000Y84000
X124000Y91500
X114000Y104000
X116500Y109000
X111500Y111500
X121500Y121500
X136500Y136500
X146500Y136500
X159000Y154000
X176500Y166500
X196500Y166500
X196500Y159000
X249000Y124000
X266500Y139000
X279000Y139000
X291500Y139000
X304000Y139000
X316500Y139000
X316500Y129000
X304000Y129000
X291500Y129000
X291500Y116500
X291500Y101500
X279000Y101500
X266500Y101500
X266500Y81500
X279000Y81500
X291500Y81500
X304000Y81500
X316500Y81500
X291500Y69000
X291500Y56500
X304000Y56500
X316500Y56500
X316500Y46500
X304000Y46500
X291500Y46500
X279000Y46500
X266500Y46500
X249000Y59000
X304000Y101500
X316500Y101500
X189000Y119000
X184000Y119000
X94000Y106500
X79000Y94000
X71500Y94000
X54000Y89000
X69000Y114000
X39000Y119000
X51500Y134000
X64000Y139000
X79000Y144000
X86500Y136500
X91500Y134000
X84000Y174000
X91500Y86500
X76500Y66500
T02
X76500Y174000
X66500Y184000
X56500Y174000
T03
X56500Y149000
X46500Y149000
X36500Y149000
T04
X99000Y179000
X109000Y179000
X41500Y106500
X31500Y106500
X31500Y96500
X41500Y96500
X41500Y86500
X31500Y86500
X31500Y76500
X41500Y76500
X41500Y66500
X31500Y66500
T05
X206500Y179000
X246500Y179000
X309000Y111500
X309000Y71500
T06
X36500Y26500
X36500Y181500
X311500Y181500
X311500Y26500
M30
