G75*
%MOIN*%
%OFA0B0*%
%FSLAX25Y25*%
%IPPOS*%
%LPD*%
%AMOC8*
5,1,8,0,0,1.08239X$1,22.5*
%
%ADD10R,0.08661X0.02362*%
%ADD11R,0.05906X0.01575*%
%ADD12R,0.05118X0.04724*%
%ADD13R,0.04724X0.05906*%
%ADD14R,0.15748X0.21654*%
%ADD15R,0.05906X0.04724*%
%ADD16R,0.07087X0.12598*%
%ADD17R,0.11811X0.06299*%
%ADD18R,0.03937X0.04331*%
%ADD19R,0.04331X0.03937*%
%ADD20R,0.07087X0.06299*%
%ADD21R,0.04800X0.08800*%
%ADD22R,0.14173X0.08661*%
D10*
X0156264Y0059000D03*
X0156264Y0064000D03*
X0156264Y0069000D03*
X0156264Y0074000D03*
X0176736Y0074000D03*
X0176736Y0069000D03*
X0176736Y0064000D03*
X0176736Y0059000D03*
X0196264Y0059000D03*
X0196264Y0064000D03*
X0196264Y0069000D03*
X0196264Y0074000D03*
X0216736Y0074000D03*
X0216736Y0069000D03*
X0216736Y0064000D03*
X0216736Y0059000D03*
X0216736Y0109000D03*
X0216736Y0114000D03*
X0216736Y0119000D03*
X0216736Y0124000D03*
X0196264Y0124000D03*
X0196264Y0119000D03*
X0196264Y0114000D03*
X0196264Y0109000D03*
X0176736Y0109000D03*
X0176736Y0114000D03*
X0176736Y0119000D03*
X0176736Y0124000D03*
X0156264Y0124000D03*
X0156264Y0119000D03*
X0156264Y0114000D03*
X0156264Y0109000D03*
X0166264Y0159000D03*
X0166264Y0164000D03*
X0166264Y0169000D03*
X0166264Y0174000D03*
X0186736Y0174000D03*
X0186736Y0169000D03*
X0186736Y0164000D03*
X0186736Y0159000D03*
D11*
X0130772Y0113134D03*
X0130772Y0110575D03*
X0130772Y0108016D03*
X0130772Y0105457D03*
X0130772Y0102898D03*
X0130772Y0100339D03*
X0130772Y0097780D03*
X0130772Y0095220D03*
X0130772Y0092661D03*
X0130772Y0090102D03*
X0130772Y0087543D03*
X0130772Y0084984D03*
X0130772Y0082425D03*
X0130772Y0079866D03*
X0102228Y0079866D03*
X0102228Y0082425D03*
X0102228Y0084984D03*
X0102228Y0087543D03*
X0102228Y0090102D03*
X0102228Y0092661D03*
X0102228Y0095220D03*
X0102228Y0097780D03*
X0102228Y0100339D03*
X0102228Y0102898D03*
X0102228Y0105457D03*
X0102228Y0108016D03*
X0102228Y0110575D03*
X0102228Y0113134D03*
D12*
X0101500Y0022750D03*
X0101500Y0030250D03*
X0121500Y0030250D03*
X0121500Y0022750D03*
X0141500Y0022750D03*
X0141500Y0030250D03*
D13*
X0067750Y0121500D03*
X0060250Y0121500D03*
X0167750Y0181500D03*
X0175250Y0181500D03*
X0182750Y0181500D03*
X0190250Y0181500D03*
D14*
X0234846Y0119000D03*
X0278154Y0119000D03*
X0278154Y0064000D03*
X0234846Y0064000D03*
D15*
X0186500Y0060250D03*
X0186500Y0052750D03*
X0084000Y0077750D03*
X0084000Y0085250D03*
X0076500Y0100250D03*
X0076500Y0107750D03*
D16*
X0200250Y0091500D03*
X0222750Y0091500D03*
D17*
X0152661Y0146500D03*
X0135339Y0146500D03*
D18*
X0155875Y0131500D03*
X0162125Y0131500D03*
X0170875Y0131500D03*
X0177125Y0131500D03*
X0159625Y0096500D03*
X0153375Y0096500D03*
X0155875Y0081500D03*
X0162125Y0081500D03*
X0170875Y0081500D03*
X0177125Y0081500D03*
X0077125Y0084000D03*
X0070875Y0084000D03*
X0070875Y0076500D03*
X0077125Y0076500D03*
X0067125Y0129000D03*
X0060875Y0129000D03*
D19*
X0089000Y0127125D03*
X0096500Y0127125D03*
X0104000Y0127125D03*
X0104000Y0120875D03*
X0096500Y0120875D03*
X0089000Y0120875D03*
X0129000Y0120875D03*
X0136500Y0120875D03*
X0144000Y0120875D03*
X0144000Y0127125D03*
X0136500Y0127125D03*
X0129000Y0127125D03*
X0186500Y0109625D03*
X0186500Y0103375D03*
D20*
X0086500Y0107750D03*
X0086500Y0095250D03*
D21*
X0134900Y0161800D03*
X0144000Y0161800D03*
X0153100Y0161800D03*
D22*
X0144000Y0186201D03*
M02*
