G75*
%MOIN*%
%OFA0B0*%
%FSLAX25Y25*%
%IPPOS*%
%LPD*%
%AMOC8*
5,1,8,0,0,1.08239X$1,22.5*
%
%ADD10C,0.00600*%
%ADD11C,0.00300*%
%ADD12C,0.00800*%
%ADD13C,0.00000*%
%ADD14C,0.00700*%
D10*
X0085600Y0040100D02*
X0085600Y0044300D01*
X0089100Y0044300D01*
X0093900Y0044300D02*
X0097400Y0044300D01*
X0097400Y0042700D01*
X0097400Y0040100D01*
X0096500Y0040701D02*
X0096458Y0040754D01*
X0096419Y0040810D01*
X0096383Y0040868D01*
X0096351Y0040928D01*
X0096322Y0040989D01*
X0096296Y0041052D01*
X0096274Y0041117D01*
X0096255Y0041182D01*
X0096240Y0041249D01*
X0096229Y0041316D01*
X0096222Y0041384D01*
X0096218Y0041452D01*
X0096219Y0041520D01*
X0096223Y0041588D01*
X0096231Y0041656D01*
X0096242Y0041723D01*
X0096258Y0041789D01*
X0096277Y0041855D01*
X0096299Y0041919D01*
X0096325Y0041982D01*
X0096355Y0042043D01*
X0096388Y0042103D01*
X0096425Y0042160D01*
X0096464Y0042216D01*
X0096507Y0042269D01*
X0096552Y0042320D01*
X0096600Y0042368D01*
X0096651Y0042413D01*
X0096704Y0042456D01*
X0096760Y0042495D01*
X0096817Y0042531D01*
X0096877Y0042564D01*
X0096938Y0042594D01*
X0097001Y0042620D01*
X0097066Y0042643D01*
X0097131Y0042662D01*
X0097197Y0042677D01*
X0097265Y0042689D01*
X0097332Y0042696D01*
X0097400Y0042700D01*
X0092900Y0038700D02*
X0090100Y0038700D01*
X0105600Y0037600D02*
X0105600Y0041800D01*
X0109100Y0041800D01*
X0113900Y0041800D02*
X0117400Y0041800D01*
X0117400Y0040200D01*
X0117400Y0037600D01*
X0116500Y0038201D02*
X0116458Y0038254D01*
X0116419Y0038310D01*
X0116383Y0038368D01*
X0116351Y0038428D01*
X0116322Y0038489D01*
X0116296Y0038552D01*
X0116274Y0038617D01*
X0116255Y0038682D01*
X0116240Y0038749D01*
X0116229Y0038816D01*
X0116222Y0038884D01*
X0116218Y0038952D01*
X0116219Y0039020D01*
X0116223Y0039088D01*
X0116231Y0039156D01*
X0116242Y0039223D01*
X0116258Y0039289D01*
X0116277Y0039355D01*
X0116299Y0039419D01*
X0116325Y0039482D01*
X0116355Y0039543D01*
X0116388Y0039603D01*
X0116425Y0039660D01*
X0116464Y0039716D01*
X0116507Y0039769D01*
X0116552Y0039820D01*
X0116600Y0039868D01*
X0116651Y0039913D01*
X0116704Y0039956D01*
X0116760Y0039995D01*
X0116817Y0040031D01*
X0116877Y0040064D01*
X0116938Y0040094D01*
X0117001Y0040120D01*
X0117066Y0040143D01*
X0117131Y0040162D01*
X0117197Y0040177D01*
X0117265Y0040189D01*
X0117332Y0040196D01*
X0117400Y0040200D01*
X0112900Y0036200D02*
X0110100Y0036200D01*
X0128100Y0047600D02*
X0128100Y0051800D01*
X0131600Y0051800D01*
X0136400Y0051800D02*
X0139900Y0051800D01*
X0139900Y0050200D01*
X0139900Y0047600D01*
X0139000Y0048201D02*
X0138958Y0048254D01*
X0138919Y0048310D01*
X0138883Y0048368D01*
X0138851Y0048428D01*
X0138822Y0048489D01*
X0138796Y0048552D01*
X0138774Y0048617D01*
X0138755Y0048682D01*
X0138740Y0048749D01*
X0138729Y0048816D01*
X0138722Y0048884D01*
X0138718Y0048952D01*
X0138719Y0049020D01*
X0138723Y0049088D01*
X0138731Y0049156D01*
X0138742Y0049223D01*
X0138758Y0049289D01*
X0138777Y0049355D01*
X0138799Y0049419D01*
X0138825Y0049482D01*
X0138855Y0049543D01*
X0138888Y0049603D01*
X0138925Y0049660D01*
X0138964Y0049716D01*
X0139007Y0049769D01*
X0139052Y0049820D01*
X0139100Y0049868D01*
X0139151Y0049913D01*
X0139204Y0049956D01*
X0139260Y0049995D01*
X0139317Y0050031D01*
X0139377Y0050064D01*
X0139438Y0050094D01*
X0139501Y0050120D01*
X0139566Y0050143D01*
X0139631Y0050162D01*
X0139697Y0050177D01*
X0139765Y0050189D01*
X0139832Y0050196D01*
X0139900Y0050200D01*
X0135400Y0046200D02*
X0132600Y0046200D01*
X0140600Y0044300D02*
X0144100Y0044300D01*
X0140600Y0044300D02*
X0140600Y0040100D01*
X0145100Y0038700D02*
X0147900Y0038700D01*
X0152400Y0040100D02*
X0152400Y0042700D01*
X0152400Y0044300D01*
X0148900Y0044300D01*
X0152400Y0042700D02*
X0152332Y0042696D01*
X0152265Y0042689D01*
X0152197Y0042677D01*
X0152131Y0042662D01*
X0152066Y0042643D01*
X0152001Y0042620D01*
X0151938Y0042594D01*
X0151877Y0042564D01*
X0151817Y0042531D01*
X0151760Y0042495D01*
X0151704Y0042456D01*
X0151651Y0042413D01*
X0151600Y0042368D01*
X0151552Y0042320D01*
X0151507Y0042269D01*
X0151464Y0042216D01*
X0151425Y0042160D01*
X0151388Y0042103D01*
X0151355Y0042043D01*
X0151325Y0041982D01*
X0151299Y0041919D01*
X0151277Y0041855D01*
X0151258Y0041789D01*
X0151242Y0041723D01*
X0151231Y0041656D01*
X0151223Y0041588D01*
X0151219Y0041520D01*
X0151218Y0041452D01*
X0151222Y0041384D01*
X0151229Y0041316D01*
X0151240Y0041249D01*
X0151255Y0041182D01*
X0151274Y0041117D01*
X0151296Y0041052D01*
X0151322Y0040989D01*
X0151351Y0040928D01*
X0151383Y0040868D01*
X0151419Y0040810D01*
X0151458Y0040754D01*
X0151500Y0040701D01*
X0067600Y0061800D02*
X0067600Y0066200D01*
X0055400Y0066200D02*
X0055400Y0065200D01*
X0055400Y0062800D01*
X0055400Y0061800D01*
X0055300Y0118100D02*
X0050800Y0118100D01*
X0055300Y0118100D02*
X0057700Y0118100D01*
X0062200Y0118100D01*
X0057700Y0118100D02*
X0057698Y0118169D01*
X0057692Y0118237D01*
X0057682Y0118305D01*
X0057669Y0118372D01*
X0057651Y0118438D01*
X0057630Y0118503D01*
X0057605Y0118567D01*
X0057577Y0118629D01*
X0057545Y0118690D01*
X0057510Y0118749D01*
X0057471Y0118805D01*
X0057429Y0118860D01*
X0057384Y0118911D01*
X0057336Y0118961D01*
X0057286Y0119007D01*
X0057233Y0119050D01*
X0057177Y0119091D01*
X0057120Y0119128D01*
X0057060Y0119161D01*
X0056998Y0119192D01*
X0056935Y0119218D01*
X0056871Y0119241D01*
X0056805Y0119261D01*
X0056738Y0119276D01*
X0056671Y0119288D01*
X0056603Y0119296D01*
X0056534Y0119300D01*
X0056466Y0119300D01*
X0056397Y0119296D01*
X0056329Y0119288D01*
X0056262Y0119276D01*
X0056195Y0119261D01*
X0056129Y0119241D01*
X0056065Y0119218D01*
X0056002Y0119192D01*
X0055940Y0119161D01*
X0055880Y0119128D01*
X0055823Y0119091D01*
X0055767Y0119050D01*
X0055714Y0119007D01*
X0055664Y0118961D01*
X0055616Y0118911D01*
X0055571Y0118860D01*
X0055529Y0118805D01*
X0055490Y0118749D01*
X0055455Y0118690D01*
X0055423Y0118629D01*
X0055395Y0118567D01*
X0055370Y0118503D01*
X0055349Y0118438D01*
X0055331Y0118372D01*
X0055318Y0118305D01*
X0055308Y0118237D01*
X0055302Y0118169D01*
X0055300Y0118100D01*
X0050800Y0129900D02*
X0062200Y0129900D01*
D11*
X0057564Y0045759D02*
X0057564Y0045142D01*
X0058182Y0044525D01*
X0059416Y0044525D01*
X0060033Y0045142D01*
X0060033Y0046376D01*
X0058182Y0046376D01*
X0057564Y0045759D01*
X0058799Y0047611D02*
X0060033Y0046376D01*
X0058799Y0047611D02*
X0057564Y0048228D01*
X0062482Y0048228D02*
X0062482Y0044525D01*
X0063716Y0044525D02*
X0061248Y0044525D01*
X0063716Y0046994D02*
X0062482Y0048228D01*
X0064931Y0047611D02*
X0064931Y0046376D01*
X0065548Y0045759D01*
X0067399Y0045759D01*
X0066165Y0045759D02*
X0064931Y0044525D01*
X0067399Y0044525D02*
X0067399Y0048228D01*
X0065548Y0048228D01*
X0064931Y0047611D01*
X0074775Y0054150D02*
X0078478Y0054150D01*
X0078478Y0056002D01*
X0077861Y0056619D01*
X0076627Y0056619D01*
X0076010Y0056002D01*
X0076010Y0054150D01*
X0076010Y0055384D02*
X0074775Y0056619D01*
X0074775Y0057833D02*
X0077244Y0060302D01*
X0077861Y0060302D01*
X0078478Y0059685D01*
X0078478Y0058450D01*
X0077861Y0057833D01*
X0074775Y0057833D02*
X0074775Y0060302D01*
X0076627Y0061516D02*
X0076627Y0063985D01*
X0078478Y0063368D02*
X0074775Y0063368D01*
X0076627Y0061516D02*
X0078478Y0063368D01*
X0078233Y0074775D02*
X0076998Y0074775D01*
X0076381Y0075392D01*
X0075167Y0074775D02*
X0072698Y0077244D01*
X0072698Y0077861D01*
X0073315Y0078478D01*
X0074550Y0078478D01*
X0075167Y0077861D01*
X0076381Y0077861D02*
X0076998Y0078478D01*
X0078233Y0078478D01*
X0078850Y0077861D01*
X0078850Y0075392D01*
X0078233Y0074775D01*
X0075167Y0074775D02*
X0072698Y0074775D01*
X0071484Y0075392D02*
X0070867Y0074775D01*
X0069632Y0074775D01*
X0069015Y0075392D01*
X0069015Y0076010D01*
X0069632Y0076627D01*
X0070249Y0076627D01*
X0069632Y0076627D02*
X0069015Y0077244D01*
X0069015Y0077861D01*
X0069632Y0078478D01*
X0070867Y0078478D01*
X0071484Y0077861D01*
X0071484Y0082275D02*
X0069015Y0082275D01*
X0071484Y0082275D02*
X0069015Y0084744D01*
X0069015Y0085361D01*
X0069632Y0085978D01*
X0070867Y0085978D01*
X0071484Y0085361D01*
X0072698Y0085361D02*
X0073315Y0085978D01*
X0074550Y0085978D01*
X0075167Y0085361D01*
X0076381Y0085361D02*
X0076998Y0085978D01*
X0078233Y0085978D01*
X0078850Y0085361D01*
X0078850Y0082892D01*
X0078233Y0082275D01*
X0076998Y0082275D01*
X0076381Y0082892D01*
X0075167Y0082275D02*
X0072698Y0082275D01*
X0075167Y0082275D02*
X0072698Y0084744D01*
X0072698Y0085361D01*
X0072667Y0097275D02*
X0070198Y0097275D01*
X0071432Y0097275D02*
X0071432Y0100978D01*
X0072667Y0099744D01*
X0073881Y0100361D02*
X0073881Y0099127D01*
X0074498Y0098510D01*
X0076350Y0098510D01*
X0075116Y0098510D02*
X0073881Y0097275D01*
X0076350Y0097275D02*
X0076350Y0100978D01*
X0074498Y0100978D01*
X0073881Y0100361D01*
X0074365Y0103900D02*
X0073748Y0104517D01*
X0074365Y0103900D02*
X0075599Y0103900D01*
X0076216Y0104517D01*
X0076216Y0106986D01*
X0075599Y0107603D01*
X0074365Y0107603D01*
X0073748Y0106986D01*
X0072533Y0107603D02*
X0070064Y0107603D01*
X0070064Y0106986D01*
X0072533Y0104517D01*
X0072533Y0103900D01*
X0068984Y0099127D02*
X0067132Y0100978D01*
X0067132Y0097275D01*
X0066515Y0099127D02*
X0068984Y0099127D01*
X0053850Y0112275D02*
X0053850Y0115978D01*
X0051998Y0115978D01*
X0051381Y0115361D01*
X0051381Y0114127D01*
X0051998Y0113510D01*
X0053850Y0113510D01*
X0052616Y0113510D02*
X0051381Y0112275D01*
X0050167Y0112892D02*
X0049550Y0112275D01*
X0048315Y0112275D01*
X0047698Y0112892D01*
X0047698Y0115361D01*
X0048315Y0115978D01*
X0049550Y0115978D01*
X0050167Y0115361D01*
X0050167Y0114744D01*
X0049550Y0114127D01*
X0047698Y0114127D01*
X0047586Y0114930D02*
X0044450Y0118066D01*
X0044450Y0116498D02*
X0047586Y0116498D01*
X0047586Y0118066D02*
X0044450Y0114930D01*
X0046018Y0114930D02*
X0046018Y0118066D01*
X0060550Y0132647D02*
X0060550Y0135733D01*
X0061167Y0136350D01*
X0062402Y0136350D01*
X0063019Y0135733D01*
X0063019Y0132647D01*
X0064233Y0133881D02*
X0065468Y0132647D01*
X0065468Y0136350D01*
X0066702Y0136350D02*
X0064233Y0136350D01*
X0082698Y0140392D02*
X0083315Y0139775D01*
X0084550Y0139775D01*
X0085167Y0140392D01*
X0085167Y0141010D01*
X0084550Y0141627D01*
X0083315Y0141627D01*
X0082698Y0141010D01*
X0082698Y0140392D01*
X0083315Y0141627D02*
X0082698Y0142244D01*
X0082698Y0142861D01*
X0083315Y0143478D01*
X0084550Y0143478D01*
X0085167Y0142861D01*
X0085167Y0142244D01*
X0084550Y0141627D01*
X0086381Y0141627D02*
X0086998Y0141010D01*
X0088850Y0141010D01*
X0087616Y0141010D02*
X0086381Y0139775D01*
X0086381Y0141627D02*
X0086381Y0142861D01*
X0086998Y0143478D01*
X0088850Y0143478D01*
X0088850Y0139775D01*
X0088233Y0130978D02*
X0086998Y0130978D01*
X0086381Y0130361D01*
X0085167Y0130361D02*
X0084550Y0130978D01*
X0083315Y0130978D01*
X0082698Y0130361D01*
X0082698Y0129744D01*
X0083315Y0129127D01*
X0082698Y0128510D01*
X0082698Y0127892D01*
X0083315Y0127275D01*
X0084550Y0127275D01*
X0085167Y0127892D01*
X0086381Y0127892D02*
X0086998Y0127275D01*
X0088233Y0127275D01*
X0088850Y0127892D01*
X0088850Y0130361D01*
X0088233Y0130978D01*
X0083932Y0129127D02*
X0083315Y0129127D01*
X0082698Y0123478D02*
X0083932Y0122861D01*
X0085167Y0121627D01*
X0083315Y0121627D01*
X0082698Y0121010D01*
X0082698Y0120392D01*
X0083315Y0119775D01*
X0084550Y0119775D01*
X0085167Y0120392D01*
X0085167Y0121627D01*
X0086381Y0122861D02*
X0086998Y0123478D01*
X0088233Y0123478D01*
X0088850Y0122861D01*
X0088850Y0120392D01*
X0088233Y0119775D01*
X0086998Y0119775D01*
X0086381Y0120392D01*
X0094640Y0121642D02*
X0095257Y0121025D01*
X0096492Y0121025D01*
X0097109Y0121642D01*
X0094640Y0124111D01*
X0094640Y0121642D01*
X0097109Y0121642D02*
X0097109Y0124111D01*
X0096492Y0124728D01*
X0095257Y0124728D01*
X0094640Y0124111D01*
X0098323Y0121025D02*
X0100792Y0121025D01*
X0102006Y0121025D02*
X0103241Y0122260D01*
X0102624Y0122260D02*
X0104475Y0122260D01*
X0104475Y0121025D02*
X0104475Y0124728D01*
X0102624Y0124728D01*
X0102006Y0124111D01*
X0102006Y0122877D01*
X0102624Y0122260D01*
X0100792Y0123494D02*
X0099558Y0124728D01*
X0099558Y0121025D01*
X0105142Y0097936D02*
X0104525Y0097318D01*
X0104525Y0096084D01*
X0105142Y0095467D01*
X0105759Y0095467D01*
X0106376Y0096084D01*
X0106376Y0097318D01*
X0105759Y0097936D01*
X0105142Y0097936D01*
X0106376Y0097318D02*
X0106994Y0097936D01*
X0107611Y0097936D01*
X0108228Y0097318D01*
X0108228Y0096084D01*
X0107611Y0095467D01*
X0106994Y0095467D01*
X0106376Y0096084D01*
X0104525Y0094252D02*
X0104525Y0091784D01*
X0104525Y0093018D02*
X0108228Y0093018D01*
X0106994Y0091784D01*
X0107611Y0090569D02*
X0108228Y0089952D01*
X0108228Y0088718D01*
X0107611Y0088101D01*
X0105142Y0088101D01*
X0104525Y0088718D01*
X0104525Y0089952D01*
X0105142Y0090569D01*
X0107132Y0058478D02*
X0106515Y0057861D01*
X0106515Y0057244D01*
X0107132Y0056627D01*
X0108367Y0056627D01*
X0108984Y0057244D01*
X0108984Y0057861D01*
X0108367Y0058478D01*
X0107132Y0058478D01*
X0107132Y0056627D02*
X0106515Y0056010D01*
X0106515Y0055392D01*
X0107132Y0054775D01*
X0108367Y0054775D01*
X0108984Y0055392D01*
X0108984Y0056010D01*
X0108367Y0056627D01*
X0110198Y0054775D02*
X0112667Y0054775D01*
X0113881Y0054775D02*
X0115116Y0056010D01*
X0114498Y0056010D02*
X0116350Y0056010D01*
X0116350Y0054775D02*
X0116350Y0058478D01*
X0114498Y0058478D01*
X0113881Y0057861D01*
X0113881Y0056627D01*
X0114498Y0056010D01*
X0112667Y0057244D02*
X0111432Y0058478D01*
X0111432Y0054775D01*
X0111432Y0050978D02*
X0111432Y0047275D01*
X0110198Y0047275D02*
X0112667Y0047275D01*
X0113881Y0047275D02*
X0115116Y0048510D01*
X0114498Y0048510D02*
X0116350Y0048510D01*
X0116350Y0047275D02*
X0116350Y0050978D01*
X0114498Y0050978D01*
X0113881Y0050361D01*
X0113881Y0049127D01*
X0114498Y0048510D01*
X0112667Y0049744D02*
X0111432Y0050978D01*
X0108984Y0050361D02*
X0108984Y0049744D01*
X0108367Y0049127D01*
X0106515Y0049127D01*
X0106515Y0050361D02*
X0107132Y0050978D01*
X0108367Y0050978D01*
X0108984Y0050361D01*
X0108984Y0047892D02*
X0108367Y0047275D01*
X0107132Y0047275D01*
X0106515Y0047892D01*
X0106515Y0050361D01*
X0103478Y0050950D02*
X0102861Y0050333D01*
X0103478Y0050950D02*
X0103478Y0052185D01*
X0102861Y0052802D01*
X0102244Y0052802D01*
X0099775Y0050333D01*
X0099775Y0052802D01*
X0099775Y0054016D02*
X0102244Y0056485D01*
X0102861Y0056485D01*
X0103478Y0055868D01*
X0103478Y0054633D01*
X0102861Y0054016D01*
X0099775Y0054016D02*
X0099775Y0056485D01*
X0099775Y0049119D02*
X0101010Y0047884D01*
X0101010Y0048502D02*
X0101010Y0046650D01*
X0099775Y0046650D02*
X0103478Y0046650D01*
X0103478Y0048502D01*
X0102861Y0049119D01*
X0101627Y0049119D01*
X0101010Y0048502D01*
X0100870Y0037186D02*
X0097734Y0034050D01*
X0097734Y0035618D02*
X0100870Y0035618D01*
X0100870Y0034050D02*
X0097734Y0037186D01*
X0099302Y0037186D02*
X0099302Y0034050D01*
X0094525Y0030436D02*
X0094525Y0027967D01*
X0094525Y0026752D02*
X0094525Y0024284D01*
X0096994Y0026752D01*
X0097611Y0026752D01*
X0098228Y0026135D01*
X0098228Y0024901D01*
X0097611Y0024284D01*
X0097611Y0023069D02*
X0096376Y0023069D01*
X0095759Y0022452D01*
X0095759Y0020601D01*
X0095759Y0021835D02*
X0094525Y0023069D01*
X0094525Y0020601D02*
X0098228Y0020601D01*
X0098228Y0022452D01*
X0097611Y0023069D01*
X0096994Y0027967D02*
X0098228Y0029201D01*
X0094525Y0029201D01*
X0114525Y0028584D02*
X0115142Y0027967D01*
X0117611Y0030436D01*
X0115142Y0030436D01*
X0114525Y0029818D01*
X0114525Y0028584D01*
X0115142Y0027967D02*
X0117611Y0027967D01*
X0118228Y0028584D01*
X0118228Y0029818D01*
X0117611Y0030436D01*
X0117734Y0031550D02*
X0120870Y0034686D01*
X0120384Y0034284D02*
X0119150Y0035519D01*
X0119767Y0035519D02*
X0119150Y0034902D01*
X0119150Y0033667D01*
X0119767Y0033050D01*
X0122236Y0033050D01*
X0122853Y0033667D01*
X0122853Y0034902D01*
X0122236Y0035519D01*
X0119767Y0035519D01*
X0119302Y0034686D02*
X0119302Y0031550D01*
X0120870Y0031550D02*
X0117734Y0034686D01*
X0117734Y0033118D02*
X0120870Y0033118D01*
X0121002Y0036733D02*
X0121619Y0037968D01*
X0121619Y0038585D01*
X0121002Y0039202D01*
X0119767Y0039202D01*
X0119150Y0038585D01*
X0119150Y0037350D01*
X0119767Y0036733D01*
X0121002Y0036733D02*
X0122853Y0036733D01*
X0122853Y0039202D01*
X0127025Y0037318D02*
X0127025Y0036084D01*
X0127642Y0035467D01*
X0127025Y0034252D02*
X0127025Y0031784D01*
X0129494Y0034252D01*
X0130111Y0034252D01*
X0130728Y0033635D01*
X0130728Y0032401D01*
X0130111Y0031784D01*
X0130111Y0030569D02*
X0128876Y0030569D01*
X0128259Y0029952D01*
X0128259Y0028101D01*
X0128259Y0029335D02*
X0127025Y0030569D01*
X0127025Y0028101D02*
X0130728Y0028101D01*
X0130728Y0029952D01*
X0130111Y0030569D01*
X0134525Y0027967D02*
X0135142Y0027967D01*
X0137611Y0030436D01*
X0138228Y0030436D01*
X0138228Y0027967D01*
X0138228Y0025518D02*
X0134525Y0025518D01*
X0134525Y0024284D02*
X0134525Y0026752D01*
X0136994Y0024284D02*
X0138228Y0025518D01*
X0137611Y0023069D02*
X0136376Y0023069D01*
X0135759Y0022452D01*
X0135759Y0020601D01*
X0135759Y0021835D02*
X0134525Y0023069D01*
X0134525Y0020601D02*
X0138228Y0020601D01*
X0138228Y0022452D01*
X0137611Y0023069D01*
X0130111Y0035467D02*
X0130728Y0036084D01*
X0130728Y0037318D01*
X0130111Y0037936D01*
X0129494Y0037936D01*
X0128876Y0037318D01*
X0128259Y0037936D01*
X0127642Y0037936D01*
X0127025Y0037318D01*
X0128876Y0037318D02*
X0128876Y0036701D01*
X0140234Y0041550D02*
X0143370Y0044686D01*
X0143370Y0043118D02*
X0140234Y0043118D01*
X0140234Y0044686D02*
X0143370Y0041550D01*
X0141802Y0041550D02*
X0141802Y0044686D01*
X0142267Y0050550D02*
X0141650Y0051167D01*
X0141650Y0052402D01*
X0142267Y0053019D01*
X0144736Y0053019D01*
X0145353Y0052402D01*
X0145353Y0051167D01*
X0144736Y0050550D01*
X0142267Y0050550D01*
X0142884Y0051784D02*
X0141650Y0053019D01*
X0143502Y0054233D02*
X0143502Y0056702D01*
X0145353Y0056085D02*
X0143502Y0054233D01*
X0145353Y0056085D02*
X0141650Y0056085D01*
X0154150Y0046085D02*
X0154767Y0046702D01*
X0155384Y0046702D01*
X0156002Y0046085D01*
X0156002Y0045468D01*
X0156002Y0046085D02*
X0156619Y0046702D01*
X0157236Y0046702D01*
X0157853Y0046085D01*
X0157853Y0044850D01*
X0157236Y0044233D01*
X0157236Y0043019D02*
X0154767Y0043019D01*
X0154150Y0042402D01*
X0154150Y0041167D01*
X0154767Y0040550D01*
X0157236Y0040550D01*
X0157853Y0041167D01*
X0157853Y0042402D01*
X0157236Y0043019D01*
X0155384Y0041784D02*
X0154150Y0043019D01*
X0154767Y0044233D02*
X0154150Y0044850D01*
X0154150Y0046085D01*
X0154302Y0037186D02*
X0154302Y0034050D01*
X0155870Y0034050D02*
X0152734Y0037186D01*
X0152734Y0035618D02*
X0155870Y0035618D01*
X0155870Y0037186D02*
X0152734Y0034050D01*
X0118228Y0026135D02*
X0118228Y0024901D01*
X0117611Y0024284D01*
X0117611Y0023069D02*
X0116376Y0023069D01*
X0115759Y0022452D01*
X0115759Y0020601D01*
X0115759Y0021835D02*
X0114525Y0023069D01*
X0114525Y0024284D02*
X0116994Y0026752D01*
X0117611Y0026752D01*
X0118228Y0026135D01*
X0114525Y0026752D02*
X0114525Y0024284D01*
X0117611Y0023069D02*
X0118228Y0022452D01*
X0118228Y0020601D01*
X0114525Y0020601D01*
X0083850Y0041915D02*
X0083233Y0041298D01*
X0082616Y0041298D01*
X0081998Y0041915D01*
X0081998Y0043767D01*
X0083233Y0043767D01*
X0083850Y0043150D01*
X0083850Y0041915D01*
X0081998Y0043767D02*
X0080764Y0042532D01*
X0080147Y0041298D01*
X0080764Y0044981D02*
X0083233Y0044981D01*
X0083850Y0045598D01*
X0083850Y0046833D01*
X0083233Y0047450D01*
X0080764Y0047450D01*
X0080147Y0046833D01*
X0080147Y0045598D01*
X0080764Y0044981D01*
X0082616Y0046216D02*
X0083850Y0044981D01*
X0053350Y0058698D02*
X0053350Y0061167D01*
X0050881Y0058698D01*
X0050264Y0058698D01*
X0049647Y0059315D01*
X0049647Y0060550D01*
X0050264Y0061167D01*
X0049647Y0062381D02*
X0052733Y0062381D01*
X0053350Y0062998D01*
X0053350Y0064233D01*
X0052733Y0064850D01*
X0049647Y0064850D01*
X0052030Y0069114D02*
X0055166Y0072250D01*
X0053598Y0072250D02*
X0053598Y0069114D01*
X0055166Y0069114D02*
X0052030Y0072250D01*
X0052030Y0070682D02*
X0055166Y0070682D01*
X0077564Y0157025D02*
X0080033Y0157025D01*
X0077564Y0159494D01*
X0077564Y0160111D01*
X0078182Y0160728D01*
X0079416Y0160728D01*
X0080033Y0160111D01*
X0081248Y0160111D02*
X0081248Y0158876D01*
X0081865Y0158259D01*
X0083716Y0158259D01*
X0082482Y0158259D02*
X0081248Y0157025D01*
X0083716Y0157025D02*
X0083716Y0160728D01*
X0081865Y0160728D01*
X0081248Y0160111D01*
X0095198Y0160392D02*
X0095815Y0159775D01*
X0097050Y0159775D01*
X0097667Y0160392D01*
X0098881Y0159775D02*
X0100116Y0161010D01*
X0099498Y0161010D02*
X0101350Y0161010D01*
X0101350Y0159775D02*
X0101350Y0163478D01*
X0099498Y0163478D01*
X0098881Y0162861D01*
X0098881Y0161627D01*
X0099498Y0161010D01*
X0097667Y0162861D02*
X0097050Y0163478D01*
X0095815Y0163478D01*
X0095198Y0162861D01*
X0095198Y0162244D01*
X0095815Y0161627D01*
X0095198Y0161010D01*
X0095198Y0160392D01*
X0095815Y0161627D02*
X0096432Y0161627D01*
X0083233Y0187900D02*
X0081998Y0187900D01*
X0081381Y0188517D01*
X0080167Y0187900D02*
X0077698Y0187900D01*
X0078932Y0187900D02*
X0078932Y0191603D01*
X0080167Y0190369D01*
X0081381Y0190986D02*
X0081998Y0191603D01*
X0083233Y0191603D01*
X0083850Y0190986D01*
X0083850Y0188517D01*
X0083233Y0187900D01*
X0076484Y0188517D02*
X0075867Y0187900D01*
X0074632Y0187900D01*
X0074015Y0188517D01*
X0074015Y0190986D01*
X0074632Y0191603D01*
X0075867Y0191603D01*
X0076484Y0190986D01*
X0076484Y0190369D01*
X0075867Y0189752D01*
X0074015Y0189752D01*
X0051216Y0163228D02*
X0049365Y0163228D01*
X0048748Y0162611D01*
X0048748Y0161376D01*
X0049365Y0160759D01*
X0051216Y0160759D01*
X0049982Y0160759D02*
X0048748Y0159525D01*
X0047533Y0159525D02*
X0045064Y0159525D01*
X0046299Y0159525D02*
X0046299Y0163228D01*
X0047533Y0161994D01*
X0051216Y0163228D02*
X0051216Y0159525D01*
X0247025Y0048594D02*
X0247025Y0046125D01*
X0249494Y0048594D01*
X0250111Y0048594D01*
X0250728Y0047977D01*
X0250728Y0046742D01*
X0250111Y0046125D01*
X0250728Y0044911D02*
X0250728Y0042442D01*
X0250728Y0043677D02*
X0247025Y0043677D01*
X0247025Y0041228D02*
X0248259Y0039993D01*
X0248259Y0040611D02*
X0248259Y0038759D01*
X0247025Y0038759D02*
X0250728Y0038759D01*
X0250728Y0040611D01*
X0250111Y0041228D01*
X0248876Y0041228D01*
X0248259Y0040611D01*
X0249494Y0049808D02*
X0250111Y0050426D01*
X0251345Y0050426D01*
X0254015Y0052275D02*
X0256484Y0052275D01*
X0255249Y0052275D02*
X0255249Y0055978D01*
X0256484Y0054744D01*
X0257698Y0055978D02*
X0260167Y0055978D01*
X0258932Y0055978D02*
X0258932Y0052275D01*
X0261381Y0052275D02*
X0262616Y0053510D01*
X0261998Y0053510D02*
X0263850Y0053510D01*
X0263850Y0052275D02*
X0263850Y0055978D01*
X0261998Y0055978D01*
X0261381Y0055361D01*
X0261381Y0054127D01*
X0261998Y0053510D01*
X0252801Y0054744D02*
X0252183Y0055361D01*
X0252183Y0056596D01*
X0255682Y0069525D02*
X0255064Y0070142D01*
X0255064Y0070759D01*
X0255682Y0071376D01*
X0257533Y0071376D01*
X0257533Y0070142D01*
X0256916Y0069525D01*
X0255682Y0069525D01*
X0257533Y0071376D02*
X0256299Y0072611D01*
X0255064Y0073228D01*
X0259982Y0073228D02*
X0259982Y0069525D01*
X0261216Y0069525D02*
X0258748Y0069525D01*
X0262431Y0070142D02*
X0263048Y0069525D01*
X0264282Y0069525D01*
X0264899Y0070142D01*
X0264899Y0072611D01*
X0264282Y0073228D01*
X0263048Y0073228D01*
X0262431Y0072611D01*
X0261216Y0071994D02*
X0259982Y0073228D01*
X0302025Y0086218D02*
X0302025Y0087452D01*
X0302642Y0088069D01*
X0302025Y0089284D02*
X0304494Y0091752D01*
X0305111Y0091752D01*
X0305728Y0091135D01*
X0305728Y0089901D01*
X0305111Y0089284D01*
X0305111Y0088069D02*
X0305728Y0087452D01*
X0305728Y0086218D01*
X0305111Y0085601D01*
X0302642Y0085601D01*
X0302025Y0086218D01*
X0302025Y0089284D02*
X0302025Y0091752D01*
X0302025Y0092967D02*
X0302025Y0095436D01*
X0302025Y0094201D02*
X0305728Y0094201D01*
X0304494Y0092967D01*
X0267399Y0110142D02*
X0266782Y0109525D01*
X0265548Y0109525D01*
X0264931Y0110142D01*
X0263716Y0109525D02*
X0261248Y0109525D01*
X0262482Y0109525D02*
X0262482Y0113228D01*
X0263716Y0111994D01*
X0264931Y0112611D02*
X0265548Y0113228D01*
X0266782Y0113228D01*
X0267399Y0112611D01*
X0267399Y0110142D01*
X0260033Y0110142D02*
X0259416Y0109525D01*
X0258182Y0109525D01*
X0257564Y0110142D01*
X0257564Y0111376D01*
X0258182Y0111994D01*
X0258799Y0111994D01*
X0260033Y0111376D01*
X0260033Y0113228D01*
X0257564Y0113228D01*
X0257749Y0127275D02*
X0257749Y0130978D01*
X0258984Y0129744D01*
X0260198Y0130978D02*
X0262667Y0130978D01*
X0261432Y0130978D02*
X0261432Y0127275D01*
X0258984Y0127275D02*
X0256515Y0127275D01*
X0250978Y0129150D02*
X0250978Y0131002D01*
X0250361Y0131619D01*
X0249127Y0131619D01*
X0248510Y0131002D01*
X0248510Y0129150D01*
X0248510Y0130384D02*
X0247275Y0131619D01*
X0247275Y0134068D02*
X0250978Y0134068D01*
X0250978Y0135302D02*
X0250978Y0132833D01*
X0250978Y0129150D02*
X0247275Y0129150D01*
X0247275Y0136516D02*
X0249744Y0138985D01*
X0250361Y0138985D01*
X0250978Y0138368D01*
X0250978Y0137133D01*
X0250361Y0136516D01*
X0247275Y0136516D02*
X0247275Y0138985D01*
X0263881Y0130361D02*
X0263881Y0129127D01*
X0264498Y0128510D01*
X0266350Y0128510D01*
X0265116Y0128510D02*
X0263881Y0127275D01*
X0266350Y0127275D02*
X0266350Y0130978D01*
X0264498Y0130978D01*
X0263881Y0130361D01*
D12*
X0259000Y0125500D02*
X0259000Y0122500D01*
X0259000Y0118000D02*
X0259000Y0115000D01*
X0255500Y0134000D02*
X0252500Y0134000D01*
X0307500Y0091500D02*
X0310500Y0091500D01*
X0259000Y0068000D02*
X0259000Y0065000D01*
X0259000Y0060500D02*
X0259000Y0057500D01*
X0255500Y0046500D02*
X0252500Y0046500D01*
X0143000Y0026500D02*
X0140000Y0026500D01*
X0135500Y0034000D02*
X0132500Y0034000D01*
X0123000Y0026500D02*
X0120000Y0026500D01*
X0103000Y0026500D02*
X0100000Y0026500D01*
X0100000Y0041500D02*
X0103000Y0041500D01*
X0121500Y0045000D02*
X0121500Y0048000D01*
X0121500Y0052500D02*
X0121500Y0055500D01*
X0073000Y0059000D02*
X0070000Y0059000D01*
X0061500Y0053000D02*
X0061500Y0050000D01*
X0064000Y0075000D02*
X0064000Y0078000D01*
X0064000Y0082500D02*
X0064000Y0085500D01*
X0061500Y0097500D02*
X0061500Y0100500D01*
X0061500Y0104000D02*
X0061500Y0109000D01*
X0059000Y0112500D02*
X0059000Y0115500D01*
X0076500Y0120000D02*
X0076500Y0123000D01*
X0076500Y0127500D02*
X0076500Y0130500D01*
X0076500Y0135000D02*
X0076500Y0138000D01*
X0099000Y0119000D02*
X0099000Y0114000D01*
X0110000Y0094000D02*
X0113000Y0094000D01*
X0081500Y0162500D02*
X0081500Y0165500D01*
X0096500Y0165000D02*
X0096500Y0168000D01*
X0093000Y0176500D02*
X0090000Y0176500D01*
X0079000Y0181500D02*
X0079000Y0186500D01*
X0049000Y0168000D02*
X0049000Y0165000D01*
D13*
X0055400Y0065200D02*
X0055469Y0065198D01*
X0055537Y0065192D01*
X0055605Y0065182D01*
X0055672Y0065169D01*
X0055738Y0065151D01*
X0055803Y0065130D01*
X0055867Y0065105D01*
X0055929Y0065077D01*
X0055990Y0065045D01*
X0056049Y0065010D01*
X0056105Y0064971D01*
X0056160Y0064929D01*
X0056211Y0064884D01*
X0056261Y0064836D01*
X0056307Y0064786D01*
X0056350Y0064733D01*
X0056391Y0064677D01*
X0056428Y0064620D01*
X0056461Y0064560D01*
X0056492Y0064498D01*
X0056518Y0064435D01*
X0056541Y0064371D01*
X0056561Y0064305D01*
X0056576Y0064238D01*
X0056588Y0064171D01*
X0056596Y0064103D01*
X0056600Y0064034D01*
X0056600Y0063966D01*
X0056596Y0063897D01*
X0056588Y0063829D01*
X0056576Y0063762D01*
X0056561Y0063695D01*
X0056541Y0063629D01*
X0056518Y0063565D01*
X0056492Y0063502D01*
X0056461Y0063440D01*
X0056428Y0063380D01*
X0056391Y0063323D01*
X0056350Y0063267D01*
X0056307Y0063214D01*
X0056261Y0063164D01*
X0056211Y0063116D01*
X0056160Y0063071D01*
X0056105Y0063029D01*
X0056049Y0062990D01*
X0055990Y0062955D01*
X0055929Y0062923D01*
X0055867Y0062895D01*
X0055803Y0062870D01*
X0055738Y0062849D01*
X0055672Y0062831D01*
X0055605Y0062818D01*
X0055537Y0062808D01*
X0055469Y0062802D01*
X0055400Y0062800D01*
D14*
X0095526Y0176850D02*
X0094975Y0177400D01*
X0094975Y0178501D01*
X0095526Y0179052D01*
X0096627Y0180533D02*
X0096627Y0182735D01*
X0098278Y0182185D02*
X0094975Y0182185D01*
X0096627Y0180533D02*
X0098278Y0182185D01*
X0097728Y0179052D02*
X0098278Y0178501D01*
X0098278Y0177400D01*
X0097728Y0176850D01*
X0095526Y0176850D01*
M02*
