G75*
%MOIN*%
%OFA0B0*%
%FSLAX25Y25*%
%IPPOS*%
%LPD*%
%AMOC8*
5,1,8,0,0,1.08239X$1,22.5*
%
%ADD10C,0.04400*%
%ADD11C,0.01040*%
%ADD12C,0.06000*%
%ADD13C,0.10000*%
%ADD14OC8,0.06000*%
%ADD15R,0.05118X0.05906*%
%ADD16C,0.01200*%
%ADD17C,0.02978*%
%ADD18C,0.00600*%
%ADD19C,0.00800*%
%ADD20C,0.02000*%
%ADD21C,0.01000*%
D10*
X0221344Y0324100D03*
X0221344Y0334100D03*
X0221344Y0344100D03*
D11*
X0252685Y0234612D02*
X0253205Y0234092D01*
X0251483Y0234092D01*
X0250265Y0235310D01*
X0250265Y0237032D01*
X0251483Y0238250D01*
X0253205Y0238250D01*
X0254423Y0237032D01*
X0254423Y0235310D01*
X0253205Y0234092D01*
X0252882Y0234872D01*
X0251806Y0234872D01*
X0251045Y0235633D01*
X0251045Y0236709D01*
X0251806Y0237470D01*
X0252882Y0237470D01*
X0253643Y0236709D01*
X0253643Y0235633D01*
X0252882Y0234872D01*
X0252559Y0235652D01*
X0252129Y0235652D01*
X0251825Y0235956D01*
X0251825Y0236386D01*
X0252129Y0236690D01*
X0252559Y0236690D01*
X0252863Y0236386D01*
X0252863Y0235956D01*
X0252559Y0235652D01*
X0245614Y0227541D02*
X0246134Y0227021D01*
X0244412Y0227021D01*
X0243194Y0228239D01*
X0243194Y0229961D01*
X0244412Y0231179D01*
X0246134Y0231179D01*
X0247352Y0229961D01*
X0247352Y0228239D01*
X0246134Y0227021D01*
X0245811Y0227801D01*
X0244735Y0227801D01*
X0243974Y0228562D01*
X0243974Y0229638D01*
X0244735Y0230399D01*
X0245811Y0230399D01*
X0246572Y0229638D01*
X0246572Y0228562D01*
X0245811Y0227801D01*
X0245488Y0228581D01*
X0245058Y0228581D01*
X0244754Y0228885D01*
X0244754Y0229315D01*
X0245058Y0229619D01*
X0245488Y0229619D01*
X0245792Y0229315D01*
X0245792Y0228885D01*
X0245488Y0228581D01*
X0252685Y0220470D02*
X0253205Y0219950D01*
X0251483Y0219950D01*
X0250265Y0221168D01*
X0250265Y0222890D01*
X0251483Y0224108D01*
X0253205Y0224108D01*
X0254423Y0222890D01*
X0254423Y0221168D01*
X0253205Y0219950D01*
X0252882Y0220730D01*
X0251806Y0220730D01*
X0251045Y0221491D01*
X0251045Y0222567D01*
X0251806Y0223328D01*
X0252882Y0223328D01*
X0253643Y0222567D01*
X0253643Y0221491D01*
X0252882Y0220730D01*
X0252559Y0221510D01*
X0252129Y0221510D01*
X0251825Y0221814D01*
X0251825Y0222244D01*
X0252129Y0222548D01*
X0252559Y0222548D01*
X0252863Y0222244D01*
X0252863Y0221814D01*
X0252559Y0221510D01*
X0259756Y0227541D02*
X0260276Y0227021D01*
X0258554Y0227021D01*
X0257336Y0228239D01*
X0257336Y0229961D01*
X0258554Y0231179D01*
X0260276Y0231179D01*
X0261494Y0229961D01*
X0261494Y0228239D01*
X0260276Y0227021D01*
X0259953Y0227801D01*
X0258877Y0227801D01*
X0258116Y0228562D01*
X0258116Y0229638D01*
X0258877Y0230399D01*
X0259953Y0230399D01*
X0260714Y0229638D01*
X0260714Y0228562D01*
X0259953Y0227801D01*
X0259630Y0228581D01*
X0259200Y0228581D01*
X0258896Y0228885D01*
X0258896Y0229315D01*
X0259200Y0229619D01*
X0259630Y0229619D01*
X0259934Y0229315D01*
X0259934Y0228885D01*
X0259630Y0228581D01*
D12*
X0264344Y0281100D02*
X0264344Y0287100D01*
X0254344Y0287100D02*
X0254344Y0281100D01*
X0195844Y0190600D02*
X0195844Y0184600D01*
X0185844Y0184600D02*
X0185844Y0190600D01*
X0175844Y0190600D02*
X0175844Y0184600D01*
X0147344Y0245600D02*
X0147344Y0251600D01*
X0137344Y0251600D02*
X0137344Y0245600D01*
X0106844Y0245600D02*
X0106844Y0251600D01*
X0096844Y0251600D02*
X0096844Y0245600D01*
X0097344Y0170600D02*
X0097344Y0164600D01*
X0107344Y0164600D02*
X0107344Y0170600D01*
X0117344Y0094100D02*
X0117344Y0088100D01*
X0127344Y0088100D02*
X0127344Y0094100D01*
X0137344Y0094100D02*
X0137344Y0088100D01*
X0147344Y0088100D02*
X0147344Y0094100D01*
X0157344Y0094100D02*
X0157344Y0088100D01*
X0338537Y0072966D02*
X0338537Y0066966D01*
X0348537Y0066966D02*
X0348537Y0072966D01*
X0358537Y0072966D02*
X0358537Y0066966D01*
X0420907Y0094100D02*
X0426907Y0094100D01*
X0426907Y0104100D02*
X0420907Y0104100D01*
X0420844Y0314100D02*
X0426844Y0314100D01*
X0426844Y0324100D02*
X0420844Y0324100D01*
X0420844Y0334100D02*
X0426844Y0334100D01*
X0292466Y0386100D02*
X0292466Y0392100D01*
X0282466Y0392100D02*
X0282466Y0386100D01*
X0272466Y0386100D02*
X0272466Y0392100D01*
X0253344Y0386600D02*
X0253344Y0380600D01*
X0243344Y0380600D02*
X0243344Y0386600D01*
X0191844Y0382100D02*
X0191844Y0376100D01*
X0181844Y0376100D02*
X0181844Y0382100D01*
X0171844Y0382100D02*
X0171844Y0376100D01*
D13*
X0406844Y0269100D03*
X0416844Y0259100D03*
X0406844Y0249100D03*
X0426844Y0249100D03*
X0426844Y0269100D03*
X0427313Y0214100D03*
X0417313Y0204100D03*
X0427313Y0194100D03*
X0407313Y0194100D03*
X0407313Y0214100D03*
X0407313Y0159100D03*
X0417313Y0149100D03*
X0427313Y0139100D03*
X0427313Y0159100D03*
X0407313Y0139100D03*
D14*
X0207344Y0224600D03*
X0197344Y0224600D03*
X0197344Y0234600D03*
X0197344Y0244600D03*
X0197344Y0254600D03*
X0207344Y0254600D03*
X0207344Y0244600D03*
X0207344Y0234600D03*
X0156844Y0164600D03*
X0146844Y0164600D03*
X0146844Y0154600D03*
X0146844Y0144600D03*
X0156844Y0144600D03*
X0156844Y0154600D03*
D15*
X0219604Y0202100D03*
X0227084Y0202100D03*
D16*
X0227684Y0202509D02*
X0273144Y0202509D01*
X0273144Y0201311D02*
X0231243Y0201311D01*
X0231243Y0201500D02*
X0227684Y0201500D01*
X0227684Y0197547D01*
X0229854Y0197547D01*
X0230261Y0197656D01*
X0230626Y0197867D01*
X0230924Y0198165D01*
X0231134Y0198530D01*
X0231243Y0198937D01*
X0231243Y0201500D01*
X0231243Y0202700D02*
X0231243Y0205263D01*
X0231134Y0205670D01*
X0230924Y0206035D01*
X0230626Y0206333D01*
X0230261Y0206544D01*
X0229854Y0206653D01*
X0227684Y0206653D01*
X0227684Y0202700D01*
X0226484Y0202700D01*
X0226484Y0206653D01*
X0224344Y0206653D01*
X0224344Y0268600D01*
X0176403Y0268600D01*
X0148844Y0296159D01*
X0148844Y0354100D01*
X0077066Y0354100D01*
X0077066Y0416547D01*
X0432039Y0416547D01*
X0432039Y0273239D01*
X0430583Y0274695D01*
X0428157Y0275700D01*
X0425531Y0275700D01*
X0423105Y0274695D01*
X0421249Y0272839D01*
X0420244Y0270413D01*
X0420244Y0267787D01*
X0421249Y0265361D01*
X0423105Y0263505D01*
X0425531Y0262500D01*
X0428157Y0262500D01*
X0430583Y0263505D01*
X0432039Y0264961D01*
X0432039Y0253239D01*
X0430583Y0254695D01*
X0428157Y0255700D01*
X0425531Y0255700D01*
X0423105Y0254695D01*
X0421249Y0252839D01*
X0420244Y0250413D01*
X0420244Y0247787D01*
X0421249Y0245361D01*
X0423105Y0243505D01*
X0425531Y0242500D01*
X0428157Y0242500D01*
X0430583Y0243505D01*
X0432039Y0244961D01*
X0432039Y0218707D01*
X0431674Y0219073D01*
X0430987Y0219599D01*
X0430238Y0220032D01*
X0429439Y0220363D01*
X0428603Y0220587D01*
X0427913Y0220678D01*
X0427913Y0214700D01*
X0426713Y0214700D01*
X0426713Y0220678D01*
X0426022Y0220587D01*
X0425187Y0220363D01*
X0424387Y0220032D01*
X0423638Y0219599D01*
X0422952Y0219073D01*
X0422340Y0218461D01*
X0421813Y0217775D01*
X0421381Y0217025D01*
X0421049Y0216226D01*
X0420826Y0215390D01*
X0420735Y0214700D01*
X0426713Y0214700D01*
X0426713Y0213500D01*
X0427913Y0213500D01*
X0427913Y0207522D01*
X0428603Y0207613D01*
X0429439Y0207837D01*
X0430238Y0208168D01*
X0430987Y0208601D01*
X0431674Y0209127D01*
X0432039Y0209493D01*
X0432039Y0198707D01*
X0431674Y0199073D01*
X0430987Y0199599D01*
X0430238Y0200032D01*
X0429439Y0200363D01*
X0428603Y0200587D01*
X0427913Y0200678D01*
X0427913Y0194700D01*
X0426713Y0194700D01*
X0426713Y0200678D01*
X0426022Y0200587D01*
X0425187Y0200363D01*
X0424387Y0200032D01*
X0423638Y0199599D01*
X0422952Y0199073D01*
X0422340Y0198461D01*
X0421813Y0197775D01*
X0421381Y0197025D01*
X0421049Y0196226D01*
X0420826Y0195390D01*
X0420735Y0194700D01*
X0426713Y0194700D01*
X0426713Y0193500D01*
X0427913Y0193500D01*
X0427913Y0187522D01*
X0428603Y0187613D01*
X0429439Y0187837D01*
X0430238Y0188168D01*
X0430987Y0188601D01*
X0431674Y0189127D01*
X0432039Y0189493D01*
X0432039Y0163707D01*
X0431674Y0164073D01*
X0430987Y0164599D01*
X0430238Y0165032D01*
X0429439Y0165363D01*
X0428603Y0165587D01*
X0427913Y0165678D01*
X0427913Y0159700D01*
X0426713Y0159700D01*
X0426713Y0165678D01*
X0426022Y0165587D01*
X0425187Y0165363D01*
X0424387Y0165032D01*
X0423638Y0164599D01*
X0422952Y0164073D01*
X0422340Y0163461D01*
X0421813Y0162775D01*
X0421381Y0162025D01*
X0421049Y0161226D01*
X0420826Y0160390D01*
X0420735Y0159700D01*
X0426713Y0159700D01*
X0426713Y0158500D01*
X0427913Y0158500D01*
X0427913Y0152522D01*
X0428603Y0152613D01*
X0429439Y0152837D01*
X0430238Y0153168D01*
X0430987Y0153601D01*
X0431674Y0154127D01*
X0432039Y0154493D01*
X0432039Y0143707D01*
X0431674Y0144073D01*
X0430987Y0144599D01*
X0430238Y0145032D01*
X0429439Y0145363D01*
X0428603Y0145587D01*
X0427913Y0145678D01*
X0427913Y0139700D01*
X0426713Y0139700D01*
X0426713Y0145678D01*
X0426022Y0145587D01*
X0425187Y0145363D01*
X0424387Y0145032D01*
X0423638Y0144599D01*
X0422952Y0144073D01*
X0422340Y0143461D01*
X0421813Y0142775D01*
X0421381Y0142025D01*
X0421049Y0141226D01*
X0420826Y0140390D01*
X0420735Y0139700D01*
X0426713Y0139700D01*
X0426713Y0138500D01*
X0427913Y0138500D01*
X0427913Y0132522D01*
X0428603Y0132613D01*
X0429439Y0132837D01*
X0430238Y0133168D01*
X0430987Y0133601D01*
X0431674Y0134127D01*
X0432039Y0134493D01*
X0432039Y0053700D01*
X0172844Y0053700D01*
X0172844Y0144100D01*
X0224344Y0195600D01*
X0224344Y0197547D01*
X0226484Y0197547D01*
X0226484Y0201500D01*
X0227684Y0201500D01*
X0227684Y0202700D01*
X0231243Y0202700D01*
X0231243Y0203708D02*
X0273144Y0203708D01*
X0273144Y0204906D02*
X0231243Y0204906D01*
X0230854Y0206105D02*
X0273144Y0206105D01*
X0273144Y0207303D02*
X0224344Y0207303D01*
X0224344Y0208502D02*
X0273144Y0208502D01*
X0273144Y0209701D02*
X0224344Y0209701D01*
X0224344Y0210899D02*
X0273144Y0210899D01*
X0273144Y0212098D02*
X0224344Y0212098D01*
X0224344Y0213296D02*
X0273144Y0213296D01*
X0273144Y0214495D02*
X0224344Y0214495D01*
X0224344Y0215693D02*
X0273144Y0215693D01*
X0273144Y0216892D02*
X0224344Y0216892D01*
X0224344Y0218090D02*
X0250343Y0218090D01*
X0250604Y0217829D02*
X0254084Y0217829D01*
X0256544Y0220289D01*
X0256544Y0223769D01*
X0254084Y0226229D01*
X0250604Y0226229D01*
X0248144Y0223769D01*
X0248144Y0220289D01*
X0250604Y0217829D01*
X0249145Y0219289D02*
X0224344Y0219289D01*
X0224344Y0220487D02*
X0248144Y0220487D01*
X0248144Y0221686D02*
X0224344Y0221686D01*
X0224344Y0222884D02*
X0248144Y0222884D01*
X0248458Y0224083D02*
X0224344Y0224083D01*
X0224344Y0225281D02*
X0243152Y0225281D01*
X0243533Y0224900D02*
X0247013Y0224900D01*
X0249473Y0227360D01*
X0249473Y0230840D01*
X0247013Y0233300D01*
X0243533Y0233300D01*
X0241073Y0230840D01*
X0241073Y0227360D01*
X0243533Y0224900D01*
X0241954Y0226480D02*
X0224344Y0226480D01*
X0224344Y0227678D02*
X0241073Y0227678D01*
X0241073Y0228877D02*
X0224344Y0228877D01*
X0224344Y0230075D02*
X0241073Y0230075D01*
X0241507Y0231274D02*
X0224344Y0231274D01*
X0224344Y0232472D02*
X0242706Y0232472D01*
X0247840Y0232472D02*
X0250103Y0232472D01*
X0250604Y0231971D02*
X0254084Y0231971D01*
X0256544Y0234431D01*
X0256544Y0237911D01*
X0254084Y0240371D01*
X0250604Y0240371D01*
X0248144Y0237911D01*
X0248144Y0234431D01*
X0250604Y0231971D01*
X0249039Y0231274D02*
X0255649Y0231274D01*
X0255215Y0230840D02*
X0255215Y0227360D01*
X0257675Y0224900D01*
X0261155Y0224900D01*
X0263615Y0227360D01*
X0263615Y0230840D01*
X0261155Y0233300D01*
X0257675Y0233300D01*
X0255215Y0230840D01*
X0255215Y0230075D02*
X0249473Y0230075D01*
X0249473Y0228877D02*
X0255215Y0228877D01*
X0255215Y0227678D02*
X0249473Y0227678D01*
X0248592Y0226480D02*
X0256096Y0226480D01*
X0255032Y0225281D02*
X0257294Y0225281D01*
X0256230Y0224083D02*
X0273144Y0224083D01*
X0273144Y0224432D02*
X0273144Y0197268D01*
X0272725Y0196850D01*
X0272255Y0195714D01*
X0272255Y0194486D01*
X0272725Y0193350D01*
X0273594Y0192481D01*
X0274730Y0192011D01*
X0275959Y0192011D01*
X0277094Y0192481D01*
X0277963Y0193350D01*
X0278433Y0194486D01*
X0278433Y0195714D01*
X0277963Y0196850D01*
X0277544Y0197268D01*
X0277544Y0224432D01*
X0277963Y0224850D01*
X0278433Y0225986D01*
X0278433Y0227214D01*
X0277963Y0228350D01*
X0277094Y0229219D01*
X0275959Y0229689D01*
X0274730Y0229689D01*
X0273594Y0229219D01*
X0272725Y0228350D01*
X0272255Y0227214D01*
X0272255Y0225986D01*
X0272725Y0224850D01*
X0273144Y0224432D01*
X0272547Y0225281D02*
X0261536Y0225281D01*
X0262735Y0226480D02*
X0272255Y0226480D01*
X0272447Y0227678D02*
X0263615Y0227678D01*
X0263615Y0228877D02*
X0273252Y0228877D01*
X0275344Y0226600D02*
X0275344Y0195100D01*
X0273154Y0192921D02*
X0221665Y0192921D01*
X0220467Y0191723D02*
X0393966Y0191723D01*
X0393755Y0191214D02*
X0393755Y0189986D01*
X0394225Y0188850D01*
X0394644Y0188432D01*
X0394644Y0181011D01*
X0394433Y0180800D01*
X0386513Y0180800D01*
X0386094Y0181219D01*
X0384959Y0181689D01*
X0383730Y0181689D01*
X0382594Y0181219D01*
X0381725Y0180350D01*
X0381255Y0179214D01*
X0381255Y0177986D01*
X0381725Y0176850D01*
X0382594Y0175981D01*
X0383730Y0175511D01*
X0384959Y0175511D01*
X0386094Y0175981D01*
X0386513Y0176400D01*
X0396255Y0176400D01*
X0397755Y0177900D01*
X0399044Y0179189D01*
X0399044Y0188432D01*
X0399463Y0188850D01*
X0399933Y0189986D01*
X0399933Y0191214D01*
X0399463Y0192350D01*
X0398594Y0193219D01*
X0397459Y0193689D01*
X0396230Y0193689D01*
X0395094Y0193219D01*
X0394225Y0192350D01*
X0393755Y0191214D01*
X0393755Y0190524D02*
X0219268Y0190524D01*
X0218070Y0189326D02*
X0394028Y0189326D01*
X0394644Y0188127D02*
X0216871Y0188127D01*
X0215673Y0186929D02*
X0394644Y0186929D01*
X0394644Y0185730D02*
X0214474Y0185730D01*
X0213276Y0184532D02*
X0335907Y0184532D01*
X0335725Y0184350D02*
X0335255Y0183214D01*
X0335255Y0181986D01*
X0335725Y0180850D01*
X0336144Y0180432D01*
X0336144Y0174689D01*
X0340144Y0170689D01*
X0341433Y0169400D01*
X0343676Y0169400D01*
X0344094Y0168981D01*
X0345230Y0168511D01*
X0346459Y0168511D01*
X0347594Y0168981D01*
X0348463Y0169850D01*
X0348933Y0170986D01*
X0348933Y0172214D01*
X0348463Y0173350D01*
X0347594Y0174219D01*
X0346459Y0174689D01*
X0345230Y0174689D01*
X0344094Y0174219D01*
X0343676Y0173800D01*
X0343255Y0173800D01*
X0340544Y0176511D01*
X0340544Y0180432D01*
X0340963Y0180850D01*
X0341433Y0181986D01*
X0341433Y0183214D01*
X0340963Y0184350D01*
X0340094Y0185219D01*
X0338959Y0185689D01*
X0337730Y0185689D01*
X0336594Y0185219D01*
X0335725Y0184350D01*
X0335304Y0183333D02*
X0212077Y0183333D01*
X0210879Y0182135D02*
X0335255Y0182135D01*
X0335690Y0180936D02*
X0239376Y0180936D01*
X0239513Y0180800D02*
X0239094Y0181219D01*
X0237959Y0181689D01*
X0236730Y0181689D01*
X0235594Y0181219D01*
X0234725Y0180350D01*
X0234255Y0179214D01*
X0234255Y0177986D01*
X0234725Y0176850D01*
X0235594Y0175981D01*
X0236730Y0175511D01*
X0237959Y0175511D01*
X0239094Y0175981D01*
X0239513Y0176400D01*
X0249433Y0176400D01*
X0249644Y0176189D01*
X0249644Y0160689D01*
X0250933Y0159400D01*
X0254144Y0156189D01*
X0254144Y0156189D01*
X0255433Y0154900D01*
X0255676Y0154900D01*
X0256094Y0154481D01*
X0257230Y0154011D01*
X0258459Y0154011D01*
X0259594Y0154481D01*
X0260463Y0155350D01*
X0260933Y0156486D01*
X0260933Y0157714D01*
X0260463Y0158850D01*
X0259594Y0159719D01*
X0258459Y0160189D01*
X0257230Y0160189D01*
X0256619Y0159936D01*
X0254044Y0162511D01*
X0254044Y0178011D01*
X0252755Y0179300D01*
X0252544Y0179511D01*
X0252544Y0179511D01*
X0251255Y0180800D01*
X0239513Y0180800D01*
X0237344Y0178600D02*
X0250344Y0178600D01*
X0251844Y0177100D01*
X0251844Y0161600D01*
X0256344Y0157100D01*
X0257844Y0157100D01*
X0259950Y0159363D02*
X0406713Y0159363D01*
X0406713Y0159700D02*
X0406713Y0158500D01*
X0407913Y0158500D01*
X0407913Y0159700D01*
X0413891Y0159700D01*
X0413800Y0160390D01*
X0413576Y0161226D01*
X0413245Y0162025D01*
X0412812Y0162775D01*
X0412285Y0163461D01*
X0411674Y0164073D01*
X0410987Y0164599D01*
X0410238Y0165032D01*
X0409439Y0165363D01*
X0408603Y0165587D01*
X0407913Y0165678D01*
X0407913Y0159700D01*
X0406713Y0159700D01*
X0406713Y0165678D01*
X0406022Y0165587D01*
X0405187Y0165363D01*
X0404387Y0165032D01*
X0403638Y0164599D01*
X0402952Y0164073D01*
X0402340Y0163461D01*
X0401813Y0162775D01*
X0401381Y0162025D01*
X0401049Y0161226D01*
X0400826Y0160390D01*
X0400735Y0159700D01*
X0406713Y0159700D01*
X0406713Y0160562D02*
X0407913Y0160562D01*
X0407913Y0161760D02*
X0406713Y0161760D01*
X0406713Y0162959D02*
X0407913Y0162959D01*
X0407913Y0164157D02*
X0406713Y0164157D01*
X0406713Y0165356D02*
X0407913Y0165356D01*
X0409457Y0165356D02*
X0425168Y0165356D01*
X0426713Y0165356D02*
X0427913Y0165356D01*
X0427913Y0164157D02*
X0426713Y0164157D01*
X0426713Y0162959D02*
X0427913Y0162959D01*
X0427913Y0161760D02*
X0426713Y0161760D01*
X0426713Y0160562D02*
X0427913Y0160562D01*
X0426713Y0159363D02*
X0407913Y0159363D01*
X0407913Y0158500D02*
X0413891Y0158500D01*
X0413800Y0157810D01*
X0413576Y0156974D01*
X0413245Y0156175D01*
X0412812Y0155425D01*
X0412285Y0154739D01*
X0411674Y0154127D01*
X0410987Y0153601D01*
X0410238Y0153168D01*
X0409439Y0152837D01*
X0408603Y0152613D01*
X0407913Y0152522D01*
X0407913Y0158500D01*
X0407913Y0158165D02*
X0406713Y0158165D01*
X0406713Y0158500D02*
X0406713Y0152522D01*
X0406022Y0152613D01*
X0405187Y0152837D01*
X0404387Y0153168D01*
X0403638Y0153601D01*
X0402952Y0154127D01*
X0402340Y0154739D01*
X0401813Y0155425D01*
X0401381Y0156175D01*
X0401049Y0156974D01*
X0400826Y0157810D01*
X0400735Y0158500D01*
X0406713Y0158500D01*
X0406713Y0156966D02*
X0407913Y0156966D01*
X0407913Y0155768D02*
X0406713Y0155768D01*
X0406713Y0154569D02*
X0407913Y0154569D01*
X0407913Y0153370D02*
X0406713Y0153370D01*
X0404036Y0153370D02*
X0259727Y0153370D01*
X0260094Y0153219D02*
X0258959Y0153689D01*
X0257730Y0153689D01*
X0256594Y0153219D01*
X0255725Y0152350D01*
X0255255Y0151214D01*
X0255255Y0149986D01*
X0255725Y0148850D01*
X0256144Y0148432D01*
X0256144Y0144689D01*
X0257433Y0143400D01*
X0261644Y0139189D01*
X0261644Y0121189D01*
X0262933Y0119900D01*
X0265933Y0116900D01*
X0270205Y0116900D01*
X0270225Y0116850D01*
X0271094Y0115981D01*
X0272230Y0115511D01*
X0273459Y0115511D01*
X0274594Y0115981D01*
X0275463Y0116850D01*
X0275933Y0117986D01*
X0275933Y0119214D01*
X0275463Y0120350D01*
X0274594Y0121219D01*
X0273459Y0121689D01*
X0272230Y0121689D01*
X0271291Y0121300D01*
X0267755Y0121300D01*
X0266044Y0123011D01*
X0266044Y0141011D01*
X0264755Y0142300D01*
X0260544Y0146511D01*
X0260544Y0148432D01*
X0260963Y0148850D01*
X0261433Y0149986D01*
X0261433Y0151214D01*
X0260963Y0152350D01*
X0260094Y0153219D01*
X0261036Y0152172D02*
X0411441Y0152172D01*
X0411717Y0152839D02*
X0410713Y0150413D01*
X0410713Y0147787D01*
X0411717Y0145361D01*
X0413574Y0143505D01*
X0416000Y0142500D01*
X0418625Y0142500D01*
X0421051Y0143505D01*
X0422908Y0145361D01*
X0423913Y0147787D01*
X0423913Y0150413D01*
X0422908Y0152839D01*
X0421051Y0154695D01*
X0418625Y0155700D01*
X0416000Y0155700D01*
X0413574Y0154695D01*
X0411717Y0152839D01*
X0412249Y0153370D02*
X0410589Y0153370D01*
X0412115Y0154569D02*
X0413448Y0154569D01*
X0413010Y0155768D02*
X0421616Y0155768D01*
X0421813Y0155425D02*
X0422340Y0154739D01*
X0422952Y0154127D01*
X0423638Y0153601D01*
X0424387Y0153168D01*
X0425187Y0152837D01*
X0426022Y0152613D01*
X0426713Y0152522D01*
X0426713Y0158500D01*
X0420735Y0158500D01*
X0420826Y0157810D01*
X0421049Y0156974D01*
X0421381Y0156175D01*
X0421813Y0155425D01*
X0421177Y0154569D02*
X0422510Y0154569D01*
X0422376Y0153370D02*
X0424036Y0153370D01*
X0423184Y0152172D02*
X0432039Y0152172D01*
X0432039Y0153370D02*
X0430589Y0153370D01*
X0427913Y0153370D02*
X0426713Y0153370D01*
X0426713Y0154569D02*
X0427913Y0154569D01*
X0427913Y0155768D02*
X0426713Y0155768D01*
X0426713Y0156966D02*
X0427913Y0156966D01*
X0427913Y0158165D02*
X0426713Y0158165D01*
X0421053Y0156966D02*
X0413572Y0156966D01*
X0413846Y0158165D02*
X0420779Y0158165D01*
X0420871Y0160562D02*
X0413754Y0160562D01*
X0413355Y0161760D02*
X0421271Y0161760D01*
X0421954Y0162959D02*
X0412671Y0162959D01*
X0411564Y0164157D02*
X0423061Y0164157D01*
X0429457Y0165356D02*
X0432039Y0165356D01*
X0432039Y0166554D02*
X0323433Y0166554D01*
X0323433Y0166122D02*
X0323433Y0167214D01*
X0322963Y0168350D01*
X0322094Y0169219D01*
X0320959Y0169689D01*
X0319730Y0169689D01*
X0318594Y0169219D01*
X0317725Y0168350D01*
X0317255Y0167214D01*
X0317255Y0165986D01*
X0317725Y0164850D01*
X0318594Y0163981D01*
X0319730Y0163511D01*
X0319822Y0163511D01*
X0322933Y0160400D01*
X0356176Y0160400D01*
X0356594Y0159981D01*
X0357730Y0159511D01*
X0358959Y0159511D01*
X0360094Y0159981D01*
X0360963Y0160850D01*
X0361433Y0161986D01*
X0361433Y0163214D01*
X0360963Y0164350D01*
X0360094Y0165219D01*
X0358959Y0165689D01*
X0357730Y0165689D01*
X0356594Y0165219D01*
X0356176Y0164800D01*
X0324755Y0164800D01*
X0323433Y0166122D01*
X0324200Y0165356D02*
X0356925Y0165356D01*
X0359763Y0165356D02*
X0405168Y0165356D01*
X0403061Y0164157D02*
X0361043Y0164157D01*
X0361433Y0162959D02*
X0401954Y0162959D01*
X0401271Y0161760D02*
X0361340Y0161760D01*
X0360674Y0160562D02*
X0400871Y0160562D01*
X0400779Y0158165D02*
X0260747Y0158165D01*
X0260933Y0156966D02*
X0401053Y0156966D01*
X0401616Y0155768D02*
X0260636Y0155768D01*
X0259682Y0154569D02*
X0402510Y0154569D01*
X0410945Y0150973D02*
X0261433Y0150973D01*
X0261346Y0149775D02*
X0266730Y0149775D01*
X0266594Y0149719D02*
X0265725Y0148850D01*
X0265255Y0147714D01*
X0265255Y0146486D01*
X0265725Y0145350D01*
X0266144Y0144932D01*
X0266144Y0124689D01*
X0267433Y0123400D01*
X0268933Y0121900D01*
X0274933Y0121900D01*
X0276654Y0120178D01*
X0276255Y0119214D01*
X0276255Y0117986D01*
X0276725Y0116850D01*
X0277594Y0115981D01*
X0278730Y0115511D01*
X0279959Y0115511D01*
X0281094Y0115981D01*
X0281963Y0116850D01*
X0282433Y0117986D01*
X0282433Y0119214D01*
X0281963Y0120350D01*
X0281544Y0120768D01*
X0281544Y0121511D01*
X0278044Y0125011D01*
X0276755Y0126300D01*
X0270755Y0126300D01*
X0270544Y0126511D01*
X0270544Y0144932D01*
X0270963Y0145350D01*
X0271433Y0146486D01*
X0271433Y0147714D01*
X0270963Y0148850D01*
X0270094Y0149719D01*
X0268959Y0150189D01*
X0267730Y0150189D01*
X0266594Y0149719D01*
X0265612Y0148576D02*
X0260689Y0148576D01*
X0260544Y0147378D02*
X0265255Y0147378D01*
X0265382Y0146179D02*
X0260876Y0146179D01*
X0262074Y0144981D02*
X0266095Y0144981D01*
X0266144Y0143782D02*
X0263273Y0143782D01*
X0264471Y0142584D02*
X0266144Y0142584D01*
X0266144Y0141385D02*
X0265670Y0141385D01*
X0266044Y0140187D02*
X0266144Y0140187D01*
X0266144Y0138988D02*
X0266044Y0138988D01*
X0266044Y0137790D02*
X0266144Y0137790D01*
X0266144Y0136591D02*
X0266044Y0136591D01*
X0266044Y0135393D02*
X0266144Y0135393D01*
X0266144Y0134194D02*
X0266044Y0134194D01*
X0266044Y0132996D02*
X0266144Y0132996D01*
X0266144Y0131797D02*
X0266044Y0131797D01*
X0266044Y0130599D02*
X0266144Y0130599D01*
X0266144Y0129400D02*
X0266044Y0129400D01*
X0266044Y0128202D02*
X0266144Y0128202D01*
X0266144Y0127003D02*
X0266044Y0127003D01*
X0266044Y0125805D02*
X0266144Y0125805D01*
X0266227Y0124606D02*
X0266044Y0124606D01*
X0266044Y0123408D02*
X0267425Y0123408D01*
X0266846Y0122209D02*
X0268624Y0122209D01*
X0269844Y0124100D02*
X0268344Y0125600D01*
X0268344Y0147100D01*
X0270593Y0144981D02*
X0285644Y0144981D01*
X0285644Y0146179D02*
X0271306Y0146179D01*
X0271433Y0147378D02*
X0285755Y0147378D01*
X0285755Y0147122D02*
X0285644Y0147011D01*
X0285644Y0139154D01*
X0284594Y0138719D01*
X0283725Y0137850D01*
X0283255Y0136714D01*
X0283255Y0135486D01*
X0283725Y0134350D01*
X0284594Y0133481D01*
X0285730Y0133011D01*
X0286959Y0133011D01*
X0288094Y0133481D01*
X0288963Y0134350D01*
X0289433Y0135486D01*
X0289433Y0136078D01*
X0290044Y0136689D01*
X0290044Y0144254D01*
X0290594Y0144481D01*
X0291463Y0145350D01*
X0291933Y0146486D01*
X0291933Y0147714D01*
X0291463Y0148850D01*
X0290594Y0149719D01*
X0289459Y0150189D01*
X0288230Y0150189D01*
X0287094Y0149719D01*
X0286225Y0148850D01*
X0285755Y0147714D01*
X0285755Y0147122D01*
X0286112Y0148576D02*
X0271076Y0148576D01*
X0269958Y0149775D02*
X0287230Y0149775D01*
X0288844Y0147100D02*
X0287844Y0146100D01*
X0287844Y0137600D01*
X0286344Y0136100D01*
X0285245Y0138988D02*
X0270544Y0138988D01*
X0270544Y0137790D02*
X0283701Y0137790D01*
X0283255Y0136591D02*
X0270544Y0136591D01*
X0270544Y0135393D02*
X0283294Y0135393D01*
X0283881Y0134194D02*
X0270544Y0134194D01*
X0270544Y0132996D02*
X0404803Y0132996D01*
X0405187Y0132837D02*
X0406022Y0132613D01*
X0406713Y0132522D01*
X0406713Y0138500D01*
X0407913Y0138500D01*
X0407913Y0139700D01*
X0413891Y0139700D01*
X0413800Y0140390D01*
X0413576Y0141226D01*
X0413245Y0142025D01*
X0412812Y0142775D01*
X0412285Y0143461D01*
X0411674Y0144073D01*
X0410987Y0144599D01*
X0410238Y0145032D01*
X0409439Y0145363D01*
X0408603Y0145587D01*
X0407913Y0145678D01*
X0407913Y0139700D01*
X0406713Y0139700D01*
X0406713Y0145678D01*
X0406022Y0145587D01*
X0405187Y0145363D01*
X0404387Y0145032D01*
X0403638Y0144599D01*
X0402952Y0144073D01*
X0402340Y0143461D01*
X0401813Y0142775D01*
X0401381Y0142025D01*
X0401049Y0141226D01*
X0400826Y0140390D01*
X0400735Y0139700D01*
X0406713Y0139700D01*
X0406713Y0138500D01*
X0400735Y0138500D01*
X0400826Y0137810D01*
X0401049Y0136974D01*
X0401381Y0136175D01*
X0401813Y0135425D01*
X0402340Y0134739D01*
X0402952Y0134127D01*
X0403638Y0133601D01*
X0404387Y0133168D01*
X0405187Y0132837D01*
X0406713Y0132996D02*
X0407913Y0132996D01*
X0407913Y0132522D02*
X0408603Y0132613D01*
X0409439Y0132837D01*
X0410238Y0133168D01*
X0410987Y0133601D01*
X0411674Y0134127D01*
X0412285Y0134739D01*
X0412812Y0135425D01*
X0413245Y0136175D01*
X0413576Y0136974D01*
X0413800Y0137810D01*
X0413891Y0138500D01*
X0407913Y0138500D01*
X0407913Y0132522D01*
X0407913Y0134194D02*
X0406713Y0134194D01*
X0406713Y0135393D02*
X0407913Y0135393D01*
X0407913Y0136591D02*
X0406713Y0136591D01*
X0406713Y0137790D02*
X0407913Y0137790D01*
X0407913Y0138988D02*
X0426713Y0138988D01*
X0426713Y0138500D02*
X0420735Y0138500D01*
X0420826Y0137810D01*
X0421049Y0136974D01*
X0421381Y0136175D01*
X0421813Y0135425D01*
X0422340Y0134739D01*
X0422952Y0134127D01*
X0423638Y0133601D01*
X0424387Y0133168D01*
X0425187Y0132837D01*
X0426022Y0132613D01*
X0426713Y0132522D01*
X0426713Y0138500D01*
X0426713Y0137790D02*
X0427913Y0137790D01*
X0427913Y0136591D02*
X0426713Y0136591D01*
X0426713Y0135393D02*
X0427913Y0135393D01*
X0427913Y0134194D02*
X0426713Y0134194D01*
X0426713Y0132996D02*
X0427913Y0132996D01*
X0429822Y0132996D02*
X0432039Y0132996D01*
X0432039Y0134194D02*
X0431741Y0134194D01*
X0432039Y0131797D02*
X0270544Y0131797D01*
X0270544Y0130599D02*
X0432039Y0130599D01*
X0432039Y0129400D02*
X0270544Y0129400D01*
X0270544Y0128202D02*
X0432039Y0128202D01*
X0432039Y0127003D02*
X0270544Y0127003D01*
X0269844Y0124100D02*
X0275844Y0124100D01*
X0279344Y0120600D01*
X0279344Y0118600D01*
X0276491Y0117415D02*
X0275697Y0117415D01*
X0275933Y0118614D02*
X0276255Y0118614D01*
X0276503Y0119812D02*
X0275685Y0119812D01*
X0275822Y0121011D02*
X0274802Y0121011D01*
X0272844Y0118600D02*
X0272344Y0119100D01*
X0266844Y0119100D01*
X0263844Y0122100D01*
X0263844Y0140100D01*
X0258344Y0145600D01*
X0258344Y0150600D01*
X0256961Y0153370D02*
X0255368Y0153370D01*
X0255433Y0153214D02*
X0254963Y0154350D01*
X0254094Y0155219D01*
X0252959Y0155689D01*
X0251730Y0155689D01*
X0250594Y0155219D01*
X0249725Y0154350D01*
X0249255Y0153214D01*
X0249255Y0151986D01*
X0249725Y0150850D01*
X0250244Y0150332D01*
X0250244Y0136730D01*
X0251474Y0135500D01*
X0252255Y0134719D01*
X0252255Y0133986D01*
X0252725Y0132850D01*
X0253594Y0131981D01*
X0254730Y0131511D01*
X0255959Y0131511D01*
X0257094Y0131981D01*
X0257963Y0132850D01*
X0258433Y0133986D01*
X0258433Y0135214D01*
X0257963Y0136350D01*
X0257094Y0137219D01*
X0255959Y0137689D01*
X0255225Y0137689D01*
X0254444Y0138470D01*
X0254444Y0150332D01*
X0254963Y0150850D01*
X0255433Y0151986D01*
X0255433Y0153214D01*
X0255433Y0152172D02*
X0255652Y0152172D01*
X0255255Y0150973D02*
X0255014Y0150973D01*
X0255342Y0149775D02*
X0254444Y0149775D01*
X0254444Y0148576D02*
X0255999Y0148576D01*
X0256144Y0147378D02*
X0254444Y0147378D01*
X0254444Y0146179D02*
X0256144Y0146179D01*
X0256144Y0144981D02*
X0254444Y0144981D01*
X0254444Y0143782D02*
X0257050Y0143782D01*
X0258249Y0142584D02*
X0254444Y0142584D01*
X0254444Y0141385D02*
X0259447Y0141385D01*
X0260646Y0140187D02*
X0254444Y0140187D01*
X0254444Y0138988D02*
X0261644Y0138988D01*
X0261644Y0137790D02*
X0255124Y0137790D01*
X0257721Y0136591D02*
X0261644Y0136591D01*
X0261644Y0135393D02*
X0258359Y0135393D01*
X0258433Y0134194D02*
X0261644Y0134194D01*
X0261644Y0132996D02*
X0258023Y0132996D01*
X0256650Y0131797D02*
X0261644Y0131797D01*
X0261644Y0130599D02*
X0236457Y0130599D01*
X0237655Y0129400D02*
X0261644Y0129400D01*
X0261644Y0128202D02*
X0255854Y0128202D01*
X0256044Y0128011D02*
X0254755Y0129300D01*
X0237755Y0129300D01*
X0231433Y0135622D01*
X0231433Y0136214D01*
X0230963Y0137350D01*
X0230094Y0138219D01*
X0228959Y0138689D01*
X0227730Y0138689D01*
X0226791Y0138300D01*
X0214513Y0138300D01*
X0214094Y0138719D01*
X0212959Y0139189D01*
X0211730Y0139189D01*
X0210594Y0138719D01*
X0209725Y0137850D01*
X0209255Y0136714D01*
X0209255Y0135486D01*
X0209725Y0134350D01*
X0210594Y0133481D01*
X0211730Y0133011D01*
X0212959Y0133011D01*
X0214094Y0133481D01*
X0214513Y0133900D01*
X0225705Y0133900D01*
X0225725Y0133850D01*
X0226594Y0132981D01*
X0227730Y0132511D01*
X0228322Y0132511D01*
X0235933Y0124900D01*
X0252933Y0124900D01*
X0256644Y0121189D01*
X0256644Y0102268D01*
X0256225Y0101850D01*
X0255755Y0100714D01*
X0255755Y0099486D01*
X0256225Y0098350D01*
X0257094Y0097481D01*
X0258230Y0097011D01*
X0259459Y0097011D01*
X0260594Y0097481D01*
X0261463Y0098350D01*
X0261933Y0099486D01*
X0261933Y0100714D01*
X0261463Y0101850D01*
X0261044Y0102268D01*
X0261044Y0123011D01*
X0256044Y0128011D01*
X0257052Y0127003D02*
X0261644Y0127003D01*
X0261644Y0125805D02*
X0258251Y0125805D01*
X0259449Y0124606D02*
X0261644Y0124606D01*
X0261644Y0123408D02*
X0260648Y0123408D01*
X0261044Y0122209D02*
X0261644Y0122209D01*
X0261822Y0121011D02*
X0261044Y0121011D01*
X0261044Y0119812D02*
X0263021Y0119812D01*
X0264219Y0118614D02*
X0261044Y0118614D01*
X0261044Y0117415D02*
X0265418Y0117415D01*
X0261044Y0116217D02*
X0270859Y0116217D01*
X0274829Y0116217D02*
X0277359Y0116217D01*
X0281329Y0116217D02*
X0366144Y0116217D01*
X0366144Y0117415D02*
X0282197Y0117415D01*
X0282433Y0118614D02*
X0366144Y0118614D01*
X0366144Y0119511D02*
X0366144Y0109011D01*
X0365933Y0108800D01*
X0347433Y0108800D01*
X0346144Y0107511D01*
X0345822Y0107189D01*
X0345230Y0107189D01*
X0344094Y0106719D01*
X0343225Y0105850D01*
X0342755Y0104714D01*
X0342755Y0103486D01*
X0343225Y0102350D01*
X0344094Y0101481D01*
X0345230Y0101011D01*
X0346459Y0101011D01*
X0347594Y0101481D01*
X0348463Y0102350D01*
X0348933Y0103486D01*
X0348933Y0104078D01*
X0349255Y0104400D01*
X0367755Y0104400D01*
X0369044Y0105689D01*
X0370544Y0107189D01*
X0370544Y0117689D01*
X0370755Y0117900D01*
X0382176Y0117900D01*
X0382594Y0117481D01*
X0383730Y0117011D01*
X0384959Y0117011D01*
X0386094Y0117481D01*
X0386963Y0118350D01*
X0387433Y0119486D01*
X0387433Y0120714D01*
X0386963Y0121850D01*
X0386094Y0122719D01*
X0384959Y0123189D01*
X0383730Y0123189D01*
X0382594Y0122719D01*
X0382176Y0122300D01*
X0368933Y0122300D01*
X0367433Y0120800D01*
X0366144Y0119511D01*
X0366445Y0119812D02*
X0282185Y0119812D01*
X0281544Y0121011D02*
X0367644Y0121011D01*
X0368842Y0122209D02*
X0280846Y0122209D01*
X0279648Y0123408D02*
X0432039Y0123408D01*
X0432039Y0124606D02*
X0278449Y0124606D01*
X0277251Y0125805D02*
X0432039Y0125805D01*
X0432039Y0122209D02*
X0386603Y0122209D01*
X0387310Y0121011D02*
X0432039Y0121011D01*
X0432039Y0119812D02*
X0387433Y0119812D01*
X0387072Y0118614D02*
X0432039Y0118614D01*
X0432039Y0117415D02*
X0385934Y0117415D01*
X0384344Y0120100D02*
X0369844Y0120100D01*
X0368344Y0118600D01*
X0368344Y0108100D01*
X0366844Y0106600D01*
X0348344Y0106600D01*
X0345844Y0104100D01*
X0343741Y0101834D02*
X0313433Y0101834D01*
X0313433Y0102214D02*
X0312963Y0103350D01*
X0312544Y0103768D01*
X0312544Y0108011D01*
X0310544Y0110011D01*
X0309255Y0111300D01*
X0299013Y0111300D01*
X0298594Y0111719D01*
X0297459Y0112189D01*
X0296230Y0112189D01*
X0295094Y0111719D01*
X0294225Y0110850D01*
X0293755Y0109714D01*
X0293755Y0108486D01*
X0294225Y0107350D01*
X0295094Y0106481D01*
X0296230Y0106011D01*
X0297459Y0106011D01*
X0298594Y0106481D01*
X0299013Y0106900D01*
X0307433Y0106900D01*
X0308144Y0106189D01*
X0308144Y0103768D01*
X0307725Y0103350D01*
X0307255Y0102214D01*
X0307255Y0100986D01*
X0307725Y0099850D01*
X0308594Y0098981D01*
X0309730Y0098511D01*
X0310959Y0098511D01*
X0312094Y0098981D01*
X0312963Y0099850D01*
X0313433Y0100986D01*
X0313433Y0102214D01*
X0313094Y0103033D02*
X0342943Y0103033D01*
X0342755Y0104232D02*
X0312544Y0104232D01*
X0312544Y0105430D02*
X0343052Y0105430D01*
X0344004Y0106629D02*
X0312544Y0106629D01*
X0312544Y0107827D02*
X0346460Y0107827D01*
X0349087Y0104232D02*
X0416307Y0104232D01*
X0416307Y0105015D02*
X0416307Y0103185D01*
X0417007Y0101494D01*
X0418301Y0100200D01*
X0419992Y0099500D01*
X0427822Y0099500D01*
X0429513Y0100200D01*
X0430807Y0101494D01*
X0431507Y0103185D01*
X0431507Y0105015D01*
X0430807Y0106706D01*
X0429513Y0108000D01*
X0427822Y0108700D01*
X0419992Y0108700D01*
X0418301Y0108000D01*
X0417007Y0106706D01*
X0416307Y0105015D01*
X0416479Y0105430D02*
X0368785Y0105430D01*
X0369984Y0106629D02*
X0416975Y0106629D01*
X0418129Y0107827D02*
X0370544Y0107827D01*
X0370544Y0109026D02*
X0432039Y0109026D01*
X0432039Y0110224D02*
X0370544Y0110224D01*
X0370544Y0111423D02*
X0432039Y0111423D01*
X0432039Y0112621D02*
X0370544Y0112621D01*
X0370544Y0113820D02*
X0432039Y0113820D01*
X0432039Y0115018D02*
X0370544Y0115018D01*
X0370544Y0116217D02*
X0432039Y0116217D01*
X0432039Y0107827D02*
X0429685Y0107827D01*
X0430839Y0106629D02*
X0432039Y0106629D01*
X0432039Y0105430D02*
X0431335Y0105430D01*
X0431507Y0104232D02*
X0432039Y0104232D01*
X0432039Y0103033D02*
X0431444Y0103033D01*
X0430948Y0101834D02*
X0432039Y0101834D01*
X0432039Y0100636D02*
X0429948Y0100636D01*
X0432039Y0099437D02*
X0312550Y0099437D01*
X0313288Y0100636D02*
X0417866Y0100636D01*
X0416866Y0101834D02*
X0347947Y0101834D01*
X0348746Y0103033D02*
X0416370Y0103033D01*
X0418898Y0098239D02*
X0261352Y0098239D01*
X0261913Y0099437D02*
X0308138Y0099437D01*
X0307400Y0100636D02*
X0261933Y0100636D01*
X0261469Y0101834D02*
X0307255Y0101834D01*
X0307594Y0103033D02*
X0261044Y0103033D01*
X0261044Y0104232D02*
X0308144Y0104232D01*
X0308144Y0105430D02*
X0261044Y0105430D01*
X0261044Y0106629D02*
X0294947Y0106629D01*
X0294028Y0107827D02*
X0261044Y0107827D01*
X0261044Y0109026D02*
X0293755Y0109026D01*
X0293966Y0110224D02*
X0261044Y0110224D01*
X0261044Y0111423D02*
X0294798Y0111423D01*
X0296844Y0109100D02*
X0308344Y0109100D01*
X0310344Y0107100D01*
X0310344Y0101600D01*
X0309730Y0098189D02*
X0308594Y0097719D01*
X0307725Y0096850D01*
X0307255Y0095714D01*
X0307255Y0094486D01*
X0307725Y0093350D01*
X0308144Y0092932D01*
X0308144Y0086268D01*
X0307725Y0085850D01*
X0307255Y0084714D01*
X0307255Y0083486D01*
X0307725Y0082350D01*
X0308594Y0081481D01*
X0309730Y0081011D01*
X0310959Y0081011D01*
X0312094Y0081481D01*
X0312963Y0082350D01*
X0313433Y0083486D01*
X0313433Y0084714D01*
X0312963Y0085850D01*
X0312544Y0086268D01*
X0312544Y0092932D01*
X0312963Y0093350D01*
X0313433Y0094486D01*
X0313433Y0095714D01*
X0312963Y0096850D01*
X0312094Y0097719D01*
X0310959Y0098189D01*
X0309730Y0098189D01*
X0307916Y0097040D02*
X0259530Y0097040D01*
X0258159Y0097040D02*
X0249613Y0097040D01*
X0248414Y0095842D02*
X0307308Y0095842D01*
X0307255Y0094643D02*
X0247216Y0094643D01*
X0246017Y0093445D02*
X0307686Y0093445D01*
X0308144Y0092246D02*
X0244819Y0092246D01*
X0243620Y0091048D02*
X0308144Y0091048D01*
X0308144Y0089849D02*
X0242422Y0089849D01*
X0241223Y0088651D02*
X0308144Y0088651D01*
X0308144Y0087452D02*
X0240025Y0087452D01*
X0238826Y0086254D02*
X0308129Y0086254D01*
X0307396Y0085055D02*
X0237628Y0085055D01*
X0236429Y0083857D02*
X0307255Y0083857D01*
X0307598Y0082658D02*
X0235231Y0082658D01*
X0234032Y0081460D02*
X0253076Y0081460D01*
X0253334Y0081719D02*
X0252466Y0080850D01*
X0251995Y0079714D01*
X0251995Y0078486D01*
X0252466Y0077350D01*
X0252884Y0076932D01*
X0252884Y0070251D01*
X0247933Y0065300D01*
X0220013Y0065300D01*
X0219594Y0065719D01*
X0218459Y0066189D01*
X0217230Y0066189D01*
X0216094Y0065719D01*
X0215225Y0064850D01*
X0214755Y0063714D01*
X0214755Y0062486D01*
X0215225Y0061350D01*
X0216094Y0060481D01*
X0217230Y0060011D01*
X0218459Y0060011D01*
X0219594Y0060481D01*
X0220013Y0060900D01*
X0249755Y0060900D01*
X0251044Y0062189D01*
X0257284Y0068429D01*
X0257284Y0076932D01*
X0257703Y0077350D01*
X0258173Y0078486D01*
X0258173Y0079714D01*
X0257703Y0080850D01*
X0256834Y0081719D01*
X0255699Y0082189D01*
X0254470Y0082189D01*
X0253334Y0081719D01*
X0252222Y0080261D02*
X0232834Y0080261D01*
X0232344Y0079772D02*
X0252584Y0100011D01*
X0253459Y0100011D01*
X0254594Y0100481D01*
X0255463Y0101350D01*
X0255933Y0102486D01*
X0255933Y0103714D01*
X0255463Y0104850D01*
X0254594Y0105719D01*
X0253459Y0106189D01*
X0252230Y0106189D01*
X0251094Y0105719D01*
X0250225Y0104850D01*
X0249755Y0103714D01*
X0249755Y0102839D01*
X0229516Y0082600D01*
X0219713Y0082600D01*
X0219094Y0083219D01*
X0217959Y0083689D01*
X0216730Y0083689D01*
X0215594Y0083219D01*
X0214725Y0082350D01*
X0214255Y0081214D01*
X0214255Y0079986D01*
X0214725Y0078850D01*
X0215594Y0077981D01*
X0216730Y0077511D01*
X0217959Y0077511D01*
X0219094Y0077981D01*
X0219713Y0078600D01*
X0231173Y0078600D01*
X0232344Y0079772D01*
X0232344Y0079772D01*
X0231635Y0079063D02*
X0251995Y0079063D01*
X0252253Y0077864D02*
X0218811Y0077864D01*
X0215877Y0077864D02*
X0172844Y0077864D01*
X0172844Y0076666D02*
X0252884Y0076666D01*
X0252884Y0075467D02*
X0172844Y0075467D01*
X0172844Y0074269D02*
X0252884Y0074269D01*
X0252884Y0073070D02*
X0172844Y0073070D01*
X0172844Y0071872D02*
X0252884Y0071872D01*
X0252884Y0070673D02*
X0172844Y0070673D01*
X0172844Y0069475D02*
X0252108Y0069475D01*
X0250909Y0068276D02*
X0172844Y0068276D01*
X0172844Y0067078D02*
X0249710Y0067078D01*
X0248512Y0065879D02*
X0219206Y0065879D01*
X0216482Y0065879D02*
X0172844Y0065879D01*
X0172844Y0064681D02*
X0215155Y0064681D01*
X0214755Y0063482D02*
X0172844Y0063482D01*
X0172844Y0062284D02*
X0214839Y0062284D01*
X0215491Y0061085D02*
X0172844Y0061085D01*
X0172844Y0059887D02*
X0432039Y0059887D01*
X0432039Y0061085D02*
X0289198Y0061085D01*
X0289463Y0061350D02*
X0289933Y0062486D01*
X0289933Y0063714D01*
X0289463Y0064850D01*
X0288594Y0065719D01*
X0287459Y0066189D01*
X0286230Y0066189D01*
X0285094Y0065719D01*
X0284676Y0065300D01*
X0263513Y0065300D01*
X0263094Y0065719D01*
X0261959Y0066189D01*
X0260730Y0066189D01*
X0259594Y0065719D01*
X0258725Y0064850D01*
X0258255Y0063714D01*
X0258255Y0062486D01*
X0258725Y0061350D01*
X0259594Y0060481D01*
X0260730Y0060011D01*
X0261959Y0060011D01*
X0263094Y0060481D01*
X0263513Y0060900D01*
X0284676Y0060900D01*
X0285094Y0060481D01*
X0286230Y0060011D01*
X0287459Y0060011D01*
X0288594Y0060481D01*
X0289463Y0061350D01*
X0289849Y0062284D02*
X0432039Y0062284D01*
X0432039Y0063482D02*
X0361558Y0063482D01*
X0361143Y0063066D02*
X0362437Y0064360D01*
X0363137Y0066051D01*
X0363137Y0073881D01*
X0362437Y0075572D01*
X0361143Y0076866D01*
X0361044Y0076907D01*
X0361044Y0087432D01*
X0361463Y0087850D01*
X0361933Y0088986D01*
X0361933Y0090214D01*
X0361463Y0091350D01*
X0360594Y0092219D01*
X0359459Y0092689D01*
X0358230Y0092689D01*
X0357094Y0092219D01*
X0356225Y0091350D01*
X0355755Y0090214D01*
X0355755Y0088986D01*
X0356225Y0087850D01*
X0356644Y0087432D01*
X0356644Y0077161D01*
X0355931Y0076866D01*
X0354637Y0075572D01*
X0353937Y0073881D01*
X0353937Y0066051D01*
X0354637Y0064360D01*
X0355931Y0063066D01*
X0357622Y0062366D01*
X0359452Y0062366D01*
X0361143Y0063066D01*
X0362569Y0064681D02*
X0432039Y0064681D01*
X0432039Y0065879D02*
X0363066Y0065879D01*
X0363137Y0067078D02*
X0432039Y0067078D01*
X0432039Y0068276D02*
X0363137Y0068276D01*
X0363137Y0069475D02*
X0432039Y0069475D01*
X0432039Y0070673D02*
X0363137Y0070673D01*
X0363137Y0071872D02*
X0432039Y0071872D01*
X0432039Y0073070D02*
X0363137Y0073070D01*
X0362976Y0074269D02*
X0432039Y0074269D01*
X0432039Y0075467D02*
X0362480Y0075467D01*
X0361343Y0076666D02*
X0432039Y0076666D01*
X0432039Y0077864D02*
X0361044Y0077864D01*
X0361044Y0079063D02*
X0432039Y0079063D01*
X0432039Y0080261D02*
X0361044Y0080261D01*
X0361044Y0081460D02*
X0432039Y0081460D01*
X0432039Y0082658D02*
X0361044Y0082658D01*
X0361044Y0083857D02*
X0432039Y0083857D01*
X0432039Y0085055D02*
X0361044Y0085055D01*
X0361044Y0086254D02*
X0432039Y0086254D01*
X0432039Y0087452D02*
X0361065Y0087452D01*
X0361794Y0088651D02*
X0432039Y0088651D01*
X0432039Y0089849D02*
X0428697Y0089849D01*
X0428673Y0089837D02*
X0429318Y0090166D01*
X0429904Y0090591D01*
X0430416Y0091103D01*
X0430841Y0091689D01*
X0431170Y0092334D01*
X0431394Y0093023D01*
X0431501Y0093700D01*
X0424307Y0093700D01*
X0424307Y0089500D01*
X0427269Y0089500D01*
X0427984Y0089613D01*
X0428673Y0089837D01*
X0430360Y0091048D02*
X0432039Y0091048D01*
X0432039Y0092246D02*
X0431125Y0092246D01*
X0431461Y0093445D02*
X0432039Y0093445D01*
X0431501Y0094500D02*
X0431394Y0095177D01*
X0431170Y0095866D01*
X0430841Y0096511D01*
X0430416Y0097097D01*
X0429904Y0097609D01*
X0429318Y0098034D01*
X0428673Y0098363D01*
X0427984Y0098587D01*
X0427269Y0098700D01*
X0424307Y0098700D01*
X0424307Y0094500D01*
X0423507Y0094500D01*
X0423507Y0093700D01*
X0416313Y0093700D01*
X0416420Y0093023D01*
X0416644Y0092334D01*
X0416973Y0091689D01*
X0417398Y0091103D01*
X0417910Y0090591D01*
X0418496Y0090166D01*
X0419141Y0089837D01*
X0419830Y0089613D01*
X0420545Y0089500D01*
X0423507Y0089500D01*
X0423507Y0093700D01*
X0424307Y0093700D01*
X0424307Y0094500D01*
X0431501Y0094500D01*
X0431478Y0094643D02*
X0432039Y0094643D01*
X0432039Y0095842D02*
X0431178Y0095842D01*
X0430457Y0097040D02*
X0432039Y0097040D01*
X0432039Y0098239D02*
X0428916Y0098239D01*
X0424307Y0098239D02*
X0423507Y0098239D01*
X0423507Y0098700D02*
X0420545Y0098700D01*
X0419830Y0098587D01*
X0419141Y0098363D01*
X0418496Y0098034D01*
X0417910Y0097609D01*
X0417398Y0097097D01*
X0416973Y0096511D01*
X0416644Y0095866D01*
X0416420Y0095177D01*
X0416313Y0094500D01*
X0423507Y0094500D01*
X0423507Y0098700D01*
X0423507Y0097040D02*
X0424307Y0097040D01*
X0424307Y0095842D02*
X0423507Y0095842D01*
X0423507Y0094643D02*
X0424307Y0094643D01*
X0424307Y0093445D02*
X0423507Y0093445D01*
X0423507Y0092246D02*
X0424307Y0092246D01*
X0424307Y0091048D02*
X0423507Y0091048D01*
X0423507Y0089849D02*
X0424307Y0089849D01*
X0419117Y0089849D02*
X0361933Y0089849D01*
X0361588Y0091048D02*
X0417454Y0091048D01*
X0416689Y0092246D02*
X0360527Y0092246D01*
X0358844Y0089600D02*
X0358844Y0070273D01*
X0358537Y0069966D01*
X0353937Y0069475D02*
X0353137Y0069475D01*
X0353137Y0070673D02*
X0353937Y0070673D01*
X0353937Y0071872D02*
X0353137Y0071872D01*
X0353137Y0073070D02*
X0353937Y0073070D01*
X0353137Y0073881D02*
X0352437Y0075572D01*
X0351143Y0076866D01*
X0349452Y0077566D01*
X0347622Y0077566D01*
X0345931Y0076866D01*
X0344637Y0075572D01*
X0343937Y0073881D01*
X0343937Y0066051D01*
X0344637Y0064360D01*
X0345931Y0063066D01*
X0347622Y0062366D01*
X0349452Y0062366D01*
X0351143Y0063066D01*
X0352437Y0064360D01*
X0353137Y0066051D01*
X0353137Y0073881D01*
X0352976Y0074269D02*
X0354098Y0074269D01*
X0354594Y0075467D02*
X0352480Y0075467D01*
X0351343Y0076666D02*
X0355731Y0076666D01*
X0356644Y0077864D02*
X0257916Y0077864D01*
X0258173Y0079063D02*
X0356644Y0079063D01*
X0356644Y0080261D02*
X0257947Y0080261D01*
X0257093Y0081460D02*
X0308646Y0081460D01*
X0310344Y0084100D02*
X0310344Y0095100D01*
X0312772Y0097040D02*
X0417358Y0097040D01*
X0416636Y0095842D02*
X0313380Y0095842D01*
X0313433Y0094643D02*
X0416336Y0094643D01*
X0416353Y0093445D02*
X0313002Y0093445D01*
X0312544Y0092246D02*
X0357161Y0092246D01*
X0356100Y0091048D02*
X0312544Y0091048D01*
X0312544Y0089849D02*
X0355755Y0089849D01*
X0355894Y0088651D02*
X0312544Y0088651D01*
X0312544Y0087452D02*
X0356623Y0087452D01*
X0356644Y0086254D02*
X0312559Y0086254D01*
X0313292Y0085055D02*
X0356644Y0085055D01*
X0356644Y0083857D02*
X0313433Y0083857D01*
X0313090Y0082658D02*
X0356644Y0082658D01*
X0356644Y0081460D02*
X0312042Y0081460D01*
X0333937Y0073881D02*
X0333937Y0066051D01*
X0334637Y0064360D01*
X0335931Y0063066D01*
X0337622Y0062366D01*
X0339452Y0062366D01*
X0341143Y0063066D01*
X0342437Y0064360D01*
X0343137Y0066051D01*
X0343137Y0073881D01*
X0342437Y0075572D01*
X0341143Y0076866D01*
X0339452Y0077566D01*
X0337622Y0077566D01*
X0335931Y0076866D01*
X0334637Y0075572D01*
X0333937Y0073881D01*
X0334098Y0074269D02*
X0257284Y0074269D01*
X0257284Y0075467D02*
X0334594Y0075467D01*
X0335731Y0076666D02*
X0257284Y0076666D01*
X0255084Y0079100D02*
X0255084Y0069340D01*
X0248844Y0063100D01*
X0217844Y0063100D01*
X0214637Y0079063D02*
X0172844Y0079063D01*
X0172844Y0080261D02*
X0214255Y0080261D01*
X0214357Y0081460D02*
X0172844Y0081460D01*
X0172844Y0082658D02*
X0215034Y0082658D01*
X0219654Y0082658D02*
X0229574Y0082658D01*
X0230773Y0083857D02*
X0172844Y0083857D01*
X0172844Y0085055D02*
X0231971Y0085055D01*
X0233170Y0086254D02*
X0172844Y0086254D01*
X0172844Y0087452D02*
X0234368Y0087452D01*
X0235567Y0088651D02*
X0172844Y0088651D01*
X0172844Y0089849D02*
X0236765Y0089849D01*
X0237964Y0091048D02*
X0172844Y0091048D01*
X0172844Y0092246D02*
X0239162Y0092246D01*
X0240361Y0093445D02*
X0172844Y0093445D01*
X0172844Y0094643D02*
X0241559Y0094643D01*
X0242758Y0095842D02*
X0172844Y0095842D01*
X0172844Y0097040D02*
X0243956Y0097040D01*
X0245155Y0098239D02*
X0172844Y0098239D01*
X0172844Y0099437D02*
X0246353Y0099437D01*
X0247552Y0100636D02*
X0172844Y0100636D01*
X0172844Y0101834D02*
X0248750Y0101834D01*
X0248094Y0102481D02*
X0248963Y0103350D01*
X0249433Y0104486D01*
X0249433Y0105714D01*
X0248963Y0106850D01*
X0248094Y0107719D01*
X0246959Y0108189D01*
X0245730Y0108189D01*
X0244594Y0107719D01*
X0243976Y0107100D01*
X0220173Y0107100D01*
X0213733Y0113539D01*
X0213733Y0114714D01*
X0213263Y0115850D01*
X0212394Y0116719D01*
X0211259Y0117189D01*
X0210030Y0117189D01*
X0208894Y0116719D01*
X0208025Y0115850D01*
X0207555Y0114714D01*
X0207555Y0113486D01*
X0208025Y0112350D01*
X0208894Y0111481D01*
X0210030Y0111011D01*
X0210605Y0111011D01*
X0218516Y0103100D01*
X0243976Y0103100D01*
X0244594Y0102481D01*
X0245730Y0102011D01*
X0246959Y0102011D01*
X0248094Y0102481D01*
X0248646Y0103033D02*
X0249755Y0103033D01*
X0249969Y0104232D02*
X0249328Y0104232D01*
X0249433Y0105430D02*
X0250806Y0105430D01*
X0249054Y0106629D02*
X0256644Y0106629D01*
X0256644Y0107827D02*
X0253721Y0107827D01*
X0254094Y0107981D02*
X0254963Y0108850D01*
X0255433Y0109986D01*
X0255433Y0111214D01*
X0254963Y0112350D01*
X0254094Y0113219D01*
X0252959Y0113689D01*
X0251730Y0113689D01*
X0250594Y0113219D01*
X0249976Y0112600D01*
X0233964Y0112600D01*
X0233133Y0113569D01*
X0233133Y0114714D01*
X0232663Y0115850D01*
X0231794Y0116719D01*
X0230659Y0117189D01*
X0229430Y0117189D01*
X0228294Y0116719D01*
X0227425Y0115850D01*
X0226955Y0114714D01*
X0226955Y0113486D01*
X0227425Y0112350D01*
X0228294Y0111481D01*
X0229430Y0111011D01*
X0230058Y0111011D01*
X0231044Y0109860D01*
X0231044Y0109772D01*
X0231576Y0109240D01*
X0232065Y0108669D01*
X0232153Y0108663D01*
X0232216Y0108600D01*
X0232967Y0108600D01*
X0233717Y0108542D01*
X0233784Y0108600D01*
X0249976Y0108600D01*
X0250594Y0107981D01*
X0251730Y0107511D01*
X0252959Y0107511D01*
X0254094Y0107981D01*
X0255035Y0109026D02*
X0256644Y0109026D01*
X0256644Y0110224D02*
X0255433Y0110224D01*
X0255347Y0111423D02*
X0256644Y0111423D01*
X0256644Y0112621D02*
X0254691Y0112621D01*
X0256644Y0113820D02*
X0233133Y0113820D01*
X0233007Y0115018D02*
X0256644Y0115018D01*
X0256644Y0116217D02*
X0232296Y0116217D01*
X0230044Y0114100D02*
X0229844Y0113600D01*
X0228436Y0111423D02*
X0215850Y0111423D01*
X0214651Y0112621D02*
X0227313Y0112621D01*
X0226955Y0113820D02*
X0213733Y0113820D01*
X0213607Y0115018D02*
X0227081Y0115018D01*
X0227792Y0116217D02*
X0212896Y0116217D01*
X0208392Y0116217D02*
X0204544Y0116217D01*
X0204544Y0117415D02*
X0256644Y0117415D01*
X0256644Y0118614D02*
X0204544Y0118614D01*
X0204544Y0119812D02*
X0256644Y0119812D01*
X0256644Y0121011D02*
X0204544Y0121011D01*
X0204544Y0122209D02*
X0255624Y0122209D01*
X0254425Y0123408D02*
X0204544Y0123408D01*
X0204544Y0124606D02*
X0253227Y0124606D01*
X0253844Y0127100D02*
X0236844Y0127100D01*
X0228344Y0135600D01*
X0227844Y0136100D02*
X0212344Y0136100D01*
X0211245Y0138988D02*
X0208344Y0138988D01*
X0209255Y0139900D02*
X0204544Y0135189D01*
X0204544Y0113189D01*
X0200544Y0109189D01*
X0199255Y0107900D01*
X0189513Y0107900D01*
X0189094Y0107481D01*
X0187959Y0107011D01*
X0186730Y0107011D01*
X0185594Y0107481D01*
X0184725Y0108350D01*
X0184255Y0109486D01*
X0184255Y0110714D01*
X0184725Y0111850D01*
X0185594Y0112719D01*
X0186730Y0113189D01*
X0187959Y0113189D01*
X0189094Y0112719D01*
X0189513Y0112300D01*
X0197433Y0112300D01*
X0200144Y0115011D01*
X0200144Y0137011D01*
X0207433Y0144300D01*
X0230255Y0144300D01*
X0231544Y0143011D01*
X0234965Y0139590D01*
X0235094Y0139719D01*
X0236230Y0140189D01*
X0237459Y0140189D01*
X0238594Y0139719D01*
X0239463Y0138850D01*
X0239933Y0137714D01*
X0239933Y0136486D01*
X0239463Y0135350D01*
X0238594Y0134481D01*
X0237459Y0134011D01*
X0236230Y0134011D01*
X0235094Y0134481D01*
X0234676Y0134900D01*
X0233433Y0134900D01*
X0228433Y0139900D01*
X0209255Y0139900D01*
X0209701Y0137790D02*
X0207145Y0137790D01*
X0205947Y0136591D02*
X0209255Y0136591D01*
X0209294Y0135393D02*
X0204748Y0135393D01*
X0204544Y0134194D02*
X0209881Y0134194D01*
X0204544Y0132996D02*
X0226580Y0132996D01*
X0229036Y0131797D02*
X0204544Y0131797D01*
X0204544Y0130599D02*
X0230234Y0130599D01*
X0231433Y0129400D02*
X0204544Y0129400D01*
X0204544Y0128202D02*
X0232631Y0128202D01*
X0233830Y0127003D02*
X0204544Y0127003D01*
X0204544Y0125805D02*
X0235028Y0125805D01*
X0235258Y0131797D02*
X0254039Y0131797D01*
X0252665Y0132996D02*
X0234060Y0132996D01*
X0232861Y0134194D02*
X0235787Y0134194D01*
X0237901Y0134194D02*
X0252255Y0134194D01*
X0251581Y0135393D02*
X0239480Y0135393D01*
X0239933Y0136591D02*
X0250383Y0136591D01*
X0250244Y0137790D02*
X0239902Y0137790D01*
X0239324Y0138988D02*
X0250244Y0138988D01*
X0250244Y0140187D02*
X0237464Y0140187D01*
X0236225Y0140187D02*
X0234368Y0140187D01*
X0233170Y0141385D02*
X0250244Y0141385D01*
X0250244Y0142584D02*
X0231971Y0142584D01*
X0230773Y0143782D02*
X0250244Y0143782D01*
X0250244Y0144981D02*
X0173725Y0144981D01*
X0172844Y0143782D02*
X0206915Y0143782D01*
X0205717Y0142584D02*
X0172844Y0142584D01*
X0172844Y0141385D02*
X0204518Y0141385D01*
X0203320Y0140187D02*
X0172844Y0140187D01*
X0172844Y0138988D02*
X0202121Y0138988D01*
X0200923Y0137790D02*
X0172844Y0137790D01*
X0172844Y0136591D02*
X0200144Y0136591D01*
X0200144Y0135393D02*
X0172844Y0135393D01*
X0172844Y0134194D02*
X0200144Y0134194D01*
X0200144Y0132996D02*
X0172844Y0132996D01*
X0172844Y0131797D02*
X0200144Y0131797D01*
X0200144Y0130599D02*
X0172844Y0130599D01*
X0172844Y0129400D02*
X0200144Y0129400D01*
X0200144Y0128202D02*
X0172844Y0128202D01*
X0172844Y0127003D02*
X0200144Y0127003D01*
X0200144Y0125805D02*
X0172844Y0125805D01*
X0172844Y0124606D02*
X0200144Y0124606D01*
X0200144Y0123408D02*
X0172844Y0123408D01*
X0172844Y0122209D02*
X0200144Y0122209D01*
X0200144Y0121011D02*
X0172844Y0121011D01*
X0172844Y0119812D02*
X0200144Y0119812D01*
X0200144Y0118614D02*
X0172844Y0118614D01*
X0172844Y0117415D02*
X0200144Y0117415D01*
X0200144Y0116217D02*
X0172844Y0116217D01*
X0172844Y0115018D02*
X0200144Y0115018D01*
X0198952Y0113820D02*
X0172844Y0113820D01*
X0172844Y0112621D02*
X0185497Y0112621D01*
X0184548Y0111423D02*
X0172844Y0111423D01*
X0172844Y0110224D02*
X0184255Y0110224D01*
X0184446Y0109026D02*
X0172844Y0109026D01*
X0172844Y0107827D02*
X0185249Y0107827D01*
X0187344Y0110100D02*
X0198344Y0110100D01*
X0202344Y0114100D01*
X0202344Y0136100D01*
X0208344Y0142100D01*
X0229344Y0142100D01*
X0234344Y0137100D01*
X0236844Y0137100D01*
X0232940Y0135393D02*
X0231663Y0135393D01*
X0231741Y0136591D02*
X0231277Y0136591D01*
X0230543Y0137790D02*
X0230523Y0137790D01*
X0229344Y0138988D02*
X0213443Y0138988D01*
X0190504Y0161760D02*
X0249644Y0161760D01*
X0249644Y0162959D02*
X0191703Y0162959D01*
X0192901Y0164157D02*
X0249644Y0164157D01*
X0249644Y0165356D02*
X0194100Y0165356D01*
X0195298Y0166554D02*
X0249644Y0166554D01*
X0249644Y0167753D02*
X0196497Y0167753D01*
X0197695Y0168951D02*
X0249644Y0168951D01*
X0249644Y0170150D02*
X0198894Y0170150D01*
X0200092Y0171348D02*
X0249644Y0171348D01*
X0249644Y0172547D02*
X0201291Y0172547D01*
X0202489Y0173745D02*
X0249644Y0173745D01*
X0249644Y0174944D02*
X0203688Y0174944D01*
X0204886Y0176142D02*
X0235433Y0176142D01*
X0234522Y0177341D02*
X0206085Y0177341D01*
X0207283Y0178539D02*
X0234255Y0178539D01*
X0234472Y0179738D02*
X0208482Y0179738D01*
X0209680Y0180936D02*
X0235312Y0180936D01*
X0239255Y0176142D02*
X0249644Y0176142D01*
X0254044Y0176142D02*
X0336144Y0176142D01*
X0336144Y0174944D02*
X0254044Y0174944D01*
X0254044Y0173745D02*
X0337088Y0173745D01*
X0338286Y0172547D02*
X0254044Y0172547D01*
X0254044Y0171348D02*
X0339485Y0171348D01*
X0340683Y0170150D02*
X0254044Y0170150D01*
X0254044Y0168951D02*
X0318327Y0168951D01*
X0317478Y0167753D02*
X0254044Y0167753D01*
X0254044Y0166554D02*
X0317255Y0166554D01*
X0317516Y0165356D02*
X0254044Y0165356D01*
X0254044Y0164157D02*
X0318419Y0164157D01*
X0320374Y0162959D02*
X0254044Y0162959D01*
X0254795Y0161760D02*
X0321573Y0161760D01*
X0322771Y0160562D02*
X0255994Y0160562D01*
X0253367Y0156966D02*
X0185710Y0156966D01*
X0184512Y0155768D02*
X0254565Y0155768D01*
X0254744Y0154569D02*
X0256007Y0154569D01*
X0252168Y0158165D02*
X0186909Y0158165D01*
X0188107Y0159363D02*
X0250970Y0159363D01*
X0250933Y0159400D02*
X0250933Y0159400D01*
X0249771Y0160562D02*
X0189306Y0160562D01*
X0183313Y0154569D02*
X0249945Y0154569D01*
X0249320Y0153370D02*
X0182115Y0153370D01*
X0180916Y0152172D02*
X0249255Y0152172D01*
X0249674Y0150973D02*
X0179718Y0150973D01*
X0178519Y0149775D02*
X0250244Y0149775D01*
X0250244Y0148576D02*
X0177321Y0148576D01*
X0176122Y0147378D02*
X0250244Y0147378D01*
X0250244Y0146179D02*
X0174924Y0146179D01*
X0165344Y0124600D02*
X0157344Y0116600D01*
X0132344Y0116600D01*
X0117344Y0101600D01*
X0117344Y0091100D01*
X0172844Y0103033D02*
X0244043Y0103033D01*
X0244856Y0107827D02*
X0219445Y0107827D01*
X0218247Y0109026D02*
X0231759Y0109026D01*
X0230732Y0110224D02*
X0217048Y0110224D01*
X0213789Y0107827D02*
X0189440Y0107827D01*
X0189191Y0112621D02*
X0197754Y0112621D01*
X0200381Y0109026D02*
X0212590Y0109026D01*
X0211392Y0110224D02*
X0201579Y0110224D01*
X0202778Y0111423D02*
X0209036Y0111423D01*
X0207913Y0112621D02*
X0203976Y0112621D01*
X0204544Y0113820D02*
X0207555Y0113820D01*
X0207681Y0115018D02*
X0204544Y0115018D01*
X0214987Y0106629D02*
X0172844Y0106629D01*
X0172844Y0105430D02*
X0216186Y0105430D01*
X0217384Y0104232D02*
X0172844Y0104232D01*
X0172844Y0058688D02*
X0432039Y0058688D01*
X0432039Y0057490D02*
X0172844Y0057490D01*
X0172844Y0056291D02*
X0432039Y0056291D01*
X0432039Y0055093D02*
X0172844Y0055093D01*
X0172844Y0053894D02*
X0432039Y0053894D01*
X0382754Y0117415D02*
X0370544Y0117415D01*
X0366144Y0115018D02*
X0261044Y0115018D01*
X0261044Y0113820D02*
X0366144Y0113820D01*
X0366144Y0112621D02*
X0261044Y0112621D01*
X0256644Y0105430D02*
X0254883Y0105430D01*
X0255719Y0104232D02*
X0256644Y0104232D01*
X0256644Y0103033D02*
X0255933Y0103033D01*
X0255663Y0101834D02*
X0256219Y0101834D01*
X0255755Y0100636D02*
X0254749Y0100636D01*
X0255775Y0099437D02*
X0252010Y0099437D01*
X0250811Y0098239D02*
X0256337Y0098239D01*
X0258844Y0100100D02*
X0258844Y0122100D01*
X0253844Y0127100D01*
X0249997Y0112621D02*
X0233946Y0112621D01*
X0247832Y0107827D02*
X0250967Y0107827D01*
X0257284Y0073070D02*
X0333937Y0073070D01*
X0333937Y0071872D02*
X0257284Y0071872D01*
X0257284Y0070673D02*
X0333937Y0070673D01*
X0333937Y0069475D02*
X0257284Y0069475D01*
X0257132Y0068276D02*
X0333937Y0068276D01*
X0333937Y0067078D02*
X0255933Y0067078D01*
X0254735Y0065879D02*
X0259982Y0065879D01*
X0258655Y0064681D02*
X0253536Y0064681D01*
X0252337Y0063482D02*
X0258255Y0063482D01*
X0258339Y0062284D02*
X0251139Y0062284D01*
X0249940Y0061085D02*
X0258991Y0061085D01*
X0261344Y0063100D02*
X0286844Y0063100D01*
X0285482Y0065879D02*
X0262706Y0065879D01*
X0288206Y0065879D02*
X0334008Y0065879D01*
X0334505Y0064681D02*
X0289533Y0064681D01*
X0289933Y0063482D02*
X0335516Y0063482D01*
X0341558Y0063482D02*
X0345516Y0063482D01*
X0344505Y0064681D02*
X0342569Y0064681D01*
X0343066Y0065879D02*
X0344008Y0065879D01*
X0343937Y0067078D02*
X0343137Y0067078D01*
X0343137Y0068276D02*
X0343937Y0068276D01*
X0343937Y0069475D02*
X0343137Y0069475D01*
X0343137Y0070673D02*
X0343937Y0070673D01*
X0343937Y0071872D02*
X0343137Y0071872D01*
X0343137Y0073070D02*
X0343937Y0073070D01*
X0344098Y0074269D02*
X0342976Y0074269D01*
X0342480Y0075467D02*
X0344594Y0075467D01*
X0345731Y0076666D02*
X0341343Y0076666D01*
X0353137Y0068276D02*
X0353937Y0068276D01*
X0353937Y0067078D02*
X0353137Y0067078D01*
X0353066Y0065879D02*
X0354008Y0065879D01*
X0354505Y0064681D02*
X0352569Y0064681D01*
X0351558Y0063482D02*
X0355516Y0063482D01*
X0366144Y0109026D02*
X0311530Y0109026D01*
X0310331Y0110224D02*
X0366144Y0110224D01*
X0366144Y0111423D02*
X0298890Y0111423D01*
X0298741Y0106629D02*
X0307704Y0106629D01*
X0288807Y0134194D02*
X0402884Y0134194D01*
X0401838Y0135393D02*
X0289395Y0135393D01*
X0289947Y0136591D02*
X0401208Y0136591D01*
X0400831Y0137790D02*
X0290044Y0137790D01*
X0290044Y0138988D02*
X0304587Y0138988D01*
X0304594Y0138981D02*
X0305730Y0138511D01*
X0306959Y0138511D01*
X0308094Y0138981D01*
X0308963Y0139850D01*
X0309433Y0140986D01*
X0309433Y0142214D01*
X0309180Y0142825D01*
X0310255Y0143900D01*
X0318916Y0143900D01*
X0319334Y0143481D01*
X0320470Y0143011D01*
X0321699Y0143011D01*
X0322834Y0143481D01*
X0323253Y0143900D01*
X0343676Y0143900D01*
X0344094Y0143481D01*
X0345230Y0143011D01*
X0346459Y0143011D01*
X0347594Y0143481D01*
X0348463Y0144350D01*
X0348933Y0145486D01*
X0348933Y0146714D01*
X0348463Y0147850D01*
X0347594Y0148719D01*
X0346459Y0149189D01*
X0345230Y0149189D01*
X0344094Y0148719D01*
X0343676Y0148300D01*
X0323253Y0148300D01*
X0322834Y0148719D01*
X0321699Y0149189D01*
X0320470Y0149189D01*
X0319334Y0148719D01*
X0318916Y0148300D01*
X0310255Y0148300D01*
X0308433Y0148300D01*
X0305433Y0145300D01*
X0305433Y0145300D01*
X0304144Y0144011D01*
X0304144Y0143768D01*
X0303725Y0143350D01*
X0303255Y0142214D01*
X0303255Y0140986D01*
X0303725Y0139850D01*
X0304594Y0138981D01*
X0303586Y0140187D02*
X0290044Y0140187D01*
X0290044Y0141385D02*
X0303255Y0141385D01*
X0303408Y0142584D02*
X0290044Y0142584D01*
X0290044Y0143782D02*
X0304144Y0143782D01*
X0305114Y0144981D02*
X0291093Y0144981D01*
X0291806Y0146179D02*
X0306312Y0146179D01*
X0307511Y0147378D02*
X0291933Y0147378D01*
X0291576Y0148576D02*
X0319192Y0148576D01*
X0321084Y0146100D02*
X0345844Y0146100D01*
X0348724Y0144981D02*
X0404299Y0144981D01*
X0402661Y0143782D02*
X0347895Y0143782D01*
X0348933Y0146179D02*
X0411379Y0146179D01*
X0410882Y0147378D02*
X0348658Y0147378D01*
X0347736Y0148576D02*
X0410713Y0148576D01*
X0410713Y0149775D02*
X0290458Y0149775D01*
X0285644Y0143782D02*
X0270544Y0143782D01*
X0270544Y0142584D02*
X0285644Y0142584D01*
X0285644Y0141385D02*
X0270544Y0141385D01*
X0270544Y0140187D02*
X0285644Y0140187D01*
X0306344Y0141600D02*
X0306344Y0143100D01*
X0309344Y0146100D01*
X0321084Y0146100D01*
X0319033Y0143782D02*
X0310138Y0143782D01*
X0309280Y0142584D02*
X0401703Y0142584D01*
X0401115Y0141385D02*
X0309433Y0141385D01*
X0309102Y0140187D02*
X0400799Y0140187D01*
X0406713Y0140187D02*
X0407913Y0140187D01*
X0407913Y0141385D02*
X0406713Y0141385D01*
X0406713Y0142584D02*
X0407913Y0142584D01*
X0407913Y0143782D02*
X0406713Y0143782D01*
X0406713Y0144981D02*
X0407913Y0144981D01*
X0410327Y0144981D02*
X0412098Y0144981D01*
X0411964Y0143782D02*
X0413296Y0143782D01*
X0412922Y0142584D02*
X0415797Y0142584D01*
X0413510Y0141385D02*
X0421115Y0141385D01*
X0420799Y0140187D02*
X0413826Y0140187D01*
X0413794Y0137790D02*
X0420831Y0137790D01*
X0421208Y0136591D02*
X0413417Y0136591D01*
X0412787Y0135393D02*
X0421838Y0135393D01*
X0422884Y0134194D02*
X0411741Y0134194D01*
X0409822Y0132996D02*
X0424803Y0132996D01*
X0426713Y0140187D02*
X0427913Y0140187D01*
X0427913Y0141385D02*
X0426713Y0141385D01*
X0426713Y0142584D02*
X0427913Y0142584D01*
X0427913Y0143782D02*
X0426713Y0143782D01*
X0426713Y0144981D02*
X0427913Y0144981D01*
X0430327Y0144981D02*
X0432039Y0144981D01*
X0432039Y0146179D02*
X0423247Y0146179D01*
X0423743Y0147378D02*
X0432039Y0147378D01*
X0432039Y0148576D02*
X0423913Y0148576D01*
X0423913Y0149775D02*
X0432039Y0149775D01*
X0432039Y0150973D02*
X0423680Y0150973D01*
X0424299Y0144981D02*
X0422527Y0144981D01*
X0422661Y0143782D02*
X0421329Y0143782D01*
X0421703Y0142584D02*
X0418828Y0142584D01*
X0431964Y0143782D02*
X0432039Y0143782D01*
X0432039Y0164157D02*
X0431564Y0164157D01*
X0432039Y0167753D02*
X0323210Y0167753D01*
X0322361Y0168951D02*
X0344167Y0168951D01*
X0345844Y0171600D02*
X0342344Y0171600D01*
X0338344Y0175600D01*
X0338344Y0182600D01*
X0340781Y0184532D02*
X0394644Y0184532D01*
X0394644Y0183333D02*
X0341384Y0183333D01*
X0341433Y0182135D02*
X0394644Y0182135D01*
X0394569Y0180936D02*
X0386376Y0180936D01*
X0384344Y0178600D02*
X0395344Y0178600D01*
X0396844Y0180100D01*
X0396844Y0190600D01*
X0399722Y0191723D02*
X0401153Y0191723D01*
X0401049Y0191974D02*
X0401381Y0191175D01*
X0401813Y0190425D01*
X0402340Y0189739D01*
X0402952Y0189127D01*
X0403638Y0188601D01*
X0404387Y0188168D01*
X0405187Y0187837D01*
X0406022Y0187613D01*
X0406713Y0187522D01*
X0406713Y0193500D01*
X0407913Y0193500D01*
X0407913Y0194700D01*
X0413891Y0194700D01*
X0413800Y0195390D01*
X0413576Y0196226D01*
X0413245Y0197025D01*
X0412812Y0197775D01*
X0412285Y0198461D01*
X0411674Y0199073D01*
X0410987Y0199599D01*
X0410238Y0200032D01*
X0409439Y0200363D01*
X0408603Y0200587D01*
X0407913Y0200678D01*
X0407913Y0194700D01*
X0406713Y0194700D01*
X0406713Y0200678D01*
X0406022Y0200587D01*
X0405187Y0200363D01*
X0404387Y0200032D01*
X0403638Y0199599D01*
X0402952Y0199073D01*
X0402340Y0198461D01*
X0401813Y0197775D01*
X0401381Y0197025D01*
X0401049Y0196226D01*
X0400826Y0195390D01*
X0400735Y0194700D01*
X0406713Y0194700D01*
X0406713Y0193500D01*
X0400735Y0193500D01*
X0400826Y0192810D01*
X0401049Y0191974D01*
X0400811Y0192921D02*
X0398891Y0192921D01*
X0399933Y0190524D02*
X0401756Y0190524D01*
X0402753Y0189326D02*
X0399660Y0189326D01*
X0399044Y0188127D02*
X0404485Y0188127D01*
X0406713Y0188127D02*
X0407913Y0188127D01*
X0407913Y0187522D02*
X0408603Y0187613D01*
X0409439Y0187837D01*
X0410238Y0188168D01*
X0410987Y0188601D01*
X0411674Y0189127D01*
X0412285Y0189739D01*
X0412812Y0190425D01*
X0413245Y0191175D01*
X0413576Y0191974D01*
X0413800Y0192810D01*
X0413891Y0193500D01*
X0407913Y0193500D01*
X0407913Y0187522D01*
X0407913Y0189326D02*
X0406713Y0189326D01*
X0406713Y0190524D02*
X0407913Y0190524D01*
X0407913Y0191723D02*
X0406713Y0191723D01*
X0406713Y0192921D02*
X0407913Y0192921D01*
X0407913Y0194120D02*
X0426713Y0194120D01*
X0426713Y0193500D02*
X0420735Y0193500D01*
X0420826Y0192810D01*
X0421049Y0191974D01*
X0421381Y0191175D01*
X0421813Y0190425D01*
X0422340Y0189739D01*
X0422952Y0189127D01*
X0423638Y0188601D01*
X0424387Y0188168D01*
X0425187Y0187837D01*
X0426022Y0187613D01*
X0426713Y0187522D01*
X0426713Y0193500D01*
X0426713Y0192921D02*
X0427913Y0192921D01*
X0427913Y0191723D02*
X0426713Y0191723D01*
X0426713Y0190524D02*
X0427913Y0190524D01*
X0427913Y0189326D02*
X0426713Y0189326D01*
X0426713Y0188127D02*
X0427913Y0188127D01*
X0430140Y0188127D02*
X0432039Y0188127D01*
X0432039Y0186929D02*
X0399044Y0186929D01*
X0399044Y0185730D02*
X0432039Y0185730D01*
X0432039Y0184532D02*
X0399044Y0184532D01*
X0399044Y0183333D02*
X0432039Y0183333D01*
X0432039Y0182135D02*
X0399044Y0182135D01*
X0399044Y0180936D02*
X0432039Y0180936D01*
X0432039Y0179738D02*
X0399044Y0179738D01*
X0398395Y0178539D02*
X0432039Y0178539D01*
X0432039Y0177341D02*
X0397196Y0177341D01*
X0410140Y0188127D02*
X0424485Y0188127D01*
X0422753Y0189326D02*
X0411872Y0189326D01*
X0412869Y0190524D02*
X0421756Y0190524D01*
X0421153Y0191723D02*
X0413472Y0191723D01*
X0413814Y0192921D02*
X0420811Y0192921D01*
X0420816Y0195318D02*
X0413809Y0195318D01*
X0413455Y0196517D02*
X0421170Y0196517D01*
X0421779Y0197715D02*
X0419145Y0197715D01*
X0418625Y0197500D02*
X0421051Y0198505D01*
X0422908Y0200361D01*
X0423913Y0202787D01*
X0423913Y0205413D01*
X0422908Y0207839D01*
X0421051Y0209695D01*
X0418625Y0210700D01*
X0416000Y0210700D01*
X0413574Y0209695D01*
X0411717Y0207839D01*
X0410713Y0205413D01*
X0410713Y0202787D01*
X0411717Y0200361D01*
X0413574Y0198505D01*
X0416000Y0197500D01*
X0418625Y0197500D01*
X0415480Y0197715D02*
X0412846Y0197715D01*
X0413165Y0198914D02*
X0411832Y0198914D01*
X0411966Y0200112D02*
X0410044Y0200112D01*
X0411324Y0201311D02*
X0283979Y0201311D01*
X0283963Y0201350D02*
X0283544Y0201768D01*
X0283544Y0232689D01*
X0283755Y0232900D01*
X0286176Y0232900D01*
X0286594Y0232481D01*
X0287730Y0232011D01*
X0288959Y0232011D01*
X0290094Y0232481D01*
X0290963Y0233350D01*
X0291433Y0234486D01*
X0291433Y0235714D01*
X0290963Y0236850D01*
X0290094Y0237719D01*
X0288959Y0238189D01*
X0287730Y0238189D01*
X0286594Y0237719D01*
X0286176Y0237300D01*
X0281933Y0237300D01*
X0280644Y0236011D01*
X0279144Y0234511D01*
X0279144Y0201768D01*
X0278725Y0201350D01*
X0278255Y0200214D01*
X0278255Y0198986D01*
X0278725Y0197850D01*
X0279594Y0196981D01*
X0280730Y0196511D01*
X0281959Y0196511D01*
X0283094Y0196981D01*
X0283963Y0197850D01*
X0284433Y0198986D01*
X0284433Y0200214D01*
X0283963Y0201350D01*
X0283544Y0202509D02*
X0410828Y0202509D01*
X0410713Y0203708D02*
X0283544Y0203708D01*
X0283544Y0204906D02*
X0410713Y0204906D01*
X0410999Y0206105D02*
X0318218Y0206105D01*
X0318094Y0205981D02*
X0318963Y0206850D01*
X0319433Y0207986D01*
X0319433Y0209214D01*
X0318963Y0210350D01*
X0318544Y0210768D01*
X0318544Y0237432D01*
X0318963Y0237850D01*
X0319433Y0238986D01*
X0319433Y0240214D01*
X0318963Y0241350D01*
X0318094Y0242219D01*
X0316959Y0242689D01*
X0315730Y0242689D01*
X0314594Y0242219D01*
X0313725Y0241350D01*
X0313255Y0240214D01*
X0313255Y0238986D01*
X0313725Y0237850D01*
X0314144Y0237432D01*
X0314144Y0210768D01*
X0313725Y0210350D01*
X0313255Y0209214D01*
X0313255Y0207986D01*
X0313725Y0206850D01*
X0314594Y0205981D01*
X0315730Y0205511D01*
X0316959Y0205511D01*
X0318094Y0205981D01*
X0319151Y0207303D02*
X0411496Y0207303D01*
X0410817Y0208502D02*
X0412381Y0208502D01*
X0411674Y0209127D02*
X0412285Y0209739D01*
X0412812Y0210425D01*
X0413245Y0211175D01*
X0413576Y0211974D01*
X0413800Y0212810D01*
X0413891Y0213500D01*
X0407913Y0213500D01*
X0407913Y0214700D01*
X0413891Y0214700D01*
X0413800Y0215390D01*
X0413576Y0216226D01*
X0413245Y0217025D01*
X0412812Y0217775D01*
X0412285Y0218461D01*
X0411674Y0219073D01*
X0410987Y0219599D01*
X0410238Y0220032D01*
X0409439Y0220363D01*
X0408603Y0220587D01*
X0407913Y0220678D01*
X0407913Y0214700D01*
X0406713Y0214700D01*
X0406713Y0220678D01*
X0406022Y0220587D01*
X0405187Y0220363D01*
X0404387Y0220032D01*
X0403638Y0219599D01*
X0402952Y0219073D01*
X0402340Y0218461D01*
X0401813Y0217775D01*
X0401381Y0217025D01*
X0401049Y0216226D01*
X0400826Y0215390D01*
X0400735Y0214700D01*
X0406713Y0214700D01*
X0406713Y0213500D01*
X0407913Y0213500D01*
X0407913Y0207522D01*
X0408603Y0207613D01*
X0409439Y0207837D01*
X0410238Y0208168D01*
X0410987Y0208601D01*
X0411674Y0209127D01*
X0412247Y0209701D02*
X0413587Y0209701D01*
X0413086Y0210899D02*
X0421540Y0210899D01*
X0421381Y0211175D02*
X0421813Y0210425D01*
X0422340Y0209739D01*
X0422952Y0209127D01*
X0423638Y0208601D01*
X0424387Y0208168D01*
X0425187Y0207837D01*
X0426022Y0207613D01*
X0426713Y0207522D01*
X0426713Y0213500D01*
X0420735Y0213500D01*
X0420826Y0212810D01*
X0421049Y0211974D01*
X0421381Y0211175D01*
X0421016Y0212098D02*
X0413609Y0212098D01*
X0413864Y0213296D02*
X0420761Y0213296D01*
X0420907Y0215693D02*
X0413719Y0215693D01*
X0413300Y0216892D02*
X0421325Y0216892D01*
X0422055Y0218090D02*
X0412570Y0218090D01*
X0411392Y0219289D02*
X0423233Y0219289D01*
X0425649Y0220487D02*
X0408976Y0220487D01*
X0407913Y0220487D02*
X0406713Y0220487D01*
X0405649Y0220487D02*
X0380019Y0220487D01*
X0379963Y0220350D02*
X0380433Y0221486D01*
X0380433Y0222714D01*
X0379963Y0223850D01*
X0379094Y0224719D01*
X0377959Y0225189D01*
X0376730Y0225189D01*
X0375594Y0224719D01*
X0375176Y0224300D01*
X0372255Y0224300D01*
X0358933Y0237622D01*
X0358933Y0238214D01*
X0358463Y0239350D01*
X0357594Y0240219D01*
X0356459Y0240689D01*
X0355230Y0240689D01*
X0354094Y0240219D01*
X0353225Y0239350D01*
X0352755Y0238214D01*
X0352755Y0236986D01*
X0353225Y0235850D01*
X0354094Y0234981D01*
X0355230Y0234511D01*
X0355822Y0234511D01*
X0369144Y0221189D01*
X0370433Y0219900D01*
X0375176Y0219900D01*
X0375594Y0219481D01*
X0376730Y0219011D01*
X0377959Y0219011D01*
X0379094Y0219481D01*
X0379963Y0220350D01*
X0380433Y0221686D02*
X0432039Y0221686D01*
X0432039Y0222884D02*
X0380363Y0222884D01*
X0379730Y0224083D02*
X0432039Y0224083D01*
X0432039Y0225281D02*
X0371274Y0225281D01*
X0370076Y0226480D02*
X0432039Y0226480D01*
X0432039Y0227678D02*
X0368877Y0227678D01*
X0367679Y0228877D02*
X0432039Y0228877D01*
X0432039Y0230075D02*
X0366480Y0230075D01*
X0365282Y0231274D02*
X0432039Y0231274D01*
X0432039Y0232472D02*
X0364083Y0232472D01*
X0362885Y0233671D02*
X0432039Y0233671D01*
X0432039Y0234869D02*
X0361686Y0234869D01*
X0360488Y0236068D02*
X0432039Y0236068D01*
X0432039Y0237266D02*
X0359289Y0237266D01*
X0358829Y0238465D02*
X0432039Y0238465D01*
X0432039Y0239663D02*
X0358149Y0239663D01*
X0355844Y0237600D02*
X0371344Y0222100D01*
X0377344Y0222100D01*
X0376059Y0219289D02*
X0318544Y0219289D01*
X0318544Y0220487D02*
X0369846Y0220487D01*
X0368647Y0221686D02*
X0318544Y0221686D01*
X0318544Y0222884D02*
X0335829Y0222884D01*
X0335594Y0222981D02*
X0336730Y0222511D01*
X0337959Y0222511D01*
X0339094Y0222981D01*
X0339963Y0223850D01*
X0340433Y0224986D01*
X0340433Y0226214D01*
X0339963Y0227350D01*
X0339544Y0227768D01*
X0339544Y0233011D01*
X0335933Y0236622D01*
X0335933Y0237214D01*
X0335463Y0238350D01*
X0334594Y0239219D01*
X0333459Y0239689D01*
X0332230Y0239689D01*
X0331094Y0239219D01*
X0330225Y0238350D01*
X0329755Y0237214D01*
X0329755Y0235986D01*
X0330225Y0234850D01*
X0331094Y0233981D01*
X0332230Y0233511D01*
X0332822Y0233511D01*
X0335144Y0231189D01*
X0335144Y0227768D01*
X0334725Y0227350D01*
X0334255Y0226214D01*
X0334255Y0224986D01*
X0334725Y0223850D01*
X0335594Y0222981D01*
X0334629Y0224083D02*
X0318544Y0224083D01*
X0318544Y0225281D02*
X0334255Y0225281D01*
X0334365Y0226480D02*
X0318544Y0226480D01*
X0318544Y0227678D02*
X0335054Y0227678D01*
X0335144Y0228877D02*
X0318544Y0228877D01*
X0318544Y0230075D02*
X0335144Y0230075D01*
X0335059Y0231274D02*
X0318544Y0231274D01*
X0318544Y0232472D02*
X0333861Y0232472D01*
X0331844Y0233671D02*
X0318544Y0233671D01*
X0318544Y0234869D02*
X0330217Y0234869D01*
X0329755Y0236068D02*
X0318544Y0236068D01*
X0318544Y0237266D02*
X0329777Y0237266D01*
X0330340Y0238465D02*
X0319217Y0238465D01*
X0319433Y0239663D02*
X0332168Y0239663D01*
X0333520Y0239663D02*
X0353539Y0239663D01*
X0352859Y0238465D02*
X0335348Y0238465D01*
X0335912Y0237266D02*
X0352755Y0237266D01*
X0353135Y0236068D02*
X0336488Y0236068D01*
X0337686Y0234869D02*
X0354365Y0234869D01*
X0356662Y0233671D02*
X0338885Y0233671D01*
X0339544Y0232472D02*
X0357861Y0232472D01*
X0359059Y0231274D02*
X0339544Y0231274D01*
X0339544Y0230075D02*
X0360258Y0230075D01*
X0361456Y0228877D02*
X0339544Y0228877D01*
X0339634Y0227678D02*
X0362655Y0227678D01*
X0363853Y0226480D02*
X0340323Y0226480D01*
X0340433Y0225281D02*
X0365052Y0225281D01*
X0366250Y0224083D02*
X0340059Y0224083D01*
X0338859Y0222884D02*
X0367449Y0222884D01*
X0378629Y0219289D02*
X0403233Y0219289D01*
X0402055Y0218090D02*
X0318544Y0218090D01*
X0318544Y0216892D02*
X0401325Y0216892D01*
X0400907Y0215693D02*
X0318544Y0215693D01*
X0318544Y0214495D02*
X0406713Y0214495D01*
X0406713Y0213500D02*
X0400735Y0213500D01*
X0400826Y0212810D01*
X0401049Y0211974D01*
X0401381Y0211175D01*
X0401813Y0210425D01*
X0402340Y0209739D01*
X0402952Y0209127D01*
X0403638Y0208601D01*
X0404387Y0208168D01*
X0405187Y0207837D01*
X0406022Y0207613D01*
X0406713Y0207522D01*
X0406713Y0213500D01*
X0406713Y0213296D02*
X0407913Y0213296D01*
X0407913Y0212098D02*
X0406713Y0212098D01*
X0406713Y0210899D02*
X0407913Y0210899D01*
X0407913Y0209701D02*
X0406713Y0209701D01*
X0406713Y0208502D02*
X0407913Y0208502D01*
X0403809Y0208502D02*
X0319433Y0208502D01*
X0319232Y0209701D02*
X0402378Y0209701D01*
X0401540Y0210899D02*
X0318544Y0210899D01*
X0318544Y0212098D02*
X0401016Y0212098D01*
X0400761Y0213296D02*
X0318544Y0213296D01*
X0314144Y0213296D02*
X0311544Y0213296D01*
X0311544Y0212098D02*
X0314144Y0212098D01*
X0314144Y0210899D02*
X0311544Y0210899D01*
X0311544Y0210768D02*
X0311544Y0237432D01*
X0311963Y0237850D01*
X0312433Y0238986D01*
X0312433Y0240214D01*
X0311963Y0241350D01*
X0311094Y0242219D01*
X0309959Y0242689D01*
X0308730Y0242689D01*
X0307594Y0242219D01*
X0306725Y0241350D01*
X0306255Y0240214D01*
X0306255Y0238986D01*
X0306725Y0237850D01*
X0307144Y0237432D01*
X0307144Y0210768D01*
X0306725Y0210350D01*
X0306255Y0209214D01*
X0306255Y0207986D01*
X0306725Y0206850D01*
X0307594Y0205981D01*
X0308730Y0205511D01*
X0309959Y0205511D01*
X0311094Y0205981D01*
X0311963Y0206850D01*
X0312433Y0207986D01*
X0312433Y0209214D01*
X0311963Y0210350D01*
X0311544Y0210768D01*
X0312232Y0209701D02*
X0313456Y0209701D01*
X0313255Y0208502D02*
X0312433Y0208502D01*
X0312151Y0207303D02*
X0313538Y0207303D01*
X0314471Y0206105D02*
X0311218Y0206105D01*
X0309344Y0208600D02*
X0309344Y0239600D01*
X0306471Y0238465D02*
X0255990Y0238465D01*
X0256544Y0237266D02*
X0281899Y0237266D01*
X0280701Y0236068D02*
X0256544Y0236068D01*
X0256544Y0234869D02*
X0279502Y0234869D01*
X0279144Y0233671D02*
X0255783Y0233671D01*
X0256848Y0232472D02*
X0254585Y0232472D01*
X0261983Y0232472D02*
X0279144Y0232472D01*
X0279144Y0231274D02*
X0263181Y0231274D01*
X0263615Y0230075D02*
X0279144Y0230075D01*
X0279144Y0228877D02*
X0277436Y0228877D01*
X0278241Y0227678D02*
X0279144Y0227678D01*
X0279144Y0226480D02*
X0278433Y0226480D01*
X0278141Y0225281D02*
X0279144Y0225281D01*
X0279144Y0224083D02*
X0277544Y0224083D01*
X0277544Y0222884D02*
X0279144Y0222884D01*
X0279144Y0221686D02*
X0277544Y0221686D01*
X0277544Y0220487D02*
X0279144Y0220487D01*
X0279144Y0219289D02*
X0277544Y0219289D01*
X0277544Y0218090D02*
X0279144Y0218090D01*
X0279144Y0216892D02*
X0277544Y0216892D01*
X0277544Y0215693D02*
X0279144Y0215693D01*
X0279144Y0214495D02*
X0277544Y0214495D01*
X0277544Y0213296D02*
X0279144Y0213296D01*
X0279144Y0212098D02*
X0277544Y0212098D01*
X0277544Y0210899D02*
X0279144Y0210899D01*
X0279144Y0209701D02*
X0277544Y0209701D01*
X0277544Y0208502D02*
X0279144Y0208502D01*
X0279144Y0207303D02*
X0277544Y0207303D01*
X0277544Y0206105D02*
X0279144Y0206105D01*
X0279144Y0204906D02*
X0277544Y0204906D01*
X0277544Y0203708D02*
X0279144Y0203708D01*
X0279144Y0202509D02*
X0277544Y0202509D01*
X0277544Y0201311D02*
X0278709Y0201311D01*
X0278255Y0200112D02*
X0277544Y0200112D01*
X0277544Y0198914D02*
X0278285Y0198914D01*
X0278860Y0197715D02*
X0277544Y0197715D01*
X0278101Y0196517D02*
X0280715Y0196517D01*
X0281973Y0196517D02*
X0401170Y0196517D01*
X0400816Y0195318D02*
X0278433Y0195318D01*
X0278282Y0194120D02*
X0406713Y0194120D01*
X0406713Y0195318D02*
X0407913Y0195318D01*
X0407913Y0196517D02*
X0406713Y0196517D01*
X0406713Y0197715D02*
X0407913Y0197715D01*
X0407913Y0198914D02*
X0406713Y0198914D01*
X0406713Y0200112D02*
X0407913Y0200112D01*
X0404581Y0200112D02*
X0284433Y0200112D01*
X0284403Y0198914D02*
X0402793Y0198914D01*
X0401779Y0197715D02*
X0283828Y0197715D01*
X0281344Y0199600D02*
X0281344Y0233600D01*
X0282844Y0235100D01*
X0288344Y0235100D01*
X0290546Y0237266D02*
X0307144Y0237266D01*
X0307144Y0236068D02*
X0291287Y0236068D01*
X0291433Y0234869D02*
X0307144Y0234869D01*
X0307144Y0233671D02*
X0291096Y0233671D01*
X0290072Y0232472D02*
X0307144Y0232472D01*
X0307144Y0231274D02*
X0283544Y0231274D01*
X0283544Y0232472D02*
X0286616Y0232472D01*
X0283544Y0230075D02*
X0307144Y0230075D01*
X0307144Y0228877D02*
X0283544Y0228877D01*
X0283544Y0227678D02*
X0307144Y0227678D01*
X0307144Y0226480D02*
X0283544Y0226480D01*
X0283544Y0225281D02*
X0307144Y0225281D01*
X0307144Y0224083D02*
X0283544Y0224083D01*
X0283544Y0222884D02*
X0307144Y0222884D01*
X0307144Y0221686D02*
X0283544Y0221686D01*
X0283544Y0220487D02*
X0307144Y0220487D01*
X0307144Y0219289D02*
X0283544Y0219289D01*
X0283544Y0218090D02*
X0307144Y0218090D01*
X0307144Y0216892D02*
X0283544Y0216892D01*
X0283544Y0215693D02*
X0307144Y0215693D01*
X0307144Y0214495D02*
X0283544Y0214495D01*
X0283544Y0213296D02*
X0307144Y0213296D01*
X0307144Y0212098D02*
X0283544Y0212098D01*
X0283544Y0210899D02*
X0307144Y0210899D01*
X0306456Y0209701D02*
X0283544Y0209701D01*
X0283544Y0208502D02*
X0306255Y0208502D01*
X0306538Y0207303D02*
X0283544Y0207303D01*
X0283544Y0206105D02*
X0307471Y0206105D01*
X0311544Y0214495D02*
X0314144Y0214495D01*
X0314144Y0215693D02*
X0311544Y0215693D01*
X0311544Y0216892D02*
X0314144Y0216892D01*
X0314144Y0218090D02*
X0311544Y0218090D01*
X0311544Y0219289D02*
X0314144Y0219289D01*
X0314144Y0220487D02*
X0311544Y0220487D01*
X0311544Y0221686D02*
X0314144Y0221686D01*
X0314144Y0222884D02*
X0311544Y0222884D01*
X0311544Y0224083D02*
X0314144Y0224083D01*
X0314144Y0225281D02*
X0311544Y0225281D01*
X0311544Y0226480D02*
X0314144Y0226480D01*
X0314144Y0227678D02*
X0311544Y0227678D01*
X0311544Y0228877D02*
X0314144Y0228877D01*
X0314144Y0230075D02*
X0311544Y0230075D01*
X0311544Y0231274D02*
X0314144Y0231274D01*
X0314144Y0232472D02*
X0311544Y0232472D01*
X0311544Y0233671D02*
X0314144Y0233671D01*
X0314144Y0234869D02*
X0311544Y0234869D01*
X0311544Y0236068D02*
X0314144Y0236068D01*
X0314144Y0237266D02*
X0311544Y0237266D01*
X0312217Y0238465D02*
X0313471Y0238465D01*
X0313255Y0239663D02*
X0312433Y0239663D01*
X0312165Y0240862D02*
X0313523Y0240862D01*
X0314436Y0242060D02*
X0311252Y0242060D01*
X0307436Y0242060D02*
X0291433Y0242060D01*
X0291433Y0242214D02*
X0290963Y0243350D01*
X0290094Y0244219D01*
X0288959Y0244689D01*
X0287730Y0244689D01*
X0286594Y0244219D01*
X0286576Y0244200D01*
X0272041Y0244200D01*
X0272023Y0244219D01*
X0270887Y0244689D01*
X0269659Y0244689D01*
X0268523Y0244219D01*
X0267654Y0243350D01*
X0267184Y0242214D01*
X0267184Y0240986D01*
X0267654Y0239850D01*
X0268523Y0238981D01*
X0269659Y0238511D01*
X0270887Y0238511D01*
X0272023Y0238981D01*
X0272041Y0239000D01*
X0286576Y0239000D01*
X0286594Y0238981D01*
X0287730Y0238511D01*
X0288959Y0238511D01*
X0290094Y0238981D01*
X0290963Y0239850D01*
X0291433Y0240986D01*
X0291433Y0242214D01*
X0291000Y0243259D02*
X0403699Y0243259D01*
X0403105Y0243505D02*
X0405531Y0242500D01*
X0408157Y0242500D01*
X0410583Y0243505D01*
X0412439Y0245361D01*
X0413444Y0247787D01*
X0413444Y0250413D01*
X0412439Y0252839D01*
X0410583Y0254695D01*
X0408157Y0255700D01*
X0405531Y0255700D01*
X0403105Y0254695D01*
X0401249Y0252839D01*
X0400244Y0250413D01*
X0400244Y0247787D01*
X0401249Y0245361D01*
X0403105Y0243505D01*
X0402153Y0244457D02*
X0289518Y0244457D01*
X0287170Y0244457D02*
X0271447Y0244457D01*
X0269099Y0244457D02*
X0224344Y0244457D01*
X0224344Y0243259D02*
X0267617Y0243259D01*
X0267184Y0242060D02*
X0224344Y0242060D01*
X0224344Y0240862D02*
X0267235Y0240862D01*
X0267841Y0239663D02*
X0254792Y0239663D01*
X0249897Y0239663D02*
X0224344Y0239663D01*
X0224344Y0238465D02*
X0248698Y0238465D01*
X0248144Y0237266D02*
X0224344Y0237266D01*
X0224344Y0236068D02*
X0248144Y0236068D01*
X0248144Y0234869D02*
X0224344Y0234869D01*
X0224344Y0233671D02*
X0248905Y0233671D01*
X0249657Y0225281D02*
X0247394Y0225281D01*
X0256544Y0222884D02*
X0273144Y0222884D01*
X0273144Y0221686D02*
X0256544Y0221686D01*
X0256544Y0220487D02*
X0273144Y0220487D01*
X0273144Y0219289D02*
X0255543Y0219289D01*
X0254345Y0218090D02*
X0273144Y0218090D01*
X0273144Y0200112D02*
X0231243Y0200112D01*
X0231237Y0198914D02*
X0273144Y0198914D01*
X0273144Y0197715D02*
X0230363Y0197715D01*
X0227684Y0197715D02*
X0226484Y0197715D01*
X0226484Y0198914D02*
X0227684Y0198914D01*
X0227684Y0200112D02*
X0226484Y0200112D01*
X0226484Y0201311D02*
X0227684Y0201311D01*
X0227684Y0203708D02*
X0226484Y0203708D01*
X0226484Y0204906D02*
X0227684Y0204906D01*
X0227684Y0206105D02*
X0226484Y0206105D01*
X0224344Y0196517D02*
X0272588Y0196517D01*
X0272255Y0195318D02*
X0224062Y0195318D01*
X0222864Y0194120D02*
X0272407Y0194120D01*
X0277534Y0192921D02*
X0394797Y0192921D01*
X0382312Y0180936D02*
X0340998Y0180936D01*
X0340544Y0179738D02*
X0381472Y0179738D01*
X0381255Y0178539D02*
X0340544Y0178539D01*
X0340544Y0177341D02*
X0381522Y0177341D01*
X0382433Y0176142D02*
X0340913Y0176142D01*
X0342112Y0174944D02*
X0432039Y0174944D01*
X0432039Y0176142D02*
X0386255Y0176142D01*
X0358344Y0162600D02*
X0323844Y0162600D01*
X0320344Y0166100D01*
X0320344Y0166600D01*
X0322976Y0148576D02*
X0343952Y0148576D01*
X0343793Y0143782D02*
X0323135Y0143782D01*
X0308101Y0138988D02*
X0406713Y0138988D01*
X0432039Y0168951D02*
X0347521Y0168951D01*
X0348587Y0170150D02*
X0432039Y0170150D01*
X0432039Y0171348D02*
X0348933Y0171348D01*
X0348795Y0172547D02*
X0432039Y0172547D01*
X0432039Y0173745D02*
X0348067Y0173745D01*
X0336144Y0177341D02*
X0254044Y0177341D01*
X0253516Y0178539D02*
X0336144Y0178539D01*
X0336144Y0179738D02*
X0252318Y0179738D01*
X0252755Y0179300D02*
X0252755Y0179300D01*
X0316344Y0208600D02*
X0316344Y0239600D01*
X0319165Y0240862D02*
X0432039Y0240862D01*
X0432039Y0242060D02*
X0318252Y0242060D01*
X0306523Y0240862D02*
X0291382Y0240862D01*
X0290776Y0239663D02*
X0306255Y0239663D01*
X0332844Y0236600D02*
X0337344Y0232100D01*
X0337344Y0225600D01*
X0400630Y0246854D02*
X0224344Y0246854D01*
X0224344Y0245656D02*
X0401127Y0245656D01*
X0400244Y0248053D02*
X0224344Y0248053D01*
X0224344Y0249251D02*
X0400244Y0249251D01*
X0400259Y0250450D02*
X0224344Y0250450D01*
X0224344Y0251648D02*
X0228898Y0251648D01*
X0229230Y0251511D02*
X0230459Y0251511D01*
X0231594Y0251981D01*
X0231613Y0252000D01*
X0256576Y0252000D01*
X0256594Y0251981D01*
X0257730Y0251511D01*
X0258959Y0251511D01*
X0260094Y0251981D01*
X0260963Y0252850D01*
X0261433Y0253986D01*
X0261433Y0255214D01*
X0260963Y0256350D01*
X0260094Y0257219D01*
X0258959Y0257689D01*
X0257730Y0257689D01*
X0256594Y0257219D01*
X0256576Y0257200D01*
X0231613Y0257200D01*
X0231594Y0257219D01*
X0230459Y0257689D01*
X0229230Y0257689D01*
X0228094Y0257219D01*
X0227225Y0256350D01*
X0226755Y0255214D01*
X0226755Y0253986D01*
X0227225Y0252850D01*
X0228094Y0251981D01*
X0229230Y0251511D01*
X0230790Y0251648D02*
X0257398Y0251648D01*
X0259290Y0251648D02*
X0400756Y0251648D01*
X0401257Y0252847D02*
X0260959Y0252847D01*
X0261433Y0254045D02*
X0402456Y0254045D01*
X0404430Y0255244D02*
X0261421Y0255244D01*
X0260870Y0256442D02*
X0410801Y0256442D01*
X0411249Y0255361D02*
X0413105Y0253505D01*
X0415531Y0252500D01*
X0418157Y0252500D01*
X0420583Y0253505D01*
X0422439Y0255361D01*
X0423444Y0257787D01*
X0423444Y0260413D01*
X0422439Y0262839D01*
X0420583Y0264695D01*
X0418157Y0265700D01*
X0415531Y0265700D01*
X0413105Y0264695D01*
X0411249Y0262839D01*
X0410244Y0260413D01*
X0410244Y0257787D01*
X0411249Y0255361D01*
X0411366Y0255244D02*
X0409258Y0255244D01*
X0411232Y0254045D02*
X0412565Y0254045D01*
X0412431Y0252847D02*
X0414694Y0252847D01*
X0412932Y0251648D02*
X0420756Y0251648D01*
X0420259Y0250450D02*
X0413429Y0250450D01*
X0413444Y0249251D02*
X0420244Y0249251D01*
X0420244Y0248053D02*
X0413444Y0248053D01*
X0413058Y0246854D02*
X0420630Y0246854D01*
X0421127Y0245656D02*
X0412561Y0245656D01*
X0411535Y0244457D02*
X0422153Y0244457D01*
X0423699Y0243259D02*
X0409989Y0243259D01*
X0418994Y0252847D02*
X0421257Y0252847D01*
X0421123Y0254045D02*
X0422456Y0254045D01*
X0422322Y0255244D02*
X0424430Y0255244D01*
X0422887Y0256442D02*
X0432039Y0256442D01*
X0432039Y0255244D02*
X0429258Y0255244D01*
X0431232Y0254045D02*
X0432039Y0254045D01*
X0432039Y0257641D02*
X0423384Y0257641D01*
X0423444Y0258839D02*
X0432039Y0258839D01*
X0432039Y0260038D02*
X0423444Y0260038D01*
X0423103Y0261237D02*
X0432039Y0261237D01*
X0432039Y0262435D02*
X0422606Y0262435D01*
X0422977Y0263634D02*
X0421644Y0263634D01*
X0421778Y0264832D02*
X0420252Y0264832D01*
X0420972Y0266031D02*
X0412716Y0266031D01*
X0412439Y0265361D02*
X0413444Y0267787D01*
X0413444Y0270413D01*
X0412439Y0272839D01*
X0410583Y0274695D01*
X0408157Y0275700D01*
X0405531Y0275700D01*
X0403105Y0274695D01*
X0401249Y0272839D01*
X0400244Y0270413D01*
X0400244Y0267787D01*
X0401249Y0265361D01*
X0403105Y0263505D01*
X0405531Y0262500D01*
X0408157Y0262500D01*
X0410583Y0263505D01*
X0412439Y0265361D01*
X0411910Y0264832D02*
X0413436Y0264832D01*
X0412044Y0263634D02*
X0410711Y0263634D01*
X0411082Y0262435D02*
X0224344Y0262435D01*
X0224344Y0261237D02*
X0410585Y0261237D01*
X0410244Y0260038D02*
X0224344Y0260038D01*
X0224344Y0258839D02*
X0410244Y0258839D01*
X0410305Y0257641D02*
X0259074Y0257641D01*
X0257614Y0257641D02*
X0230574Y0257641D01*
X0229114Y0257641D02*
X0224344Y0257641D01*
X0224344Y0256442D02*
X0227318Y0256442D01*
X0226767Y0255244D02*
X0224344Y0255244D01*
X0224344Y0254045D02*
X0226755Y0254045D01*
X0227229Y0252847D02*
X0224344Y0252847D01*
X0224344Y0263634D02*
X0402977Y0263634D01*
X0401778Y0264832D02*
X0224344Y0264832D01*
X0224344Y0266031D02*
X0400972Y0266031D01*
X0400475Y0267229D02*
X0224344Y0267229D01*
X0224344Y0268428D02*
X0400244Y0268428D01*
X0400244Y0269626D02*
X0175377Y0269626D01*
X0174179Y0270825D02*
X0400415Y0270825D01*
X0400911Y0272023D02*
X0172980Y0272023D01*
X0171782Y0273222D02*
X0401632Y0273222D01*
X0402830Y0274420D02*
X0170583Y0274420D01*
X0169385Y0275619D02*
X0405335Y0275619D01*
X0408353Y0275619D02*
X0425335Y0275619D01*
X0422830Y0274420D02*
X0410858Y0274420D01*
X0412056Y0273222D02*
X0421632Y0273222D01*
X0420911Y0272023D02*
X0412777Y0272023D01*
X0413274Y0270825D02*
X0420415Y0270825D01*
X0420244Y0269626D02*
X0413444Y0269626D01*
X0413444Y0268428D02*
X0420244Y0268428D01*
X0420475Y0267229D02*
X0413213Y0267229D01*
X0428353Y0275619D02*
X0432039Y0275619D01*
X0432039Y0276817D02*
X0266025Y0276817D01*
X0265259Y0276500D02*
X0266950Y0277200D01*
X0268244Y0278494D01*
X0268944Y0280185D01*
X0268944Y0288015D01*
X0268244Y0289706D01*
X0266950Y0291000D01*
X0265259Y0291700D01*
X0263429Y0291700D01*
X0261738Y0291000D01*
X0260444Y0289706D01*
X0259744Y0288015D01*
X0259744Y0280185D01*
X0260444Y0278494D01*
X0261738Y0277200D01*
X0263429Y0276500D01*
X0265259Y0276500D01*
X0262663Y0276817D02*
X0256025Y0276817D01*
X0255259Y0276500D02*
X0256950Y0277200D01*
X0258244Y0278494D01*
X0258944Y0280185D01*
X0258944Y0288015D01*
X0258244Y0289706D01*
X0256950Y0291000D01*
X0255259Y0291700D01*
X0253429Y0291700D01*
X0251738Y0291000D01*
X0250444Y0289706D01*
X0249744Y0288015D01*
X0249744Y0280185D01*
X0250444Y0278494D01*
X0251738Y0277200D01*
X0253429Y0276500D01*
X0255259Y0276500D01*
X0252663Y0276817D02*
X0168186Y0276817D01*
X0166987Y0278016D02*
X0250923Y0278016D01*
X0250146Y0279214D02*
X0165789Y0279214D01*
X0164590Y0280413D02*
X0249744Y0280413D01*
X0249744Y0281611D02*
X0163392Y0281611D01*
X0162193Y0282810D02*
X0249744Y0282810D01*
X0249744Y0284008D02*
X0160995Y0284008D01*
X0159796Y0285207D02*
X0249744Y0285207D01*
X0249744Y0286405D02*
X0158598Y0286405D01*
X0157399Y0287604D02*
X0249744Y0287604D01*
X0250070Y0288802D02*
X0156201Y0288802D01*
X0155002Y0290001D02*
X0250739Y0290001D01*
X0252220Y0291199D02*
X0153804Y0291199D01*
X0152605Y0292398D02*
X0432039Y0292398D01*
X0432039Y0293596D02*
X0151407Y0293596D01*
X0150208Y0294795D02*
X0432039Y0294795D01*
X0432039Y0295993D02*
X0149010Y0295993D01*
X0148844Y0297192D02*
X0432039Y0297192D01*
X0432039Y0298390D02*
X0148844Y0298390D01*
X0148844Y0299589D02*
X0432039Y0299589D01*
X0432039Y0300787D02*
X0148844Y0300787D01*
X0148844Y0301986D02*
X0432039Y0301986D01*
X0432039Y0303184D02*
X0148844Y0303184D01*
X0148844Y0304383D02*
X0432039Y0304383D01*
X0432039Y0305581D02*
X0148844Y0305581D01*
X0148844Y0306780D02*
X0432039Y0306780D01*
X0432039Y0307978D02*
X0148844Y0307978D01*
X0148844Y0309177D02*
X0432039Y0309177D01*
X0432039Y0310375D02*
X0429625Y0310375D01*
X0429450Y0310200D02*
X0430744Y0311494D01*
X0431444Y0313185D01*
X0431444Y0315015D01*
X0430744Y0316706D01*
X0429450Y0318000D01*
X0427759Y0318700D01*
X0419929Y0318700D01*
X0418238Y0318000D01*
X0416944Y0316706D01*
X0416244Y0315015D01*
X0416244Y0313185D01*
X0416944Y0311494D01*
X0418238Y0310200D01*
X0419929Y0309500D01*
X0427759Y0309500D01*
X0429450Y0310200D01*
X0430777Y0311574D02*
X0432039Y0311574D01*
X0432039Y0312772D02*
X0431273Y0312772D01*
X0431444Y0313971D02*
X0432039Y0313971D01*
X0432039Y0315170D02*
X0431380Y0315170D01*
X0430884Y0316368D02*
X0432039Y0316368D01*
X0432039Y0317567D02*
X0429883Y0317567D01*
X0432039Y0318765D02*
X0148844Y0318765D01*
X0148844Y0317567D02*
X0417805Y0317567D01*
X0416805Y0316368D02*
X0148844Y0316368D01*
X0148844Y0315170D02*
X0416308Y0315170D01*
X0416244Y0313971D02*
X0148844Y0313971D01*
X0148844Y0312772D02*
X0416415Y0312772D01*
X0416911Y0311574D02*
X0148844Y0311574D01*
X0148844Y0310375D02*
X0418063Y0310375D01*
X0419767Y0319613D02*
X0420482Y0319500D01*
X0423444Y0319500D01*
X0423444Y0323700D01*
X0416250Y0323700D01*
X0416357Y0323023D01*
X0416581Y0322334D01*
X0416910Y0321689D01*
X0417335Y0321103D01*
X0417847Y0320591D01*
X0418433Y0320166D01*
X0419078Y0319837D01*
X0419767Y0319613D01*
X0418830Y0319964D02*
X0148844Y0319964D01*
X0148844Y0321162D02*
X0218908Y0321162D01*
X0218922Y0321148D02*
X0219544Y0320732D01*
X0220236Y0320446D01*
X0220970Y0320300D01*
X0221344Y0320300D01*
X0221344Y0324100D01*
X0221344Y0324100D01*
X0217544Y0324100D01*
X0217544Y0324474D01*
X0217690Y0325208D01*
X0217977Y0325900D01*
X0218392Y0326522D01*
X0218922Y0327052D01*
X0219544Y0327468D01*
X0220236Y0327754D01*
X0220970Y0327900D01*
X0221344Y0327900D01*
X0221344Y0324100D01*
X0217544Y0324100D01*
X0217544Y0323726D01*
X0217690Y0322992D01*
X0217977Y0322300D01*
X0218392Y0321678D01*
X0218922Y0321148D01*
X0217951Y0322361D02*
X0148844Y0322361D01*
X0148844Y0323559D02*
X0217577Y0323559D01*
X0217600Y0324758D02*
X0148844Y0324758D01*
X0148844Y0325956D02*
X0218014Y0325956D01*
X0219076Y0327155D02*
X0148844Y0327155D01*
X0148844Y0328353D02*
X0419059Y0328353D01*
X0419078Y0328363D02*
X0418433Y0328034D01*
X0417847Y0327609D01*
X0417335Y0327097D01*
X0416910Y0326511D01*
X0416581Y0325866D01*
X0416357Y0325177D01*
X0416250Y0324500D01*
X0423444Y0324500D01*
X0423444Y0323700D01*
X0424244Y0323700D01*
X0424244Y0319500D01*
X0427206Y0319500D01*
X0427921Y0319613D01*
X0428610Y0319837D01*
X0429255Y0320166D01*
X0429841Y0320591D01*
X0430353Y0321103D01*
X0430778Y0321689D01*
X0431107Y0322334D01*
X0431331Y0323023D01*
X0431438Y0323700D01*
X0424244Y0323700D01*
X0424244Y0324500D01*
X0423444Y0324500D01*
X0423444Y0328700D01*
X0420482Y0328700D01*
X0419767Y0328587D01*
X0419078Y0328363D01*
X0419804Y0329552D02*
X0148844Y0329552D01*
X0148844Y0330750D02*
X0196825Y0330750D01*
X0196676Y0330900D02*
X0197094Y0330481D01*
X0198230Y0330011D01*
X0199459Y0330011D01*
X0200594Y0330481D01*
X0201463Y0331350D01*
X0201933Y0332486D01*
X0201933Y0333714D01*
X0201463Y0334850D01*
X0200594Y0335719D01*
X0199459Y0336189D01*
X0198230Y0336189D01*
X0197094Y0335719D01*
X0196676Y0335300D01*
X0175255Y0335300D01*
X0174044Y0336511D01*
X0174044Y0372032D01*
X0174450Y0372200D01*
X0175744Y0373494D01*
X0176444Y0375185D01*
X0176444Y0383015D01*
X0175744Y0384706D01*
X0174450Y0386000D01*
X0172759Y0386700D01*
X0170929Y0386700D01*
X0169238Y0386000D01*
X0167944Y0384706D01*
X0167244Y0383015D01*
X0167244Y0375185D01*
X0167944Y0373494D01*
X0169238Y0372200D01*
X0169644Y0372032D01*
X0169644Y0334689D01*
X0170933Y0333400D01*
X0173433Y0330900D01*
X0196676Y0330900D01*
X0198844Y0333100D02*
X0174344Y0333100D01*
X0171844Y0335600D01*
X0171844Y0379100D01*
X0167244Y0378691D02*
X0077066Y0378691D01*
X0077066Y0379889D02*
X0167244Y0379889D01*
X0167244Y0381088D02*
X0077066Y0381088D01*
X0077066Y0382286D02*
X0167244Y0382286D01*
X0167439Y0383485D02*
X0077066Y0383485D01*
X0077066Y0384683D02*
X0167935Y0384683D01*
X0169120Y0385882D02*
X0077066Y0385882D01*
X0077066Y0387080D02*
X0238744Y0387080D01*
X0238744Y0387515D02*
X0239444Y0389206D01*
X0240738Y0390500D01*
X0242429Y0391200D01*
X0244259Y0391200D01*
X0245950Y0390500D01*
X0247244Y0389206D01*
X0247944Y0387515D01*
X0247944Y0379685D01*
X0247244Y0377994D01*
X0245950Y0376700D01*
X0244259Y0376000D01*
X0242429Y0376000D01*
X0240738Y0376700D01*
X0239444Y0377994D01*
X0238744Y0379685D01*
X0238744Y0387515D01*
X0239060Y0388279D02*
X0077066Y0388279D01*
X0077066Y0389477D02*
X0239716Y0389477D01*
X0241163Y0390676D02*
X0077066Y0390676D01*
X0077066Y0391874D02*
X0267866Y0391874D01*
X0267866Y0393015D02*
X0267866Y0385185D01*
X0268566Y0383494D01*
X0269860Y0382200D01*
X0271551Y0381500D01*
X0273381Y0381500D01*
X0275072Y0382200D01*
X0276366Y0383494D01*
X0277066Y0385185D01*
X0277066Y0393015D01*
X0276366Y0394706D01*
X0275072Y0396000D01*
X0273381Y0396700D01*
X0271551Y0396700D01*
X0269860Y0396000D01*
X0268566Y0394706D01*
X0267866Y0393015D01*
X0267890Y0393073D02*
X0077066Y0393073D01*
X0077066Y0394271D02*
X0268387Y0394271D01*
X0269331Y0395470D02*
X0077066Y0395470D01*
X0077066Y0396668D02*
X0271475Y0396668D01*
X0273458Y0396668D02*
X0281904Y0396668D01*
X0282066Y0396668D02*
X0282866Y0396668D01*
X0282866Y0396694D02*
X0282866Y0389500D01*
X0282066Y0389500D01*
X0282066Y0388700D01*
X0277866Y0388700D01*
X0277866Y0385738D01*
X0277979Y0385023D01*
X0278203Y0384334D01*
X0278532Y0383689D01*
X0278957Y0383103D01*
X0279469Y0382591D01*
X0280055Y0382166D01*
X0280700Y0381837D01*
X0281389Y0381613D01*
X0282066Y0381506D01*
X0282066Y0388700D01*
X0282866Y0388700D01*
X0282866Y0381506D01*
X0283543Y0381613D01*
X0284232Y0381837D01*
X0284877Y0382166D01*
X0285463Y0382591D01*
X0285975Y0383103D01*
X0286400Y0383689D01*
X0286729Y0384334D01*
X0286953Y0385023D01*
X0287066Y0385738D01*
X0287066Y0388700D01*
X0282866Y0388700D01*
X0282866Y0389500D01*
X0287066Y0389500D01*
X0287066Y0392462D01*
X0286953Y0393177D01*
X0286729Y0393866D01*
X0286400Y0394511D01*
X0285975Y0395097D01*
X0285463Y0395609D01*
X0284877Y0396034D01*
X0284232Y0396363D01*
X0283543Y0396587D01*
X0282866Y0396694D01*
X0283028Y0396668D02*
X0291475Y0396668D01*
X0291551Y0396700D02*
X0289860Y0396000D01*
X0288566Y0394706D01*
X0287866Y0393015D01*
X0287866Y0385185D01*
X0288566Y0383494D01*
X0289860Y0382200D01*
X0291551Y0381500D01*
X0293381Y0381500D01*
X0295072Y0382200D01*
X0296366Y0383494D01*
X0297066Y0385185D01*
X0297066Y0393015D01*
X0296366Y0394706D01*
X0295072Y0396000D01*
X0293381Y0396700D01*
X0291551Y0396700D01*
X0293458Y0396668D02*
X0409525Y0396668D01*
X0409339Y0396482D02*
X0408339Y0394068D01*
X0408339Y0391455D01*
X0409339Y0389041D01*
X0411186Y0387193D01*
X0413601Y0386193D01*
X0416214Y0386193D01*
X0418628Y0387193D01*
X0420476Y0389041D01*
X0421476Y0391455D01*
X0421476Y0394068D01*
X0420476Y0396482D01*
X0418628Y0398330D01*
X0416214Y0399330D01*
X0413601Y0399330D01*
X0411186Y0398330D01*
X0409339Y0396482D01*
X0408919Y0395470D02*
X0295602Y0395470D01*
X0296546Y0394271D02*
X0408423Y0394271D01*
X0408339Y0393073D02*
X0297042Y0393073D01*
X0297066Y0391874D02*
X0408339Y0391874D01*
X0408661Y0390676D02*
X0297066Y0390676D01*
X0297066Y0389477D02*
X0409158Y0389477D01*
X0410101Y0388279D02*
X0297066Y0388279D01*
X0297066Y0387080D02*
X0411458Y0387080D01*
X0413601Y0382007D02*
X0411186Y0381007D01*
X0409339Y0379159D01*
X0408339Y0376745D01*
X0408339Y0374132D01*
X0409339Y0371718D01*
X0411186Y0369870D01*
X0413601Y0368870D01*
X0416214Y0368870D01*
X0418628Y0369870D01*
X0420476Y0371718D01*
X0421476Y0374132D01*
X0421476Y0376745D01*
X0420476Y0379159D01*
X0418628Y0381007D01*
X0416214Y0382007D01*
X0413601Y0382007D01*
X0411381Y0381088D02*
X0257944Y0381088D01*
X0257944Y0380238D02*
X0257944Y0383200D01*
X0253744Y0383200D01*
X0253744Y0376006D01*
X0254421Y0376113D01*
X0255110Y0376337D01*
X0255755Y0376666D01*
X0256341Y0377091D01*
X0256853Y0377603D01*
X0257278Y0378189D01*
X0257607Y0378834D01*
X0257831Y0379523D01*
X0257944Y0380238D01*
X0257889Y0379889D02*
X0410068Y0379889D01*
X0409144Y0378691D02*
X0257534Y0378691D01*
X0256742Y0377492D02*
X0408648Y0377492D01*
X0408339Y0376294D02*
X0254976Y0376294D01*
X0253744Y0376294D02*
X0252944Y0376294D01*
X0252944Y0376006D02*
X0252944Y0383200D01*
X0248744Y0383200D01*
X0248744Y0380238D01*
X0248857Y0379523D01*
X0249081Y0378834D01*
X0249410Y0378189D01*
X0249835Y0377603D01*
X0250347Y0377091D01*
X0250933Y0376666D01*
X0251578Y0376337D01*
X0252267Y0376113D01*
X0252944Y0376006D01*
X0251712Y0376294D02*
X0244968Y0376294D01*
X0246742Y0377492D02*
X0249947Y0377492D01*
X0249154Y0378691D02*
X0247532Y0378691D01*
X0247944Y0379889D02*
X0248799Y0379889D01*
X0248744Y0381088D02*
X0247944Y0381088D01*
X0247944Y0382286D02*
X0248744Y0382286D01*
X0247944Y0383485D02*
X0252944Y0383485D01*
X0252944Y0383200D02*
X0252944Y0384000D01*
X0248744Y0384000D01*
X0248744Y0386962D01*
X0248857Y0387677D01*
X0249081Y0388366D01*
X0249410Y0389011D01*
X0249835Y0389597D01*
X0250347Y0390109D01*
X0250933Y0390534D01*
X0251578Y0390863D01*
X0252267Y0391087D01*
X0252944Y0391194D01*
X0252944Y0384000D01*
X0253744Y0384000D01*
X0253744Y0391194D01*
X0254421Y0391087D01*
X0255110Y0390863D01*
X0255755Y0390534D01*
X0256341Y0390109D01*
X0256853Y0389597D01*
X0257278Y0389011D01*
X0257607Y0388366D01*
X0257831Y0387677D01*
X0257944Y0386962D01*
X0257944Y0384000D01*
X0253744Y0384000D01*
X0253744Y0383200D01*
X0252944Y0383200D01*
X0253744Y0383485D02*
X0268576Y0383485D01*
X0268074Y0384683D02*
X0257944Y0384683D01*
X0257944Y0385882D02*
X0267866Y0385882D01*
X0267866Y0387080D02*
X0257925Y0387080D01*
X0257635Y0388279D02*
X0267866Y0388279D01*
X0267866Y0389477D02*
X0256940Y0389477D01*
X0255477Y0390676D02*
X0267866Y0390676D01*
X0269775Y0382286D02*
X0257944Y0382286D01*
X0253744Y0382286D02*
X0252944Y0382286D01*
X0252944Y0381088D02*
X0253744Y0381088D01*
X0253744Y0379889D02*
X0252944Y0379889D01*
X0252944Y0378691D02*
X0253744Y0378691D01*
X0253744Y0377492D02*
X0252944Y0377492D01*
X0252944Y0384683D02*
X0253744Y0384683D01*
X0253744Y0385882D02*
X0252944Y0385882D01*
X0252944Y0387080D02*
X0253744Y0387080D01*
X0253744Y0388279D02*
X0252944Y0388279D01*
X0252944Y0389477D02*
X0253744Y0389477D01*
X0253744Y0390676D02*
X0252944Y0390676D01*
X0251211Y0390676D02*
X0245525Y0390676D01*
X0246972Y0389477D02*
X0249749Y0389477D01*
X0249053Y0388279D02*
X0247628Y0388279D01*
X0247944Y0387080D02*
X0248763Y0387080D01*
X0248744Y0385882D02*
X0247944Y0385882D01*
X0247944Y0384683D02*
X0248744Y0384683D01*
X0239156Y0378691D02*
X0196444Y0378691D01*
X0196444Y0379889D02*
X0238744Y0379889D01*
X0238744Y0381088D02*
X0196444Y0381088D01*
X0196444Y0382286D02*
X0238744Y0382286D01*
X0238744Y0383485D02*
X0196250Y0383485D01*
X0196444Y0383015D02*
X0195744Y0384706D01*
X0194450Y0386000D01*
X0192759Y0386700D01*
X0190929Y0386700D01*
X0189238Y0386000D01*
X0187944Y0384706D01*
X0187244Y0383015D01*
X0187244Y0375185D01*
X0187944Y0373494D01*
X0189238Y0372200D01*
X0190929Y0371500D01*
X0192759Y0371500D01*
X0194450Y0372200D01*
X0195744Y0373494D01*
X0196444Y0375185D01*
X0196444Y0383015D01*
X0195753Y0384683D02*
X0238744Y0384683D01*
X0238744Y0385882D02*
X0194568Y0385882D01*
X0189120Y0385882D02*
X0184568Y0385882D01*
X0184450Y0386000D02*
X0182759Y0386700D01*
X0180929Y0386700D01*
X0179238Y0386000D01*
X0177944Y0384706D01*
X0177244Y0383015D01*
X0177244Y0375185D01*
X0177944Y0373494D01*
X0179238Y0372200D01*
X0180929Y0371500D01*
X0182759Y0371500D01*
X0184450Y0372200D01*
X0185744Y0373494D01*
X0186444Y0375185D01*
X0186444Y0383015D01*
X0185744Y0384706D01*
X0184450Y0386000D01*
X0185753Y0384683D02*
X0187935Y0384683D01*
X0187439Y0383485D02*
X0186250Y0383485D01*
X0186444Y0382286D02*
X0187244Y0382286D01*
X0187244Y0381088D02*
X0186444Y0381088D01*
X0186444Y0379889D02*
X0187244Y0379889D01*
X0187244Y0378691D02*
X0186444Y0378691D01*
X0186444Y0377492D02*
X0187244Y0377492D01*
X0187244Y0376294D02*
X0186444Y0376294D01*
X0186407Y0375095D02*
X0187281Y0375095D01*
X0187778Y0373897D02*
X0185910Y0373897D01*
X0184948Y0372698D02*
X0188741Y0372698D01*
X0194948Y0372698D02*
X0408933Y0372698D01*
X0408436Y0373897D02*
X0195910Y0373897D01*
X0196407Y0375095D02*
X0408339Y0375095D01*
X0409557Y0371500D02*
X0174044Y0371500D01*
X0174044Y0370301D02*
X0410755Y0370301D01*
X0413039Y0369103D02*
X0174044Y0369103D01*
X0174044Y0367904D02*
X0432039Y0367904D01*
X0432039Y0366705D02*
X0174044Y0366705D01*
X0174044Y0365507D02*
X0432039Y0365507D01*
X0432039Y0364308D02*
X0174044Y0364308D01*
X0174044Y0363110D02*
X0432039Y0363110D01*
X0432039Y0361911D02*
X0174044Y0361911D01*
X0174044Y0360713D02*
X0432039Y0360713D01*
X0432039Y0359514D02*
X0174044Y0359514D01*
X0174044Y0358316D02*
X0432039Y0358316D01*
X0432039Y0357117D02*
X0174044Y0357117D01*
X0174044Y0355919D02*
X0432039Y0355919D01*
X0432039Y0354720D02*
X0174044Y0354720D01*
X0174044Y0353522D02*
X0432039Y0353522D01*
X0432039Y0352323D02*
X0174044Y0352323D01*
X0174044Y0351125D02*
X0432039Y0351125D01*
X0432039Y0349926D02*
X0174044Y0349926D01*
X0174044Y0348728D02*
X0432039Y0348728D01*
X0432039Y0347529D02*
X0222995Y0347529D01*
X0223497Y0347321D02*
X0222100Y0347900D01*
X0220588Y0347900D01*
X0219192Y0347321D01*
X0218123Y0346253D01*
X0217544Y0344856D01*
X0217544Y0343344D01*
X0218123Y0341947D01*
X0219192Y0340879D01*
X0220588Y0340300D01*
X0222100Y0340300D01*
X0223497Y0340879D01*
X0224566Y0341947D01*
X0225144Y0343344D01*
X0225144Y0344856D01*
X0224566Y0346253D01*
X0223497Y0347321D01*
X0224487Y0346331D02*
X0432039Y0346331D01*
X0432039Y0345132D02*
X0225030Y0345132D01*
X0225144Y0343934D02*
X0432039Y0343934D01*
X0432039Y0342735D02*
X0224892Y0342735D01*
X0224155Y0341537D02*
X0432039Y0341537D01*
X0432039Y0340338D02*
X0222192Y0340338D01*
X0220496Y0340338D02*
X0174044Y0340338D01*
X0174044Y0339140D02*
X0432039Y0339140D01*
X0432039Y0337941D02*
X0429508Y0337941D01*
X0429450Y0338000D02*
X0427759Y0338700D01*
X0419929Y0338700D01*
X0418238Y0338000D01*
X0416944Y0336706D01*
X0416244Y0335015D01*
X0416244Y0333185D01*
X0416944Y0331494D01*
X0418238Y0330200D01*
X0419929Y0329500D01*
X0427759Y0329500D01*
X0429450Y0330200D01*
X0430744Y0331494D01*
X0431444Y0333185D01*
X0431444Y0335015D01*
X0430744Y0336706D01*
X0429450Y0338000D01*
X0430707Y0336743D02*
X0432039Y0336743D01*
X0432039Y0335544D02*
X0431225Y0335544D01*
X0431444Y0334346D02*
X0432039Y0334346D01*
X0432039Y0333147D02*
X0431428Y0333147D01*
X0430932Y0331949D02*
X0432039Y0331949D01*
X0432039Y0330750D02*
X0430000Y0330750D01*
X0432039Y0329552D02*
X0427884Y0329552D01*
X0427921Y0328587D02*
X0427206Y0328700D01*
X0424244Y0328700D01*
X0424244Y0324500D01*
X0431438Y0324500D01*
X0431331Y0325177D01*
X0431107Y0325866D01*
X0430778Y0326511D01*
X0430353Y0327097D01*
X0429841Y0327609D01*
X0429255Y0328034D01*
X0428610Y0328363D01*
X0427921Y0328587D01*
X0428629Y0328353D02*
X0432039Y0328353D01*
X0432039Y0327155D02*
X0430295Y0327155D01*
X0431061Y0325956D02*
X0432039Y0325956D01*
X0432039Y0324758D02*
X0431397Y0324758D01*
X0431416Y0323559D02*
X0432039Y0323559D01*
X0432039Y0322361D02*
X0431116Y0322361D01*
X0430395Y0321162D02*
X0432039Y0321162D01*
X0432039Y0319964D02*
X0428858Y0319964D01*
X0424244Y0319964D02*
X0423444Y0319964D01*
X0423444Y0321162D02*
X0424244Y0321162D01*
X0424244Y0322361D02*
X0423444Y0322361D01*
X0423444Y0323559D02*
X0424244Y0323559D01*
X0424244Y0324758D02*
X0423444Y0324758D01*
X0423444Y0325956D02*
X0424244Y0325956D01*
X0424244Y0327155D02*
X0423444Y0327155D01*
X0423444Y0328353D02*
X0424244Y0328353D01*
X0417393Y0327155D02*
X0223612Y0327155D01*
X0223766Y0327052D02*
X0223144Y0327468D01*
X0222453Y0327754D01*
X0221718Y0327900D01*
X0221344Y0327900D01*
X0221344Y0324100D01*
X0221344Y0324100D01*
X0221344Y0324100D01*
X0221344Y0320300D01*
X0221718Y0320300D01*
X0222453Y0320446D01*
X0223144Y0320732D01*
X0223766Y0321148D01*
X0224296Y0321678D01*
X0224712Y0322300D01*
X0224998Y0322992D01*
X0225144Y0323726D01*
X0225144Y0324100D01*
X0225144Y0324474D01*
X0224998Y0325208D01*
X0224712Y0325900D01*
X0224296Y0326522D01*
X0223766Y0327052D01*
X0224674Y0325956D02*
X0416627Y0325956D01*
X0416291Y0324758D02*
X0225088Y0324758D01*
X0225144Y0324100D02*
X0221344Y0324100D01*
X0221344Y0324100D01*
X0225144Y0324100D01*
X0225111Y0323559D02*
X0416272Y0323559D01*
X0416573Y0322361D02*
X0224737Y0322361D01*
X0223780Y0321162D02*
X0417293Y0321162D01*
X0417689Y0330750D02*
X0223187Y0330750D01*
X0223497Y0330879D02*
X0224566Y0331947D01*
X0225144Y0333344D01*
X0225144Y0334856D01*
X0224566Y0336253D01*
X0223497Y0337321D01*
X0222100Y0337900D01*
X0220588Y0337900D01*
X0219192Y0337321D01*
X0218123Y0336253D01*
X0217544Y0334856D01*
X0217544Y0333344D01*
X0218123Y0331947D01*
X0219192Y0330879D01*
X0220588Y0330300D01*
X0222100Y0330300D01*
X0223497Y0330879D01*
X0224566Y0331949D02*
X0416756Y0331949D01*
X0416260Y0333147D02*
X0225062Y0333147D01*
X0225144Y0334346D02*
X0416244Y0334346D01*
X0416463Y0335544D02*
X0224859Y0335544D01*
X0224075Y0336743D02*
X0416981Y0336743D01*
X0418180Y0337941D02*
X0174044Y0337941D01*
X0174044Y0336743D02*
X0218613Y0336743D01*
X0217829Y0335544D02*
X0200768Y0335544D01*
X0201672Y0334346D02*
X0217544Y0334346D01*
X0217626Y0333147D02*
X0201933Y0333147D01*
X0201711Y0331949D02*
X0218122Y0331949D01*
X0219501Y0330750D02*
X0200863Y0330750D01*
X0196920Y0335544D02*
X0175011Y0335544D01*
X0172384Y0331949D02*
X0148844Y0331949D01*
X0148844Y0333147D02*
X0171186Y0333147D01*
X0169987Y0334346D02*
X0148844Y0334346D01*
X0148844Y0335544D02*
X0169644Y0335544D01*
X0169644Y0336743D02*
X0148844Y0336743D01*
X0148844Y0337941D02*
X0169644Y0337941D01*
X0169644Y0339140D02*
X0148844Y0339140D01*
X0148844Y0340338D02*
X0169644Y0340338D01*
X0169644Y0341537D02*
X0148844Y0341537D01*
X0148844Y0342735D02*
X0169644Y0342735D01*
X0169644Y0343934D02*
X0148844Y0343934D01*
X0148844Y0345132D02*
X0169644Y0345132D01*
X0169644Y0346331D02*
X0148844Y0346331D01*
X0148844Y0347529D02*
X0169644Y0347529D01*
X0169644Y0348728D02*
X0148844Y0348728D01*
X0148844Y0349926D02*
X0169644Y0349926D01*
X0169644Y0351125D02*
X0148844Y0351125D01*
X0148844Y0352323D02*
X0169644Y0352323D01*
X0169644Y0353522D02*
X0148844Y0353522D01*
X0169644Y0354720D02*
X0077066Y0354720D01*
X0077066Y0355919D02*
X0169644Y0355919D01*
X0169644Y0357117D02*
X0077066Y0357117D01*
X0077066Y0358316D02*
X0169644Y0358316D01*
X0169644Y0359514D02*
X0077066Y0359514D01*
X0077066Y0360713D02*
X0169644Y0360713D01*
X0169644Y0361911D02*
X0077066Y0361911D01*
X0077066Y0363110D02*
X0169644Y0363110D01*
X0169644Y0364308D02*
X0077066Y0364308D01*
X0077066Y0365507D02*
X0169644Y0365507D01*
X0169644Y0366705D02*
X0077066Y0366705D01*
X0077066Y0367904D02*
X0169644Y0367904D01*
X0169644Y0369103D02*
X0077066Y0369103D01*
X0077066Y0370301D02*
X0169644Y0370301D01*
X0169644Y0371500D02*
X0077066Y0371500D01*
X0077066Y0372698D02*
X0168741Y0372698D01*
X0167778Y0373897D02*
X0077066Y0373897D01*
X0077066Y0375095D02*
X0167281Y0375095D01*
X0167244Y0376294D02*
X0077066Y0376294D01*
X0077066Y0377492D02*
X0167244Y0377492D01*
X0174948Y0372698D02*
X0178741Y0372698D01*
X0177778Y0373897D02*
X0175910Y0373897D01*
X0176407Y0375095D02*
X0177281Y0375095D01*
X0177244Y0376294D02*
X0176444Y0376294D01*
X0176444Y0377492D02*
X0177244Y0377492D01*
X0177244Y0378691D02*
X0176444Y0378691D01*
X0176444Y0379889D02*
X0177244Y0379889D01*
X0177244Y0381088D02*
X0176444Y0381088D01*
X0176444Y0382286D02*
X0177244Y0382286D01*
X0177439Y0383485D02*
X0176250Y0383485D01*
X0175753Y0384683D02*
X0177935Y0384683D01*
X0179120Y0385882D02*
X0174568Y0385882D01*
X0160463Y0398850D02*
X0160933Y0399986D01*
X0160933Y0401214D01*
X0160463Y0402350D01*
X0159594Y0403219D01*
X0158459Y0403689D01*
X0157230Y0403689D01*
X0156094Y0403219D01*
X0155676Y0402800D01*
X0148013Y0402800D01*
X0147594Y0403219D01*
X0146459Y0403689D01*
X0145230Y0403689D01*
X0144094Y0403219D01*
X0143225Y0402350D01*
X0142755Y0401214D01*
X0142755Y0399986D01*
X0143225Y0398850D01*
X0144094Y0397981D01*
X0145230Y0397511D01*
X0146459Y0397511D01*
X0147594Y0397981D01*
X0148013Y0398400D01*
X0155676Y0398400D01*
X0156094Y0397981D01*
X0157230Y0397511D01*
X0158459Y0397511D01*
X0159594Y0397981D01*
X0160463Y0398850D01*
X0160552Y0399065D02*
X0412962Y0399065D01*
X0410723Y0397867D02*
X0159317Y0397867D01*
X0160933Y0400264D02*
X0432039Y0400264D01*
X0432039Y0401462D02*
X0160830Y0401462D01*
X0160152Y0402661D02*
X0432039Y0402661D01*
X0432039Y0403859D02*
X0077066Y0403859D01*
X0077066Y0402661D02*
X0143536Y0402661D01*
X0142858Y0401462D02*
X0077066Y0401462D01*
X0077066Y0400264D02*
X0142755Y0400264D01*
X0143136Y0399065D02*
X0077066Y0399065D01*
X0077066Y0397867D02*
X0144371Y0397867D01*
X0147317Y0397867D02*
X0156371Y0397867D01*
X0157844Y0400600D02*
X0145844Y0400600D01*
X0196444Y0377492D02*
X0239947Y0377492D01*
X0241720Y0376294D02*
X0196444Y0376294D01*
X0174044Y0347529D02*
X0219693Y0347529D01*
X0218201Y0346331D02*
X0174044Y0346331D01*
X0174044Y0345132D02*
X0217659Y0345132D01*
X0217544Y0343934D02*
X0174044Y0343934D01*
X0174044Y0342735D02*
X0217796Y0342735D01*
X0218533Y0341537D02*
X0174044Y0341537D01*
X0221344Y0327155D02*
X0221344Y0327155D01*
X0221344Y0325956D02*
X0221344Y0325956D01*
X0221344Y0324758D02*
X0221344Y0324758D01*
X0221344Y0323559D02*
X0221344Y0323559D01*
X0221344Y0322361D02*
X0221344Y0322361D01*
X0221344Y0321162D02*
X0221344Y0321162D01*
X0256468Y0291199D02*
X0262220Y0291199D01*
X0260739Y0290001D02*
X0257949Y0290001D01*
X0258618Y0288802D02*
X0260070Y0288802D01*
X0259744Y0287604D02*
X0258944Y0287604D01*
X0258944Y0286405D02*
X0259744Y0286405D01*
X0259744Y0285207D02*
X0258944Y0285207D01*
X0258944Y0284008D02*
X0259744Y0284008D01*
X0259744Y0282810D02*
X0258944Y0282810D01*
X0258944Y0281611D02*
X0259744Y0281611D01*
X0259744Y0280413D02*
X0258944Y0280413D01*
X0258542Y0279214D02*
X0260146Y0279214D01*
X0260923Y0278016D02*
X0257765Y0278016D01*
X0267765Y0278016D02*
X0432039Y0278016D01*
X0432039Y0279214D02*
X0268542Y0279214D01*
X0268944Y0280413D02*
X0432039Y0280413D01*
X0432039Y0281611D02*
X0268944Y0281611D01*
X0268944Y0282810D02*
X0432039Y0282810D01*
X0432039Y0284008D02*
X0268944Y0284008D01*
X0268944Y0285207D02*
X0432039Y0285207D01*
X0432039Y0286405D02*
X0268944Y0286405D01*
X0268944Y0287604D02*
X0432039Y0287604D01*
X0432039Y0288802D02*
X0268618Y0288802D01*
X0267949Y0290001D02*
X0432039Y0290001D01*
X0432039Y0291199D02*
X0266468Y0291199D01*
X0275158Y0382286D02*
X0279889Y0382286D01*
X0278680Y0383485D02*
X0276356Y0383485D01*
X0276858Y0384683D02*
X0278090Y0384683D01*
X0277866Y0385882D02*
X0277066Y0385882D01*
X0277066Y0387080D02*
X0277866Y0387080D01*
X0277866Y0388279D02*
X0277066Y0388279D01*
X0277066Y0389477D02*
X0282066Y0389477D01*
X0282066Y0389500D02*
X0277866Y0389500D01*
X0277866Y0392462D01*
X0277979Y0393177D01*
X0278203Y0393866D01*
X0278532Y0394511D01*
X0278957Y0395097D01*
X0279469Y0395609D01*
X0280055Y0396034D01*
X0280700Y0396363D01*
X0281389Y0396587D01*
X0282066Y0396694D01*
X0282066Y0389500D01*
X0282866Y0389477D02*
X0287866Y0389477D01*
X0287866Y0388279D02*
X0287066Y0388279D01*
X0287066Y0387080D02*
X0287866Y0387080D01*
X0287866Y0385882D02*
X0287066Y0385882D01*
X0286842Y0384683D02*
X0288074Y0384683D01*
X0288576Y0383485D02*
X0286252Y0383485D01*
X0285043Y0382286D02*
X0289775Y0382286D01*
X0282866Y0382286D02*
X0282066Y0382286D01*
X0282066Y0383485D02*
X0282866Y0383485D01*
X0282866Y0384683D02*
X0282066Y0384683D01*
X0282066Y0385882D02*
X0282866Y0385882D01*
X0282866Y0387080D02*
X0282066Y0387080D01*
X0282066Y0388279D02*
X0282866Y0388279D01*
X0282866Y0390676D02*
X0282066Y0390676D01*
X0282066Y0391874D02*
X0282866Y0391874D01*
X0282866Y0393073D02*
X0282066Y0393073D01*
X0282066Y0394271D02*
X0282866Y0394271D01*
X0282866Y0395470D02*
X0282066Y0395470D01*
X0279331Y0395470D02*
X0275602Y0395470D01*
X0276546Y0394271D02*
X0278410Y0394271D01*
X0277963Y0393073D02*
X0277042Y0393073D01*
X0277066Y0391874D02*
X0277866Y0391874D01*
X0277866Y0390676D02*
X0277066Y0390676D01*
X0285602Y0395470D02*
X0289331Y0395470D01*
X0288387Y0394271D02*
X0286523Y0394271D01*
X0286969Y0393073D02*
X0287890Y0393073D01*
X0287866Y0391874D02*
X0287066Y0391874D01*
X0287066Y0390676D02*
X0287866Y0390676D01*
X0297066Y0385882D02*
X0432039Y0385882D01*
X0432039Y0387080D02*
X0418356Y0387080D01*
X0419714Y0388279D02*
X0432039Y0388279D01*
X0432039Y0389477D02*
X0420656Y0389477D01*
X0421153Y0390676D02*
X0432039Y0390676D01*
X0432039Y0391874D02*
X0421476Y0391874D01*
X0421476Y0393073D02*
X0432039Y0393073D01*
X0432039Y0394271D02*
X0421391Y0394271D01*
X0420895Y0395470D02*
X0432039Y0395470D01*
X0432039Y0396668D02*
X0420289Y0396668D01*
X0419091Y0397867D02*
X0432039Y0397867D01*
X0432039Y0399065D02*
X0416852Y0399065D01*
X0432039Y0405058D02*
X0077066Y0405058D01*
X0077066Y0406256D02*
X0432039Y0406256D01*
X0432039Y0407455D02*
X0077066Y0407455D01*
X0077066Y0408653D02*
X0432039Y0408653D01*
X0432039Y0409852D02*
X0077066Y0409852D01*
X0077066Y0411050D02*
X0432039Y0411050D01*
X0432039Y0412249D02*
X0077066Y0412249D01*
X0077066Y0413447D02*
X0432039Y0413447D01*
X0432039Y0414646D02*
X0077066Y0414646D01*
X0077066Y0415844D02*
X0432039Y0415844D01*
X0432039Y0384683D02*
X0296858Y0384683D01*
X0296356Y0383485D02*
X0432039Y0383485D01*
X0432039Y0382286D02*
X0295158Y0382286D01*
X0416775Y0369103D02*
X0432039Y0369103D01*
X0432039Y0370301D02*
X0419059Y0370301D01*
X0420257Y0371500D02*
X0432039Y0371500D01*
X0432039Y0372698D02*
X0420882Y0372698D01*
X0421378Y0373897D02*
X0432039Y0373897D01*
X0432039Y0375095D02*
X0421476Y0375095D01*
X0421476Y0376294D02*
X0432039Y0376294D01*
X0432039Y0377492D02*
X0421166Y0377492D01*
X0420670Y0378691D02*
X0432039Y0378691D01*
X0432039Y0379889D02*
X0419746Y0379889D01*
X0418433Y0381088D02*
X0432039Y0381088D01*
X0432039Y0274420D02*
X0430858Y0274420D01*
X0431910Y0264832D02*
X0432039Y0264832D01*
X0432039Y0263634D02*
X0430711Y0263634D01*
X0431535Y0244457D02*
X0432039Y0244457D01*
X0432039Y0243259D02*
X0429989Y0243259D01*
X0428976Y0220487D02*
X0432039Y0220487D01*
X0432039Y0219289D02*
X0431392Y0219289D01*
X0427913Y0219289D02*
X0426713Y0219289D01*
X0426713Y0220487D02*
X0427913Y0220487D01*
X0427913Y0218090D02*
X0426713Y0218090D01*
X0426713Y0216892D02*
X0427913Y0216892D01*
X0427913Y0215693D02*
X0426713Y0215693D01*
X0426713Y0214495D02*
X0407913Y0214495D01*
X0407913Y0215693D02*
X0406713Y0215693D01*
X0406713Y0216892D02*
X0407913Y0216892D01*
X0407913Y0218090D02*
X0406713Y0218090D01*
X0406713Y0219289D02*
X0407913Y0219289D01*
X0421038Y0209701D02*
X0422378Y0209701D01*
X0422244Y0208502D02*
X0423809Y0208502D01*
X0423129Y0207303D02*
X0432039Y0207303D01*
X0432039Y0206105D02*
X0423626Y0206105D01*
X0423913Y0204906D02*
X0432039Y0204906D01*
X0432039Y0203708D02*
X0423913Y0203708D01*
X0423798Y0202509D02*
X0432039Y0202509D01*
X0432039Y0201311D02*
X0423301Y0201311D01*
X0422659Y0200112D02*
X0424581Y0200112D01*
X0426713Y0200112D02*
X0427913Y0200112D01*
X0427913Y0198914D02*
X0426713Y0198914D01*
X0426713Y0197715D02*
X0427913Y0197715D01*
X0427913Y0196517D02*
X0426713Y0196517D01*
X0426713Y0195318D02*
X0427913Y0195318D01*
X0430044Y0200112D02*
X0432039Y0200112D01*
X0432039Y0198914D02*
X0431832Y0198914D01*
X0422793Y0198914D02*
X0421460Y0198914D01*
X0426713Y0208502D02*
X0427913Y0208502D01*
X0427913Y0209701D02*
X0426713Y0209701D01*
X0426713Y0210899D02*
X0427913Y0210899D01*
X0427913Y0212098D02*
X0426713Y0212098D01*
X0426713Y0213296D02*
X0427913Y0213296D01*
X0430817Y0208502D02*
X0432039Y0208502D01*
X0431872Y0189326D02*
X0432039Y0189326D01*
D17*
X0426344Y0181600D03*
X0421344Y0181600D03*
X0421344Y0186600D03*
X0416844Y0194100D03*
X0426844Y0204100D03*
X0416344Y0216600D03*
X0416344Y0221600D03*
X0416344Y0226600D03*
X0416344Y0231600D03*
X0416344Y0236600D03*
X0416344Y0241600D03*
X0421344Y0241600D03*
X0421344Y0236600D03*
X0421344Y0231600D03*
X0421344Y0226600D03*
X0421344Y0221600D03*
X0426344Y0226600D03*
X0426344Y0231600D03*
X0426344Y0236600D03*
X0410844Y0221600D03*
X0406344Y0221600D03*
X0401344Y0221600D03*
X0396344Y0221600D03*
X0396344Y0216600D03*
X0396344Y0211600D03*
X0396344Y0206600D03*
X0394844Y0202600D03*
X0382344Y0213100D03*
X0382344Y0220600D03*
X0377344Y0222100D03*
X0378344Y0227100D03*
X0383844Y0229100D03*
X0391344Y0226600D03*
X0386344Y0237600D03*
X0390844Y0241600D03*
X0396344Y0246600D03*
X0396344Y0251600D03*
X0391344Y0251600D03*
X0391344Y0256600D03*
X0391344Y0268100D03*
X0391344Y0272100D03*
X0391344Y0276600D03*
X0386344Y0276600D03*
X0386344Y0272100D03*
X0386344Y0268100D03*
X0381344Y0268100D03*
X0381344Y0272100D03*
X0381344Y0276600D03*
X0381344Y0281600D03*
X0381344Y0286100D03*
X0376344Y0286100D03*
X0371344Y0286100D03*
X0366344Y0286100D03*
X0386344Y0286100D03*
X0386344Y0281600D03*
X0391344Y0281600D03*
X0396344Y0281600D03*
X0396344Y0276600D03*
X0396344Y0272100D03*
X0396344Y0268100D03*
X0401344Y0276600D03*
X0401344Y0281600D03*
X0401344Y0286600D03*
X0401344Y0291600D03*
X0401344Y0296600D03*
X0401344Y0301600D03*
X0406344Y0301600D03*
X0406344Y0296600D03*
X0406344Y0291600D03*
X0406344Y0286600D03*
X0406344Y0281600D03*
X0406344Y0277100D03*
X0411344Y0276600D03*
X0411344Y0281600D03*
X0411344Y0286600D03*
X0411344Y0291600D03*
X0416344Y0291600D03*
X0416344Y0286600D03*
X0416344Y0281600D03*
X0416344Y0276600D03*
X0421344Y0276600D03*
X0421344Y0281600D03*
X0421344Y0286600D03*
X0421344Y0291600D03*
X0421344Y0296600D03*
X0421344Y0301600D03*
X0426344Y0301600D03*
X0426344Y0296600D03*
X0426344Y0291600D03*
X0426344Y0286600D03*
X0426344Y0281600D03*
X0426344Y0277100D03*
X0430844Y0259100D03*
X0401344Y0241600D03*
X0371844Y0242100D03*
X0367344Y0246600D03*
X0370844Y0248600D03*
X0370844Y0256600D03*
X0360844Y0246600D03*
X0356344Y0246600D03*
X0351344Y0246600D03*
X0351344Y0241600D03*
X0356344Y0241600D03*
X0355844Y0237600D03*
X0360844Y0241600D03*
X0351344Y0251600D03*
X0341344Y0261600D03*
X0336344Y0261600D03*
X0336344Y0256600D03*
X0336344Y0251100D03*
X0331344Y0251100D03*
X0326344Y0251100D03*
X0321344Y0251100D03*
X0316344Y0251100D03*
X0310844Y0249100D03*
X0305344Y0249100D03*
X0300844Y0249100D03*
X0300844Y0244100D03*
X0305344Y0244100D03*
X0305344Y0239100D03*
X0309344Y0239600D03*
X0300844Y0239100D03*
X0288344Y0241600D03*
X0288344Y0235100D03*
X0275344Y0226600D03*
X0271344Y0237100D03*
X0270273Y0241600D03*
X0271344Y0246100D03*
X0271344Y0250600D03*
X0266344Y0250600D03*
X0266344Y0246100D03*
X0261344Y0246100D03*
X0261344Y0250600D03*
X0256344Y0250600D03*
X0258344Y0254600D03*
X0256344Y0259100D03*
X0256344Y0263600D03*
X0256344Y0268100D03*
X0256344Y0272100D03*
X0251344Y0272100D03*
X0251344Y0276600D03*
X0261344Y0276600D03*
X0261344Y0272100D03*
X0261344Y0268100D03*
X0261344Y0263600D03*
X0261344Y0259100D03*
X0266344Y0259100D03*
X0266344Y0263600D03*
X0266344Y0268100D03*
X0266344Y0272100D03*
X0271344Y0272100D03*
X0271344Y0268100D03*
X0271344Y0263600D03*
X0271344Y0259100D03*
X0256344Y0246100D03*
X0251344Y0246100D03*
X0251344Y0242100D03*
X0251344Y0250600D03*
X0261344Y0237100D03*
X0266344Y0237100D03*
X0252344Y0229100D03*
X0247844Y0218600D03*
X0245844Y0205600D03*
X0241344Y0205600D03*
X0237344Y0205600D03*
X0229844Y0208600D03*
X0225844Y0208600D03*
X0225844Y0212600D03*
X0225844Y0216600D03*
X0225844Y0220600D03*
X0225844Y0224600D03*
X0225844Y0228600D03*
X0225844Y0232600D03*
X0229844Y0232600D03*
X0229844Y0228600D03*
X0229844Y0224600D03*
X0229844Y0220600D03*
X0229844Y0216600D03*
X0229844Y0212600D03*
X0220844Y0212600D03*
X0216844Y0212600D03*
X0216844Y0208600D03*
X0220844Y0208600D03*
X0220844Y0216600D03*
X0216844Y0216600D03*
X0216844Y0220600D03*
X0216844Y0224600D03*
X0216844Y0228600D03*
X0216844Y0232600D03*
X0220844Y0232600D03*
X0220844Y0228600D03*
X0220844Y0224600D03*
X0220844Y0220600D03*
X0207844Y0215600D03*
X0207844Y0209600D03*
X0207844Y0204100D03*
X0214344Y0195600D03*
X0211844Y0193100D03*
X0209344Y0190600D03*
X0206844Y0193100D03*
X0204344Y0190600D03*
X0201844Y0193100D03*
X0201844Y0188100D03*
X0204344Y0185600D03*
X0201844Y0183100D03*
X0199344Y0180600D03*
X0201844Y0178100D03*
X0204344Y0180600D03*
X0206844Y0183100D03*
X0209344Y0185600D03*
X0206844Y0188100D03*
X0211844Y0188100D03*
X0214344Y0190600D03*
X0216844Y0193100D03*
X0219344Y0195600D03*
X0225844Y0195600D03*
X0234844Y0190100D03*
X0237344Y0194100D03*
X0237344Y0199600D03*
X0245844Y0194100D03*
X0256844Y0190100D03*
X0260344Y0197600D03*
X0255344Y0202100D03*
X0275344Y0195100D03*
X0281344Y0199600D03*
X0285344Y0201600D03*
X0294344Y0201600D03*
X0297844Y0197600D03*
X0301344Y0201600D03*
X0305844Y0197600D03*
X0306844Y0190600D03*
X0306844Y0185100D03*
X0306844Y0180100D03*
X0300344Y0180100D03*
X0300344Y0175100D03*
X0300344Y0170100D03*
X0309844Y0165100D03*
X0309844Y0159600D03*
X0315844Y0165100D03*
X0320344Y0166600D03*
X0320344Y0171100D03*
X0325344Y0166100D03*
X0333344Y0166600D03*
X0339344Y0170100D03*
X0335844Y0173600D03*
X0345844Y0171600D03*
X0350844Y0172600D03*
X0354344Y0168100D03*
X0358344Y0162600D03*
X0356844Y0155600D03*
X0362344Y0155600D03*
X0367344Y0144100D03*
X0375344Y0139100D03*
X0375344Y0150100D03*
X0388844Y0149100D03*
X0393844Y0149100D03*
X0393844Y0144100D03*
X0401344Y0149100D03*
X0407844Y0149100D03*
X0417344Y0159100D03*
X0418844Y0164100D03*
X0413844Y0164100D03*
X0413844Y0169100D03*
X0408844Y0169100D03*
X0403844Y0169100D03*
X0403844Y0174100D03*
X0408844Y0174100D03*
X0413844Y0174100D03*
X0418844Y0174100D03*
X0418844Y0169100D03*
X0426344Y0166600D03*
X0426344Y0171600D03*
X0426344Y0176600D03*
X0401844Y0188100D03*
X0396844Y0190600D03*
X0386844Y0187600D03*
X0380344Y0187600D03*
X0370844Y0188100D03*
X0364844Y0188100D03*
X0355844Y0188100D03*
X0351344Y0181600D03*
X0346344Y0181600D03*
X0340844Y0188600D03*
X0338344Y0182600D03*
X0340844Y0197100D03*
X0347344Y0198600D03*
X0340844Y0205600D03*
X0359844Y0209100D03*
X0359844Y0219100D03*
X0342344Y0228600D03*
X0337344Y0225600D03*
X0332844Y0225100D03*
X0332844Y0236600D03*
X0326344Y0238100D03*
X0321344Y0238100D03*
X0316344Y0239600D03*
X0311344Y0256600D03*
X0311344Y0261600D03*
X0306344Y0261600D03*
X0306344Y0266600D03*
X0311344Y0266600D03*
X0299844Y0264100D03*
X0299844Y0269100D03*
X0299844Y0274100D03*
X0299844Y0279100D03*
X0299844Y0284100D03*
X0299844Y0289100D03*
X0299844Y0294100D03*
X0299844Y0299100D03*
X0299844Y0304100D03*
X0299844Y0309100D03*
X0299844Y0314100D03*
X0299844Y0319100D03*
X0299844Y0324100D03*
X0304844Y0324100D03*
X0309844Y0324100D03*
X0314844Y0324100D03*
X0319844Y0324100D03*
X0324844Y0324100D03*
X0329844Y0324100D03*
X0334844Y0324100D03*
X0339844Y0324100D03*
X0344844Y0324100D03*
X0349844Y0324100D03*
X0354844Y0324100D03*
X0359844Y0324100D03*
X0364844Y0324100D03*
X0369844Y0324100D03*
X0374844Y0324100D03*
X0379844Y0324100D03*
X0384844Y0324100D03*
X0389844Y0324100D03*
X0394844Y0324100D03*
X0399844Y0324100D03*
X0404844Y0324100D03*
X0409844Y0324100D03*
X0414844Y0324100D03*
X0414844Y0320600D03*
X0414844Y0327600D03*
X0421344Y0346600D03*
X0421344Y0351600D03*
X0421344Y0356600D03*
X0416344Y0356600D03*
X0411344Y0356600D03*
X0406344Y0356600D03*
X0401344Y0356600D03*
X0401344Y0351600D03*
X0401344Y0346600D03*
X0406344Y0346600D03*
X0406344Y0351600D03*
X0416344Y0361600D03*
X0416344Y0366600D03*
X0426344Y0356600D03*
X0426344Y0351600D03*
X0426344Y0346600D03*
X0396344Y0366600D03*
X0391344Y0366600D03*
X0386344Y0366600D03*
X0386344Y0362100D03*
X0381344Y0362100D03*
X0381344Y0366600D03*
X0381344Y0371600D03*
X0381344Y0376600D03*
X0386344Y0376600D03*
X0386344Y0371600D03*
X0391344Y0371600D03*
X0391344Y0376600D03*
X0396344Y0371600D03*
X0386344Y0381600D03*
X0381344Y0381600D03*
X0376344Y0381600D03*
X0371344Y0381600D03*
X0366344Y0381600D03*
X0361344Y0386600D03*
X0356344Y0391600D03*
X0356344Y0396600D03*
X0351344Y0396600D03*
X0346344Y0396600D03*
X0341344Y0396600D03*
X0336344Y0396600D03*
X0336344Y0391600D03*
X0346344Y0391600D03*
X0351344Y0386600D03*
X0361344Y0396600D03*
X0366344Y0396600D03*
X0366344Y0391600D03*
X0371344Y0386600D03*
X0376344Y0391600D03*
X0371344Y0396600D03*
X0381344Y0386600D03*
X0391344Y0401600D03*
X0381344Y0411600D03*
X0401344Y0411600D03*
X0416344Y0411600D03*
X0426344Y0386600D03*
X0376344Y0362100D03*
X0371344Y0362100D03*
X0366844Y0362100D03*
X0311344Y0386600D03*
X0306344Y0391600D03*
X0301344Y0386600D03*
X0301344Y0396600D03*
X0292344Y0398600D03*
X0282344Y0398600D03*
X0272344Y0398600D03*
X0263844Y0397100D03*
X0258844Y0397100D03*
X0258844Y0391600D03*
X0263844Y0391600D03*
X0261344Y0386600D03*
X0253844Y0394100D03*
X0248844Y0394100D03*
X0243844Y0394100D03*
X0238844Y0391600D03*
X0233844Y0391600D03*
X0228844Y0391600D03*
X0223844Y0391600D03*
X0218844Y0391600D03*
X0213844Y0391600D03*
X0208844Y0391600D03*
X0203844Y0391600D03*
X0203844Y0397100D03*
X0208844Y0397100D03*
X0213844Y0397100D03*
X0218844Y0397100D03*
X0223844Y0397100D03*
X0228844Y0397100D03*
X0233844Y0397100D03*
X0238844Y0397100D03*
X0233844Y0379100D03*
X0233844Y0374100D03*
X0233844Y0369600D03*
X0233844Y0364100D03*
X0233844Y0359100D03*
X0233844Y0354100D03*
X0228844Y0354100D03*
X0223844Y0354100D03*
X0218844Y0354100D03*
X0213844Y0354100D03*
X0213844Y0349100D03*
X0213844Y0344100D03*
X0213844Y0339100D03*
X0205844Y0333100D03*
X0198844Y0333100D03*
X0212344Y0322100D03*
X0212344Y0316600D03*
X0212344Y0311100D03*
X0207344Y0319100D03*
X0202344Y0319100D03*
X0193844Y0319100D03*
X0192344Y0306600D03*
X0185344Y0306600D03*
X0185344Y0301600D03*
X0185344Y0296600D03*
X0185344Y0291100D03*
X0190344Y0291100D03*
X0195344Y0291100D03*
X0210844Y0289600D03*
X0210844Y0284600D03*
X0210844Y0279600D03*
X0210844Y0274600D03*
X0212844Y0259600D03*
X0216844Y0257600D03*
X0216844Y0253600D03*
X0216844Y0249600D03*
X0212844Y0249600D03*
X0216844Y0245600D03*
X0220844Y0245600D03*
X0220844Y0249600D03*
X0220844Y0253600D03*
X0220844Y0257600D03*
X0225844Y0249600D03*
X0225844Y0245600D03*
X0229844Y0245600D03*
X0229844Y0249600D03*
X0229844Y0254600D03*
X0212844Y0239600D03*
X0202344Y0239600D03*
X0202344Y0249100D03*
X0191344Y0239100D03*
X0186344Y0246600D03*
X0186344Y0251600D03*
X0186344Y0256600D03*
X0190844Y0259100D03*
X0179344Y0263100D03*
X0178844Y0271600D03*
X0169844Y0267600D03*
X0168344Y0263100D03*
X0165844Y0271600D03*
X0162344Y0275100D03*
X0156844Y0275100D03*
X0156844Y0280600D03*
X0150844Y0280600D03*
X0150844Y0275100D03*
X0143844Y0275100D03*
X0144344Y0270100D03*
X0149344Y0265600D03*
X0154344Y0265600D03*
X0158844Y0262600D03*
X0161344Y0258100D03*
X0153344Y0258100D03*
X0148844Y0258100D03*
X0142344Y0255600D03*
X0132844Y0255600D03*
X0129344Y0243600D03*
X0124844Y0243600D03*
X0126344Y0239600D03*
X0118344Y0242100D03*
X0113344Y0242100D03*
X0113344Y0247600D03*
X0118344Y0247600D03*
X0111344Y0255600D03*
X0101844Y0255600D03*
X0094344Y0258100D03*
X0094344Y0264600D03*
X0099344Y0270100D03*
X0100844Y0275100D03*
X0100844Y0280600D03*
X0092344Y0280600D03*
X0090344Y0272100D03*
X0081344Y0269100D03*
X0100844Y0286600D03*
X0105344Y0292600D03*
X0105344Y0298100D03*
X0114344Y0292600D03*
X0120344Y0292600D03*
X0120344Y0297600D03*
X0117344Y0301360D03*
X0122844Y0305600D03*
X0120344Y0312100D03*
X0116344Y0314100D03*
X0110844Y0314100D03*
X0105844Y0314600D03*
X0099344Y0321600D03*
X0101844Y0325600D03*
X0106344Y0324600D03*
X0101844Y0330600D03*
X0101844Y0335600D03*
X0101844Y0340600D03*
X0101844Y0345600D03*
X0101844Y0350600D03*
X0105344Y0357600D03*
X0111344Y0350600D03*
X0116844Y0350600D03*
X0119844Y0357600D03*
X0131844Y0346100D03*
X0144844Y0350600D03*
X0147344Y0356100D03*
X0142344Y0362100D03*
X0137344Y0366100D03*
X0142844Y0375600D03*
X0128844Y0381600D03*
X0128844Y0391600D03*
X0145844Y0400600D03*
X0132844Y0410600D03*
X0157844Y0400600D03*
X0158844Y0394100D03*
X0158844Y0389100D03*
X0158844Y0384100D03*
X0158844Y0379100D03*
X0158844Y0374100D03*
X0163844Y0389100D03*
X0163844Y0394100D03*
X0168844Y0394100D03*
X0168844Y0389100D03*
X0173844Y0389100D03*
X0173844Y0394100D03*
X0178844Y0394100D03*
X0178844Y0389100D03*
X0183844Y0389100D03*
X0183844Y0394100D03*
X0188844Y0394100D03*
X0188844Y0389100D03*
X0193844Y0389100D03*
X0193844Y0394100D03*
X0198844Y0394100D03*
X0198844Y0389100D03*
X0238844Y0375600D03*
X0248844Y0375600D03*
X0258844Y0376100D03*
X0279344Y0377100D03*
X0284844Y0377100D03*
X0299844Y0369100D03*
X0299844Y0364100D03*
X0299844Y0359100D03*
X0299844Y0354100D03*
X0299844Y0349100D03*
X0299844Y0344100D03*
X0299844Y0339100D03*
X0299844Y0334100D03*
X0299844Y0329100D03*
X0293844Y0329100D03*
X0288844Y0329100D03*
X0288844Y0324100D03*
X0288844Y0319100D03*
X0293844Y0319100D03*
X0293844Y0324100D03*
X0271844Y0324100D03*
X0271844Y0329100D03*
X0271844Y0334100D03*
X0271844Y0339100D03*
X0271844Y0344100D03*
X0261844Y0346100D03*
X0256344Y0346100D03*
X0256344Y0350600D03*
X0251344Y0354600D03*
X0245344Y0354600D03*
X0233844Y0349100D03*
X0228844Y0349100D03*
X0223844Y0349100D03*
X0218844Y0349100D03*
X0228844Y0344100D03*
X0228844Y0339100D03*
X0228844Y0334100D03*
X0233844Y0334100D03*
X0233844Y0329100D03*
X0226344Y0329100D03*
X0227844Y0322100D03*
X0226344Y0316600D03*
X0226344Y0311100D03*
X0219344Y0311100D03*
X0219344Y0316600D03*
X0233844Y0316600D03*
X0233844Y0311100D03*
X0240844Y0311100D03*
X0240844Y0316600D03*
X0240844Y0322100D03*
X0246344Y0316600D03*
X0246344Y0311100D03*
X0252844Y0315100D03*
X0252344Y0322100D03*
X0254344Y0327600D03*
X0253844Y0334600D03*
X0233844Y0339100D03*
X0233844Y0344100D03*
X0216344Y0329100D03*
X0233844Y0322100D03*
X0240844Y0304100D03*
X0246344Y0304100D03*
X0246344Y0297600D03*
X0240844Y0297600D03*
X0240844Y0290600D03*
X0246344Y0290600D03*
X0253844Y0294100D03*
X0258844Y0294100D03*
X0271344Y0293100D03*
X0271344Y0299100D03*
X0271344Y0304100D03*
X0271344Y0309100D03*
X0271344Y0314100D03*
X0252844Y0305600D03*
X0234344Y0290600D03*
X0228344Y0290600D03*
X0222344Y0290600D03*
X0216844Y0290600D03*
X0179844Y0242600D03*
X0181344Y0231600D03*
X0181344Y0226600D03*
X0186344Y0226600D03*
X0186344Y0231600D03*
X0202344Y0229600D03*
X0196344Y0218100D03*
X0183344Y0215600D03*
X0183344Y0209600D03*
X0183844Y0202100D03*
X0178344Y0202100D03*
X0180844Y0194100D03*
X0170844Y0194100D03*
X0167844Y0191100D03*
X0164844Y0194100D03*
X0156844Y0186100D03*
X0159344Y0181100D03*
X0152844Y0181100D03*
X0143844Y0189100D03*
X0143844Y0193100D03*
X0143344Y0196600D03*
X0143344Y0201100D03*
X0138844Y0207100D03*
X0134844Y0206100D03*
X0134844Y0201600D03*
X0134844Y0196600D03*
X0129891Y0191100D03*
X0124344Y0188100D03*
X0126344Y0185100D03*
X0132844Y0185100D03*
X0139844Y0191100D03*
X0124844Y0196600D03*
X0121344Y0199100D03*
X0121344Y0203100D03*
X0121344Y0207100D03*
X0126844Y0207100D03*
X0126844Y0203100D03*
X0116344Y0211600D03*
X0111344Y0211600D03*
X0108344Y0222600D03*
X0098344Y0222600D03*
X0104344Y0238100D03*
X0101844Y0242100D03*
X0113344Y0235600D03*
X0113344Y0231600D03*
X0118344Y0231600D03*
X0118344Y0235600D03*
X0132844Y0228600D03*
X0137344Y0238100D03*
X0133844Y0241600D03*
X0142344Y0241600D03*
X0151844Y0241600D03*
X0161344Y0231600D03*
X0165844Y0231600D03*
X0165844Y0226600D03*
X0161344Y0226600D03*
X0151344Y0219100D03*
X0146844Y0219100D03*
X0146844Y0215100D03*
X0151844Y0210100D03*
X0156344Y0215100D03*
X0162844Y0240600D03*
X0167344Y0242600D03*
X0133844Y0270100D03*
X0134844Y0275100D03*
X0134844Y0280600D03*
X0134844Y0286600D03*
X0134844Y0292600D03*
X0136344Y0299100D03*
X0136344Y0306600D03*
X0142844Y0311600D03*
X0145344Y0315100D03*
X0145344Y0320100D03*
X0145344Y0324600D03*
X0145344Y0330100D03*
X0156344Y0316600D03*
X0156344Y0311600D03*
X0156344Y0306600D03*
X0156344Y0301600D03*
X0161344Y0301600D03*
X0161344Y0296600D03*
X0161344Y0306600D03*
X0146844Y0293100D03*
X0143844Y0286600D03*
X0143844Y0280600D03*
X0125344Y0280600D03*
X0120344Y0280600D03*
X0120344Y0286600D03*
X0125344Y0286600D03*
X0125344Y0292600D03*
X0125344Y0297600D03*
X0109844Y0286600D03*
X0109844Y0280600D03*
X0110844Y0270100D03*
X0092344Y0292100D03*
X0094844Y0300100D03*
X0095344Y0306600D03*
X0095344Y0312600D03*
X0095344Y0318600D03*
X0109344Y0333100D03*
X0126844Y0330100D03*
X0126844Y0325100D03*
X0126844Y0320100D03*
X0086344Y0296600D03*
X0090344Y0247600D03*
X0090344Y0242100D03*
X0085844Y0236600D03*
X0081344Y0226600D03*
X0081344Y0211600D03*
X0088844Y0202100D03*
X0081344Y0196600D03*
X0081344Y0181600D03*
X0090344Y0181600D03*
X0090344Y0176600D03*
X0090344Y0171600D03*
X0090344Y0166600D03*
X0090344Y0162100D03*
X0081344Y0166600D03*
X0097344Y0182100D03*
X0102844Y0182100D03*
X0114344Y0182100D03*
X0113844Y0174100D03*
X0113844Y0169100D03*
X0113844Y0164100D03*
X0113844Y0159100D03*
X0108844Y0159100D03*
X0108844Y0154100D03*
X0108844Y0149100D03*
X0108844Y0144100D03*
X0108844Y0139100D03*
X0108844Y0134100D03*
X0108844Y0129100D03*
X0108844Y0124100D03*
X0108844Y0119100D03*
X0113844Y0117100D03*
X0118844Y0117100D03*
X0127344Y0116600D03*
X0127344Y0121600D03*
X0127344Y0126600D03*
X0118844Y0131600D03*
X0113844Y0134100D03*
X0116844Y0137600D03*
X0113844Y0144100D03*
X0113844Y0149100D03*
X0113844Y0154100D03*
X0126844Y0154100D03*
X0126844Y0159100D03*
X0126844Y0164100D03*
X0126844Y0169600D03*
X0136844Y0154600D03*
X0142844Y0159600D03*
X0136844Y0146600D03*
X0136844Y0141600D03*
X0138344Y0137600D03*
X0141344Y0141600D03*
X0146344Y0129100D03*
X0146344Y0124100D03*
X0146344Y0119600D03*
X0132344Y0116600D03*
X0152844Y0134600D03*
X0156344Y0131600D03*
X0161344Y0131600D03*
X0165344Y0124600D03*
X0168844Y0126600D03*
X0168844Y0121600D03*
X0168844Y0116600D03*
X0163844Y0116600D03*
X0168844Y0111600D03*
X0168844Y0106600D03*
X0168844Y0101600D03*
X0166344Y0096600D03*
X0166344Y0091600D03*
X0166344Y0086600D03*
X0183844Y0086600D03*
X0183844Y0081600D03*
X0191344Y0079100D03*
X0191344Y0084100D03*
X0191344Y0089100D03*
X0196344Y0089100D03*
X0196344Y0084100D03*
X0198844Y0077600D03*
X0199344Y0067600D03*
X0199344Y0059100D03*
X0217844Y0063100D03*
X0220344Y0059600D03*
X0227844Y0057600D03*
X0232844Y0057600D03*
X0237844Y0057600D03*
X0242844Y0057600D03*
X0247844Y0057600D03*
X0252844Y0057600D03*
X0258344Y0057600D03*
X0263844Y0057600D03*
X0269344Y0057600D03*
X0261344Y0063100D03*
X0261344Y0071600D03*
X0261344Y0076600D03*
X0261344Y0081600D03*
X0261344Y0086600D03*
X0261344Y0091600D03*
X0261344Y0096600D03*
X0258844Y0100100D03*
X0252844Y0103100D03*
X0246344Y0105100D03*
X0243344Y0101600D03*
X0241844Y0114100D03*
X0252344Y0110600D03*
X0255844Y0114100D03*
X0266344Y0106600D03*
X0266344Y0101600D03*
X0266344Y0096600D03*
X0266344Y0091600D03*
X0266344Y0086600D03*
X0271844Y0092600D03*
X0278344Y0088100D03*
X0285844Y0082100D03*
X0285844Y0076600D03*
X0288844Y0069100D03*
X0293844Y0069100D03*
X0293844Y0064100D03*
X0293844Y0059100D03*
X0288844Y0059100D03*
X0286844Y0063100D03*
X0277344Y0056600D03*
X0298844Y0059100D03*
X0298844Y0064100D03*
X0298844Y0069100D03*
X0304344Y0069100D03*
X0303844Y0064100D03*
X0303844Y0059100D03*
X0314844Y0079600D03*
X0314844Y0084600D03*
X0310344Y0084100D03*
X0304344Y0085600D03*
X0295844Y0085600D03*
X0301844Y0092600D03*
X0310344Y0095100D03*
X0314844Y0094100D03*
X0314844Y0101100D03*
X0310344Y0101600D03*
X0320844Y0104100D03*
X0328844Y0104100D03*
X0337344Y0104100D03*
X0345844Y0104100D03*
X0351844Y0102600D03*
X0364344Y0110600D03*
X0364344Y0116100D03*
X0364344Y0121600D03*
X0359344Y0126600D03*
X0352344Y0124600D03*
X0351844Y0133100D03*
X0352344Y0142100D03*
X0345844Y0146100D03*
X0350844Y0150100D03*
X0333844Y0149600D03*
X0325844Y0149600D03*
X0321084Y0146100D03*
X0317344Y0149100D03*
X0317344Y0143100D03*
X0325844Y0142600D03*
X0333844Y0142600D03*
X0333844Y0133100D03*
X0325844Y0133100D03*
X0325844Y0124600D03*
X0333844Y0124600D03*
X0307844Y0125100D03*
X0302344Y0125100D03*
X0297344Y0125100D03*
X0297344Y0119600D03*
X0292344Y0119600D03*
X0292344Y0114100D03*
X0297344Y0114100D03*
X0296844Y0109100D03*
X0292344Y0106100D03*
X0285844Y0107100D03*
X0285844Y0102600D03*
X0285844Y0094600D03*
X0282844Y0114600D03*
X0279344Y0118600D03*
X0282844Y0121600D03*
X0285844Y0131100D03*
X0286344Y0136100D03*
X0291344Y0136100D03*
X0288844Y0147100D03*
X0284844Y0151100D03*
X0276344Y0151100D03*
X0268344Y0147100D03*
X0263844Y0155100D03*
X0257844Y0157100D03*
X0258344Y0150600D03*
X0252344Y0152600D03*
X0248344Y0161600D03*
X0248344Y0166100D03*
X0244844Y0169100D03*
X0239344Y0174600D03*
X0237344Y0178600D03*
X0223844Y0185600D03*
X0215844Y0185100D03*
X0212844Y0182100D03*
X0210344Y0179600D03*
X0207844Y0177100D03*
X0205344Y0174600D03*
X0207844Y0172100D03*
X0210344Y0174600D03*
X0212844Y0177100D03*
X0214344Y0168600D03*
X0206844Y0165600D03*
X0205844Y0161600D03*
X0201844Y0161100D03*
X0199344Y0163600D03*
X0196844Y0166100D03*
X0193344Y0169600D03*
X0190844Y0172100D03*
X0188344Y0174600D03*
X0185844Y0172100D03*
X0183344Y0174600D03*
X0179844Y0173600D03*
X0182344Y0171100D03*
X0184844Y0168600D03*
X0187344Y0166100D03*
X0188344Y0169600D03*
X0190844Y0167100D03*
X0180844Y0157600D03*
X0177844Y0160600D03*
X0174844Y0163600D03*
X0171844Y0166600D03*
X0168844Y0169600D03*
X0165844Y0172600D03*
X0165844Y0180600D03*
X0176344Y0174600D03*
X0190844Y0181600D03*
X0190844Y0194100D03*
X0224844Y0168600D03*
X0229844Y0159600D03*
X0214344Y0157600D03*
X0211344Y0154600D03*
X0208344Y0151600D03*
X0204844Y0148600D03*
X0201844Y0151600D03*
X0212344Y0136100D03*
X0215844Y0139100D03*
X0225844Y0139100D03*
X0228344Y0135600D03*
X0236844Y0137100D03*
X0240844Y0134600D03*
X0247344Y0134600D03*
X0255344Y0134600D03*
X0271344Y0136600D03*
X0271844Y0129100D03*
X0272844Y0118600D03*
X0241844Y0124100D03*
X0230044Y0114100D03*
X0225344Y0115100D03*
X0225344Y0124100D03*
X0215844Y0124100D03*
X0215844Y0115100D03*
X0210644Y0114100D03*
X0198344Y0114100D03*
X0196344Y0106600D03*
X0191344Y0106600D03*
X0191344Y0101600D03*
X0196344Y0101600D03*
X0187344Y0110100D03*
X0183844Y0111600D03*
X0183844Y0106600D03*
X0183844Y0101600D03*
X0183844Y0096600D03*
X0183844Y0091600D03*
X0190344Y0114100D03*
X0198844Y0124600D03*
X0188344Y0135100D03*
X0168844Y0131600D03*
X0168344Y0146100D03*
X0217844Y0091600D03*
X0222344Y0091600D03*
X0222344Y0086600D03*
X0217844Y0086600D03*
X0217344Y0080600D03*
X0217844Y0075100D03*
X0222844Y0076600D03*
X0217844Y0069600D03*
X0226344Y0068100D03*
X0242844Y0068100D03*
X0242344Y0077600D03*
X0246344Y0083600D03*
X0251344Y0081600D03*
X0255084Y0079100D03*
X0251344Y0086600D03*
X0246344Y0089100D03*
X0307844Y0130600D03*
X0307844Y0136100D03*
X0306344Y0141600D03*
X0305344Y0147100D03*
X0296344Y0151100D03*
X0294844Y0170100D03*
X0294844Y0175100D03*
X0294844Y0180100D03*
X0294844Y0185100D03*
X0289344Y0185100D03*
X0284344Y0185100D03*
X0273844Y0184100D03*
X0273844Y0174600D03*
X0273844Y0165100D03*
X0284844Y0169100D03*
X0300344Y0185100D03*
X0300344Y0190600D03*
X0294844Y0190600D03*
X0312844Y0185100D03*
X0318344Y0185100D03*
X0318344Y0190600D03*
X0318344Y0197600D03*
X0318344Y0202600D03*
X0316344Y0208600D03*
X0309344Y0208600D03*
X0318344Y0178600D03*
X0333844Y0159100D03*
X0363844Y0174100D03*
X0368844Y0174100D03*
X0368844Y0169100D03*
X0373844Y0169100D03*
X0373844Y0164100D03*
X0378844Y0169100D03*
X0378844Y0174100D03*
X0373844Y0174100D03*
X0383844Y0174100D03*
X0384344Y0178600D03*
X0383844Y0169100D03*
X0389344Y0169100D03*
X0401344Y0131600D03*
X0401344Y0126600D03*
X0401344Y0121600D03*
X0401344Y0116600D03*
X0406344Y0131600D03*
X0411344Y0131600D03*
X0423844Y0129100D03*
X0423844Y0124100D03*
X0428844Y0124100D03*
X0428844Y0129100D03*
X0428844Y0119100D03*
X0423844Y0119100D03*
X0423844Y0114100D03*
X0428844Y0114100D03*
X0428844Y0089100D03*
X0418844Y0089100D03*
X0408844Y0089100D03*
X0408844Y0079100D03*
X0408844Y0069100D03*
X0398844Y0069100D03*
X0388844Y0069100D03*
X0378844Y0069100D03*
X0371844Y0089600D03*
X0364844Y0089100D03*
X0358844Y0089600D03*
X0372344Y0110100D03*
X0373344Y0117100D03*
X0384344Y0120100D03*
X0383344Y0126600D03*
X0371844Y0128600D03*
X0326344Y0082100D03*
X0326344Y0077100D03*
X0326344Y0071600D03*
X0320844Y0079600D03*
X0326344Y0066600D03*
X0326344Y0061600D03*
X0418844Y0069100D03*
X0418844Y0079100D03*
X0428844Y0079100D03*
X0428844Y0069100D03*
X0427344Y0149100D03*
X0376344Y0268100D03*
X0371344Y0268100D03*
X0366344Y0268100D03*
X0361344Y0268100D03*
X0356344Y0268100D03*
X0351344Y0268100D03*
X0271344Y0276600D03*
X0271344Y0281600D03*
X0271344Y0286600D03*
X0311344Y0397100D03*
X0118844Y0371600D03*
X0103844Y0366600D03*
X0081344Y0246600D03*
X0106344Y0200100D03*
X0109844Y0200100D03*
X0109844Y0194100D03*
X0106344Y0194100D03*
X0101344Y0146600D03*
X0101344Y0136600D03*
X0101344Y0126600D03*
X0101344Y0116600D03*
X0101344Y0106600D03*
X0101344Y0096600D03*
X0106344Y0086600D03*
X0179344Y0060100D03*
X0255844Y0166100D03*
D18*
X0416844Y0098100D02*
X0416844Y0090100D01*
X0430844Y0090100D01*
X0430844Y0098100D01*
X0416844Y0098100D01*
X0416844Y0097579D02*
X0430844Y0097579D01*
X0430844Y0096981D02*
X0416844Y0096981D01*
X0416844Y0096382D02*
X0430844Y0096382D01*
X0430844Y0095784D02*
X0416844Y0095784D01*
X0416844Y0095185D02*
X0430844Y0095185D01*
X0430844Y0094587D02*
X0416844Y0094587D01*
X0416844Y0093988D02*
X0430844Y0093988D01*
X0430844Y0093390D02*
X0416844Y0093390D01*
X0416844Y0092791D02*
X0430844Y0092791D01*
X0430844Y0092193D02*
X0416844Y0092193D01*
X0416844Y0091594D02*
X0430844Y0091594D01*
X0430844Y0090996D02*
X0416844Y0090996D01*
X0416844Y0090397D02*
X0430844Y0090397D01*
X0430844Y0320100D02*
X0416344Y0320100D01*
X0416344Y0328100D01*
X0430844Y0328100D01*
X0430844Y0320100D01*
X0430844Y0320226D02*
X0416344Y0320226D01*
X0416344Y0320824D02*
X0430844Y0320824D01*
X0430844Y0321423D02*
X0416344Y0321423D01*
X0416344Y0322021D02*
X0430844Y0322021D01*
X0430844Y0322620D02*
X0416344Y0322620D01*
X0416344Y0323218D02*
X0430844Y0323218D01*
X0430844Y0323817D02*
X0416344Y0323817D01*
X0416344Y0324415D02*
X0430844Y0324415D01*
X0430844Y0325014D02*
X0416344Y0325014D01*
X0416344Y0325612D02*
X0430844Y0325612D01*
X0430844Y0326211D02*
X0416344Y0326211D01*
X0416344Y0326809D02*
X0430844Y0326809D01*
X0430844Y0327408D02*
X0416344Y0327408D01*
X0416344Y0328006D02*
X0430844Y0328006D01*
D19*
X0230844Y0206600D02*
X0230844Y0197600D01*
X0224844Y0197600D01*
X0224844Y0206600D01*
X0230844Y0206600D01*
X0230844Y0206407D02*
X0224844Y0206407D01*
X0224844Y0205608D02*
X0230844Y0205608D01*
X0230844Y0204810D02*
X0224844Y0204810D01*
X0224844Y0204011D02*
X0230844Y0204011D01*
X0230844Y0203213D02*
X0224844Y0203213D01*
X0224844Y0202414D02*
X0230844Y0202414D01*
X0230844Y0201616D02*
X0224844Y0201616D01*
X0224844Y0200817D02*
X0230844Y0200817D01*
X0230844Y0200019D02*
X0224844Y0200019D01*
X0224844Y0199220D02*
X0230844Y0199220D01*
X0230844Y0198422D02*
X0224844Y0198422D01*
X0224844Y0197623D02*
X0230844Y0197623D01*
X0221844Y0197623D02*
X0215344Y0197623D01*
X0215344Y0197600D02*
X0215344Y0206600D01*
X0221844Y0206600D01*
X0221844Y0197600D01*
X0215344Y0197600D01*
X0215344Y0198422D02*
X0221844Y0198422D01*
X0221844Y0199220D02*
X0215344Y0199220D01*
X0215344Y0200019D02*
X0221844Y0200019D01*
X0221844Y0200817D02*
X0215344Y0200817D01*
X0215344Y0201616D02*
X0221844Y0201616D01*
X0221844Y0202414D02*
X0215344Y0202414D01*
X0215344Y0203213D02*
X0221844Y0203213D01*
X0221844Y0204011D02*
X0215344Y0204011D01*
X0215344Y0204810D02*
X0221844Y0204810D01*
X0221844Y0205608D02*
X0215344Y0205608D01*
X0215344Y0206407D02*
X0221844Y0206407D01*
X0146844Y0144600D02*
X0143844Y0144600D01*
X0139844Y0148600D01*
X0139844Y0191100D01*
X0134844Y0196600D02*
X0124844Y0196600D01*
X0124844Y0238100D02*
X0104344Y0238100D01*
X0124844Y0238100D02*
X0126344Y0239600D01*
X0094844Y0300100D02*
X0096104Y0301360D01*
X0117344Y0301360D01*
X0105844Y0314600D02*
X0106344Y0315100D01*
X0106344Y0324600D01*
X0210644Y0114100D02*
X0210844Y0113600D01*
X0219344Y0105100D01*
X0246344Y0105100D01*
X0252844Y0103100D02*
X0230344Y0080600D01*
X0217344Y0080600D01*
X0233044Y0110600D02*
X0230044Y0114100D01*
X0233044Y0110600D02*
X0252344Y0110600D01*
D20*
X0270273Y0241600D02*
X0288344Y0241600D01*
X0258344Y0254600D02*
X0229844Y0254600D01*
X0179344Y0263100D02*
X0168344Y0263100D01*
X0144344Y0270100D02*
X0133844Y0270100D01*
X0110844Y0270100D02*
X0099344Y0270100D01*
D21*
X0076966Y0352100D02*
X0076966Y0053600D01*
X0170844Y0053600D01*
X0170844Y0144600D01*
X0222344Y0196100D01*
X0222344Y0197647D01*
X0220104Y0197647D01*
X0220104Y0201600D01*
X0219104Y0201600D01*
X0219104Y0197647D01*
X0216847Y0197647D01*
X0216466Y0197749D01*
X0216124Y0197947D01*
X0215845Y0198226D01*
X0215647Y0198568D01*
X0215545Y0198950D01*
X0215545Y0201600D01*
X0219104Y0201600D01*
X0219104Y0202600D01*
X0219104Y0206553D01*
X0216847Y0206553D01*
X0216466Y0206451D01*
X0216124Y0206253D01*
X0215845Y0205974D01*
X0215647Y0205632D01*
X0215545Y0205250D01*
X0215545Y0202600D01*
X0219104Y0202600D01*
X0220104Y0202600D01*
X0220104Y0206553D01*
X0222344Y0206553D01*
X0222344Y0266600D01*
X0175844Y0266600D01*
X0146844Y0295600D01*
X0146844Y0352100D01*
X0076966Y0352100D01*
X0076966Y0351649D02*
X0146844Y0351649D01*
X0146844Y0350650D02*
X0076966Y0350650D01*
X0076966Y0349652D02*
X0146844Y0349652D01*
X0146844Y0348653D02*
X0076966Y0348653D01*
X0076966Y0347655D02*
X0146844Y0347655D01*
X0146844Y0346656D02*
X0076966Y0346656D01*
X0076966Y0345658D02*
X0146844Y0345658D01*
X0146844Y0344659D02*
X0076966Y0344659D01*
X0076966Y0343661D02*
X0146844Y0343661D01*
X0146844Y0342662D02*
X0076966Y0342662D01*
X0076966Y0341664D02*
X0146844Y0341664D01*
X0146844Y0340665D02*
X0076966Y0340665D01*
X0076966Y0339667D02*
X0146844Y0339667D01*
X0146844Y0338668D02*
X0076966Y0338668D01*
X0076966Y0337670D02*
X0146844Y0337670D01*
X0146844Y0336671D02*
X0076966Y0336671D01*
X0076966Y0335673D02*
X0146844Y0335673D01*
X0146844Y0334674D02*
X0076966Y0334674D01*
X0076966Y0333676D02*
X0146844Y0333676D01*
X0146844Y0332677D02*
X0076966Y0332677D01*
X0076966Y0331679D02*
X0146844Y0331679D01*
X0146844Y0330680D02*
X0076966Y0330680D01*
X0076966Y0329682D02*
X0146844Y0329682D01*
X0146844Y0328683D02*
X0076966Y0328683D01*
X0076966Y0327685D02*
X0146844Y0327685D01*
X0146844Y0326686D02*
X0108202Y0326686D01*
X0107924Y0326964D02*
X0106899Y0327389D01*
X0105789Y0327389D01*
X0104764Y0326964D01*
X0103980Y0326180D01*
X0103555Y0325155D01*
X0103555Y0324045D01*
X0103980Y0323020D01*
X0104644Y0322356D01*
X0104644Y0317122D01*
X0104264Y0316964D01*
X0103480Y0316180D01*
X0103055Y0315155D01*
X0103055Y0314045D01*
X0103480Y0313020D01*
X0104264Y0312236D01*
X0105289Y0311811D01*
X0106399Y0311811D01*
X0107424Y0312236D01*
X0108208Y0313020D01*
X0108633Y0314045D01*
X0108633Y0315155D01*
X0108208Y0316180D01*
X0108044Y0316344D01*
X0108044Y0322356D01*
X0108708Y0323020D01*
X0109133Y0324045D01*
X0109133Y0325155D01*
X0108708Y0326180D01*
X0107924Y0326964D01*
X0108912Y0325688D02*
X0146844Y0325688D01*
X0146844Y0324689D02*
X0109133Y0324689D01*
X0108986Y0323691D02*
X0146844Y0323691D01*
X0146844Y0322692D02*
X0108380Y0322692D01*
X0108044Y0321694D02*
X0146844Y0321694D01*
X0146844Y0320695D02*
X0108044Y0320695D01*
X0108044Y0319697D02*
X0146844Y0319697D01*
X0146844Y0318698D02*
X0108044Y0318698D01*
X0108044Y0317700D02*
X0146844Y0317700D01*
X0146844Y0316701D02*
X0108044Y0316701D01*
X0108406Y0315703D02*
X0146844Y0315703D01*
X0146844Y0314704D02*
X0121345Y0314704D01*
X0120899Y0314889D02*
X0119789Y0314889D01*
X0118764Y0314464D01*
X0117980Y0313680D01*
X0117555Y0312655D01*
X0117555Y0311545D01*
X0117980Y0310520D01*
X0118764Y0309736D01*
X0119789Y0309311D01*
X0120899Y0309311D01*
X0121924Y0309736D01*
X0122488Y0310300D01*
X0140364Y0310300D01*
X0140480Y0310020D01*
X0141264Y0309236D01*
X0142289Y0308811D01*
X0143399Y0308811D01*
X0144424Y0309236D01*
X0145208Y0310020D01*
X0145633Y0311045D01*
X0145633Y0312155D01*
X0145208Y0313180D01*
X0144424Y0313964D01*
X0143399Y0314389D01*
X0142289Y0314389D01*
X0141264Y0313964D01*
X0141200Y0313900D01*
X0122488Y0313900D01*
X0121924Y0314464D01*
X0120899Y0314889D01*
X0119343Y0314704D02*
X0108633Y0314704D01*
X0108492Y0313705D02*
X0118005Y0313705D01*
X0117577Y0312707D02*
X0107895Y0312707D01*
X0103793Y0312707D02*
X0076966Y0312707D01*
X0076966Y0313705D02*
X0103196Y0313705D01*
X0103055Y0314704D02*
X0076966Y0314704D01*
X0076966Y0315703D02*
X0103282Y0315703D01*
X0104001Y0316701D02*
X0076966Y0316701D01*
X0076966Y0317700D02*
X0104644Y0317700D01*
X0104644Y0318698D02*
X0076966Y0318698D01*
X0076966Y0319697D02*
X0104644Y0319697D01*
X0104644Y0320695D02*
X0076966Y0320695D01*
X0076966Y0321694D02*
X0104644Y0321694D01*
X0104308Y0322692D02*
X0076966Y0322692D01*
X0076966Y0323691D02*
X0103702Y0323691D01*
X0103555Y0324689D02*
X0076966Y0324689D01*
X0076966Y0325688D02*
X0103776Y0325688D01*
X0104486Y0326686D02*
X0076966Y0326686D01*
X0076966Y0311708D02*
X0117555Y0311708D01*
X0117901Y0310710D02*
X0076966Y0310710D01*
X0076966Y0309711D02*
X0118823Y0309711D01*
X0120344Y0312100D02*
X0142344Y0312100D01*
X0142844Y0311600D01*
X0145404Y0312707D02*
X0146844Y0312707D01*
X0146844Y0313705D02*
X0144683Y0313705D01*
X0145633Y0311708D02*
X0146844Y0311708D01*
X0146844Y0310710D02*
X0145494Y0310710D01*
X0144900Y0309711D02*
X0146844Y0309711D01*
X0146844Y0308713D02*
X0076966Y0308713D01*
X0076966Y0307714D02*
X0146844Y0307714D01*
X0146844Y0306716D02*
X0076966Y0306716D01*
X0076966Y0305717D02*
X0146844Y0305717D01*
X0146844Y0304719D02*
X0076966Y0304719D01*
X0076966Y0303720D02*
X0115760Y0303720D01*
X0115764Y0303724D02*
X0115100Y0303060D01*
X0095400Y0303060D01*
X0095229Y0302889D01*
X0094289Y0302889D01*
X0093264Y0302464D01*
X0092480Y0301680D01*
X0092055Y0300655D01*
X0092055Y0299545D01*
X0092480Y0298520D01*
X0093264Y0297736D01*
X0094289Y0297311D01*
X0095399Y0297311D01*
X0096424Y0297736D01*
X0097208Y0298520D01*
X0097633Y0299545D01*
X0097633Y0299660D01*
X0115100Y0299660D01*
X0115764Y0298995D01*
X0116789Y0298571D01*
X0117899Y0298571D01*
X0118924Y0298995D01*
X0119708Y0299780D01*
X0120133Y0300805D01*
X0120133Y0301915D01*
X0119708Y0302940D01*
X0118924Y0303724D01*
X0117899Y0304149D01*
X0116789Y0304149D01*
X0115764Y0303724D01*
X0118928Y0303720D02*
X0146844Y0303720D01*
X0146844Y0302722D02*
X0119799Y0302722D01*
X0120133Y0301723D02*
X0146844Y0301723D01*
X0146844Y0300725D02*
X0120100Y0300725D01*
X0119655Y0299726D02*
X0146844Y0299726D01*
X0146844Y0298728D02*
X0118278Y0298728D01*
X0116410Y0298728D02*
X0097294Y0298728D01*
X0096409Y0297729D02*
X0146844Y0297729D01*
X0146844Y0296731D02*
X0076966Y0296731D01*
X0076966Y0297729D02*
X0093279Y0297729D01*
X0092394Y0298728D02*
X0076966Y0298728D01*
X0076966Y0299726D02*
X0092055Y0299726D01*
X0092084Y0300725D02*
X0076966Y0300725D01*
X0076966Y0301723D02*
X0092523Y0301723D01*
X0093886Y0302722D02*
X0076966Y0302722D01*
X0076966Y0295732D02*
X0146844Y0295732D01*
X0147710Y0294734D02*
X0076966Y0294734D01*
X0076966Y0293735D02*
X0148709Y0293735D01*
X0149707Y0292737D02*
X0076966Y0292737D01*
X0076966Y0291738D02*
X0150706Y0291738D01*
X0151704Y0290740D02*
X0076966Y0290740D01*
X0076966Y0289741D02*
X0152703Y0289741D01*
X0153701Y0288743D02*
X0076966Y0288743D01*
X0076966Y0287744D02*
X0154700Y0287744D01*
X0155698Y0286746D02*
X0076966Y0286746D01*
X0076966Y0285747D02*
X0156697Y0285747D01*
X0157695Y0284749D02*
X0076966Y0284749D01*
X0076966Y0283750D02*
X0158694Y0283750D01*
X0159692Y0282752D02*
X0076966Y0282752D01*
X0076966Y0281753D02*
X0160691Y0281753D01*
X0161689Y0280755D02*
X0076966Y0280755D01*
X0076966Y0279756D02*
X0162688Y0279756D01*
X0163686Y0278758D02*
X0076966Y0278758D01*
X0076966Y0277759D02*
X0164685Y0277759D01*
X0165684Y0276761D02*
X0076966Y0276761D01*
X0076966Y0275762D02*
X0166682Y0275762D01*
X0167681Y0274764D02*
X0076966Y0274764D01*
X0076966Y0273765D02*
X0168679Y0273765D01*
X0169678Y0272767D02*
X0145194Y0272767D01*
X0144899Y0272889D02*
X0143789Y0272889D01*
X0142764Y0272464D01*
X0142700Y0272400D01*
X0135488Y0272400D01*
X0135424Y0272464D01*
X0134399Y0272889D01*
X0133289Y0272889D01*
X0132264Y0272464D01*
X0131480Y0271680D01*
X0131055Y0270655D01*
X0131055Y0269545D01*
X0131480Y0268520D01*
X0132264Y0267736D01*
X0133289Y0267311D01*
X0134399Y0267311D01*
X0135424Y0267736D01*
X0135488Y0267800D01*
X0142700Y0267800D01*
X0142764Y0267736D01*
X0143789Y0267311D01*
X0144899Y0267311D01*
X0145924Y0267736D01*
X0146708Y0268520D01*
X0147133Y0269545D01*
X0147133Y0270655D01*
X0146708Y0271680D01*
X0145924Y0272464D01*
X0144899Y0272889D01*
X0143494Y0272767D02*
X0134694Y0272767D01*
X0132994Y0272767D02*
X0111694Y0272767D01*
X0111399Y0272889D02*
X0110289Y0272889D01*
X0109264Y0272464D01*
X0109200Y0272400D01*
X0100988Y0272400D01*
X0100924Y0272464D01*
X0099899Y0272889D01*
X0098789Y0272889D01*
X0097764Y0272464D01*
X0096980Y0271680D01*
X0096555Y0270655D01*
X0096555Y0269545D01*
X0096980Y0268520D01*
X0097764Y0267736D01*
X0098789Y0267311D01*
X0099899Y0267311D01*
X0100924Y0267736D01*
X0100988Y0267800D01*
X0109200Y0267800D01*
X0109264Y0267736D01*
X0110289Y0267311D01*
X0111399Y0267311D01*
X0112424Y0267736D01*
X0113208Y0268520D01*
X0113633Y0269545D01*
X0113633Y0270655D01*
X0113208Y0271680D01*
X0112424Y0272464D01*
X0111399Y0272889D01*
X0109994Y0272767D02*
X0100194Y0272767D01*
X0098494Y0272767D02*
X0076966Y0272767D01*
X0076966Y0271768D02*
X0097068Y0271768D01*
X0096603Y0270770D02*
X0076966Y0270770D01*
X0076966Y0269771D02*
X0096555Y0269771D01*
X0096875Y0268772D02*
X0076966Y0268772D01*
X0076966Y0267774D02*
X0097726Y0267774D01*
X0100962Y0267774D02*
X0109226Y0267774D01*
X0112462Y0267774D02*
X0132226Y0267774D01*
X0131375Y0268772D02*
X0113313Y0268772D01*
X0113633Y0269771D02*
X0131055Y0269771D01*
X0131103Y0270770D02*
X0113586Y0270770D01*
X0113120Y0271768D02*
X0131568Y0271768D01*
X0135462Y0267774D02*
X0142726Y0267774D01*
X0145962Y0267774D02*
X0174670Y0267774D01*
X0173672Y0268772D02*
X0146813Y0268772D01*
X0147133Y0269771D02*
X0172673Y0269771D01*
X0171675Y0270770D02*
X0147086Y0270770D01*
X0146620Y0271768D02*
X0170676Y0271768D01*
X0168899Y0265889D02*
X0167789Y0265889D01*
X0166764Y0265464D01*
X0165980Y0264680D01*
X0165555Y0263655D01*
X0165555Y0262545D01*
X0165980Y0261520D01*
X0166764Y0260736D01*
X0167789Y0260311D01*
X0168899Y0260311D01*
X0169924Y0260736D01*
X0169988Y0260800D01*
X0177700Y0260800D01*
X0177764Y0260736D01*
X0178789Y0260311D01*
X0179899Y0260311D01*
X0180924Y0260736D01*
X0181708Y0261520D01*
X0182133Y0262545D01*
X0182133Y0263655D01*
X0181708Y0264680D01*
X0180924Y0265464D01*
X0179899Y0265889D01*
X0178789Y0265889D01*
X0177764Y0265464D01*
X0177700Y0265400D01*
X0169988Y0265400D01*
X0169924Y0265464D01*
X0168899Y0265889D01*
X0169169Y0265777D02*
X0178519Y0265777D01*
X0180169Y0265777D02*
X0222344Y0265777D01*
X0222344Y0264778D02*
X0181610Y0264778D01*
X0182081Y0263780D02*
X0222344Y0263780D01*
X0222344Y0262781D02*
X0182133Y0262781D01*
X0181817Y0261783D02*
X0222344Y0261783D01*
X0222344Y0260784D02*
X0180973Y0260784D01*
X0177715Y0260784D02*
X0169973Y0260784D01*
X0166715Y0260784D02*
X0076966Y0260784D01*
X0076966Y0259786D02*
X0222344Y0259786D01*
X0222344Y0258787D02*
X0209238Y0258787D01*
X0209125Y0258900D02*
X0205563Y0258900D01*
X0203044Y0256381D01*
X0203044Y0252819D01*
X0205563Y0250300D01*
X0209125Y0250300D01*
X0211644Y0252819D01*
X0211644Y0256381D01*
X0209125Y0258900D01*
X0210236Y0257789D02*
X0222344Y0257789D01*
X0222344Y0256790D02*
X0211235Y0256790D01*
X0211644Y0255792D02*
X0222344Y0255792D01*
X0222344Y0254793D02*
X0211644Y0254793D01*
X0211644Y0253795D02*
X0222344Y0253795D01*
X0222344Y0252796D02*
X0211622Y0252796D01*
X0210623Y0251798D02*
X0222344Y0251798D01*
X0222344Y0250799D02*
X0209624Y0250799D01*
X0209208Y0249100D02*
X0207844Y0249100D01*
X0207844Y0245100D01*
X0206844Y0245100D01*
X0206844Y0244100D01*
X0202844Y0244100D01*
X0202844Y0242736D01*
X0205480Y0240100D01*
X0206844Y0240100D01*
X0206844Y0244100D01*
X0207844Y0244100D01*
X0207844Y0240100D01*
X0209208Y0240100D01*
X0211844Y0242736D01*
X0211844Y0244100D01*
X0207844Y0244100D01*
X0207844Y0245100D01*
X0211844Y0245100D01*
X0211844Y0246464D01*
X0209208Y0249100D01*
X0209506Y0248802D02*
X0222344Y0248802D01*
X0222344Y0247804D02*
X0210504Y0247804D01*
X0211503Y0246805D02*
X0222344Y0246805D01*
X0222344Y0245807D02*
X0211844Y0245807D01*
X0211844Y0243810D02*
X0222344Y0243810D01*
X0222344Y0244808D02*
X0207844Y0244808D01*
X0207844Y0243810D02*
X0206844Y0243810D01*
X0206844Y0244808D02*
X0197844Y0244808D01*
X0197844Y0245100D02*
X0201844Y0245100D01*
X0201844Y0246464D01*
X0199208Y0249100D01*
X0197844Y0249100D01*
X0197844Y0245100D01*
X0196844Y0245100D01*
X0196844Y0244100D01*
X0192844Y0244100D01*
X0192844Y0242736D01*
X0195480Y0240100D01*
X0196844Y0240100D01*
X0196844Y0244100D01*
X0197844Y0244100D01*
X0197844Y0240100D01*
X0199208Y0240100D01*
X0201844Y0242736D01*
X0201844Y0244100D01*
X0197844Y0244100D01*
X0197844Y0245100D01*
X0197844Y0245807D02*
X0196844Y0245807D01*
X0196844Y0245100D02*
X0196844Y0249100D01*
X0195480Y0249100D01*
X0192844Y0246464D01*
X0192844Y0245100D01*
X0196844Y0245100D01*
X0196844Y0244808D02*
X0181580Y0244808D01*
X0181424Y0244964D02*
X0180399Y0245389D01*
X0179289Y0245389D01*
X0178264Y0244964D01*
X0177700Y0244400D01*
X0169488Y0244400D01*
X0168924Y0244964D01*
X0167899Y0245389D01*
X0166789Y0245389D01*
X0165764Y0244964D01*
X0164980Y0244180D01*
X0164555Y0243155D01*
X0164555Y0242045D01*
X0164980Y0241020D01*
X0165764Y0240236D01*
X0166789Y0239811D01*
X0167899Y0239811D01*
X0168924Y0240236D01*
X0169488Y0240800D01*
X0177700Y0240800D01*
X0178264Y0240236D01*
X0179289Y0239811D01*
X0180399Y0239811D01*
X0181424Y0240236D01*
X0182208Y0241020D01*
X0182633Y0242045D01*
X0182633Y0243155D01*
X0182208Y0244180D01*
X0181424Y0244964D01*
X0182362Y0243810D02*
X0192844Y0243810D01*
X0192844Y0242811D02*
X0182633Y0242811D01*
X0182537Y0241813D02*
X0193767Y0241813D01*
X0194766Y0240814D02*
X0182002Y0240814D01*
X0180410Y0239816D02*
X0222344Y0239816D01*
X0222344Y0240814D02*
X0209922Y0240814D01*
X0210921Y0241813D02*
X0222344Y0241813D01*
X0222344Y0242811D02*
X0211844Y0242811D01*
X0207844Y0242811D02*
X0206844Y0242811D01*
X0206844Y0241813D02*
X0207844Y0241813D01*
X0207844Y0240814D02*
X0206844Y0240814D01*
X0204766Y0240814D02*
X0199922Y0240814D01*
X0200921Y0241813D02*
X0203767Y0241813D01*
X0202844Y0242811D02*
X0201844Y0242811D01*
X0201844Y0243810D02*
X0202844Y0243810D01*
X0202844Y0245100D02*
X0206844Y0245100D01*
X0206844Y0249100D01*
X0205480Y0249100D01*
X0202844Y0246464D01*
X0202844Y0245100D01*
X0202844Y0245807D02*
X0201844Y0245807D01*
X0201503Y0246805D02*
X0203185Y0246805D01*
X0204184Y0247804D02*
X0200504Y0247804D01*
X0199506Y0248802D02*
X0205182Y0248802D01*
X0206844Y0248802D02*
X0207844Y0248802D01*
X0207844Y0247804D02*
X0206844Y0247804D01*
X0206844Y0246805D02*
X0207844Y0246805D01*
X0207844Y0245807D02*
X0206844Y0245807D01*
X0205064Y0250799D02*
X0199624Y0250799D01*
X0199125Y0250300D02*
X0201644Y0252819D01*
X0201644Y0256381D01*
X0199125Y0258900D01*
X0195563Y0258900D01*
X0193044Y0256381D01*
X0193044Y0252819D01*
X0195563Y0250300D01*
X0199125Y0250300D01*
X0197844Y0248802D02*
X0196844Y0248802D01*
X0196844Y0247804D02*
X0197844Y0247804D01*
X0197844Y0246805D02*
X0196844Y0246805D01*
X0195182Y0248802D02*
X0147844Y0248802D01*
X0147844Y0249100D02*
X0151844Y0249100D01*
X0151844Y0251954D01*
X0151733Y0252654D01*
X0151514Y0253327D01*
X0151193Y0253959D01*
X0150776Y0254532D01*
X0150276Y0255032D01*
X0149703Y0255449D01*
X0149071Y0255770D01*
X0148398Y0255989D01*
X0147844Y0256077D01*
X0147844Y0249100D01*
X0146844Y0249100D01*
X0146844Y0248100D01*
X0142844Y0248100D01*
X0142844Y0245246D01*
X0142955Y0244546D01*
X0143174Y0243873D01*
X0143495Y0243241D01*
X0143912Y0242668D01*
X0144413Y0242168D01*
X0144986Y0241751D01*
X0145617Y0241430D01*
X0146290Y0241211D01*
X0146844Y0241123D01*
X0146844Y0248100D01*
X0147844Y0248100D01*
X0147844Y0241123D01*
X0148398Y0241211D01*
X0149071Y0241430D01*
X0149703Y0241751D01*
X0150276Y0242168D01*
X0150776Y0242668D01*
X0151193Y0243241D01*
X0151514Y0243873D01*
X0151733Y0244546D01*
X0151844Y0245246D01*
X0151844Y0248100D01*
X0147844Y0248100D01*
X0147844Y0249100D01*
X0147844Y0249801D02*
X0146844Y0249801D01*
X0146844Y0249100D02*
X0146844Y0256077D01*
X0146290Y0255989D01*
X0145617Y0255770D01*
X0144986Y0255449D01*
X0144413Y0255032D01*
X0143912Y0254532D01*
X0143495Y0253959D01*
X0143174Y0253327D01*
X0142955Y0252654D01*
X0142844Y0251954D01*
X0142844Y0249100D01*
X0146844Y0249100D01*
X0146844Y0248802D02*
X0141644Y0248802D01*
X0141644Y0247804D02*
X0142844Y0247804D01*
X0142844Y0246805D02*
X0141644Y0246805D01*
X0141644Y0245807D02*
X0142844Y0245807D01*
X0142913Y0244808D02*
X0141644Y0244808D01*
X0141644Y0244745D02*
X0141644Y0252455D01*
X0140989Y0254036D01*
X0139780Y0255245D01*
X0138199Y0255900D01*
X0136489Y0255900D01*
X0134908Y0255245D01*
X0133699Y0254036D01*
X0133044Y0252455D01*
X0133044Y0244745D01*
X0133699Y0243164D01*
X0134908Y0241955D01*
X0136489Y0241300D01*
X0138199Y0241300D01*
X0139780Y0241955D01*
X0140989Y0243164D01*
X0141644Y0244745D01*
X0141257Y0243810D02*
X0143206Y0243810D01*
X0143808Y0242811D02*
X0140636Y0242811D01*
X0139437Y0241813D02*
X0144901Y0241813D01*
X0146844Y0241813D02*
X0147844Y0241813D01*
X0147844Y0242811D02*
X0146844Y0242811D01*
X0146844Y0243810D02*
X0147844Y0243810D01*
X0147844Y0244808D02*
X0146844Y0244808D01*
X0146844Y0245807D02*
X0147844Y0245807D01*
X0147844Y0246805D02*
X0146844Y0246805D01*
X0146844Y0247804D02*
X0147844Y0247804D01*
X0147844Y0250799D02*
X0146844Y0250799D01*
X0146844Y0251798D02*
X0147844Y0251798D01*
X0147844Y0252796D02*
X0146844Y0252796D01*
X0146844Y0253795D02*
X0147844Y0253795D01*
X0147844Y0254793D02*
X0146844Y0254793D01*
X0146844Y0255792D02*
X0147844Y0255792D01*
X0149005Y0255792D02*
X0193044Y0255792D01*
X0193044Y0254793D02*
X0150515Y0254793D01*
X0151276Y0253795D02*
X0193044Y0253795D01*
X0193067Y0252796D02*
X0151687Y0252796D01*
X0151844Y0251798D02*
X0194065Y0251798D01*
X0195064Y0250799D02*
X0151844Y0250799D01*
X0151844Y0249801D02*
X0222344Y0249801D01*
X0222344Y0238817D02*
X0209208Y0238817D01*
X0209125Y0238900D02*
X0205563Y0238900D01*
X0203044Y0236381D01*
X0203044Y0232819D01*
X0205563Y0230300D01*
X0209125Y0230300D01*
X0211644Y0232819D01*
X0211644Y0236381D01*
X0209125Y0238900D01*
X0210207Y0237819D02*
X0222344Y0237819D01*
X0222344Y0236820D02*
X0211205Y0236820D01*
X0211644Y0235822D02*
X0222344Y0235822D01*
X0222344Y0234823D02*
X0211644Y0234823D01*
X0211644Y0233825D02*
X0222344Y0233825D01*
X0222344Y0232826D02*
X0211644Y0232826D01*
X0210653Y0231828D02*
X0222344Y0231828D01*
X0222344Y0230829D02*
X0209654Y0230829D01*
X0209125Y0228900D02*
X0205563Y0228900D01*
X0203044Y0226381D01*
X0203044Y0222819D01*
X0205563Y0220300D01*
X0209125Y0220300D01*
X0211644Y0222819D01*
X0211644Y0226381D01*
X0209125Y0228900D01*
X0209193Y0228832D02*
X0222344Y0228832D01*
X0222344Y0227834D02*
X0210192Y0227834D01*
X0211190Y0226835D02*
X0222344Y0226835D01*
X0222344Y0225837D02*
X0211644Y0225837D01*
X0211644Y0224838D02*
X0222344Y0224838D01*
X0222344Y0223839D02*
X0211644Y0223839D01*
X0211644Y0222841D02*
X0222344Y0222841D01*
X0222344Y0221842D02*
X0210668Y0221842D01*
X0209669Y0220844D02*
X0222344Y0220844D01*
X0222344Y0219845D02*
X0076966Y0219845D01*
X0076966Y0218847D02*
X0222344Y0218847D01*
X0222344Y0217848D02*
X0076966Y0217848D01*
X0076966Y0216850D02*
X0222344Y0216850D01*
X0222344Y0215851D02*
X0076966Y0215851D01*
X0076966Y0214853D02*
X0222344Y0214853D01*
X0222344Y0213854D02*
X0102909Y0213854D01*
X0102820Y0213943D02*
X0093869Y0213943D01*
X0093107Y0213182D01*
X0093107Y0205018D01*
X0093869Y0204257D01*
X0102820Y0204257D01*
X0103581Y0205018D01*
X0103581Y0213182D01*
X0102820Y0213943D01*
X0103581Y0212856D02*
X0222344Y0212856D01*
X0222344Y0211857D02*
X0103581Y0211857D01*
X0103581Y0210859D02*
X0222344Y0210859D01*
X0222344Y0209860D02*
X0103581Y0209860D01*
X0103581Y0208862D02*
X0222344Y0208862D01*
X0222344Y0207863D02*
X0103581Y0207863D01*
X0103581Y0206865D02*
X0222344Y0206865D01*
X0220104Y0205866D02*
X0219104Y0205866D01*
X0219104Y0204868D02*
X0220104Y0204868D01*
X0220104Y0203869D02*
X0219104Y0203869D01*
X0219104Y0202871D02*
X0220104Y0202871D01*
X0219104Y0201872D02*
X0076966Y0201872D01*
X0076966Y0200874D02*
X0215545Y0200874D01*
X0215545Y0199875D02*
X0076966Y0199875D01*
X0076966Y0198877D02*
X0123177Y0198877D01*
X0123264Y0198964D02*
X0122480Y0198180D01*
X0122055Y0197155D01*
X0122055Y0196045D01*
X0122480Y0195020D01*
X0123264Y0194236D01*
X0124289Y0193811D01*
X0125399Y0193811D01*
X0126424Y0194236D01*
X0127088Y0194900D01*
X0132600Y0194900D01*
X0133264Y0194236D01*
X0134289Y0193811D01*
X0135399Y0193811D01*
X0136424Y0194236D01*
X0137208Y0195020D01*
X0137633Y0196045D01*
X0137633Y0197155D01*
X0137208Y0198180D01*
X0136424Y0198964D01*
X0135399Y0199389D01*
X0134289Y0199389D01*
X0133264Y0198964D01*
X0132600Y0198300D01*
X0127088Y0198300D01*
X0126424Y0198964D01*
X0125399Y0199389D01*
X0124289Y0199389D01*
X0123264Y0198964D01*
X0122355Y0197878D02*
X0076966Y0197878D01*
X0076966Y0196880D02*
X0122055Y0196880D01*
X0122123Y0195881D02*
X0076966Y0195881D01*
X0076966Y0194883D02*
X0122617Y0194883D01*
X0124113Y0193884D02*
X0076966Y0193884D01*
X0076966Y0192886D02*
X0105584Y0192886D01*
X0105598Y0192900D02*
X0097587Y0184889D01*
X0096789Y0184889D01*
X0095764Y0184464D01*
X0094980Y0183680D01*
X0094555Y0182655D01*
X0094555Y0181545D01*
X0094980Y0180520D01*
X0095764Y0179736D01*
X0096789Y0179311D01*
X0097899Y0179311D01*
X0098924Y0179736D01*
X0099708Y0180520D01*
X0100133Y0181545D01*
X0100133Y0182343D01*
X0107090Y0189300D01*
X0127747Y0189300D01*
X0128312Y0188736D01*
X0129337Y0188311D01*
X0130446Y0188311D01*
X0131471Y0188736D01*
X0132256Y0189520D01*
X0132680Y0190545D01*
X0132680Y0191655D01*
X0132256Y0192680D01*
X0131471Y0193464D01*
X0130446Y0193889D01*
X0129337Y0193889D01*
X0128312Y0193464D01*
X0127747Y0192900D01*
X0105598Y0192900D01*
X0104586Y0191887D02*
X0076966Y0191887D01*
X0076966Y0190889D02*
X0103587Y0190889D01*
X0102589Y0189890D02*
X0076966Y0189890D01*
X0076966Y0188892D02*
X0101590Y0188892D01*
X0100592Y0187893D02*
X0076966Y0187893D01*
X0076966Y0186895D02*
X0099593Y0186895D01*
X0098595Y0185896D02*
X0076966Y0185896D01*
X0076966Y0184898D02*
X0097596Y0184898D01*
X0095199Y0183899D02*
X0076966Y0183899D01*
X0076966Y0182901D02*
X0094657Y0182901D01*
X0094555Y0181902D02*
X0076966Y0181902D01*
X0076966Y0180903D02*
X0094821Y0180903D01*
X0095595Y0179905D02*
X0076966Y0179905D01*
X0076966Y0178906D02*
X0138144Y0178906D01*
X0138144Y0177908D02*
X0076966Y0177908D01*
X0076966Y0176909D02*
X0138144Y0176909D01*
X0138144Y0175911D02*
X0076966Y0175911D01*
X0076966Y0174912D02*
X0138144Y0174912D01*
X0138144Y0173914D02*
X0110111Y0173914D01*
X0109780Y0174245D02*
X0108199Y0174900D01*
X0106489Y0174900D01*
X0104908Y0174245D01*
X0103699Y0173036D01*
X0103044Y0171455D01*
X0103044Y0163745D01*
X0103699Y0162164D01*
X0104908Y0160955D01*
X0106489Y0160300D01*
X0108199Y0160300D01*
X0109780Y0160955D01*
X0110989Y0162164D01*
X0111644Y0163745D01*
X0111644Y0171455D01*
X0110989Y0173036D01*
X0109780Y0174245D01*
X0111039Y0172915D02*
X0138144Y0172915D01*
X0138144Y0171917D02*
X0111453Y0171917D01*
X0111644Y0170918D02*
X0138144Y0170918D01*
X0138144Y0169920D02*
X0111644Y0169920D01*
X0111644Y0168921D02*
X0138144Y0168921D01*
X0138144Y0167923D02*
X0111644Y0167923D01*
X0111644Y0166924D02*
X0138144Y0166924D01*
X0138144Y0165926D02*
X0111644Y0165926D01*
X0111644Y0164927D02*
X0138144Y0164927D01*
X0138144Y0163929D02*
X0111644Y0163929D01*
X0111307Y0162930D02*
X0138144Y0162930D01*
X0138144Y0161932D02*
X0110757Y0161932D01*
X0109728Y0160933D02*
X0138144Y0160933D01*
X0138144Y0159935D02*
X0076966Y0159935D01*
X0076966Y0160933D02*
X0094960Y0160933D01*
X0094908Y0160955D02*
X0096489Y0160300D01*
X0098199Y0160300D01*
X0099780Y0160955D01*
X0100989Y0162164D01*
X0101644Y0163745D01*
X0101644Y0171455D01*
X0100989Y0173036D01*
X0099780Y0174245D01*
X0098199Y0174900D01*
X0096489Y0174900D01*
X0094908Y0174245D01*
X0093699Y0173036D01*
X0093044Y0171455D01*
X0093044Y0163745D01*
X0093699Y0162164D01*
X0094908Y0160955D01*
X0093931Y0161932D02*
X0076966Y0161932D01*
X0076966Y0162930D02*
X0093381Y0162930D01*
X0093044Y0163929D02*
X0076966Y0163929D01*
X0076966Y0164927D02*
X0093044Y0164927D01*
X0093044Y0165926D02*
X0076966Y0165926D01*
X0076966Y0166924D02*
X0093044Y0166924D01*
X0093044Y0167923D02*
X0076966Y0167923D01*
X0076966Y0168921D02*
X0093044Y0168921D01*
X0093044Y0169920D02*
X0076966Y0169920D01*
X0076966Y0170918D02*
X0093044Y0170918D01*
X0093235Y0171917D02*
X0076966Y0171917D01*
X0076966Y0172915D02*
X0093649Y0172915D01*
X0094577Y0173914D02*
X0076966Y0173914D01*
X0076966Y0158936D02*
X0138144Y0158936D01*
X0138144Y0157938D02*
X0076966Y0157938D01*
X0076966Y0156939D02*
X0138144Y0156939D01*
X0138144Y0155941D02*
X0076966Y0155941D01*
X0076966Y0154942D02*
X0138144Y0154942D01*
X0138144Y0153944D02*
X0076966Y0153944D01*
X0076966Y0152945D02*
X0138144Y0152945D01*
X0138144Y0151947D02*
X0076966Y0151947D01*
X0076966Y0150948D02*
X0138144Y0150948D01*
X0138144Y0149950D02*
X0076966Y0149950D01*
X0076966Y0148951D02*
X0138144Y0148951D01*
X0138144Y0147953D02*
X0076966Y0147953D01*
X0076966Y0146954D02*
X0139086Y0146954D01*
X0138144Y0147896D02*
X0142144Y0143896D01*
X0142544Y0143496D01*
X0142544Y0142819D01*
X0145063Y0140300D01*
X0148625Y0140300D01*
X0151144Y0142819D01*
X0151144Y0146381D01*
X0148625Y0148900D01*
X0145063Y0148900D01*
X0143506Y0147343D01*
X0141544Y0149304D01*
X0141544Y0188856D01*
X0142208Y0189520D01*
X0142633Y0190545D01*
X0142633Y0191655D01*
X0142208Y0192680D01*
X0141424Y0193464D01*
X0140399Y0193889D01*
X0139289Y0193889D01*
X0138264Y0193464D01*
X0137480Y0192680D01*
X0137055Y0191655D01*
X0137055Y0190545D01*
X0137480Y0189520D01*
X0138144Y0188856D01*
X0138144Y0147896D01*
X0140084Y0145956D02*
X0076966Y0145956D01*
X0076966Y0144957D02*
X0141083Y0144957D01*
X0142081Y0143959D02*
X0076966Y0143959D01*
X0076966Y0142960D02*
X0142544Y0142960D01*
X0143401Y0141962D02*
X0076966Y0141962D01*
X0076966Y0140963D02*
X0144400Y0140963D01*
X0140708Y0139180D02*
X0141133Y0138155D01*
X0141133Y0137045D01*
X0140708Y0136020D01*
X0139924Y0135236D01*
X0138899Y0134811D01*
X0137789Y0134811D01*
X0136764Y0135236D01*
X0136200Y0135800D01*
X0118988Y0135800D01*
X0118424Y0135236D01*
X0117399Y0134811D01*
X0116289Y0134811D01*
X0115264Y0135236D01*
X0114480Y0136020D01*
X0114055Y0137045D01*
X0114055Y0138155D01*
X0114480Y0139180D01*
X0115264Y0139964D01*
X0116289Y0140389D01*
X0117399Y0140389D01*
X0118424Y0139964D01*
X0118988Y0139400D01*
X0136200Y0139400D01*
X0136764Y0139964D01*
X0137789Y0140389D01*
X0138899Y0140389D01*
X0139924Y0139964D01*
X0140708Y0139180D01*
X0140797Y0138966D02*
X0170844Y0138966D01*
X0170844Y0137968D02*
X0141133Y0137968D01*
X0141101Y0136969D02*
X0170844Y0136969D01*
X0170844Y0135970D02*
X0140659Y0135970D01*
X0139287Y0134972D02*
X0170844Y0134972D01*
X0170844Y0133973D02*
X0076966Y0133973D01*
X0076966Y0132975D02*
X0170844Y0132975D01*
X0170844Y0131976D02*
X0076966Y0131976D01*
X0076966Y0130978D02*
X0170844Y0130978D01*
X0170844Y0129979D02*
X0076966Y0129979D01*
X0076966Y0128981D02*
X0170844Y0128981D01*
X0170844Y0127982D02*
X0076966Y0127982D01*
X0076966Y0126984D02*
X0163811Y0126984D01*
X0163764Y0126964D02*
X0162980Y0126180D01*
X0162555Y0125155D01*
X0162555Y0124498D01*
X0156557Y0118500D01*
X0134388Y0118500D01*
X0133924Y0118964D01*
X0132899Y0119389D01*
X0131789Y0119389D01*
X0130764Y0118964D01*
X0129980Y0118180D01*
X0129555Y0117155D01*
X0129555Y0116498D01*
X0115444Y0102387D01*
X0115444Y0097967D01*
X0114908Y0097745D01*
X0113699Y0096536D01*
X0113044Y0094955D01*
X0113044Y0087245D01*
X0113699Y0085664D01*
X0114908Y0084455D01*
X0116489Y0083800D01*
X0118199Y0083800D01*
X0119780Y0084455D01*
X0120989Y0085664D01*
X0121644Y0087245D01*
X0121644Y0094955D01*
X0120989Y0096536D01*
X0119780Y0097745D01*
X0119244Y0097967D01*
X0119244Y0100813D01*
X0132242Y0113811D01*
X0132899Y0113811D01*
X0133924Y0114236D01*
X0134388Y0114700D01*
X0158131Y0114700D01*
X0159244Y0115813D01*
X0165242Y0121811D01*
X0165899Y0121811D01*
X0166924Y0122236D01*
X0167708Y0123020D01*
X0168133Y0124045D01*
X0168133Y0125155D01*
X0167708Y0126180D01*
X0166924Y0126964D01*
X0165899Y0127389D01*
X0164789Y0127389D01*
X0163764Y0126964D01*
X0162899Y0125985D02*
X0076966Y0125985D01*
X0076966Y0124987D02*
X0162555Y0124987D01*
X0162045Y0123988D02*
X0076966Y0123988D01*
X0076966Y0122990D02*
X0161047Y0122990D01*
X0160048Y0121991D02*
X0076966Y0121991D01*
X0076966Y0120993D02*
X0159050Y0120993D01*
X0158051Y0119994D02*
X0076966Y0119994D01*
X0076966Y0118996D02*
X0130840Y0118996D01*
X0129904Y0117997D02*
X0076966Y0117997D01*
X0076966Y0116999D02*
X0129555Y0116999D01*
X0129057Y0116000D02*
X0076966Y0116000D01*
X0076966Y0115002D02*
X0128059Y0115002D01*
X0127060Y0114003D02*
X0076966Y0114003D01*
X0076966Y0113005D02*
X0126062Y0113005D01*
X0125063Y0112006D02*
X0076966Y0112006D01*
X0076966Y0111008D02*
X0124065Y0111008D01*
X0123066Y0110009D02*
X0076966Y0110009D01*
X0076966Y0109011D02*
X0122068Y0109011D01*
X0121069Y0108012D02*
X0076966Y0108012D01*
X0076966Y0107014D02*
X0120071Y0107014D01*
X0119072Y0106015D02*
X0076966Y0106015D01*
X0076966Y0105017D02*
X0118074Y0105017D01*
X0117075Y0104018D02*
X0076966Y0104018D01*
X0076966Y0103020D02*
X0116077Y0103020D01*
X0115444Y0102021D02*
X0076966Y0102021D01*
X0076966Y0101023D02*
X0115444Y0101023D01*
X0115444Y0100024D02*
X0076966Y0100024D01*
X0076966Y0099026D02*
X0115444Y0099026D01*
X0115444Y0098027D02*
X0076966Y0098027D01*
X0076966Y0097029D02*
X0114192Y0097029D01*
X0113489Y0096030D02*
X0076966Y0096030D01*
X0076966Y0095032D02*
X0113076Y0095032D01*
X0113044Y0094033D02*
X0076966Y0094033D01*
X0076966Y0093034D02*
X0113044Y0093034D01*
X0113044Y0092036D02*
X0076966Y0092036D01*
X0076966Y0091037D02*
X0113044Y0091037D01*
X0113044Y0090039D02*
X0076966Y0090039D01*
X0076966Y0089040D02*
X0113044Y0089040D01*
X0113044Y0088042D02*
X0076966Y0088042D01*
X0076966Y0087043D02*
X0113127Y0087043D01*
X0113541Y0086045D02*
X0076966Y0086045D01*
X0076966Y0085046D02*
X0114317Y0085046D01*
X0115890Y0084048D02*
X0076966Y0084048D01*
X0076966Y0083049D02*
X0170844Y0083049D01*
X0170844Y0082051D02*
X0076966Y0082051D01*
X0076966Y0081052D02*
X0170844Y0081052D01*
X0170844Y0080054D02*
X0076966Y0080054D01*
X0076966Y0079055D02*
X0170844Y0079055D01*
X0170844Y0078057D02*
X0076966Y0078057D01*
X0076966Y0077058D02*
X0170844Y0077058D01*
X0170844Y0076060D02*
X0076966Y0076060D01*
X0076966Y0075061D02*
X0170844Y0075061D01*
X0170844Y0074063D02*
X0076966Y0074063D01*
X0076966Y0073064D02*
X0170844Y0073064D01*
X0170844Y0072066D02*
X0076966Y0072066D01*
X0076966Y0071067D02*
X0170844Y0071067D01*
X0170844Y0070069D02*
X0076966Y0070069D01*
X0076966Y0069070D02*
X0170844Y0069070D01*
X0170844Y0068072D02*
X0076966Y0068072D01*
X0076966Y0067073D02*
X0170844Y0067073D01*
X0170844Y0066075D02*
X0076966Y0066075D01*
X0076966Y0065076D02*
X0170844Y0065076D01*
X0170844Y0064078D02*
X0076966Y0064078D01*
X0076966Y0063079D02*
X0170844Y0063079D01*
X0170844Y0062081D02*
X0076966Y0062081D01*
X0076966Y0061082D02*
X0170844Y0061082D01*
X0170844Y0060084D02*
X0076966Y0060084D01*
X0076966Y0059085D02*
X0170844Y0059085D01*
X0170844Y0058087D02*
X0076966Y0058087D01*
X0076966Y0057088D02*
X0170844Y0057088D01*
X0170844Y0056090D02*
X0076966Y0056090D01*
X0076966Y0055091D02*
X0170844Y0055091D01*
X0170844Y0054093D02*
X0076966Y0054093D01*
X0118798Y0084048D02*
X0125890Y0084048D01*
X0126489Y0083800D02*
X0128199Y0083800D01*
X0129780Y0084455D01*
X0130989Y0085664D01*
X0131644Y0087245D01*
X0131644Y0094955D01*
X0130989Y0096536D01*
X0129780Y0097745D01*
X0128199Y0098400D01*
X0126489Y0098400D01*
X0124908Y0097745D01*
X0123699Y0096536D01*
X0123044Y0094955D01*
X0123044Y0087245D01*
X0123699Y0085664D01*
X0124908Y0084455D01*
X0126489Y0083800D01*
X0128798Y0084048D02*
X0135385Y0084048D01*
X0135617Y0083930D02*
X0136290Y0083711D01*
X0136844Y0083623D01*
X0136844Y0090600D01*
X0132844Y0090600D01*
X0132844Y0087746D01*
X0132955Y0087046D01*
X0133174Y0086373D01*
X0133495Y0085741D01*
X0133912Y0085168D01*
X0134413Y0084668D01*
X0134986Y0084251D01*
X0135617Y0083930D01*
X0136844Y0084048D02*
X0137844Y0084048D01*
X0137844Y0083623D02*
X0138398Y0083711D01*
X0139071Y0083930D01*
X0139703Y0084251D01*
X0140276Y0084668D01*
X0140776Y0085168D01*
X0141193Y0085741D01*
X0141514Y0086373D01*
X0141733Y0087046D01*
X0141844Y0087746D01*
X0141844Y0090600D01*
X0137844Y0090600D01*
X0137844Y0083623D01*
X0137844Y0085046D02*
X0136844Y0085046D01*
X0136844Y0086045D02*
X0137844Y0086045D01*
X0137844Y0087043D02*
X0136844Y0087043D01*
X0136844Y0088042D02*
X0137844Y0088042D01*
X0137844Y0089040D02*
X0136844Y0089040D01*
X0136844Y0090039D02*
X0137844Y0090039D01*
X0137844Y0090600D02*
X0136844Y0090600D01*
X0136844Y0091600D01*
X0132844Y0091600D01*
X0132844Y0094454D01*
X0132955Y0095154D01*
X0133174Y0095827D01*
X0133495Y0096459D01*
X0133912Y0097032D01*
X0134413Y0097532D01*
X0134986Y0097949D01*
X0135617Y0098270D01*
X0136290Y0098489D01*
X0136844Y0098577D01*
X0136844Y0091600D01*
X0137844Y0091600D01*
X0137844Y0098577D01*
X0138398Y0098489D01*
X0139071Y0098270D01*
X0139703Y0097949D01*
X0140276Y0097532D01*
X0140776Y0097032D01*
X0141193Y0096459D01*
X0141514Y0095827D01*
X0141733Y0095154D01*
X0141844Y0094454D01*
X0141844Y0091600D01*
X0137844Y0091600D01*
X0137844Y0090600D01*
X0137844Y0091037D02*
X0143044Y0091037D01*
X0143044Y0090039D02*
X0141844Y0090039D01*
X0141844Y0089040D02*
X0143044Y0089040D01*
X0143044Y0088042D02*
X0141844Y0088042D01*
X0141732Y0087043D02*
X0143127Y0087043D01*
X0143044Y0087245D02*
X0143699Y0085664D01*
X0144908Y0084455D01*
X0146489Y0083800D01*
X0148199Y0083800D01*
X0149780Y0084455D01*
X0150989Y0085664D01*
X0151644Y0087245D01*
X0151644Y0094955D01*
X0150989Y0096536D01*
X0149780Y0097745D01*
X0148199Y0098400D01*
X0146489Y0098400D01*
X0144908Y0097745D01*
X0143699Y0096536D01*
X0143044Y0094955D01*
X0143044Y0087245D01*
X0143541Y0086045D02*
X0141347Y0086045D01*
X0140654Y0085046D02*
X0144317Y0085046D01*
X0145890Y0084048D02*
X0139303Y0084048D01*
X0134034Y0085046D02*
X0130372Y0085046D01*
X0131147Y0086045D02*
X0133341Y0086045D01*
X0132956Y0087043D02*
X0131561Y0087043D01*
X0131644Y0088042D02*
X0132844Y0088042D01*
X0132844Y0089040D02*
X0131644Y0089040D01*
X0131644Y0090039D02*
X0132844Y0090039D01*
X0131644Y0091037D02*
X0136844Y0091037D01*
X0136844Y0092036D02*
X0137844Y0092036D01*
X0137844Y0093034D02*
X0136844Y0093034D01*
X0136844Y0094033D02*
X0137844Y0094033D01*
X0137844Y0095032D02*
X0136844Y0095032D01*
X0136844Y0096030D02*
X0137844Y0096030D01*
X0137844Y0097029D02*
X0136844Y0097029D01*
X0136844Y0098027D02*
X0137844Y0098027D01*
X0139549Y0098027D02*
X0145588Y0098027D01*
X0144192Y0097029D02*
X0140779Y0097029D01*
X0141411Y0096030D02*
X0143489Y0096030D01*
X0143076Y0095032D02*
X0141753Y0095032D01*
X0141844Y0094033D02*
X0143044Y0094033D01*
X0143044Y0093034D02*
X0141844Y0093034D01*
X0141844Y0092036D02*
X0143044Y0092036D01*
X0149100Y0098027D02*
X0155588Y0098027D01*
X0154908Y0097745D02*
X0153699Y0096536D01*
X0153044Y0094955D01*
X0153044Y0087245D01*
X0153699Y0085664D01*
X0154908Y0084455D01*
X0156489Y0083800D01*
X0158199Y0083800D01*
X0159780Y0084455D01*
X0160989Y0085664D01*
X0161644Y0087245D01*
X0161644Y0094955D01*
X0160989Y0096536D01*
X0159780Y0097745D01*
X0158199Y0098400D01*
X0156489Y0098400D01*
X0154908Y0097745D01*
X0154192Y0097029D02*
X0150497Y0097029D01*
X0151199Y0096030D02*
X0153489Y0096030D01*
X0153076Y0095032D02*
X0151613Y0095032D01*
X0151644Y0094033D02*
X0153044Y0094033D01*
X0153044Y0093034D02*
X0151644Y0093034D01*
X0151644Y0092036D02*
X0153044Y0092036D01*
X0153044Y0091037D02*
X0151644Y0091037D01*
X0151644Y0090039D02*
X0153044Y0090039D01*
X0153044Y0089040D02*
X0151644Y0089040D01*
X0151644Y0088042D02*
X0153044Y0088042D01*
X0153127Y0087043D02*
X0151561Y0087043D01*
X0151147Y0086045D02*
X0153541Y0086045D01*
X0154317Y0085046D02*
X0150372Y0085046D01*
X0148798Y0084048D02*
X0155890Y0084048D01*
X0158798Y0084048D02*
X0170844Y0084048D01*
X0170844Y0085046D02*
X0160372Y0085046D01*
X0161147Y0086045D02*
X0170844Y0086045D01*
X0170844Y0087043D02*
X0161561Y0087043D01*
X0161644Y0088042D02*
X0170844Y0088042D01*
X0170844Y0089040D02*
X0161644Y0089040D01*
X0161644Y0090039D02*
X0170844Y0090039D01*
X0170844Y0091037D02*
X0161644Y0091037D01*
X0161644Y0092036D02*
X0170844Y0092036D01*
X0170844Y0093034D02*
X0161644Y0093034D01*
X0161644Y0094033D02*
X0170844Y0094033D01*
X0170844Y0095032D02*
X0161613Y0095032D01*
X0161199Y0096030D02*
X0170844Y0096030D01*
X0170844Y0097029D02*
X0160497Y0097029D01*
X0159100Y0098027D02*
X0170844Y0098027D01*
X0170844Y0099026D02*
X0119244Y0099026D01*
X0119244Y0100024D02*
X0170844Y0100024D01*
X0170844Y0101023D02*
X0119454Y0101023D01*
X0120452Y0102021D02*
X0170844Y0102021D01*
X0170844Y0103020D02*
X0121451Y0103020D01*
X0122449Y0104018D02*
X0170844Y0104018D01*
X0170844Y0105017D02*
X0123448Y0105017D01*
X0124446Y0106015D02*
X0170844Y0106015D01*
X0170844Y0107014D02*
X0125445Y0107014D01*
X0126443Y0108012D02*
X0170844Y0108012D01*
X0170844Y0109011D02*
X0127442Y0109011D01*
X0128440Y0110009D02*
X0170844Y0110009D01*
X0170844Y0111008D02*
X0129439Y0111008D01*
X0130437Y0112006D02*
X0170844Y0112006D01*
X0170844Y0113005D02*
X0131436Y0113005D01*
X0133363Y0114003D02*
X0170844Y0114003D01*
X0170844Y0115002D02*
X0158433Y0115002D01*
X0159431Y0116000D02*
X0170844Y0116000D01*
X0170844Y0116999D02*
X0160430Y0116999D01*
X0161428Y0117997D02*
X0170844Y0117997D01*
X0170844Y0118996D02*
X0162427Y0118996D01*
X0163425Y0119994D02*
X0170844Y0119994D01*
X0170844Y0120993D02*
X0164424Y0120993D01*
X0166334Y0121991D02*
X0170844Y0121991D01*
X0170844Y0122990D02*
X0167678Y0122990D01*
X0168109Y0123988D02*
X0170844Y0123988D01*
X0170844Y0124987D02*
X0168133Y0124987D01*
X0167789Y0125985D02*
X0170844Y0125985D01*
X0170844Y0126984D02*
X0166877Y0126984D01*
X0157053Y0118996D02*
X0133848Y0118996D01*
X0137401Y0134972D02*
X0117787Y0134972D01*
X0115901Y0134972D02*
X0076966Y0134972D01*
X0076966Y0135970D02*
X0114529Y0135970D01*
X0114087Y0136969D02*
X0076966Y0136969D01*
X0076966Y0137968D02*
X0114055Y0137968D01*
X0114391Y0138966D02*
X0076966Y0138966D01*
X0076966Y0139965D02*
X0115265Y0139965D01*
X0116844Y0137600D02*
X0138344Y0137600D01*
X0136765Y0139965D02*
X0118424Y0139965D01*
X0139924Y0139965D02*
X0170844Y0139965D01*
X0170844Y0140963D02*
X0159571Y0140963D01*
X0158708Y0140100D02*
X0161344Y0142736D01*
X0161344Y0144100D01*
X0157344Y0144100D01*
X0157344Y0140100D01*
X0158708Y0140100D01*
X0157344Y0140963D02*
X0156344Y0140963D01*
X0156344Y0140100D02*
X0156344Y0144100D01*
X0152344Y0144100D01*
X0152344Y0142736D01*
X0154980Y0140100D01*
X0156344Y0140100D01*
X0156344Y0141962D02*
X0157344Y0141962D01*
X0157344Y0142960D02*
X0156344Y0142960D01*
X0156344Y0143959D02*
X0157344Y0143959D01*
X0157344Y0144100D02*
X0156344Y0144100D01*
X0156344Y0145100D01*
X0152344Y0145100D01*
X0152344Y0146464D01*
X0154980Y0149100D01*
X0156344Y0149100D01*
X0156344Y0145100D01*
X0157344Y0145100D01*
X0157344Y0149100D01*
X0158708Y0149100D01*
X0161344Y0146464D01*
X0161344Y0145100D01*
X0157344Y0145100D01*
X0157344Y0144100D01*
X0157344Y0144957D02*
X0165799Y0144957D01*
X0165980Y0144520D02*
X0166764Y0143736D01*
X0167789Y0143311D01*
X0168899Y0143311D01*
X0169924Y0143736D01*
X0170708Y0144520D01*
X0171133Y0145545D01*
X0171133Y0146655D01*
X0170708Y0147680D01*
X0170144Y0148244D01*
X0170144Y0153846D01*
X0161144Y0162846D01*
X0161144Y0166381D01*
X0158625Y0168900D01*
X0155063Y0168900D01*
X0152544Y0166381D01*
X0152544Y0162819D01*
X0155063Y0160300D01*
X0158598Y0160300D01*
X0166544Y0152354D01*
X0166544Y0148244D01*
X0165980Y0147680D01*
X0165555Y0146655D01*
X0165555Y0145545D01*
X0165980Y0144520D01*
X0166541Y0143959D02*
X0161344Y0143959D01*
X0161344Y0142960D02*
X0170844Y0142960D01*
X0170844Y0141962D02*
X0160570Y0141962D01*
X0161344Y0145956D02*
X0165555Y0145956D01*
X0165679Y0146954D02*
X0160854Y0146954D01*
X0159855Y0147953D02*
X0166253Y0147953D01*
X0166544Y0148951D02*
X0158857Y0148951D01*
X0158625Y0150300D02*
X0161144Y0152819D01*
X0161144Y0156381D01*
X0158625Y0158900D01*
X0155063Y0158900D01*
X0152544Y0156381D01*
X0152544Y0152819D01*
X0155063Y0150300D01*
X0158625Y0150300D01*
X0159273Y0150948D02*
X0166544Y0150948D01*
X0166544Y0149950D02*
X0141544Y0149950D01*
X0141544Y0150948D02*
X0144415Y0150948D01*
X0145063Y0150300D02*
X0148625Y0150300D01*
X0151144Y0152819D01*
X0151144Y0156381D01*
X0148625Y0158900D01*
X0145063Y0158900D01*
X0142544Y0156381D01*
X0142544Y0152819D01*
X0145063Y0150300D01*
X0143416Y0151947D02*
X0141544Y0151947D01*
X0141544Y0152945D02*
X0142544Y0152945D01*
X0142544Y0153944D02*
X0141544Y0153944D01*
X0141544Y0154942D02*
X0142544Y0154942D01*
X0142544Y0155941D02*
X0141544Y0155941D01*
X0141544Y0156939D02*
X0143102Y0156939D01*
X0144101Y0157938D02*
X0141544Y0157938D01*
X0141544Y0158936D02*
X0159962Y0158936D01*
X0159587Y0157938D02*
X0160961Y0157938D01*
X0160586Y0156939D02*
X0161959Y0156939D01*
X0161144Y0155941D02*
X0162958Y0155941D01*
X0163956Y0154942D02*
X0161144Y0154942D01*
X0161144Y0153944D02*
X0164955Y0153944D01*
X0165953Y0152945D02*
X0161144Y0152945D01*
X0160272Y0151947D02*
X0166544Y0151947D01*
X0168344Y0153100D02*
X0168344Y0146100D01*
X0170889Y0144957D02*
X0171201Y0144957D01*
X0171133Y0145956D02*
X0172200Y0145956D01*
X0173198Y0146954D02*
X0171009Y0146954D01*
X0170436Y0147953D02*
X0174197Y0147953D01*
X0175195Y0148951D02*
X0170144Y0148951D01*
X0170144Y0149950D02*
X0176194Y0149950D01*
X0177192Y0150948D02*
X0170144Y0150948D01*
X0170144Y0151947D02*
X0178191Y0151947D01*
X0179189Y0152945D02*
X0170144Y0152945D01*
X0170046Y0153944D02*
X0180188Y0153944D01*
X0181186Y0154942D02*
X0169047Y0154942D01*
X0168049Y0155941D02*
X0182185Y0155941D01*
X0183183Y0156939D02*
X0167050Y0156939D01*
X0166052Y0157938D02*
X0184182Y0157938D01*
X0185180Y0158936D02*
X0165053Y0158936D01*
X0164055Y0159935D02*
X0186179Y0159935D01*
X0187177Y0160933D02*
X0163056Y0160933D01*
X0162058Y0161932D02*
X0188176Y0161932D01*
X0189174Y0162930D02*
X0161144Y0162930D01*
X0161144Y0163929D02*
X0190173Y0163929D01*
X0191171Y0164927D02*
X0161144Y0164927D01*
X0161144Y0165926D02*
X0192170Y0165926D01*
X0193168Y0166924D02*
X0160601Y0166924D01*
X0159602Y0167923D02*
X0194167Y0167923D01*
X0195165Y0168921D02*
X0141544Y0168921D01*
X0141544Y0167923D02*
X0144086Y0167923D01*
X0145063Y0168900D02*
X0142544Y0166381D01*
X0142544Y0162819D01*
X0145063Y0160300D01*
X0148625Y0160300D01*
X0151144Y0162819D01*
X0151144Y0166381D01*
X0148625Y0168900D01*
X0145063Y0168900D01*
X0143087Y0166924D02*
X0141544Y0166924D01*
X0141544Y0165926D02*
X0142544Y0165926D01*
X0142544Y0164927D02*
X0141544Y0164927D01*
X0141544Y0163929D02*
X0142544Y0163929D01*
X0142544Y0162930D02*
X0141544Y0162930D01*
X0141544Y0161932D02*
X0143431Y0161932D01*
X0144430Y0160933D02*
X0141544Y0160933D01*
X0141544Y0159935D02*
X0158964Y0159935D01*
X0154430Y0160933D02*
X0149258Y0160933D01*
X0150257Y0161932D02*
X0153431Y0161932D01*
X0152544Y0162930D02*
X0151144Y0162930D01*
X0151144Y0163929D02*
X0152544Y0163929D01*
X0152544Y0164927D02*
X0151144Y0164927D01*
X0151144Y0165926D02*
X0152544Y0165926D01*
X0153087Y0166924D02*
X0150601Y0166924D01*
X0149602Y0167923D02*
X0154086Y0167923D01*
X0156844Y0164600D02*
X0168344Y0153100D01*
X0170147Y0143959D02*
X0170844Y0143959D01*
X0157344Y0145956D02*
X0156344Y0145956D01*
X0156344Y0146954D02*
X0157344Y0146954D01*
X0157344Y0147953D02*
X0156344Y0147953D01*
X0156344Y0148951D02*
X0157344Y0148951D01*
X0154831Y0148951D02*
X0141897Y0148951D01*
X0142896Y0147953D02*
X0144116Y0147953D01*
X0149573Y0147953D02*
X0153833Y0147953D01*
X0152834Y0146954D02*
X0150571Y0146954D01*
X0151144Y0145956D02*
X0152344Y0145956D01*
X0151144Y0144957D02*
X0156344Y0144957D01*
X0152344Y0143959D02*
X0151144Y0143959D01*
X0151144Y0142960D02*
X0152344Y0142960D01*
X0153119Y0141962D02*
X0150287Y0141962D01*
X0149288Y0140963D02*
X0154117Y0140963D01*
X0154415Y0150948D02*
X0149273Y0150948D01*
X0150272Y0151947D02*
X0153416Y0151947D01*
X0152544Y0152945D02*
X0151144Y0152945D01*
X0151144Y0153944D02*
X0152544Y0153944D01*
X0152544Y0154942D02*
X0151144Y0154942D01*
X0151144Y0155941D02*
X0152544Y0155941D01*
X0153102Y0156939D02*
X0150586Y0156939D01*
X0149587Y0157938D02*
X0154101Y0157938D01*
X0141544Y0169920D02*
X0196164Y0169920D01*
X0197162Y0170918D02*
X0141544Y0170918D01*
X0141544Y0171917D02*
X0198161Y0171917D01*
X0199159Y0172915D02*
X0141544Y0172915D01*
X0141544Y0173914D02*
X0200158Y0173914D01*
X0201157Y0174912D02*
X0141544Y0174912D01*
X0141544Y0175911D02*
X0202155Y0175911D01*
X0203154Y0176909D02*
X0141544Y0176909D01*
X0141544Y0177908D02*
X0204152Y0177908D01*
X0205151Y0178906D02*
X0141544Y0178906D01*
X0141544Y0179905D02*
X0206149Y0179905D01*
X0207148Y0180903D02*
X0198156Y0180903D01*
X0198280Y0180955D02*
X0199489Y0182164D01*
X0200144Y0183745D01*
X0200144Y0191455D01*
X0199489Y0193036D01*
X0198280Y0194245D01*
X0196699Y0194900D01*
X0194989Y0194900D01*
X0193408Y0194245D01*
X0192199Y0193036D01*
X0191544Y0191455D01*
X0191544Y0183745D01*
X0192199Y0182164D01*
X0193408Y0180955D01*
X0194989Y0180300D01*
X0196699Y0180300D01*
X0198280Y0180955D01*
X0199227Y0181902D02*
X0208146Y0181902D01*
X0209145Y0182901D02*
X0199794Y0182901D01*
X0200144Y0183899D02*
X0210143Y0183899D01*
X0211142Y0184898D02*
X0200144Y0184898D01*
X0200144Y0185896D02*
X0212140Y0185896D01*
X0213139Y0186895D02*
X0200144Y0186895D01*
X0200144Y0187893D02*
X0214137Y0187893D01*
X0215136Y0188892D02*
X0200144Y0188892D01*
X0200144Y0189890D02*
X0216134Y0189890D01*
X0217133Y0190889D02*
X0200144Y0190889D01*
X0199965Y0191887D02*
X0218131Y0191887D01*
X0219130Y0192886D02*
X0199552Y0192886D01*
X0198641Y0193884D02*
X0220128Y0193884D01*
X0221127Y0194883D02*
X0196741Y0194883D01*
X0194947Y0194883D02*
X0186741Y0194883D01*
X0186699Y0194900D02*
X0184989Y0194900D01*
X0183408Y0194245D01*
X0182199Y0193036D01*
X0181544Y0191455D01*
X0181544Y0183745D01*
X0182199Y0182164D01*
X0183408Y0180955D01*
X0184989Y0180300D01*
X0186699Y0180300D01*
X0188280Y0180955D01*
X0189489Y0182164D01*
X0190144Y0183745D01*
X0190144Y0191455D01*
X0189489Y0193036D01*
X0188280Y0194245D01*
X0186699Y0194900D01*
X0184947Y0194883D02*
X0176741Y0194883D01*
X0176699Y0194900D02*
X0174989Y0194900D01*
X0173408Y0194245D01*
X0172199Y0193036D01*
X0171544Y0191455D01*
X0171544Y0183745D01*
X0172199Y0182164D01*
X0173408Y0180955D01*
X0174989Y0180300D01*
X0176699Y0180300D01*
X0178280Y0180955D01*
X0179489Y0182164D01*
X0180144Y0183745D01*
X0180144Y0191455D01*
X0179489Y0193036D01*
X0178280Y0194245D01*
X0176699Y0194900D01*
X0174947Y0194883D02*
X0137071Y0194883D01*
X0137565Y0195881D02*
X0222125Y0195881D01*
X0222344Y0196880D02*
X0137633Y0196880D01*
X0137333Y0197878D02*
X0216243Y0197878D01*
X0215564Y0198877D02*
X0136512Y0198877D01*
X0133177Y0198877D02*
X0126512Y0198877D01*
X0127071Y0194883D02*
X0132617Y0194883D01*
X0134113Y0193884D02*
X0130458Y0193884D01*
X0129325Y0193884D02*
X0125575Y0193884D01*
X0129891Y0191100D02*
X0106344Y0191100D01*
X0097344Y0182100D01*
X0099867Y0180903D02*
X0138144Y0180903D01*
X0138144Y0179905D02*
X0099093Y0179905D01*
X0100133Y0181902D02*
X0138144Y0181902D01*
X0138144Y0182901D02*
X0100690Y0182901D01*
X0101689Y0183899D02*
X0138144Y0183899D01*
X0138144Y0184898D02*
X0102687Y0184898D01*
X0103686Y0185896D02*
X0138144Y0185896D01*
X0138144Y0186895D02*
X0104684Y0186895D01*
X0105683Y0187893D02*
X0138144Y0187893D01*
X0138108Y0188892D02*
X0131627Y0188892D01*
X0132409Y0189890D02*
X0137326Y0189890D01*
X0137055Y0190889D02*
X0132680Y0190889D01*
X0132584Y0191887D02*
X0137151Y0191887D01*
X0137686Y0192886D02*
X0132050Y0192886D01*
X0135575Y0193884D02*
X0139278Y0193884D01*
X0140411Y0193884D02*
X0173047Y0193884D01*
X0172137Y0192886D02*
X0142003Y0192886D01*
X0142537Y0191887D02*
X0171723Y0191887D01*
X0171544Y0190889D02*
X0142633Y0190889D01*
X0142362Y0189890D02*
X0171544Y0189890D01*
X0171544Y0188892D02*
X0141580Y0188892D01*
X0141544Y0187893D02*
X0171544Y0187893D01*
X0171544Y0186895D02*
X0141544Y0186895D01*
X0141544Y0185896D02*
X0171544Y0185896D01*
X0171544Y0184898D02*
X0141544Y0184898D01*
X0141544Y0183899D02*
X0171544Y0183899D01*
X0171894Y0182901D02*
X0141544Y0182901D01*
X0141544Y0181902D02*
X0172461Y0181902D01*
X0173532Y0180903D02*
X0141544Y0180903D01*
X0128156Y0188892D02*
X0106681Y0188892D01*
X0104577Y0173914D02*
X0100111Y0173914D01*
X0101039Y0172915D02*
X0103649Y0172915D01*
X0103235Y0171917D02*
X0101453Y0171917D01*
X0101644Y0170918D02*
X0103044Y0170918D01*
X0103044Y0169920D02*
X0101644Y0169920D01*
X0101644Y0168921D02*
X0103044Y0168921D01*
X0103044Y0167923D02*
X0101644Y0167923D01*
X0101644Y0166924D02*
X0103044Y0166924D01*
X0103044Y0165926D02*
X0101644Y0165926D01*
X0101644Y0164927D02*
X0103044Y0164927D01*
X0103044Y0163929D02*
X0101644Y0163929D01*
X0101307Y0162930D02*
X0103381Y0162930D01*
X0103931Y0161932D02*
X0100757Y0161932D01*
X0099728Y0160933D02*
X0104960Y0160933D01*
X0103431Y0204868D02*
X0215545Y0204868D01*
X0215545Y0203869D02*
X0076966Y0203869D01*
X0076966Y0202871D02*
X0215545Y0202871D01*
X0215783Y0205866D02*
X0103581Y0205866D01*
X0093258Y0204868D02*
X0076966Y0204868D01*
X0076966Y0205866D02*
X0093107Y0205866D01*
X0093107Y0206865D02*
X0076966Y0206865D01*
X0076966Y0207863D02*
X0093107Y0207863D01*
X0093107Y0208862D02*
X0076966Y0208862D01*
X0076966Y0209860D02*
X0093107Y0209860D01*
X0093107Y0210859D02*
X0076966Y0210859D01*
X0076966Y0211857D02*
X0093107Y0211857D01*
X0093107Y0212856D02*
X0076966Y0212856D01*
X0076966Y0213854D02*
X0093780Y0213854D01*
X0076966Y0220844D02*
X0195019Y0220844D01*
X0195563Y0220300D02*
X0199125Y0220300D01*
X0201644Y0222819D01*
X0201644Y0226381D01*
X0199125Y0228900D01*
X0195563Y0228900D01*
X0193044Y0226381D01*
X0193044Y0222819D01*
X0195563Y0220300D01*
X0194021Y0221842D02*
X0076966Y0221842D01*
X0076966Y0222841D02*
X0193044Y0222841D01*
X0193044Y0223839D02*
X0076966Y0223839D01*
X0076966Y0224838D02*
X0193044Y0224838D01*
X0193044Y0225837D02*
X0076966Y0225837D01*
X0076966Y0226835D02*
X0193498Y0226835D01*
X0194497Y0227834D02*
X0076966Y0227834D01*
X0076966Y0228832D02*
X0195495Y0228832D01*
X0195563Y0230300D02*
X0193044Y0232819D01*
X0193044Y0236381D01*
X0195563Y0238900D01*
X0199125Y0238900D01*
X0201644Y0236381D01*
X0201644Y0232819D01*
X0199125Y0230300D01*
X0195563Y0230300D01*
X0195034Y0230829D02*
X0076966Y0230829D01*
X0076966Y0229831D02*
X0222344Y0229831D01*
X0205495Y0228832D02*
X0199193Y0228832D01*
X0200192Y0227834D02*
X0204497Y0227834D01*
X0203498Y0226835D02*
X0201190Y0226835D01*
X0201644Y0225837D02*
X0203044Y0225837D01*
X0203044Y0224838D02*
X0201644Y0224838D01*
X0201644Y0223839D02*
X0203044Y0223839D01*
X0203044Y0222841D02*
X0201644Y0222841D01*
X0200668Y0221842D02*
X0204021Y0221842D01*
X0205019Y0220844D02*
X0199669Y0220844D01*
X0199654Y0230829D02*
X0205034Y0230829D01*
X0204035Y0231828D02*
X0200653Y0231828D01*
X0201644Y0232826D02*
X0203044Y0232826D01*
X0203044Y0233825D02*
X0201644Y0233825D01*
X0201644Y0234823D02*
X0203044Y0234823D01*
X0203044Y0235822D02*
X0201644Y0235822D01*
X0201205Y0236820D02*
X0203483Y0236820D01*
X0204482Y0237819D02*
X0200207Y0237819D01*
X0199208Y0238817D02*
X0205480Y0238817D01*
X0197844Y0240814D02*
X0196844Y0240814D01*
X0196844Y0241813D02*
X0197844Y0241813D01*
X0197844Y0242811D02*
X0196844Y0242811D01*
X0196844Y0243810D02*
X0197844Y0243810D01*
X0192844Y0245807D02*
X0151844Y0245807D01*
X0151844Y0246805D02*
X0193185Y0246805D01*
X0194184Y0247804D02*
X0151844Y0247804D01*
X0151775Y0244808D02*
X0165608Y0244808D01*
X0164826Y0243810D02*
X0151482Y0243810D01*
X0150880Y0242811D02*
X0164555Y0242811D01*
X0164651Y0241813D02*
X0149787Y0241813D01*
X0142844Y0249801D02*
X0141644Y0249801D01*
X0141644Y0250799D02*
X0142844Y0250799D01*
X0142844Y0251798D02*
X0141644Y0251798D01*
X0141503Y0252796D02*
X0143001Y0252796D01*
X0143412Y0253795D02*
X0141089Y0253795D01*
X0140232Y0254793D02*
X0144173Y0254793D01*
X0145683Y0255792D02*
X0138460Y0255792D01*
X0136228Y0255792D02*
X0107960Y0255792D01*
X0107699Y0255900D02*
X0105989Y0255900D01*
X0104408Y0255245D01*
X0103199Y0254036D01*
X0102544Y0252455D01*
X0102544Y0244745D01*
X0103199Y0243164D01*
X0104408Y0241955D01*
X0105989Y0241300D01*
X0107699Y0241300D01*
X0109280Y0241955D01*
X0110489Y0243164D01*
X0111144Y0244745D01*
X0111144Y0252455D01*
X0110489Y0254036D01*
X0109280Y0255245D01*
X0107699Y0255900D01*
X0105728Y0255792D02*
X0098505Y0255792D01*
X0098571Y0255770D02*
X0097898Y0255989D01*
X0097344Y0256077D01*
X0097344Y0249100D01*
X0096344Y0249100D01*
X0096344Y0248100D01*
X0092344Y0248100D01*
X0092344Y0245246D01*
X0092455Y0244546D01*
X0092674Y0243873D01*
X0092995Y0243241D01*
X0093412Y0242668D01*
X0093913Y0242168D01*
X0094486Y0241751D01*
X0095117Y0241430D01*
X0095790Y0241211D01*
X0096344Y0241123D01*
X0096344Y0248100D01*
X0097344Y0248100D01*
X0097344Y0241123D01*
X0097898Y0241211D01*
X0098571Y0241430D01*
X0099203Y0241751D01*
X0099776Y0242168D01*
X0100276Y0242668D01*
X0100693Y0243241D01*
X0101014Y0243873D01*
X0101233Y0244546D01*
X0101344Y0245246D01*
X0101344Y0248100D01*
X0097344Y0248100D01*
X0097344Y0249100D01*
X0101344Y0249100D01*
X0101344Y0251954D01*
X0101233Y0252654D01*
X0101014Y0253327D01*
X0100693Y0253959D01*
X0100276Y0254532D01*
X0099776Y0255032D01*
X0099203Y0255449D01*
X0098571Y0255770D01*
X0097344Y0255792D02*
X0096344Y0255792D01*
X0096344Y0256077D02*
X0095790Y0255989D01*
X0095117Y0255770D01*
X0094486Y0255449D01*
X0093913Y0255032D01*
X0093412Y0254532D01*
X0092995Y0253959D01*
X0092674Y0253327D01*
X0092455Y0252654D01*
X0092344Y0251954D01*
X0092344Y0249100D01*
X0096344Y0249100D01*
X0096344Y0256077D01*
X0095183Y0255792D02*
X0076966Y0255792D01*
X0076966Y0256790D02*
X0193453Y0256790D01*
X0194452Y0257789D02*
X0076966Y0257789D01*
X0076966Y0258787D02*
X0195450Y0258787D01*
X0199238Y0258787D02*
X0205450Y0258787D01*
X0204452Y0257789D02*
X0200236Y0257789D01*
X0201235Y0256790D02*
X0203453Y0256790D01*
X0203044Y0255792D02*
X0201644Y0255792D01*
X0201644Y0254793D02*
X0203044Y0254793D01*
X0203044Y0253795D02*
X0201644Y0253795D01*
X0201622Y0252796D02*
X0203067Y0252796D01*
X0204065Y0251798D02*
X0200623Y0251798D01*
X0195480Y0238817D02*
X0129039Y0238817D01*
X0129133Y0239045D02*
X0129133Y0240155D01*
X0128708Y0241180D01*
X0127924Y0241964D01*
X0126899Y0242389D01*
X0125789Y0242389D01*
X0124764Y0241964D01*
X0123980Y0241180D01*
X0123555Y0240155D01*
X0123555Y0239800D01*
X0106588Y0239800D01*
X0105924Y0240464D01*
X0104899Y0240889D01*
X0103789Y0240889D01*
X0102764Y0240464D01*
X0101980Y0239680D01*
X0101555Y0238655D01*
X0101555Y0237545D01*
X0101980Y0236520D01*
X0102764Y0235736D01*
X0103789Y0235311D01*
X0104899Y0235311D01*
X0105924Y0235736D01*
X0106588Y0236400D01*
X0125548Y0236400D01*
X0125959Y0236811D01*
X0126899Y0236811D01*
X0127924Y0237236D01*
X0128708Y0238020D01*
X0129133Y0239045D01*
X0129133Y0239816D02*
X0166778Y0239816D01*
X0167910Y0239816D02*
X0179278Y0239816D01*
X0179844Y0242600D02*
X0167344Y0242600D01*
X0165186Y0240814D02*
X0128860Y0240814D01*
X0128076Y0241813D02*
X0135251Y0241813D01*
X0134052Y0242811D02*
X0110136Y0242811D01*
X0110757Y0243810D02*
X0133431Y0243810D01*
X0133044Y0244808D02*
X0111144Y0244808D01*
X0111144Y0245807D02*
X0133044Y0245807D01*
X0133044Y0246805D02*
X0111144Y0246805D01*
X0111144Y0247804D02*
X0133044Y0247804D01*
X0133044Y0248802D02*
X0111144Y0248802D01*
X0111144Y0249801D02*
X0133044Y0249801D01*
X0133044Y0250799D02*
X0111144Y0250799D01*
X0111144Y0251798D02*
X0133044Y0251798D01*
X0133185Y0252796D02*
X0111003Y0252796D01*
X0110589Y0253795D02*
X0133599Y0253795D01*
X0134456Y0254793D02*
X0109732Y0254793D01*
X0103956Y0254793D02*
X0100015Y0254793D01*
X0100776Y0253795D02*
X0103099Y0253795D01*
X0102685Y0252796D02*
X0101187Y0252796D01*
X0101344Y0251798D02*
X0102544Y0251798D01*
X0102544Y0250799D02*
X0101344Y0250799D01*
X0101344Y0249801D02*
X0102544Y0249801D01*
X0102544Y0248802D02*
X0097344Y0248802D01*
X0097344Y0247804D02*
X0096344Y0247804D01*
X0096344Y0248802D02*
X0076966Y0248802D01*
X0076966Y0247804D02*
X0092344Y0247804D01*
X0092344Y0246805D02*
X0076966Y0246805D01*
X0076966Y0245807D02*
X0092344Y0245807D01*
X0092413Y0244808D02*
X0076966Y0244808D01*
X0076966Y0243810D02*
X0092706Y0243810D01*
X0093308Y0242811D02*
X0076966Y0242811D01*
X0076966Y0241813D02*
X0094401Y0241813D01*
X0096344Y0241813D02*
X0097344Y0241813D01*
X0097344Y0242811D02*
X0096344Y0242811D01*
X0096344Y0243810D02*
X0097344Y0243810D01*
X0097344Y0244808D02*
X0096344Y0244808D01*
X0096344Y0245807D02*
X0097344Y0245807D01*
X0097344Y0246805D02*
X0096344Y0246805D01*
X0096344Y0249801D02*
X0097344Y0249801D01*
X0097344Y0250799D02*
X0096344Y0250799D01*
X0096344Y0251798D02*
X0097344Y0251798D01*
X0097344Y0252796D02*
X0096344Y0252796D01*
X0096344Y0253795D02*
X0097344Y0253795D01*
X0097344Y0254793D02*
X0096344Y0254793D01*
X0093673Y0254793D02*
X0076966Y0254793D01*
X0076966Y0253795D02*
X0092912Y0253795D01*
X0092501Y0252796D02*
X0076966Y0252796D01*
X0076966Y0251798D02*
X0092344Y0251798D01*
X0092344Y0250799D02*
X0076966Y0250799D01*
X0076966Y0249801D02*
X0092344Y0249801D01*
X0101344Y0247804D02*
X0102544Y0247804D01*
X0102544Y0246805D02*
X0101344Y0246805D01*
X0101344Y0245807D02*
X0102544Y0245807D01*
X0102544Y0244808D02*
X0101275Y0244808D01*
X0100982Y0243810D02*
X0102931Y0243810D01*
X0103552Y0242811D02*
X0100380Y0242811D01*
X0099287Y0241813D02*
X0104751Y0241813D01*
X0105079Y0240814D02*
X0123828Y0240814D01*
X0123555Y0239816D02*
X0106573Y0239816D01*
X0108937Y0241813D02*
X0124613Y0241813D01*
X0126921Y0236820D02*
X0193483Y0236820D01*
X0193044Y0235822D02*
X0106010Y0235822D01*
X0102678Y0235822D02*
X0076966Y0235822D01*
X0076966Y0236820D02*
X0101855Y0236820D01*
X0101555Y0237819D02*
X0076966Y0237819D01*
X0076966Y0238817D02*
X0101622Y0238817D01*
X0102116Y0239816D02*
X0076966Y0239816D01*
X0076966Y0240814D02*
X0103609Y0240814D01*
X0128507Y0237819D02*
X0194482Y0237819D01*
X0193044Y0234823D02*
X0076966Y0234823D01*
X0076966Y0233825D02*
X0193044Y0233825D01*
X0193044Y0232826D02*
X0076966Y0232826D01*
X0076966Y0231828D02*
X0194035Y0231828D01*
X0178108Y0244808D02*
X0169080Y0244808D01*
X0165871Y0261783D02*
X0076966Y0261783D01*
X0076966Y0262781D02*
X0165555Y0262781D01*
X0165607Y0263780D02*
X0076966Y0263780D01*
X0076966Y0264778D02*
X0166078Y0264778D01*
X0167519Y0265777D02*
X0076966Y0265777D01*
X0076966Y0266775D02*
X0175669Y0266775D01*
X0140788Y0309711D02*
X0121866Y0309711D01*
X0219104Y0200874D02*
X0220104Y0200874D01*
X0220104Y0199875D02*
X0219104Y0199875D01*
X0219104Y0198877D02*
X0220104Y0198877D01*
X0220104Y0197878D02*
X0219104Y0197878D01*
X0193532Y0180903D02*
X0188156Y0180903D01*
X0189227Y0181902D02*
X0192461Y0181902D01*
X0191894Y0182901D02*
X0189794Y0182901D01*
X0190144Y0183899D02*
X0191544Y0183899D01*
X0191544Y0184898D02*
X0190144Y0184898D01*
X0190144Y0185896D02*
X0191544Y0185896D01*
X0191544Y0186895D02*
X0190144Y0186895D01*
X0190144Y0187893D02*
X0191544Y0187893D01*
X0191544Y0188892D02*
X0190144Y0188892D01*
X0190144Y0189890D02*
X0191544Y0189890D01*
X0191544Y0190889D02*
X0190144Y0190889D01*
X0189965Y0191887D02*
X0191723Y0191887D01*
X0192137Y0192886D02*
X0189552Y0192886D01*
X0188641Y0193884D02*
X0193047Y0193884D01*
X0183047Y0193884D02*
X0178641Y0193884D01*
X0179552Y0192886D02*
X0182137Y0192886D01*
X0181723Y0191887D02*
X0179965Y0191887D01*
X0180144Y0190889D02*
X0181544Y0190889D01*
X0181544Y0189890D02*
X0180144Y0189890D01*
X0180144Y0188892D02*
X0181544Y0188892D01*
X0181544Y0187893D02*
X0180144Y0187893D01*
X0180144Y0186895D02*
X0181544Y0186895D01*
X0181544Y0185896D02*
X0180144Y0185896D01*
X0180144Y0184898D02*
X0181544Y0184898D01*
X0181544Y0183899D02*
X0180144Y0183899D01*
X0179794Y0182901D02*
X0181894Y0182901D01*
X0182461Y0181902D02*
X0179227Y0181902D01*
X0178156Y0180903D02*
X0183532Y0180903D01*
X0227844Y0136100D02*
X0228344Y0135600D01*
X0252344Y0137600D02*
X0252344Y0152600D01*
X0252344Y0137600D02*
X0255344Y0134600D01*
X0135139Y0098027D02*
X0129100Y0098027D01*
X0130497Y0097029D02*
X0133910Y0097029D01*
X0133277Y0096030D02*
X0131199Y0096030D01*
X0131613Y0095032D02*
X0132936Y0095032D01*
X0132844Y0094033D02*
X0131644Y0094033D01*
X0131644Y0093034D02*
X0132844Y0093034D01*
X0132844Y0092036D02*
X0131644Y0092036D01*
X0125588Y0098027D02*
X0119244Y0098027D01*
X0120497Y0097029D02*
X0124192Y0097029D01*
X0123489Y0096030D02*
X0121199Y0096030D01*
X0121613Y0095032D02*
X0123076Y0095032D01*
X0123044Y0094033D02*
X0121644Y0094033D01*
X0121644Y0093034D02*
X0123044Y0093034D01*
X0123044Y0092036D02*
X0121644Y0092036D01*
X0121644Y0091037D02*
X0123044Y0091037D01*
X0123044Y0090039D02*
X0121644Y0090039D01*
X0121644Y0089040D02*
X0123044Y0089040D01*
X0123044Y0088042D02*
X0121644Y0088042D01*
X0121561Y0087043D02*
X0123127Y0087043D01*
X0123541Y0086045D02*
X0121147Y0086045D01*
X0120372Y0085046D02*
X0124317Y0085046D01*
M02*
