G75*
%MOIN*%
%OFA0B0*%
%FSLAX25Y25*%
%IPPOS*%
%LPD*%
%AMOC8*
5,1,8,0,0,1.08239X$1,22.5*
%
%ADD10C,0.05200*%
%ADD11C,0.01200*%
%ADD12C,0.06800*%
%ADD13C,0.10800*%
%ADD14C,0.13000*%
%ADD15C,0.03778*%
D10*
X0217481Y0328308D03*
X0217481Y0338308D03*
X0217481Y0348308D03*
D11*
X0174875Y0233580D02*
X0175475Y0232980D01*
X0173487Y0232980D01*
X0172082Y0234385D01*
X0172082Y0236373D01*
X0173487Y0237778D01*
X0175475Y0237778D01*
X0176880Y0236373D01*
X0176880Y0234385D01*
X0175475Y0232980D01*
X0175102Y0233880D01*
X0173860Y0233880D01*
X0172982Y0234758D01*
X0172982Y0236000D01*
X0173860Y0236878D01*
X0175102Y0236878D01*
X0175980Y0236000D01*
X0175980Y0234758D01*
X0175102Y0233880D01*
X0174729Y0234780D01*
X0174233Y0234780D01*
X0173882Y0235131D01*
X0173882Y0235627D01*
X0174233Y0235978D01*
X0174729Y0235978D01*
X0175080Y0235627D01*
X0175080Y0235131D01*
X0174729Y0234780D01*
X0181946Y0226509D02*
X0182546Y0225909D01*
X0180558Y0225909D01*
X0179153Y0227314D01*
X0179153Y0229302D01*
X0180558Y0230707D01*
X0182546Y0230707D01*
X0183951Y0229302D01*
X0183951Y0227314D01*
X0182546Y0225909D01*
X0182173Y0226809D01*
X0180931Y0226809D01*
X0180053Y0227687D01*
X0180053Y0228929D01*
X0180931Y0229807D01*
X0182173Y0229807D01*
X0183051Y0228929D01*
X0183051Y0227687D01*
X0182173Y0226809D01*
X0181800Y0227709D01*
X0181304Y0227709D01*
X0180953Y0228060D01*
X0180953Y0228556D01*
X0181304Y0228907D01*
X0181800Y0228907D01*
X0182151Y0228556D01*
X0182151Y0228060D01*
X0181800Y0227709D01*
X0174875Y0219438D02*
X0175475Y0218838D01*
X0173487Y0218838D01*
X0172082Y0220243D01*
X0172082Y0222231D01*
X0173487Y0223636D01*
X0175475Y0223636D01*
X0176880Y0222231D01*
X0176880Y0220243D01*
X0175475Y0218838D01*
X0175102Y0219738D01*
X0173860Y0219738D01*
X0172982Y0220616D01*
X0172982Y0221858D01*
X0173860Y0222736D01*
X0175102Y0222736D01*
X0175980Y0221858D01*
X0175980Y0220616D01*
X0175102Y0219738D01*
X0174729Y0220638D01*
X0174233Y0220638D01*
X0173882Y0220989D01*
X0173882Y0221485D01*
X0174233Y0221836D01*
X0174729Y0221836D01*
X0175080Y0221485D01*
X0175080Y0220989D01*
X0174729Y0220638D01*
X0167804Y0226509D02*
X0168404Y0225909D01*
X0166416Y0225909D01*
X0165011Y0227314D01*
X0165011Y0229302D01*
X0166416Y0230707D01*
X0168404Y0230707D01*
X0169809Y0229302D01*
X0169809Y0227314D01*
X0168404Y0225909D01*
X0168031Y0226809D01*
X0166789Y0226809D01*
X0165911Y0227687D01*
X0165911Y0228929D01*
X0166789Y0229807D01*
X0168031Y0229807D01*
X0168909Y0228929D01*
X0168909Y0227687D01*
X0168031Y0226809D01*
X0167658Y0227709D01*
X0167162Y0227709D01*
X0166811Y0228060D01*
X0166811Y0228556D01*
X0167162Y0228907D01*
X0167658Y0228907D01*
X0168009Y0228556D01*
X0168009Y0228060D01*
X0167658Y0227709D01*
D12*
X0224481Y0298308D02*
X0230481Y0298308D01*
X0230481Y0308308D02*
X0224481Y0308308D01*
X0242481Y0377308D02*
X0242481Y0383308D01*
X0252481Y0383308D02*
X0252481Y0377308D01*
X0187481Y0395308D02*
X0187481Y0401308D01*
X0177481Y0401308D02*
X0177481Y0395308D01*
X0167481Y0395308D02*
X0167481Y0401308D01*
X0407981Y0363308D02*
X0413981Y0363308D01*
X0413981Y0353308D02*
X0407981Y0353308D01*
X0407981Y0343308D02*
X0413981Y0343308D01*
X0402481Y0126308D02*
X0402481Y0120308D01*
X0392481Y0120308D02*
X0392481Y0126308D01*
X0382481Y0126308D02*
X0382481Y0120308D01*
X0407481Y0103308D02*
X0413481Y0103308D01*
X0413481Y0093308D02*
X0407481Y0093308D01*
X0254174Y0072174D02*
X0254174Y0066174D01*
X0244174Y0066174D02*
X0244174Y0072174D01*
X0234174Y0072174D02*
X0234174Y0066174D01*
D13*
X0391481Y0158308D03*
X0401481Y0168308D03*
X0391481Y0178308D03*
X0411481Y0178308D03*
X0411481Y0158308D03*
X0411481Y0223308D03*
X0401481Y0233308D03*
X0391481Y0243308D03*
X0411481Y0243308D03*
X0391481Y0223308D03*
D14*
X0079981Y0118623D03*
X0099981Y0118623D03*
X0119981Y0118623D03*
D15*
X0152481Y0078308D03*
X0222481Y0113308D03*
X0242717Y0093347D03*
X0257481Y0125808D03*
X0297481Y0093308D03*
X0307481Y0140808D03*
X0340355Y0144135D03*
X0342481Y0123308D03*
X0367481Y0083308D03*
X0407481Y0138308D03*
X0407481Y0198308D03*
X0362481Y0218308D03*
X0332481Y0193308D03*
X0332481Y0178308D03*
X0292481Y0178308D03*
X0272481Y0228308D03*
X0277481Y0233308D03*
X0332481Y0258308D03*
X0332481Y0303308D03*
X0347481Y0303308D03*
X0362481Y0303308D03*
X0377481Y0303308D03*
X0352481Y0353308D03*
X0342481Y0353308D03*
X0332481Y0353308D03*
X0322481Y0353308D03*
X0312481Y0353308D03*
X0302481Y0353308D03*
X0317481Y0393308D03*
X0332481Y0393308D03*
X0347481Y0393308D03*
X0362481Y0393308D03*
X0377481Y0393308D03*
X0317481Y0303308D03*
X0217481Y0263308D03*
X0217481Y0188308D03*
X0167481Y0158308D03*
X0077481Y0208308D03*
X0132481Y0263308D03*
X0142481Y0348308D03*
X0142481Y0353308D03*
X0142481Y0358308D03*
X0147481Y0358308D03*
X0152481Y0358308D03*
X0152481Y0353308D03*
X0147481Y0353308D03*
X0147481Y0348308D03*
X0152481Y0348308D03*
X0092481Y0393308D03*
M02*
