G75*
%MOIN*%
%OFA0B0*%
%FSLAX25Y25*%
%IPPOS*%
%LPD*%
%AMOC8*
5,1,8,0,0,1.08239X$1,22.5*
%
%ADD10R,0.25209X0.23635*%
%ADD11R,0.12611X0.07099*%
%ADD12R,0.05131X0.04737*%
%ADD13R,0.04737X0.05131*%
%ADD14R,0.08674X0.08674*%
%ADD15R,0.09265X0.22454*%
%ADD16R,0.04737X0.06312*%
%ADD17R,0.05800X0.13800*%
%ADD18R,0.07800X0.09800*%
%ADD19C,0.05200*%
%ADD20C,0.01200*%
%ADD21R,0.05800X0.10800*%
%ADD22C,0.06800*%
%ADD23R,0.09461X0.03162*%
%ADD24R,0.02200X0.05400*%
%ADD25R,0.08600X0.03000*%
%ADD26C,0.10800*%
%ADD27R,0.05524X0.05524*%
%ADD28R,0.02800X0.02800*%
%ADD29C,0.13000*%
%ADD30R,0.06312X0.04737*%
%ADD31R,0.06000X0.03000*%
%ADD32R,0.07099X0.08674*%
%ADD33R,0.13398X0.07887*%
%ADD34C,0.03778*%
D10*
X0168111Y0353308D03*
D11*
X0196379Y0362284D03*
X0196379Y0344331D03*
D12*
X0194135Y0353308D03*
X0200828Y0353308D03*
X0182481Y0335654D03*
X0182481Y0328961D03*
X0173981Y0328961D03*
X0173981Y0335654D03*
X0160828Y0313308D03*
X0154135Y0313308D03*
X0154135Y0268308D03*
X0160828Y0268308D03*
X0174135Y0268308D03*
X0180828Y0268308D03*
X0148347Y0222461D03*
X0148347Y0215769D03*
X0234481Y0319961D03*
X0234481Y0326654D03*
X0242981Y0326654D03*
X0242981Y0319961D03*
X0251481Y0319961D03*
X0251481Y0326654D03*
X0259981Y0326654D03*
X0259981Y0319961D03*
X0260981Y0300154D03*
X0252481Y0300154D03*
X0252481Y0293461D03*
X0260981Y0293461D03*
X0287481Y0324961D03*
X0287481Y0331654D03*
X0259981Y0349461D03*
X0259981Y0356154D03*
X0251481Y0356154D03*
X0251481Y0349461D03*
X0227481Y0369961D03*
X0227481Y0376654D03*
X0287481Y0374961D03*
X0287481Y0381654D03*
X0389135Y0369800D03*
X0395828Y0369800D03*
X0395828Y0336816D03*
X0389135Y0336816D03*
X0322481Y0226654D03*
X0322481Y0219961D03*
X0322481Y0211654D03*
X0322481Y0204961D03*
X0362481Y0205654D03*
X0362481Y0198961D03*
X0370981Y0198961D03*
X0370981Y0205654D03*
X0379481Y0205654D03*
X0379481Y0198961D03*
X0340828Y0133308D03*
X0334135Y0133308D03*
X0265981Y0091654D03*
X0257481Y0091654D03*
X0257481Y0084961D03*
X0265981Y0084961D03*
D13*
X0257481Y0097961D03*
X0257481Y0104654D03*
X0248481Y0123961D03*
X0248481Y0130654D03*
X0239981Y0130654D03*
X0239981Y0123961D03*
X0228828Y0130308D03*
X0222135Y0130308D03*
X0170828Y0128308D03*
X0164135Y0128308D03*
X0286981Y0140961D03*
X0286981Y0147654D03*
X0295481Y0147654D03*
X0295481Y0140961D03*
X0349135Y0133308D03*
X0355828Y0133308D03*
X0359481Y0121654D03*
X0359481Y0114961D03*
X0350981Y0114961D03*
X0350981Y0121654D03*
X0345828Y0193308D03*
X0339135Y0193308D03*
X0322481Y0191961D03*
X0322481Y0198654D03*
X0313981Y0198654D03*
X0313981Y0191961D03*
X0313981Y0204961D03*
X0313981Y0211654D03*
X0347981Y0221461D03*
X0347981Y0228154D03*
X0356981Y0228154D03*
X0356981Y0221461D03*
X0369135Y0223308D03*
X0375828Y0223308D03*
X0375828Y0233308D03*
X0369135Y0233308D03*
X0369135Y0243308D03*
X0375828Y0243308D03*
X0243981Y0293461D03*
X0243981Y0300154D03*
X0202481Y0312961D03*
X0202481Y0319654D03*
X0207481Y0369961D03*
X0207481Y0376654D03*
X0217481Y0376654D03*
X0217481Y0369961D03*
D14*
X0185855Y0381308D03*
X0170107Y0381308D03*
X0175107Y0317308D03*
X0190855Y0317308D03*
D15*
X0330591Y0334808D03*
X0344371Y0334808D03*
X0344371Y0371808D03*
X0330591Y0371808D03*
X0334371Y0103308D03*
X0320591Y0103308D03*
D16*
X0196481Y0326977D03*
X0192741Y0335639D03*
X0200221Y0335639D03*
X0238741Y0333977D03*
X0246221Y0333977D03*
X0242481Y0342639D03*
X0253741Y0342639D03*
X0261221Y0342639D03*
X0257481Y0333977D03*
D17*
X0367481Y0343308D03*
X0367481Y0363308D03*
X0367481Y0383308D03*
X0367481Y0323308D03*
D18*
X0318485Y0333308D03*
X0306477Y0333308D03*
X0306477Y0373308D03*
X0318485Y0373308D03*
D19*
X0217481Y0348308D03*
X0217481Y0338308D03*
X0217481Y0328308D03*
D20*
X0174875Y0233580D02*
X0175475Y0232980D01*
X0173487Y0232980D01*
X0172082Y0234385D01*
X0172082Y0236373D01*
X0173487Y0237778D01*
X0175475Y0237778D01*
X0176880Y0236373D01*
X0176880Y0234385D01*
X0175475Y0232980D01*
X0175102Y0233880D01*
X0173860Y0233880D01*
X0172982Y0234758D01*
X0172982Y0236000D01*
X0173860Y0236878D01*
X0175102Y0236878D01*
X0175980Y0236000D01*
X0175980Y0234758D01*
X0175102Y0233880D01*
X0174729Y0234780D01*
X0174233Y0234780D01*
X0173882Y0235131D01*
X0173882Y0235627D01*
X0174233Y0235978D01*
X0174729Y0235978D01*
X0175080Y0235627D01*
X0175080Y0235131D01*
X0174729Y0234780D01*
X0181946Y0226509D02*
X0182546Y0225909D01*
X0180558Y0225909D01*
X0179153Y0227314D01*
X0179153Y0229302D01*
X0180558Y0230707D01*
X0182546Y0230707D01*
X0183951Y0229302D01*
X0183951Y0227314D01*
X0182546Y0225909D01*
X0182173Y0226809D01*
X0180931Y0226809D01*
X0180053Y0227687D01*
X0180053Y0228929D01*
X0180931Y0229807D01*
X0182173Y0229807D01*
X0183051Y0228929D01*
X0183051Y0227687D01*
X0182173Y0226809D01*
X0181800Y0227709D01*
X0181304Y0227709D01*
X0180953Y0228060D01*
X0180953Y0228556D01*
X0181304Y0228907D01*
X0181800Y0228907D01*
X0182151Y0228556D01*
X0182151Y0228060D01*
X0181800Y0227709D01*
X0174875Y0219438D02*
X0175475Y0218838D01*
X0173487Y0218838D01*
X0172082Y0220243D01*
X0172082Y0222231D01*
X0173487Y0223636D01*
X0175475Y0223636D01*
X0176880Y0222231D01*
X0176880Y0220243D01*
X0175475Y0218838D01*
X0175102Y0219738D01*
X0173860Y0219738D01*
X0172982Y0220616D01*
X0172982Y0221858D01*
X0173860Y0222736D01*
X0175102Y0222736D01*
X0175980Y0221858D01*
X0175980Y0220616D01*
X0175102Y0219738D01*
X0174729Y0220638D01*
X0174233Y0220638D01*
X0173882Y0220989D01*
X0173882Y0221485D01*
X0174233Y0221836D01*
X0174729Y0221836D01*
X0175080Y0221485D01*
X0175080Y0220989D01*
X0174729Y0220638D01*
X0167804Y0226509D02*
X0168404Y0225909D01*
X0166416Y0225909D01*
X0165011Y0227314D01*
X0165011Y0229302D01*
X0166416Y0230707D01*
X0168404Y0230707D01*
X0169809Y0229302D01*
X0169809Y0227314D01*
X0168404Y0225909D01*
X0168031Y0226809D01*
X0166789Y0226809D01*
X0165911Y0227687D01*
X0165911Y0228929D01*
X0166789Y0229807D01*
X0168031Y0229807D01*
X0168909Y0228929D01*
X0168909Y0227687D01*
X0168031Y0226809D01*
X0167658Y0227709D01*
X0167162Y0227709D01*
X0166811Y0228060D01*
X0166811Y0228556D01*
X0167162Y0228907D01*
X0167658Y0228907D01*
X0168009Y0228556D01*
X0168009Y0228060D01*
X0167658Y0227709D01*
D21*
X0212481Y0157808D03*
X0212481Y0139808D03*
X0237481Y0139808D03*
X0237481Y0157808D03*
D22*
X0234174Y0072174D02*
X0234174Y0066174D01*
X0244174Y0066174D02*
X0244174Y0072174D01*
X0254174Y0072174D02*
X0254174Y0066174D01*
X0382481Y0120308D02*
X0382481Y0126308D01*
X0392481Y0126308D02*
X0392481Y0120308D01*
X0402481Y0120308D02*
X0402481Y0126308D01*
X0407481Y0103308D02*
X0413481Y0103308D01*
X0413481Y0093308D02*
X0407481Y0093308D01*
X0230481Y0298308D02*
X0224481Y0298308D01*
X0224481Y0308308D02*
X0230481Y0308308D01*
X0242481Y0377308D02*
X0242481Y0383308D01*
X0252481Y0383308D02*
X0252481Y0377308D01*
X0187481Y0395308D02*
X0187481Y0401308D01*
X0177481Y0401308D02*
X0177481Y0395308D01*
X0167481Y0395308D02*
X0167481Y0401308D01*
X0407981Y0363308D02*
X0413981Y0363308D01*
X0413981Y0353308D02*
X0407981Y0353308D01*
X0407981Y0343308D02*
X0413981Y0343308D01*
D23*
X0352717Y0215808D03*
X0352717Y0210808D03*
X0352717Y0205808D03*
X0352717Y0200808D03*
X0332245Y0200808D03*
X0332245Y0205808D03*
X0332245Y0210808D03*
X0332245Y0215808D03*
D24*
X0366381Y0122408D03*
X0368981Y0122408D03*
X0371581Y0122408D03*
X0371581Y0114208D03*
X0368981Y0114208D03*
X0366381Y0114208D03*
D25*
X0277181Y0130808D03*
X0277181Y0135808D03*
X0277181Y0140808D03*
X0277181Y0145808D03*
X0257781Y0145808D03*
X0257781Y0140808D03*
X0257781Y0135808D03*
X0257781Y0130808D03*
D26*
X0391481Y0158308D03*
X0401481Y0168308D03*
X0391481Y0178308D03*
X0411481Y0178308D03*
X0411481Y0158308D03*
X0411481Y0223308D03*
X0401481Y0233308D03*
X0391481Y0243308D03*
X0411481Y0243308D03*
X0391481Y0223308D03*
D27*
X0295981Y0324174D03*
X0295981Y0332442D03*
X0295981Y0374174D03*
X0295981Y0382442D03*
D28*
X0287481Y0358308D03*
X0287481Y0348308D03*
D29*
X0079981Y0118623D03*
X0099981Y0118623D03*
X0119981Y0118623D03*
D30*
X0252150Y0306568D03*
X0252150Y0314048D03*
X0260812Y0310308D03*
D31*
X0241481Y0356008D03*
X0241481Y0363608D03*
X0233481Y0359808D03*
D32*
X0361969Y0103308D03*
X0372993Y0103308D03*
D33*
X0242481Y0104331D03*
X0225481Y0104331D03*
X0225481Y0082284D03*
X0242481Y0082284D03*
X0167481Y0280784D03*
X0167481Y0302831D03*
D34*
X0132481Y0263308D03*
X0077481Y0208308D03*
X0167481Y0158308D03*
X0217481Y0188308D03*
X0272481Y0228308D03*
X0277481Y0233308D03*
X0292481Y0178308D03*
X0307481Y0140808D03*
X0340355Y0144135D03*
X0342481Y0123308D03*
X0367481Y0083308D03*
X0407481Y0138308D03*
X0407481Y0198308D03*
X0362481Y0218308D03*
X0332481Y0193308D03*
X0332481Y0178308D03*
X0257481Y0125808D03*
X0242717Y0093347D03*
X0222481Y0113308D03*
X0152481Y0078308D03*
X0297481Y0093308D03*
X0332481Y0258308D03*
X0332481Y0303308D03*
X0347481Y0303308D03*
X0362481Y0303308D03*
X0377481Y0303308D03*
X0352481Y0353308D03*
X0342481Y0353308D03*
X0332481Y0353308D03*
X0322481Y0353308D03*
X0312481Y0353308D03*
X0302481Y0353308D03*
X0317481Y0393308D03*
X0332481Y0393308D03*
X0347481Y0393308D03*
X0362481Y0393308D03*
X0377481Y0393308D03*
X0317481Y0303308D03*
X0217481Y0263308D03*
X0152481Y0348308D03*
X0152481Y0353308D03*
X0152481Y0358308D03*
X0147481Y0358308D03*
X0142481Y0358308D03*
X0142481Y0353308D03*
X0147481Y0353308D03*
X0147481Y0348308D03*
X0142481Y0348308D03*
X0092481Y0393308D03*
M02*
