G75*
%MOIN*%
%OFA0B0*%
%FSLAX25Y25*%
%IPPOS*%
%LPD*%
%AMOC8*
5,1,8,0,0,1.08239X$1,22.5*
%
%ADD10C,0.00800*%
%ADD11C,0.00300*%
%ADD12R,0.03000X0.03400*%
%ADD13C,0.01000*%
%ADD14R,0.02953X0.01969*%
%ADD15R,0.01481X0.10236*%
%ADD16C,0.00600*%
%ADD17C,0.00200*%
%ADD18C,0.00400*%
%ADD19C,0.02000*%
%ADD20R,0.42000X0.03000*%
%ADD21R,0.07500X0.02000*%
%ADD22R,0.03000X0.02000*%
%ADD23C,0.03000*%
%ADD24R,0.02000X0.03000*%
%ADD25R,0.04000X0.03000*%
%ADD26R,0.00787X0.00787*%
%ADD27C,0.00500*%
%ADD28R,0.07500X0.05000*%
%ADD29R,0.07000X0.03000*%
%ADD30R,0.03000X0.05000*%
D10*
X0057481Y0190001D02*
X0111418Y0190001D01*
X0111418Y0368308D01*
X0057481Y0368308D01*
X0083216Y0305158D02*
X0083216Y0304457D01*
X0084617Y0303056D01*
X0086018Y0303056D02*
X0083216Y0303056D01*
X0083916Y0301254D02*
X0084617Y0301254D01*
X0084617Y0298452D01*
X0085318Y0298452D02*
X0083916Y0298452D01*
X0083216Y0299152D01*
X0083216Y0300554D01*
X0083916Y0301254D01*
X0086018Y0300554D02*
X0086018Y0299152D01*
X0085318Y0298452D01*
X0086018Y0296784D02*
X0085318Y0296083D01*
X0082515Y0296083D01*
X0083216Y0295383D02*
X0083216Y0296784D01*
X0083916Y0293581D02*
X0084617Y0293581D01*
X0084617Y0290779D01*
X0085318Y0290779D02*
X0083916Y0290779D01*
X0083216Y0291479D01*
X0083216Y0292880D01*
X0083916Y0293581D01*
X0086018Y0292880D02*
X0086018Y0291479D01*
X0085318Y0290779D01*
X0086018Y0288977D02*
X0081815Y0288977D01*
X0083216Y0287576D01*
X0081815Y0286175D01*
X0086018Y0286175D01*
X0086018Y0279903D02*
X0086018Y0278502D01*
X0086018Y0279202D02*
X0081815Y0279202D01*
X0081815Y0278502D01*
X0083916Y0276700D02*
X0084617Y0276700D01*
X0084617Y0273898D01*
X0085318Y0273898D02*
X0083916Y0273898D01*
X0083216Y0274598D01*
X0083216Y0275999D01*
X0083916Y0276700D01*
X0086018Y0275999D02*
X0086018Y0274598D01*
X0085318Y0273898D01*
X0086018Y0272096D02*
X0083916Y0272096D01*
X0083216Y0271395D01*
X0083216Y0269294D01*
X0086018Y0269294D01*
X0086018Y0267492D02*
X0086018Y0265390D01*
X0085318Y0264690D01*
X0084617Y0265390D01*
X0084617Y0267492D01*
X0083916Y0267492D02*
X0086018Y0267492D01*
X0083916Y0267492D02*
X0083216Y0266792D01*
X0083216Y0265390D01*
X0083916Y0262888D02*
X0084617Y0262188D01*
X0084617Y0260086D01*
X0086018Y0260086D02*
X0081815Y0260086D01*
X0081815Y0262188D01*
X0082515Y0262888D01*
X0083916Y0262888D01*
X0134292Y0273308D02*
X0222481Y0273308D01*
X0219581Y0286708D02*
X0215378Y0286708D01*
X0215378Y0289510D01*
X0215378Y0291312D02*
X0219581Y0294114D01*
X0215378Y0294114D01*
X0215378Y0295916D02*
X0215378Y0298018D01*
X0216078Y0298718D01*
X0216779Y0298718D01*
X0217479Y0298018D01*
X0217479Y0295916D01*
X0215378Y0295916D02*
X0219581Y0295916D01*
X0219581Y0298018D01*
X0218881Y0298718D01*
X0218180Y0298718D01*
X0217479Y0298018D01*
X0215378Y0300520D02*
X0219581Y0300520D01*
X0219581Y0303322D01*
X0218881Y0309727D02*
X0219581Y0310428D01*
X0219581Y0311829D01*
X0218881Y0312530D01*
X0218180Y0312530D01*
X0217479Y0311829D01*
X0217479Y0310428D01*
X0216779Y0309727D01*
X0216078Y0309727D01*
X0215378Y0310428D01*
X0215378Y0311829D01*
X0216078Y0312530D01*
X0215378Y0314331D02*
X0219581Y0314331D01*
X0218180Y0315733D01*
X0219581Y0317134D01*
X0215378Y0317134D01*
X0215378Y0291312D02*
X0219581Y0291312D01*
X0219581Y0289510D02*
X0219581Y0286708D01*
X0217479Y0286708D02*
X0217479Y0288109D01*
X0247481Y0273308D02*
X0269981Y0273308D01*
X0269981Y0403308D01*
X0200481Y0403308D01*
X0230381Y0393411D02*
X0230381Y0389208D01*
X0233183Y0389208D01*
X0234985Y0389208D02*
X0234985Y0393411D01*
X0237787Y0389208D01*
X0237787Y0393411D01*
X0239589Y0393411D02*
X0239589Y0389208D01*
X0241691Y0389208D01*
X0242391Y0389908D01*
X0242391Y0390609D01*
X0241691Y0391310D01*
X0239589Y0391310D01*
X0239589Y0393411D02*
X0241691Y0393411D01*
X0242391Y0392711D01*
X0242391Y0392010D01*
X0241691Y0391310D01*
X0244193Y0393411D02*
X0244193Y0389208D01*
X0246995Y0389208D01*
X0253401Y0389208D02*
X0256203Y0389208D01*
X0258005Y0389208D02*
X0258005Y0393411D01*
X0260807Y0393411D01*
X0262609Y0393411D02*
X0262609Y0389208D01*
X0264710Y0389208D01*
X0265411Y0389908D01*
X0265411Y0392711D01*
X0264710Y0393411D01*
X0262609Y0393411D01*
X0259406Y0391310D02*
X0258005Y0391310D01*
X0258005Y0389208D02*
X0260807Y0389208D01*
X0253401Y0389208D02*
X0253401Y0393411D01*
X0233183Y0393411D02*
X0230381Y0393411D01*
X0230381Y0391310D02*
X0231782Y0391310D01*
X0279981Y0403308D02*
X0279981Y0298308D01*
X0367481Y0298308D01*
X0363731Y0320183D02*
X0359356Y0320183D01*
X0354356Y0325183D01*
X0354356Y0346433D01*
X0363731Y0346433D01*
X0371231Y0346433D02*
X0380606Y0346433D01*
X0380606Y0325183D01*
X0375606Y0320183D01*
X0371231Y0320183D01*
X0349981Y0322308D02*
X0349981Y0347308D01*
X0324981Y0347308D01*
X0324981Y0322308D01*
X0349981Y0322308D01*
X0318731Y0327995D02*
X0306231Y0327995D01*
X0306231Y0338620D02*
X0318731Y0338620D01*
X0324981Y0359308D02*
X0324981Y0384308D01*
X0349981Y0384308D01*
X0349981Y0359308D01*
X0324981Y0359308D01*
X0318731Y0367995D02*
X0306231Y0367995D01*
X0306231Y0378620D02*
X0318731Y0378620D01*
X0354356Y0386433D02*
X0354356Y0365183D01*
X0359356Y0360183D01*
X0363731Y0360183D01*
X0371231Y0360183D02*
X0375606Y0360183D01*
X0380606Y0365183D01*
X0380606Y0386433D01*
X0371231Y0386433D01*
X0363731Y0386433D02*
X0354356Y0386433D01*
X0417481Y0403308D02*
X0279981Y0403308D01*
X0185981Y0366209D02*
X0185981Y0340406D01*
X0162381Y0340408D01*
X0162381Y0366208D02*
X0185981Y0366209D01*
X0154481Y0403308D02*
X0134292Y0403308D01*
X0134292Y0273308D01*
X0205606Y0159433D02*
X0208731Y0159433D01*
X0205606Y0159433D02*
X0201856Y0155683D01*
X0201856Y0138183D01*
X0208731Y0138183D01*
X0216231Y0138183D02*
X0223106Y0138183D01*
X0223106Y0155683D01*
X0219356Y0159433D01*
X0216231Y0159433D01*
X0226856Y0155683D02*
X0230606Y0159433D01*
X0233731Y0159433D01*
X0241231Y0159433D02*
X0244356Y0159433D01*
X0248106Y0155683D01*
X0248106Y0138183D01*
X0241231Y0138183D01*
X0233731Y0138183D02*
X0226856Y0138183D01*
X0226856Y0155683D01*
X0314981Y0115808D02*
X0314981Y0090808D01*
X0339981Y0090808D01*
X0339981Y0115808D01*
X0314981Y0115808D01*
X0332881Y0076411D02*
X0332881Y0072208D01*
X0335683Y0072208D01*
X0337485Y0072908D02*
X0338186Y0072208D01*
X0339587Y0072208D01*
X0340287Y0072908D01*
X0340287Y0074310D01*
X0339587Y0075010D01*
X0338186Y0075010D01*
X0337485Y0074310D01*
X0337485Y0072908D01*
X0342089Y0072908D02*
X0342790Y0072208D01*
X0343490Y0072908D01*
X0344191Y0072208D01*
X0344891Y0072908D01*
X0344891Y0075010D01*
X0346693Y0074310D02*
X0349495Y0074310D01*
X0351297Y0076411D02*
X0354099Y0072208D01*
X0354099Y0076411D01*
X0355901Y0074310D02*
X0355901Y0072908D01*
X0356601Y0072208D01*
X0358003Y0072208D01*
X0358703Y0072908D01*
X0358703Y0074310D01*
X0358003Y0075010D01*
X0356601Y0075010D01*
X0355901Y0074310D01*
X0360505Y0075010D02*
X0361205Y0075010D01*
X0361205Y0072208D01*
X0360505Y0072208D02*
X0361906Y0072208D01*
X0363574Y0072208D02*
X0365676Y0072208D01*
X0366376Y0072908D01*
X0365676Y0073609D01*
X0364275Y0073609D01*
X0363574Y0074310D01*
X0364275Y0075010D01*
X0366376Y0075010D01*
X0368178Y0074310D02*
X0368878Y0075010D01*
X0370280Y0075010D01*
X0370980Y0074310D01*
X0370980Y0073609D01*
X0368178Y0073609D01*
X0368178Y0072908D02*
X0368178Y0074310D01*
X0368178Y0072908D02*
X0368878Y0072208D01*
X0370280Y0072208D01*
X0377386Y0072208D02*
X0377386Y0076411D01*
X0377386Y0072208D02*
X0380188Y0072208D01*
X0381990Y0072208D02*
X0384091Y0072208D01*
X0384792Y0072908D01*
X0384792Y0075711D01*
X0384091Y0076411D01*
X0381990Y0076411D01*
X0381990Y0072208D01*
X0391197Y0072208D02*
X0393299Y0072208D01*
X0394000Y0072908D01*
X0394000Y0075711D01*
X0393299Y0076411D01*
X0391197Y0076411D01*
X0391197Y0072208D01*
X0395801Y0072208D02*
X0395801Y0075010D01*
X0395801Y0073609D02*
X0397203Y0075010D01*
X0397903Y0075010D01*
X0399638Y0075010D02*
X0400339Y0075010D01*
X0400339Y0072208D01*
X0401039Y0072208D02*
X0399638Y0072208D01*
X0402707Y0075010D02*
X0404108Y0072208D01*
X0405510Y0075010D01*
X0407311Y0074310D02*
X0408012Y0075010D01*
X0409413Y0075010D01*
X0410114Y0074310D01*
X0410114Y0073609D01*
X0407311Y0073609D01*
X0407311Y0072908D02*
X0407311Y0074310D01*
X0407311Y0072908D02*
X0408012Y0072208D01*
X0409413Y0072208D01*
X0411915Y0072208D02*
X0411915Y0075010D01*
X0411915Y0073609D02*
X0413316Y0075010D01*
X0414017Y0075010D01*
X0400339Y0076411D02*
X0400339Y0077112D01*
X0398399Y0095208D02*
X0396997Y0095208D01*
X0396297Y0095908D01*
X0396297Y0099411D01*
X0394495Y0098711D02*
X0393795Y0099411D01*
X0392393Y0099411D01*
X0391693Y0098711D01*
X0391693Y0095908D01*
X0392393Y0095208D01*
X0393795Y0095208D01*
X0394495Y0095908D01*
X0394495Y0098711D01*
X0399099Y0099411D02*
X0399099Y0095908D01*
X0398399Y0095208D01*
X0402302Y0095208D02*
X0402302Y0099411D01*
X0400901Y0099411D02*
X0403703Y0099411D01*
X0385287Y0098711D02*
X0384587Y0099411D01*
X0382485Y0099411D01*
X0382485Y0095208D01*
X0384587Y0095208D01*
X0385287Y0095908D01*
X0385287Y0098711D01*
X0380683Y0095208D02*
X0377881Y0095208D01*
X0377881Y0099411D01*
X0361205Y0077112D02*
X0361205Y0076411D01*
X0351297Y0076411D02*
X0351297Y0072208D01*
X0342089Y0072908D02*
X0342089Y0075010D01*
X0375881Y0131208D02*
X0375881Y0135411D01*
X0377983Y0135411D01*
X0378683Y0134711D01*
X0378683Y0133310D01*
X0377983Y0132609D01*
X0375881Y0132609D01*
X0380485Y0133310D02*
X0383287Y0133310D01*
X0383287Y0134010D02*
X0383287Y0131208D01*
X0385089Y0131208D02*
X0385089Y0135411D01*
X0387891Y0131208D01*
X0387891Y0135411D01*
X0389693Y0135411D02*
X0389693Y0131208D01*
X0392495Y0131208D01*
X0394297Y0131208D02*
X0397099Y0131208D01*
X0394297Y0131208D02*
X0394297Y0135411D01*
X0392495Y0135411D02*
X0389693Y0135411D01*
X0389693Y0133310D02*
X0391094Y0133310D01*
X0383287Y0134010D02*
X0381886Y0135411D01*
X0380485Y0134010D01*
X0380485Y0131208D01*
X0390381Y0146708D02*
X0390381Y0150911D01*
X0392483Y0150911D01*
X0393183Y0150211D01*
X0393183Y0148810D01*
X0392483Y0148109D01*
X0390381Y0148109D01*
X0391782Y0148109D02*
X0393183Y0146708D01*
X0394985Y0146708D02*
X0394985Y0150911D01*
X0397787Y0150911D01*
X0396386Y0148810D02*
X0394985Y0148810D01*
X0404193Y0150911D02*
X0405594Y0150911D01*
X0404893Y0150911D02*
X0404893Y0146708D01*
X0404193Y0146708D02*
X0405594Y0146708D01*
X0407262Y0146708D02*
X0407262Y0150911D01*
X0410065Y0146708D01*
X0410065Y0150911D01*
X0409510Y0135411D02*
X0409510Y0131208D01*
X0412712Y0131208D02*
X0412712Y0135411D01*
X0414814Y0135411D01*
X0415515Y0134711D01*
X0415515Y0133310D01*
X0414814Y0132609D01*
X0412712Y0132609D01*
X0414114Y0132609D02*
X0415515Y0131208D01*
X0410911Y0135411D02*
X0408109Y0135411D01*
X0406307Y0135411D02*
X0406307Y0131208D01*
X0403505Y0131208D02*
X0403505Y0135411D01*
X0404906Y0134010D01*
X0406307Y0135411D01*
X0408297Y0211208D02*
X0409698Y0211208D01*
X0408997Y0211208D02*
X0408997Y0215411D01*
X0408297Y0215411D02*
X0409698Y0215411D01*
X0411366Y0215411D02*
X0414168Y0211208D01*
X0414168Y0215411D01*
X0411366Y0215411D02*
X0411366Y0211208D01*
X0401891Y0211908D02*
X0401891Y0214711D01*
X0401191Y0215411D01*
X0399089Y0215411D01*
X0399089Y0211208D01*
X0401191Y0211208D01*
X0401891Y0211908D01*
X0397287Y0211908D02*
X0397287Y0214711D01*
X0396587Y0215411D01*
X0395186Y0215411D01*
X0394485Y0214711D01*
X0394485Y0211908D01*
X0395186Y0211208D01*
X0396587Y0211208D01*
X0397287Y0211908D01*
X0392683Y0211208D02*
X0392683Y0215411D01*
X0391282Y0214010D01*
X0389881Y0215411D01*
X0389881Y0211208D01*
X0392481Y0298308D02*
X0417481Y0298308D01*
D11*
X0389788Y0296458D02*
X0389788Y0300161D01*
X0387319Y0300161D02*
X0387319Y0296458D01*
X0386098Y0296458D02*
X0384864Y0296458D01*
X0385481Y0296458D02*
X0385481Y0300161D01*
X0384864Y0300161D02*
X0386098Y0300161D01*
X0387319Y0300161D02*
X0389788Y0296458D01*
X0379966Y0296458D02*
X0378732Y0297692D01*
X0379349Y0297692D02*
X0377497Y0297692D01*
X0377497Y0296458D02*
X0377497Y0300161D01*
X0379349Y0300161D01*
X0379966Y0299544D01*
X0379966Y0298309D01*
X0379349Y0297692D01*
X0376283Y0296458D02*
X0376283Y0300161D01*
X0373814Y0300161D02*
X0373814Y0296458D01*
X0375049Y0297692D01*
X0376283Y0296458D01*
X0372600Y0298309D02*
X0371983Y0297692D01*
X0370131Y0297692D01*
X0370131Y0296458D02*
X0370131Y0300161D01*
X0371983Y0300161D01*
X0372600Y0299544D01*
X0372600Y0298309D01*
X0376307Y0315306D02*
X0377542Y0315306D01*
X0378159Y0315923D01*
X0379373Y0315923D02*
X0379990Y0315306D01*
X0381225Y0315306D01*
X0381842Y0315923D01*
X0381842Y0316541D01*
X0381225Y0317158D01*
X0380608Y0317158D01*
X0381225Y0317158D02*
X0381842Y0317775D01*
X0381842Y0318392D01*
X0381225Y0319009D01*
X0379990Y0319009D01*
X0379373Y0318392D01*
X0378159Y0318392D02*
X0377542Y0319009D01*
X0376307Y0319009D01*
X0375690Y0318392D01*
X0375690Y0315923D01*
X0376307Y0315306D01*
X0392757Y0330075D02*
X0393374Y0329458D01*
X0394609Y0329458D01*
X0395226Y0330075D01*
X0396440Y0330075D02*
X0396440Y0329458D01*
X0396440Y0330075D02*
X0398909Y0332544D01*
X0398909Y0333161D01*
X0396440Y0333161D01*
X0395226Y0332544D02*
X0394609Y0333161D01*
X0393374Y0333161D01*
X0392757Y0332544D01*
X0392757Y0330075D01*
X0394365Y0341458D02*
X0395600Y0342692D01*
X0395600Y0345161D01*
X0396814Y0343309D02*
X0399283Y0343309D01*
X0394365Y0341458D02*
X0393131Y0342692D01*
X0393131Y0345161D01*
X0393748Y0351458D02*
X0394983Y0351458D01*
X0395600Y0352075D01*
X0395600Y0353309D01*
X0394365Y0353309D01*
X0393131Y0354544D02*
X0393131Y0352075D01*
X0393748Y0351458D01*
X0396814Y0351458D02*
X0396814Y0355161D01*
X0399283Y0351458D01*
X0399283Y0355161D01*
X0400497Y0355161D02*
X0402349Y0355161D01*
X0402966Y0354544D01*
X0402966Y0352075D01*
X0402349Y0351458D01*
X0400497Y0351458D01*
X0400497Y0355161D01*
X0395600Y0354544D02*
X0394983Y0355161D01*
X0393748Y0355161D01*
X0393131Y0354544D01*
X0394365Y0361458D02*
X0395600Y0362692D01*
X0395600Y0365161D01*
X0396814Y0363309D02*
X0399283Y0363309D01*
X0398049Y0364544D02*
X0398049Y0362075D01*
X0394365Y0361458D02*
X0393131Y0362692D01*
X0393131Y0365161D01*
X0393874Y0373458D02*
X0395109Y0373458D01*
X0395726Y0374075D01*
X0396940Y0374075D02*
X0396940Y0374692D01*
X0397557Y0375309D01*
X0398792Y0375309D01*
X0399409Y0374692D01*
X0399409Y0374075D01*
X0398792Y0373458D01*
X0397557Y0373458D01*
X0396940Y0374075D01*
X0397557Y0375309D02*
X0396940Y0375927D01*
X0396940Y0376544D01*
X0397557Y0377161D01*
X0398792Y0377161D01*
X0399409Y0376544D01*
X0399409Y0375927D01*
X0398792Y0375309D01*
X0395726Y0376544D02*
X0395109Y0377161D01*
X0393874Y0377161D01*
X0393257Y0376544D01*
X0393257Y0374075D01*
X0393874Y0373458D01*
X0381044Y0359328D02*
X0379192Y0357477D01*
X0381661Y0357477D01*
X0381044Y0359328D02*
X0381044Y0355625D01*
X0377978Y0356242D02*
X0377360Y0355625D01*
X0376126Y0355625D01*
X0375509Y0356242D01*
X0375509Y0358711D01*
X0376126Y0359328D01*
X0377360Y0359328D01*
X0377978Y0358711D01*
X0350621Y0354446D02*
X0348153Y0354446D01*
X0346938Y0354446D02*
X0344470Y0354446D01*
X0344470Y0358149D01*
X0348153Y0356915D02*
X0349387Y0358149D01*
X0349387Y0354446D01*
X0321228Y0380109D02*
X0321228Y0381343D01*
X0320611Y0381960D01*
X0319993Y0381960D01*
X0318759Y0381343D01*
X0318759Y0383195D01*
X0321228Y0383195D01*
X0321228Y0380109D02*
X0320611Y0379491D01*
X0319376Y0379491D01*
X0318759Y0380109D01*
X0317545Y0380109D02*
X0316927Y0379491D01*
X0315693Y0379491D01*
X0315076Y0380109D01*
X0315076Y0382577D01*
X0315693Y0383195D01*
X0316927Y0383195D01*
X0317545Y0382577D01*
X0308149Y0386458D02*
X0305681Y0386458D01*
X0306915Y0386458D02*
X0306915Y0390161D01*
X0305681Y0388927D01*
X0304466Y0389544D02*
X0303849Y0390161D01*
X0301997Y0390161D01*
X0301997Y0386458D01*
X0303849Y0386458D01*
X0304466Y0387075D01*
X0304466Y0389544D01*
X0300783Y0390161D02*
X0298314Y0390161D01*
X0298314Y0386458D01*
X0300783Y0386458D01*
X0299549Y0388309D02*
X0298314Y0388309D01*
X0297100Y0386458D02*
X0294631Y0386458D01*
X0294631Y0390161D01*
X0292966Y0389544D02*
X0292349Y0390161D01*
X0291115Y0390161D01*
X0290497Y0389544D01*
X0289283Y0389544D02*
X0288666Y0390161D01*
X0287431Y0390161D01*
X0286814Y0389544D01*
X0285600Y0389544D02*
X0285600Y0388309D01*
X0284983Y0387692D01*
X0283131Y0387692D01*
X0283131Y0386458D02*
X0283131Y0390161D01*
X0284983Y0390161D01*
X0285600Y0389544D01*
X0284365Y0387692D02*
X0285600Y0386458D01*
X0286814Y0386458D02*
X0289283Y0388927D01*
X0289283Y0389544D01*
X0289283Y0386458D02*
X0286814Y0386458D01*
X0290497Y0386458D02*
X0292966Y0388927D01*
X0292966Y0389544D01*
X0292966Y0386458D02*
X0290497Y0386458D01*
X0268166Y0382361D02*
X0265697Y0382361D01*
X0265697Y0380509D01*
X0266932Y0381127D01*
X0267549Y0381127D01*
X0268166Y0380509D01*
X0268166Y0379275D01*
X0267549Y0378658D01*
X0266315Y0378658D01*
X0265697Y0379275D01*
X0264483Y0380509D02*
X0263866Y0379892D01*
X0262014Y0379892D01*
X0262014Y0378658D02*
X0262014Y0382361D01*
X0263866Y0382361D01*
X0264483Y0381744D01*
X0264483Y0380509D01*
X0260800Y0382361D02*
X0259565Y0382361D01*
X0260183Y0382361D02*
X0260183Y0379275D01*
X0259565Y0378658D01*
X0258948Y0378658D01*
X0258331Y0379275D01*
X0254600Y0372309D02*
X0252131Y0372309D01*
X0243600Y0372309D02*
X0241131Y0372309D01*
X0242365Y0373544D02*
X0242365Y0371075D01*
X0234331Y0371758D02*
X0233714Y0371141D01*
X0234331Y0371758D02*
X0234331Y0372993D01*
X0233714Y0373610D01*
X0233097Y0373610D01*
X0232480Y0372993D01*
X0232480Y0372375D01*
X0232480Y0372993D02*
X0231862Y0373610D01*
X0231245Y0373610D01*
X0230628Y0372993D01*
X0230628Y0371758D01*
X0231245Y0371141D01*
X0231245Y0369927D02*
X0232480Y0369927D01*
X0233097Y0369309D01*
X0233097Y0367458D01*
X0234331Y0367458D02*
X0230628Y0367458D01*
X0230628Y0369309D01*
X0231245Y0369927D01*
X0233097Y0368692D02*
X0234331Y0369927D01*
X0234331Y0374824D02*
X0231862Y0377293D01*
X0231245Y0377293D01*
X0230628Y0376676D01*
X0230628Y0375441D01*
X0231245Y0374824D01*
X0234331Y0374824D02*
X0234331Y0377293D01*
X0224331Y0373610D02*
X0224331Y0371141D01*
X0221862Y0373610D01*
X0221245Y0373610D01*
X0220628Y0372993D01*
X0220628Y0371758D01*
X0221245Y0371141D01*
X0221245Y0369927D02*
X0220628Y0369309D01*
X0220628Y0368075D01*
X0221245Y0367458D01*
X0223714Y0367458D01*
X0224331Y0368075D01*
X0224331Y0369309D01*
X0223714Y0369927D01*
X0214331Y0369309D02*
X0213714Y0369927D01*
X0214331Y0369309D02*
X0214331Y0368075D01*
X0213714Y0367458D01*
X0211245Y0367458D01*
X0210628Y0368075D01*
X0210628Y0369309D01*
X0211245Y0369927D01*
X0211862Y0371141D02*
X0210628Y0372375D01*
X0214331Y0372375D01*
X0214331Y0371141D02*
X0214331Y0373610D01*
X0206714Y0356244D02*
X0207331Y0355626D01*
X0207331Y0354392D01*
X0206714Y0353775D01*
X0207331Y0352560D02*
X0207331Y0350092D01*
X0207331Y0351326D02*
X0203628Y0351326D01*
X0204862Y0350092D01*
X0204245Y0348877D02*
X0203628Y0348260D01*
X0203628Y0347026D01*
X0204245Y0346408D01*
X0206714Y0346408D01*
X0207331Y0347026D01*
X0207331Y0348260D01*
X0206714Y0348877D01*
X0204245Y0353775D02*
X0203628Y0354392D01*
X0203628Y0355626D01*
X0204245Y0356244D01*
X0204862Y0356244D01*
X0205480Y0355626D01*
X0206097Y0356244D01*
X0206714Y0356244D01*
X0205480Y0355626D02*
X0205480Y0355009D01*
X0188744Y0369084D02*
X0186275Y0369084D01*
X0187509Y0369084D02*
X0187509Y0372787D01*
X0186275Y0371553D01*
X0185060Y0372170D02*
X0184443Y0372787D01*
X0182592Y0372787D01*
X0182592Y0369084D01*
X0184443Y0369084D01*
X0185060Y0369701D01*
X0185060Y0372170D01*
X0199131Y0392658D02*
X0200365Y0392658D01*
X0199748Y0392658D02*
X0199748Y0396361D01*
X0199131Y0396361D02*
X0200365Y0396361D01*
X0201587Y0395744D02*
X0201587Y0393275D01*
X0202204Y0392658D01*
X0203438Y0392658D01*
X0204055Y0393275D01*
X0205270Y0394509D02*
X0207738Y0394509D01*
X0207121Y0392658D02*
X0207121Y0396361D01*
X0205270Y0394509D01*
X0204055Y0395744D02*
X0203438Y0396361D01*
X0202204Y0396361D01*
X0201587Y0395744D01*
X0160182Y0370161D02*
X0160182Y0366458D01*
X0158948Y0366458D02*
X0161417Y0366458D01*
X0158948Y0368927D02*
X0160182Y0370161D01*
X0157734Y0369544D02*
X0157116Y0370161D01*
X0155882Y0370161D01*
X0155265Y0369544D01*
X0155265Y0367075D01*
X0155882Y0366458D01*
X0157116Y0366458D01*
X0157734Y0367075D01*
X0154044Y0366458D02*
X0152809Y0366458D01*
X0153427Y0366458D02*
X0153427Y0370161D01*
X0154044Y0370161D02*
X0152809Y0370161D01*
X0176628Y0331509D02*
X0180331Y0331509D01*
X0180331Y0330275D02*
X0180331Y0332744D01*
X0177862Y0330275D02*
X0176628Y0331509D01*
X0177245Y0329060D02*
X0178480Y0329060D01*
X0179097Y0328443D01*
X0179097Y0326592D01*
X0179097Y0327826D02*
X0180331Y0329060D01*
X0180331Y0326592D02*
X0176628Y0326592D01*
X0176628Y0328443D01*
X0177245Y0329060D01*
X0185128Y0328443D02*
X0185745Y0329060D01*
X0186980Y0329060D01*
X0187597Y0328443D01*
X0187597Y0326592D01*
X0187597Y0327826D02*
X0188831Y0329060D01*
X0188831Y0330275D02*
X0186362Y0332744D01*
X0185745Y0332744D01*
X0185128Y0332126D01*
X0185128Y0330892D01*
X0185745Y0330275D01*
X0185128Y0328443D02*
X0185128Y0326592D01*
X0188831Y0326592D01*
X0188831Y0330275D02*
X0188831Y0332744D01*
X0203628Y0332826D02*
X0207331Y0332826D01*
X0207331Y0335275D02*
X0207331Y0337744D01*
X0207331Y0336509D02*
X0203628Y0336509D01*
X0204862Y0335275D01*
X0203628Y0334060D02*
X0203628Y0331592D01*
X0206415Y0318594D02*
X0208266Y0318594D01*
X0208883Y0317977D01*
X0208883Y0316743D01*
X0208266Y0316125D01*
X0206415Y0316125D01*
X0207649Y0316125D02*
X0208883Y0314891D01*
X0210098Y0315508D02*
X0210715Y0314891D01*
X0211949Y0314891D01*
X0212566Y0315508D01*
X0212566Y0316125D01*
X0211949Y0316743D01*
X0211332Y0316743D01*
X0211949Y0316743D02*
X0212566Y0317360D01*
X0212566Y0317977D01*
X0211949Y0318594D01*
X0210715Y0318594D01*
X0210098Y0317977D01*
X0206415Y0318594D02*
X0206415Y0314891D01*
X0206300Y0308661D02*
X0204448Y0306809D01*
X0206917Y0306809D01*
X0206300Y0304958D02*
X0206300Y0308661D01*
X0201999Y0308661D02*
X0201999Y0304958D01*
X0200765Y0304958D02*
X0203234Y0304958D01*
X0200765Y0307427D02*
X0201999Y0308661D01*
X0199550Y0308044D02*
X0198933Y0308661D01*
X0197699Y0308661D01*
X0197082Y0308044D01*
X0197082Y0305575D01*
X0197699Y0304958D01*
X0198933Y0304958D01*
X0199550Y0305575D01*
X0191244Y0304584D02*
X0188775Y0304584D01*
X0191244Y0307053D01*
X0191244Y0307670D01*
X0190626Y0308287D01*
X0189392Y0308287D01*
X0188775Y0307670D01*
X0187560Y0307670D02*
X0186943Y0308287D01*
X0185092Y0308287D01*
X0185092Y0304584D01*
X0186943Y0304584D01*
X0187560Y0305201D01*
X0187560Y0307670D01*
X0160417Y0307075D02*
X0159800Y0306458D01*
X0158565Y0306458D01*
X0157948Y0307075D01*
X0157948Y0308309D02*
X0159182Y0308927D01*
X0159800Y0308927D01*
X0160417Y0308309D01*
X0160417Y0307075D01*
X0157948Y0308309D02*
X0157948Y0310161D01*
X0160417Y0310161D01*
X0155499Y0310161D02*
X0155499Y0306458D01*
X0154265Y0306458D02*
X0156734Y0306458D01*
X0154265Y0308927D02*
X0155499Y0310161D01*
X0153050Y0309544D02*
X0152433Y0310161D01*
X0151199Y0310161D01*
X0150582Y0309544D01*
X0150582Y0307075D01*
X0151199Y0306458D01*
X0152433Y0306458D01*
X0153050Y0307075D01*
X0175631Y0280661D02*
X0177483Y0280661D01*
X0178100Y0280044D01*
X0178100Y0278809D01*
X0177483Y0278192D01*
X0175631Y0278192D01*
X0175631Y0276958D02*
X0175631Y0280661D01*
X0176865Y0278192D02*
X0178100Y0276958D01*
X0179314Y0276958D02*
X0181783Y0276958D01*
X0182997Y0276958D02*
X0185466Y0276958D01*
X0184232Y0276958D02*
X0184232Y0280661D01*
X0182997Y0279427D01*
X0180549Y0280661D02*
X0180549Y0276958D01*
X0179314Y0279427D02*
X0180549Y0280661D01*
X0181065Y0264661D02*
X0180448Y0264044D01*
X0180448Y0263427D01*
X0181065Y0262809D01*
X0182917Y0262809D01*
X0182917Y0261575D02*
X0182917Y0264044D01*
X0182300Y0264661D01*
X0181065Y0264661D01*
X0179234Y0264044D02*
X0178616Y0264661D01*
X0177382Y0264661D01*
X0176765Y0264044D01*
X0175550Y0264044D02*
X0174933Y0264661D01*
X0173699Y0264661D01*
X0173082Y0264044D01*
X0173082Y0261575D01*
X0173699Y0260958D01*
X0174933Y0260958D01*
X0175550Y0261575D01*
X0176765Y0260958D02*
X0179234Y0263427D01*
X0179234Y0264044D01*
X0180448Y0261575D02*
X0181065Y0260958D01*
X0182300Y0260958D01*
X0182917Y0261575D01*
X0179234Y0260958D02*
X0176765Y0260958D01*
X0161917Y0261575D02*
X0161917Y0262192D01*
X0161300Y0262809D01*
X0159448Y0262809D01*
X0159448Y0261575D01*
X0160065Y0260958D01*
X0161300Y0260958D01*
X0161917Y0261575D01*
X0160682Y0264044D02*
X0159448Y0262809D01*
X0160682Y0264044D02*
X0161917Y0264661D01*
X0156999Y0264661D02*
X0156999Y0260958D01*
X0155765Y0260958D02*
X0158234Y0260958D01*
X0155765Y0263427D02*
X0156999Y0264661D01*
X0154550Y0264044D02*
X0153933Y0264661D01*
X0152699Y0264661D01*
X0152082Y0264044D01*
X0152082Y0261575D01*
X0152699Y0260958D01*
X0153933Y0260958D01*
X0154550Y0261575D01*
X0150492Y0212527D02*
X0149258Y0212527D01*
X0148641Y0211910D01*
X0148641Y0211293D01*
X0149258Y0210676D01*
X0150492Y0210676D01*
X0151110Y0210058D01*
X0151110Y0209441D01*
X0150492Y0208824D01*
X0149258Y0208824D01*
X0148641Y0209441D01*
X0148641Y0210058D01*
X0149258Y0210676D01*
X0150492Y0210676D02*
X0151110Y0211293D01*
X0151110Y0211910D01*
X0150492Y0212527D01*
X0147427Y0211910D02*
X0147427Y0210676D01*
X0146809Y0210058D01*
X0144958Y0210058D01*
X0144958Y0208824D02*
X0144958Y0212527D01*
X0146809Y0212527D01*
X0147427Y0211910D01*
X0146192Y0210058D02*
X0147427Y0208824D01*
X0216882Y0137161D02*
X0216265Y0136544D01*
X0216265Y0134075D01*
X0216882Y0133458D01*
X0218116Y0133458D01*
X0218734Y0134075D01*
X0219948Y0134075D02*
X0220565Y0133458D01*
X0221800Y0133458D01*
X0222417Y0134075D01*
X0222417Y0136544D01*
X0221800Y0137161D01*
X0220565Y0137161D01*
X0219948Y0136544D01*
X0219948Y0135927D01*
X0220565Y0135309D01*
X0222417Y0135309D01*
X0218734Y0136544D02*
X0218116Y0137161D01*
X0216882Y0137161D01*
X0224765Y0127161D02*
X0226616Y0127161D01*
X0227234Y0126544D01*
X0227234Y0125309D01*
X0226616Y0124692D01*
X0224765Y0124692D01*
X0224765Y0123458D02*
X0224765Y0127161D01*
X0225999Y0124692D02*
X0227234Y0123458D01*
X0228448Y0124075D02*
X0229065Y0123458D01*
X0230300Y0123458D01*
X0230917Y0124075D01*
X0230917Y0125309D01*
X0230300Y0125927D01*
X0229682Y0125927D01*
X0228448Y0125309D01*
X0228448Y0127161D01*
X0230917Y0127161D01*
X0234128Y0126744D02*
X0234128Y0124275D01*
X0235980Y0124275D01*
X0235362Y0125509D01*
X0235362Y0126126D01*
X0235980Y0126744D01*
X0237214Y0126744D01*
X0237831Y0126126D01*
X0237831Y0124892D01*
X0237214Y0124275D01*
X0237831Y0123060D02*
X0237831Y0120592D01*
X0235362Y0123060D01*
X0234745Y0123060D01*
X0234128Y0122443D01*
X0234128Y0121209D01*
X0234745Y0120592D01*
X0234745Y0119377D02*
X0234128Y0118760D01*
X0234128Y0117526D01*
X0234745Y0116908D01*
X0237214Y0116908D01*
X0237831Y0117526D01*
X0237831Y0118760D01*
X0237214Y0119377D01*
X0242628Y0118760D02*
X0242628Y0117526D01*
X0243245Y0116908D01*
X0245714Y0116908D01*
X0246331Y0117526D01*
X0246331Y0118760D01*
X0245714Y0119377D01*
X0246331Y0120592D02*
X0243862Y0123060D01*
X0243245Y0123060D01*
X0242628Y0122443D01*
X0242628Y0121209D01*
X0243245Y0120592D01*
X0243245Y0119377D02*
X0242628Y0118760D01*
X0246331Y0120592D02*
X0246331Y0123060D01*
X0244480Y0124275D02*
X0242628Y0126126D01*
X0246331Y0126126D01*
X0244480Y0126744D02*
X0244480Y0124275D01*
X0243734Y0133458D02*
X0241265Y0133458D01*
X0242499Y0133458D02*
X0242499Y0137161D01*
X0241265Y0135927D01*
X0240050Y0136544D02*
X0239433Y0137161D01*
X0238199Y0137161D01*
X0237582Y0136544D01*
X0237582Y0134075D01*
X0238199Y0133458D01*
X0239433Y0133458D01*
X0240050Y0134075D01*
X0244948Y0134075D02*
X0247417Y0136544D01*
X0247417Y0134075D01*
X0246800Y0133458D01*
X0245565Y0133458D01*
X0244948Y0134075D01*
X0244948Y0136544D01*
X0245565Y0137161D01*
X0246800Y0137161D01*
X0247417Y0136544D01*
X0254631Y0148442D02*
X0257767Y0151578D01*
X0256199Y0151578D02*
X0256199Y0148442D01*
X0257767Y0148442D02*
X0254631Y0151578D01*
X0254631Y0150010D02*
X0257767Y0150010D01*
X0289628Y0148293D02*
X0290245Y0147059D01*
X0291480Y0145824D01*
X0291480Y0147676D01*
X0292097Y0148293D01*
X0292714Y0148293D01*
X0293331Y0147676D01*
X0293331Y0146441D01*
X0292714Y0145824D01*
X0291480Y0145824D01*
X0290862Y0144610D02*
X0290245Y0144610D01*
X0289628Y0143993D01*
X0289628Y0142758D01*
X0290245Y0142141D01*
X0290245Y0140927D02*
X0289628Y0140309D01*
X0289628Y0139075D01*
X0290245Y0138458D01*
X0292714Y0138458D01*
X0293331Y0139075D01*
X0293331Y0140309D01*
X0292714Y0140927D01*
X0293331Y0142141D02*
X0290862Y0144610D01*
X0293331Y0144610D02*
X0293331Y0142141D01*
X0298128Y0142758D02*
X0298128Y0143993D01*
X0298745Y0144610D01*
X0299362Y0144610D01*
X0301831Y0142141D01*
X0301831Y0144610D01*
X0301831Y0145824D02*
X0301214Y0145824D01*
X0298745Y0148293D01*
X0298128Y0148293D01*
X0298128Y0145824D01*
X0298128Y0142758D02*
X0298745Y0142141D01*
X0298745Y0140927D02*
X0298128Y0140309D01*
X0298128Y0139075D01*
X0298745Y0138458D01*
X0301214Y0138458D01*
X0301831Y0139075D01*
X0301831Y0140309D01*
X0301214Y0140927D01*
X0333582Y0129544D02*
X0333582Y0127075D01*
X0334199Y0126458D01*
X0335433Y0126458D01*
X0336050Y0127075D01*
X0337265Y0126458D02*
X0339734Y0126458D01*
X0340948Y0126458D02*
X0340948Y0127075D01*
X0343417Y0129544D01*
X0343417Y0130161D01*
X0340948Y0130161D01*
X0338499Y0130161D02*
X0338499Y0126458D01*
X0337265Y0128927D02*
X0338499Y0130161D01*
X0336050Y0129544D02*
X0335433Y0130161D01*
X0334199Y0130161D01*
X0333582Y0129544D01*
X0348582Y0130161D02*
X0348582Y0126458D01*
X0348582Y0127692D02*
X0350433Y0127692D01*
X0351050Y0128309D01*
X0351050Y0129544D01*
X0350433Y0130161D01*
X0348582Y0130161D01*
X0349816Y0127692D02*
X0351050Y0126458D01*
X0352265Y0126458D02*
X0354734Y0128927D01*
X0354734Y0129544D01*
X0354116Y0130161D01*
X0352882Y0130161D01*
X0352265Y0129544D01*
X0352265Y0126458D02*
X0354734Y0126458D01*
X0355948Y0127075D02*
X0358417Y0129544D01*
X0358417Y0127075D01*
X0357800Y0126458D01*
X0356565Y0126458D01*
X0355948Y0127075D01*
X0355948Y0129544D01*
X0356565Y0130161D01*
X0357800Y0130161D01*
X0358417Y0129544D01*
X0356214Y0117793D02*
X0356831Y0117176D01*
X0356831Y0115941D01*
X0356214Y0115324D01*
X0355597Y0115324D01*
X0354980Y0115941D01*
X0354980Y0117176D01*
X0355597Y0117793D01*
X0356214Y0117793D01*
X0354980Y0117176D02*
X0354362Y0117793D01*
X0353745Y0117793D01*
X0353128Y0117176D01*
X0353128Y0115941D01*
X0353745Y0115324D01*
X0354362Y0115324D01*
X0354980Y0115941D01*
X0356831Y0114110D02*
X0356831Y0111641D01*
X0356831Y0112875D02*
X0353128Y0112875D01*
X0354362Y0111641D01*
X0353745Y0110427D02*
X0353128Y0109809D01*
X0353128Y0108575D01*
X0353745Y0107958D01*
X0356214Y0107958D01*
X0356831Y0108575D01*
X0356831Y0109809D01*
X0356214Y0110427D01*
X0349331Y0109760D02*
X0349331Y0108526D01*
X0348714Y0107908D01*
X0346245Y0107908D01*
X0345628Y0108526D01*
X0345628Y0109760D01*
X0346245Y0110377D01*
X0346245Y0111592D02*
X0345628Y0112209D01*
X0345628Y0113443D01*
X0346245Y0114060D01*
X0346862Y0114060D01*
X0349331Y0111592D01*
X0349331Y0114060D01*
X0348714Y0115275D02*
X0349331Y0115892D01*
X0349331Y0117126D01*
X0348714Y0117744D01*
X0348097Y0117744D01*
X0347480Y0117126D01*
X0347480Y0116509D01*
X0347480Y0117126D02*
X0346862Y0117744D01*
X0346245Y0117744D01*
X0345628Y0117126D01*
X0345628Y0115892D01*
X0346245Y0115275D01*
X0348714Y0110377D02*
X0349331Y0109760D01*
X0359131Y0098161D02*
X0360983Y0098161D01*
X0361600Y0097544D01*
X0361600Y0096309D01*
X0360983Y0095692D01*
X0359131Y0095692D01*
X0359131Y0094458D02*
X0359131Y0098161D01*
X0360365Y0095692D02*
X0361600Y0094458D01*
X0362814Y0095075D02*
X0363431Y0094458D01*
X0364666Y0094458D01*
X0365283Y0095075D01*
X0365283Y0095692D01*
X0364666Y0096309D01*
X0363431Y0096309D01*
X0362814Y0096927D01*
X0362814Y0097544D01*
X0363431Y0098161D01*
X0364666Y0098161D01*
X0365283Y0097544D01*
X0382131Y0114809D02*
X0384600Y0114809D01*
X0391631Y0114192D02*
X0392865Y0112958D01*
X0394100Y0114192D01*
X0394100Y0116661D01*
X0391631Y0116661D02*
X0391631Y0114192D01*
X0401131Y0114809D02*
X0403600Y0114809D01*
X0402365Y0113575D02*
X0402365Y0116044D01*
X0401365Y0104544D02*
X0401365Y0102075D01*
X0400131Y0103309D02*
X0402600Y0103309D01*
X0402600Y0093309D02*
X0400131Y0093309D01*
X0384822Y0062161D02*
X0382354Y0062161D01*
X0379905Y0062161D02*
X0379905Y0058458D01*
X0381139Y0058458D02*
X0378670Y0058458D01*
X0377456Y0059075D02*
X0376839Y0058458D01*
X0375604Y0058458D01*
X0374987Y0059075D01*
X0377456Y0061544D01*
X0377456Y0059075D01*
X0378670Y0060927D02*
X0379905Y0062161D01*
X0377456Y0061544D02*
X0376839Y0062161D01*
X0375604Y0062161D01*
X0374987Y0061544D01*
X0374987Y0059075D01*
X0373773Y0058458D02*
X0371304Y0058458D01*
X0373773Y0060927D01*
X0373773Y0061544D01*
X0373156Y0062161D01*
X0371921Y0062161D01*
X0371304Y0061544D01*
X0366407Y0060309D02*
X0365789Y0060927D01*
X0364555Y0060927D01*
X0363938Y0060309D01*
X0363938Y0059075D01*
X0364555Y0058458D01*
X0365789Y0058458D01*
X0366407Y0059075D01*
X0366407Y0060309D01*
X0362720Y0060927D02*
X0362103Y0060927D01*
X0360869Y0059692D01*
X0360869Y0058458D02*
X0360869Y0060927D01*
X0359647Y0060927D02*
X0358413Y0060927D01*
X0359030Y0061544D02*
X0359030Y0059075D01*
X0359647Y0058458D01*
X0357195Y0060927D02*
X0356578Y0060927D01*
X0355344Y0059692D01*
X0354129Y0059692D02*
X0351661Y0059692D01*
X0351661Y0059075D02*
X0351661Y0060309D01*
X0352278Y0060927D01*
X0353512Y0060927D01*
X0354129Y0060309D01*
X0354129Y0059692D01*
X0353512Y0058458D02*
X0352278Y0058458D01*
X0351661Y0059075D01*
X0350446Y0059075D02*
X0349829Y0058458D01*
X0347978Y0058458D01*
X0346763Y0058458D02*
X0346763Y0060309D01*
X0346146Y0060927D01*
X0345529Y0060309D01*
X0345529Y0058458D01*
X0344294Y0058458D02*
X0344294Y0060927D01*
X0344912Y0060927D01*
X0345529Y0060309D01*
X0347978Y0060927D02*
X0349829Y0060927D01*
X0350446Y0060309D01*
X0350446Y0059075D01*
X0347978Y0057223D02*
X0347978Y0060927D01*
X0349205Y0064958D02*
X0351674Y0064958D01*
X0352888Y0064958D02*
X0353506Y0064958D01*
X0353506Y0065575D01*
X0352888Y0065575D01*
X0352888Y0064958D01*
X0354730Y0065575D02*
X0357199Y0068044D01*
X0357199Y0065575D01*
X0356582Y0064958D01*
X0355347Y0064958D01*
X0354730Y0065575D01*
X0354730Y0068044D01*
X0355347Y0068661D01*
X0356582Y0068661D01*
X0357199Y0068044D01*
X0350440Y0068661D02*
X0350440Y0064958D01*
X0349205Y0067427D02*
X0350440Y0068661D01*
X0344298Y0065575D02*
X0344298Y0064958D01*
X0343681Y0064958D01*
X0343681Y0065575D01*
X0344298Y0065575D01*
X0342466Y0067427D02*
X0341232Y0064958D01*
X0339997Y0067427D01*
X0338783Y0066809D02*
X0338783Y0066192D01*
X0336314Y0066192D01*
X0336314Y0065575D02*
X0336314Y0066809D01*
X0336931Y0067427D01*
X0338166Y0067427D01*
X0338783Y0066809D01*
X0338166Y0064958D02*
X0336931Y0064958D01*
X0336314Y0065575D01*
X0335100Y0064958D02*
X0333865Y0066192D01*
X0334483Y0066192D02*
X0332631Y0066192D01*
X0332631Y0064958D02*
X0332631Y0068661D01*
X0334483Y0068661D01*
X0335100Y0068044D01*
X0335100Y0066809D01*
X0334483Y0066192D01*
X0333865Y0062161D02*
X0335100Y0060927D01*
X0335100Y0058458D01*
X0336314Y0058458D02*
X0336931Y0058458D01*
X0336931Y0059075D01*
X0336314Y0059075D01*
X0336314Y0058458D01*
X0335100Y0060309D02*
X0332631Y0060309D01*
X0332631Y0060927D02*
X0333865Y0062161D01*
X0332631Y0060927D02*
X0332631Y0058458D01*
X0341839Y0058458D02*
X0343073Y0058458D01*
X0342456Y0058458D02*
X0342456Y0062161D01*
X0341839Y0062161D02*
X0343073Y0062161D01*
X0355344Y0060927D02*
X0355344Y0058458D01*
X0382354Y0058458D02*
X0382354Y0059075D01*
X0384822Y0061544D01*
X0384822Y0062161D01*
X0340417Y0086075D02*
X0339800Y0085458D01*
X0338565Y0085458D01*
X0337948Y0086075D01*
X0336734Y0085458D02*
X0334265Y0085458D01*
X0334265Y0089161D01*
X0337948Y0088544D02*
X0338565Y0089161D01*
X0339800Y0089161D01*
X0340417Y0088544D01*
X0340417Y0087927D01*
X0339800Y0087309D01*
X0340417Y0086692D01*
X0340417Y0086075D01*
X0339800Y0087309D02*
X0339182Y0087309D01*
X0373315Y0122422D02*
X0376451Y0125558D01*
X0374883Y0125558D02*
X0374883Y0122422D01*
X0376451Y0122422D02*
X0373315Y0125558D01*
X0373315Y0123990D02*
X0376451Y0123990D01*
X0348800Y0186458D02*
X0348800Y0190161D01*
X0346948Y0188309D01*
X0349417Y0188309D01*
X0345734Y0186458D02*
X0343265Y0186458D01*
X0342050Y0186458D02*
X0340816Y0187692D01*
X0341433Y0187692D02*
X0339582Y0187692D01*
X0339582Y0186458D02*
X0339582Y0190161D01*
X0341433Y0190161D01*
X0342050Y0189544D01*
X0342050Y0188309D01*
X0341433Y0187692D01*
X0343265Y0188927D02*
X0344499Y0190161D01*
X0344499Y0186458D01*
X0365128Y0193408D02*
X0365128Y0195260D01*
X0365745Y0195877D01*
X0366980Y0195877D01*
X0367597Y0195260D01*
X0367597Y0193408D01*
X0368831Y0193408D02*
X0365128Y0193408D01*
X0367597Y0194643D02*
X0368831Y0195877D01*
X0368831Y0197092D02*
X0368831Y0199560D01*
X0368831Y0198326D02*
X0365128Y0198326D01*
X0366362Y0197092D01*
X0365745Y0200775D02*
X0365128Y0201392D01*
X0365128Y0202626D01*
X0365745Y0203244D01*
X0366362Y0203244D01*
X0366980Y0202626D01*
X0367597Y0203244D01*
X0368214Y0203244D01*
X0368831Y0202626D01*
X0368831Y0201392D01*
X0368214Y0200775D01*
X0366980Y0202009D02*
X0366980Y0202626D01*
X0373628Y0202626D02*
X0373628Y0201392D01*
X0374245Y0200775D01*
X0373628Y0202626D02*
X0374245Y0203244D01*
X0374862Y0203244D01*
X0377331Y0200775D01*
X0377331Y0203244D01*
X0377331Y0199560D02*
X0377331Y0197092D01*
X0377331Y0195877D02*
X0376097Y0194643D01*
X0376097Y0195260D02*
X0376097Y0193408D01*
X0377331Y0193408D02*
X0373628Y0193408D01*
X0373628Y0195260D01*
X0374245Y0195877D01*
X0375480Y0195877D01*
X0376097Y0195260D01*
X0374862Y0197092D02*
X0373628Y0198326D01*
X0377331Y0198326D01*
X0382801Y0198267D02*
X0386504Y0198267D01*
X0386504Y0197033D02*
X0386504Y0199501D01*
X0385887Y0200716D02*
X0386504Y0201333D01*
X0386504Y0202567D01*
X0385887Y0203184D01*
X0384653Y0203184D01*
X0384036Y0202567D01*
X0384036Y0201950D01*
X0384653Y0200716D01*
X0382801Y0200716D01*
X0382801Y0203184D01*
X0382801Y0198267D02*
X0384036Y0197033D01*
X0384653Y0195818D02*
X0385270Y0195201D01*
X0385270Y0193349D01*
X0386504Y0193349D02*
X0382801Y0193349D01*
X0382801Y0195201D01*
X0383418Y0195818D01*
X0384653Y0195818D01*
X0385270Y0194584D02*
X0386504Y0195818D01*
X0410631Y0189661D02*
X0413100Y0185958D01*
X0414314Y0185958D02*
X0416783Y0188427D01*
X0416783Y0189044D01*
X0416166Y0189661D01*
X0414931Y0189661D01*
X0414314Y0189044D01*
X0413100Y0189661D02*
X0410631Y0185958D01*
X0414314Y0185958D02*
X0416783Y0185958D01*
X0379349Y0225958D02*
X0379966Y0226575D01*
X0379966Y0227192D01*
X0379349Y0227809D01*
X0377497Y0227809D01*
X0377497Y0226575D01*
X0378115Y0225958D01*
X0379349Y0225958D01*
X0377497Y0227809D02*
X0378732Y0229044D01*
X0379966Y0229661D01*
X0375049Y0229661D02*
X0375049Y0225958D01*
X0376283Y0225958D02*
X0373814Y0225958D01*
X0372600Y0225958D02*
X0371365Y0227192D01*
X0371983Y0227192D02*
X0370131Y0227192D01*
X0370131Y0225958D02*
X0370131Y0229661D01*
X0371983Y0229661D01*
X0372600Y0229044D01*
X0372600Y0227809D01*
X0371983Y0227192D01*
X0373814Y0228427D02*
X0375049Y0229661D01*
X0375049Y0235958D02*
X0375049Y0239661D01*
X0373814Y0238427D01*
X0372600Y0239044D02*
X0372600Y0237809D01*
X0371983Y0237192D01*
X0370131Y0237192D01*
X0370131Y0235958D02*
X0370131Y0239661D01*
X0371983Y0239661D01*
X0372600Y0239044D01*
X0371365Y0237192D02*
X0372600Y0235958D01*
X0373814Y0235958D02*
X0376283Y0235958D01*
X0377497Y0235958D02*
X0377497Y0236575D01*
X0379966Y0239044D01*
X0379966Y0239661D01*
X0377497Y0239661D01*
X0375666Y0245958D02*
X0375666Y0249661D01*
X0373814Y0247809D01*
X0376283Y0247809D01*
X0372600Y0247809D02*
X0371983Y0247192D01*
X0370131Y0247192D01*
X0370131Y0245958D02*
X0370131Y0249661D01*
X0371983Y0249661D01*
X0372600Y0249044D01*
X0372600Y0247809D01*
X0371365Y0247192D02*
X0372600Y0245958D01*
X0354331Y0228744D02*
X0354331Y0226275D01*
X0351862Y0228744D01*
X0351245Y0228744D01*
X0350628Y0228126D01*
X0350628Y0226892D01*
X0351245Y0226275D01*
X0351245Y0225060D02*
X0350628Y0224443D01*
X0350628Y0223209D01*
X0351245Y0222592D01*
X0351245Y0221377D02*
X0350628Y0220760D01*
X0350628Y0219526D01*
X0351245Y0218908D01*
X0353714Y0218908D01*
X0354331Y0219526D01*
X0354331Y0220760D01*
X0353714Y0221377D01*
X0354331Y0222592D02*
X0351862Y0225060D01*
X0351245Y0225060D01*
X0354331Y0225060D02*
X0354331Y0222592D01*
X0345331Y0222592D02*
X0342862Y0225060D01*
X0342245Y0225060D01*
X0341628Y0224443D01*
X0341628Y0223209D01*
X0342245Y0222592D01*
X0342245Y0221377D02*
X0341628Y0220760D01*
X0341628Y0219526D01*
X0342245Y0218908D01*
X0344714Y0218908D01*
X0345331Y0219526D01*
X0345331Y0220760D01*
X0344714Y0221377D01*
X0345331Y0222592D02*
X0345331Y0225060D01*
X0345331Y0226275D02*
X0345331Y0228744D01*
X0345331Y0227509D02*
X0341628Y0227509D01*
X0342862Y0226275D01*
X0338800Y0222661D02*
X0339417Y0222044D01*
X0339417Y0221427D01*
X0338800Y0220809D01*
X0339417Y0220192D01*
X0339417Y0219575D01*
X0338800Y0218958D01*
X0337565Y0218958D01*
X0336948Y0219575D01*
X0335734Y0219575D02*
X0335116Y0218958D01*
X0333882Y0218958D01*
X0333265Y0219575D01*
X0333265Y0222044D01*
X0333882Y0222661D01*
X0335116Y0222661D01*
X0335734Y0222044D01*
X0336948Y0222044D02*
X0337565Y0222661D01*
X0338800Y0222661D01*
X0338800Y0220809D02*
X0338182Y0220809D01*
X0332044Y0218958D02*
X0330809Y0218958D01*
X0331427Y0218958D02*
X0331427Y0222661D01*
X0332044Y0222661D02*
X0330809Y0222661D01*
X0318331Y0222927D02*
X0317097Y0221692D01*
X0317097Y0222309D02*
X0317097Y0220458D01*
X0318331Y0220458D02*
X0314628Y0220458D01*
X0314628Y0222309D01*
X0315245Y0222927D01*
X0316480Y0222927D01*
X0317097Y0222309D01*
X0318331Y0224141D02*
X0318331Y0226610D01*
X0318331Y0225375D02*
X0314628Y0225375D01*
X0315862Y0224141D01*
X0315862Y0227824D02*
X0315245Y0227824D01*
X0314628Y0228441D01*
X0314628Y0229676D01*
X0315245Y0230293D01*
X0315862Y0230293D01*
X0316480Y0229676D01*
X0316480Y0228441D01*
X0315862Y0227824D01*
X0316480Y0228441D02*
X0317097Y0227824D01*
X0317714Y0227824D01*
X0318331Y0228441D01*
X0318331Y0229676D01*
X0317714Y0230293D01*
X0317097Y0230293D01*
X0316480Y0229676D01*
X0317245Y0212744D02*
X0316628Y0212126D01*
X0316628Y0210892D01*
X0317245Y0210275D01*
X0317862Y0210275D01*
X0318480Y0210892D01*
X0318480Y0212744D01*
X0319714Y0212744D02*
X0317245Y0212744D01*
X0319714Y0212744D02*
X0320331Y0212126D01*
X0320331Y0210892D01*
X0319714Y0210275D01*
X0320331Y0209060D02*
X0320331Y0206592D01*
X0320331Y0205377D02*
X0319097Y0204143D01*
X0319097Y0204760D02*
X0319097Y0202908D01*
X0320331Y0202908D02*
X0316628Y0202908D01*
X0316628Y0204760D01*
X0317245Y0205377D01*
X0318480Y0205377D01*
X0319097Y0204760D01*
X0317862Y0206592D02*
X0316628Y0207826D01*
X0320331Y0207826D01*
X0311831Y0207826D02*
X0308128Y0207826D01*
X0309362Y0206592D01*
X0308745Y0205377D02*
X0308128Y0204760D01*
X0308128Y0203526D01*
X0308745Y0202908D01*
X0311214Y0202908D01*
X0311831Y0203526D01*
X0311831Y0204760D01*
X0311214Y0205377D01*
X0311831Y0206592D02*
X0311831Y0209060D01*
X0311831Y0210275D02*
X0309362Y0212744D01*
X0308745Y0212744D01*
X0308128Y0212126D01*
X0308128Y0210892D01*
X0308745Y0210275D01*
X0311831Y0210275D02*
X0311831Y0212744D01*
X0311214Y0198244D02*
X0308745Y0198244D01*
X0308128Y0197626D01*
X0308128Y0196392D01*
X0308745Y0195775D01*
X0309362Y0195775D01*
X0309980Y0196392D01*
X0309980Y0198244D01*
X0311214Y0198244D02*
X0311831Y0197626D01*
X0311831Y0196392D01*
X0311214Y0195775D01*
X0311831Y0194560D02*
X0311831Y0192092D01*
X0311831Y0193326D02*
X0308128Y0193326D01*
X0309362Y0192092D01*
X0308745Y0190877D02*
X0308128Y0190260D01*
X0308128Y0189026D01*
X0308745Y0188408D01*
X0311214Y0188408D01*
X0311831Y0189026D01*
X0311831Y0190260D01*
X0311214Y0190877D01*
X0316628Y0190260D02*
X0316628Y0189026D01*
X0317245Y0188408D01*
X0319714Y0188408D01*
X0320331Y0189026D01*
X0320331Y0190260D01*
X0319714Y0190877D01*
X0320331Y0192092D02*
X0317862Y0194560D01*
X0317245Y0194560D01*
X0316628Y0193943D01*
X0316628Y0192709D01*
X0317245Y0192092D01*
X0317245Y0190877D02*
X0316628Y0190260D01*
X0320331Y0192092D02*
X0320331Y0194560D01*
X0319714Y0195775D02*
X0317245Y0198244D01*
X0319714Y0198244D01*
X0320331Y0197626D01*
X0320331Y0196392D01*
X0319714Y0195775D01*
X0317245Y0195775D01*
X0316628Y0196392D01*
X0316628Y0197626D01*
X0317245Y0198244D01*
X0243715Y0271458D02*
X0242481Y0271458D01*
X0241864Y0272075D01*
X0241864Y0274544D01*
X0242481Y0275161D01*
X0243715Y0275161D01*
X0244332Y0274544D01*
X0244332Y0273309D02*
X0243098Y0273309D01*
X0244332Y0273309D02*
X0244332Y0272075D01*
X0243715Y0271458D01*
X0240649Y0271458D02*
X0238181Y0271458D01*
X0238181Y0275161D01*
X0240649Y0275161D01*
X0239415Y0273309D02*
X0238181Y0273309D01*
X0236966Y0273309D02*
X0236349Y0272692D01*
X0234497Y0272692D01*
X0234497Y0271458D02*
X0234497Y0275161D01*
X0236349Y0275161D01*
X0236966Y0274544D01*
X0236966Y0273309D01*
X0235732Y0272692D02*
X0236966Y0271458D01*
X0229600Y0272692D02*
X0229600Y0275161D01*
X0229600Y0272692D02*
X0228365Y0271458D01*
X0227131Y0272692D01*
X0227131Y0275161D01*
X0246128Y0288026D02*
X0246745Y0287408D01*
X0249214Y0287408D01*
X0249831Y0288026D01*
X0249831Y0289260D01*
X0249214Y0289877D01*
X0249831Y0291092D02*
X0247362Y0293560D01*
X0246745Y0293560D01*
X0246128Y0292943D01*
X0246128Y0291709D01*
X0246745Y0291092D01*
X0246745Y0289877D02*
X0246128Y0289260D01*
X0246128Y0288026D01*
X0249831Y0291092D02*
X0249831Y0293560D01*
X0249214Y0294775D02*
X0248597Y0294775D01*
X0247980Y0295392D01*
X0247980Y0296626D01*
X0248597Y0297244D01*
X0249214Y0297244D01*
X0249831Y0296626D01*
X0249831Y0295392D01*
X0249214Y0294775D01*
X0247980Y0295392D02*
X0247362Y0294775D01*
X0246745Y0294775D01*
X0246128Y0295392D01*
X0246128Y0296626D01*
X0246745Y0297244D01*
X0247362Y0297244D01*
X0247980Y0296626D01*
X0255128Y0297244D02*
X0255128Y0294775D01*
X0256980Y0294775D01*
X0256362Y0296009D01*
X0256362Y0296626D01*
X0256980Y0297244D01*
X0258214Y0297244D01*
X0258831Y0296626D01*
X0258831Y0295392D01*
X0258214Y0294775D01*
X0258831Y0293560D02*
X0258831Y0291092D01*
X0256362Y0293560D01*
X0255745Y0293560D01*
X0255128Y0292943D01*
X0255128Y0291709D01*
X0255745Y0291092D01*
X0255745Y0289877D02*
X0256980Y0289877D01*
X0257597Y0289260D01*
X0257597Y0287408D01*
X0258831Y0287408D02*
X0255128Y0287408D01*
X0255128Y0289260D01*
X0255745Y0289877D01*
X0257597Y0288643D02*
X0258831Y0289877D01*
X0264128Y0289260D02*
X0264745Y0289877D01*
X0265980Y0289877D01*
X0266597Y0289260D01*
X0266597Y0287408D01*
X0267831Y0287408D02*
X0264128Y0287408D01*
X0264128Y0289260D01*
X0264745Y0291092D02*
X0264128Y0291709D01*
X0264128Y0292943D01*
X0264745Y0293560D01*
X0265362Y0293560D01*
X0267831Y0291092D01*
X0267831Y0293560D01*
X0267214Y0294775D02*
X0267831Y0295392D01*
X0267831Y0296626D01*
X0267214Y0297244D01*
X0266597Y0297244D01*
X0265980Y0296626D01*
X0265980Y0296009D01*
X0265980Y0296626D02*
X0265362Y0297244D01*
X0264745Y0297244D01*
X0264128Y0296626D01*
X0264128Y0295392D01*
X0264745Y0294775D01*
X0267831Y0289877D02*
X0266597Y0288643D01*
X0265513Y0303958D02*
X0263578Y0303958D01*
X0265513Y0305893D01*
X0265513Y0306377D01*
X0265029Y0306860D01*
X0264061Y0306860D01*
X0263578Y0306377D01*
X0262566Y0306860D02*
X0260631Y0306860D01*
X0261599Y0306860D02*
X0261599Y0303958D01*
X0262628Y0316908D02*
X0262628Y0318760D01*
X0263245Y0319377D01*
X0264480Y0319377D01*
X0265097Y0318760D01*
X0265097Y0316908D01*
X0266331Y0316908D02*
X0262628Y0316908D01*
X0265097Y0318143D02*
X0266331Y0319377D01*
X0266331Y0320592D02*
X0263862Y0323060D01*
X0263245Y0323060D01*
X0262628Y0322443D01*
X0262628Y0321209D01*
X0263245Y0320592D01*
X0266331Y0320592D02*
X0266331Y0323060D01*
X0265714Y0324275D02*
X0266331Y0324892D01*
X0266331Y0326126D01*
X0265714Y0326744D01*
X0265097Y0326744D01*
X0264480Y0326126D01*
X0264480Y0324275D01*
X0265714Y0324275D01*
X0264480Y0324275D02*
X0263245Y0325509D01*
X0262628Y0326744D01*
X0262499Y0330458D02*
X0262499Y0334161D01*
X0261265Y0334161D02*
X0263734Y0334161D01*
X0264948Y0333544D02*
X0265565Y0334161D01*
X0266800Y0334161D01*
X0267417Y0333544D01*
X0267417Y0332927D01*
X0266800Y0332309D01*
X0267417Y0331692D01*
X0267417Y0331075D01*
X0266800Y0330458D01*
X0265565Y0330458D01*
X0264948Y0331075D01*
X0266182Y0332309D02*
X0266800Y0332309D01*
X0257831Y0324275D02*
X0257214Y0324275D01*
X0254745Y0326744D01*
X0254128Y0326744D01*
X0254128Y0324275D01*
X0254745Y0323060D02*
X0254128Y0322443D01*
X0254128Y0321209D01*
X0254745Y0320592D01*
X0254745Y0319377D02*
X0255980Y0319377D01*
X0256597Y0318760D01*
X0256597Y0316908D01*
X0257831Y0316908D02*
X0254128Y0316908D01*
X0254128Y0318760D01*
X0254745Y0319377D01*
X0256597Y0318143D02*
X0257831Y0319377D01*
X0257831Y0320592D02*
X0255362Y0323060D01*
X0254745Y0323060D01*
X0257831Y0323060D02*
X0257831Y0320592D01*
X0248831Y0320592D02*
X0246362Y0323060D01*
X0245745Y0323060D01*
X0245128Y0322443D01*
X0245128Y0321209D01*
X0245745Y0320592D01*
X0245745Y0319377D02*
X0246980Y0319377D01*
X0247597Y0318760D01*
X0247597Y0316908D01*
X0248831Y0316908D02*
X0245128Y0316908D01*
X0245128Y0318760D01*
X0245745Y0319377D01*
X0247597Y0318143D02*
X0248831Y0319377D01*
X0248831Y0320592D02*
X0248831Y0323060D01*
X0248214Y0324275D02*
X0247597Y0324275D01*
X0246980Y0324892D01*
X0246980Y0326126D01*
X0247597Y0326744D01*
X0248214Y0326744D01*
X0248831Y0326126D01*
X0248831Y0324892D01*
X0248214Y0324275D01*
X0246980Y0324892D02*
X0246362Y0324275D01*
X0245745Y0324275D01*
X0245128Y0324892D01*
X0245128Y0326126D01*
X0245745Y0326744D01*
X0246362Y0326744D01*
X0246980Y0326126D01*
X0240831Y0326126D02*
X0240214Y0326744D01*
X0237745Y0326744D01*
X0237128Y0326126D01*
X0237128Y0324892D01*
X0237745Y0324275D01*
X0238362Y0324275D01*
X0238980Y0324892D01*
X0238980Y0326744D01*
X0240831Y0326126D02*
X0240831Y0324892D01*
X0240214Y0324275D01*
X0240831Y0323060D02*
X0240831Y0320592D01*
X0238362Y0323060D01*
X0237745Y0323060D01*
X0237128Y0322443D01*
X0237128Y0321209D01*
X0237745Y0320592D01*
X0237745Y0319377D02*
X0238980Y0319377D01*
X0239597Y0318760D01*
X0239597Y0316908D01*
X0240831Y0316908D02*
X0237128Y0316908D01*
X0237128Y0318760D01*
X0237745Y0319377D01*
X0239597Y0318143D02*
X0240831Y0319377D01*
X0238666Y0341958D02*
X0238666Y0345661D01*
X0236814Y0343809D01*
X0239283Y0343809D01*
X0235600Y0345661D02*
X0233131Y0345661D01*
X0234365Y0345661D02*
X0234365Y0341958D01*
X0233383Y0349458D02*
X0234000Y0350075D01*
X0234000Y0353161D01*
X0235214Y0352544D02*
X0235831Y0353161D01*
X0237066Y0353161D01*
X0237683Y0352544D01*
X0237683Y0351927D01*
X0237066Y0351309D01*
X0237683Y0350692D01*
X0237683Y0350075D01*
X0237066Y0349458D01*
X0235831Y0349458D01*
X0235214Y0350075D01*
X0236449Y0351309D02*
X0237066Y0351309D01*
X0233383Y0349458D02*
X0232148Y0349458D01*
X0231531Y0350075D01*
X0231531Y0353161D01*
X0241495Y0353374D02*
X0244631Y0350238D01*
X0244631Y0351806D02*
X0241495Y0351806D01*
X0241495Y0350238D02*
X0244631Y0353374D01*
X0243063Y0353374D02*
X0243063Y0350238D01*
X0254128Y0350709D02*
X0254128Y0351943D01*
X0254745Y0352560D01*
X0255362Y0352560D01*
X0255980Y0351943D01*
X0256597Y0352560D01*
X0257214Y0352560D01*
X0257831Y0351943D01*
X0257831Y0350709D01*
X0257214Y0350092D01*
X0257831Y0348877D02*
X0256597Y0347643D01*
X0256597Y0348260D02*
X0256597Y0346408D01*
X0257831Y0346408D02*
X0254128Y0346408D01*
X0254128Y0348260D01*
X0254745Y0348877D01*
X0255980Y0348877D01*
X0256597Y0348260D01*
X0254745Y0350092D02*
X0254128Y0350709D01*
X0255980Y0351326D02*
X0255980Y0351943D01*
X0257214Y0353775D02*
X0254745Y0356244D01*
X0257214Y0356244D01*
X0257831Y0355626D01*
X0257831Y0354392D01*
X0257214Y0353775D01*
X0254745Y0353775D01*
X0254128Y0354392D01*
X0254128Y0355626D01*
X0254745Y0356244D01*
X0262628Y0355009D02*
X0266331Y0355009D01*
X0266331Y0353775D02*
X0266331Y0356244D01*
X0263862Y0353775D02*
X0262628Y0355009D01*
X0263245Y0352560D02*
X0263862Y0352560D01*
X0264480Y0351943D01*
X0265097Y0352560D01*
X0265714Y0352560D01*
X0266331Y0351943D01*
X0266331Y0350709D01*
X0265714Y0350092D01*
X0266331Y0348877D02*
X0265097Y0347643D01*
X0265097Y0348260D02*
X0265097Y0346408D01*
X0266331Y0346408D02*
X0262628Y0346408D01*
X0262628Y0348260D01*
X0263245Y0348877D01*
X0264480Y0348877D01*
X0265097Y0348260D01*
X0263245Y0350092D02*
X0262628Y0350709D01*
X0262628Y0351943D01*
X0263245Y0352560D01*
X0264480Y0351943D02*
X0264480Y0351326D01*
X0290131Y0350661D02*
X0290131Y0348192D01*
X0291365Y0346958D01*
X0292600Y0348192D01*
X0292600Y0350661D01*
X0293814Y0348809D02*
X0296283Y0348809D01*
X0291365Y0356958D02*
X0292600Y0358192D01*
X0292600Y0360661D01*
X0293814Y0358809D02*
X0296283Y0358809D01*
X0295049Y0360044D02*
X0295049Y0357575D01*
X0291365Y0356958D02*
X0290131Y0358192D01*
X0290131Y0360661D01*
X0315559Y0326813D02*
X0314942Y0326195D01*
X0314942Y0323727D01*
X0315559Y0323109D01*
X0316794Y0323109D01*
X0317411Y0323727D01*
X0318625Y0323727D02*
X0319242Y0323109D01*
X0320477Y0323109D01*
X0321094Y0323727D01*
X0321094Y0324344D01*
X0320477Y0324961D01*
X0318625Y0324961D01*
X0318625Y0323727D01*
X0318625Y0324961D02*
X0319860Y0326195D01*
X0321094Y0326813D01*
X0317411Y0326195D02*
X0316794Y0326813D01*
X0315559Y0326813D01*
X0308149Y0320044D02*
X0307532Y0320661D01*
X0306298Y0320661D01*
X0305681Y0320044D01*
X0304466Y0320044D02*
X0303849Y0320661D01*
X0301997Y0320661D01*
X0301997Y0316958D01*
X0303849Y0316958D01*
X0304466Y0317575D01*
X0304466Y0320044D01*
X0305681Y0316958D02*
X0308149Y0319427D01*
X0308149Y0320044D01*
X0308149Y0316958D02*
X0305681Y0316958D01*
X0300783Y0316958D02*
X0298314Y0316958D01*
X0298314Y0320661D01*
X0300783Y0320661D01*
X0299549Y0318809D02*
X0298314Y0318809D01*
X0297100Y0316958D02*
X0294631Y0316958D01*
X0294631Y0320661D01*
X0291732Y0320661D02*
X0291732Y0316958D01*
X0292966Y0316958D02*
X0290497Y0316958D01*
X0289283Y0316958D02*
X0286814Y0316958D01*
X0289283Y0319427D01*
X0289283Y0320044D01*
X0288666Y0320661D01*
X0287431Y0320661D01*
X0286814Y0320044D01*
X0285600Y0320044D02*
X0285600Y0318809D01*
X0284983Y0318192D01*
X0283131Y0318192D01*
X0283131Y0316958D02*
X0283131Y0320661D01*
X0284983Y0320661D01*
X0285600Y0320044D01*
X0284365Y0318192D02*
X0285600Y0316958D01*
X0290497Y0319427D02*
X0291732Y0320661D01*
X0343312Y0320515D02*
X0343312Y0316812D01*
X0345781Y0316812D01*
X0346995Y0316812D02*
X0349464Y0319281D01*
X0349464Y0319898D01*
X0348847Y0320515D01*
X0347612Y0320515D01*
X0346995Y0319898D01*
X0346995Y0316812D02*
X0349464Y0316812D01*
X0412131Y0254661D02*
X0414600Y0250958D01*
X0415814Y0250958D02*
X0418283Y0250958D01*
X0417049Y0250958D02*
X0417049Y0254661D01*
X0415814Y0253427D01*
X0414600Y0254661D02*
X0412131Y0250958D01*
X0264331Y0107744D02*
X0264331Y0105275D01*
X0264331Y0104060D02*
X0264331Y0101592D01*
X0264331Y0102826D02*
X0260628Y0102826D01*
X0261862Y0101592D01*
X0261245Y0100377D02*
X0260628Y0099760D01*
X0260628Y0098526D01*
X0261245Y0097908D01*
X0263714Y0097908D01*
X0264331Y0098526D01*
X0264331Y0099760D01*
X0263714Y0100377D01*
X0261862Y0105275D02*
X0260628Y0106509D01*
X0264331Y0106509D01*
X0249417Y0108958D02*
X0246948Y0108958D01*
X0249417Y0111427D01*
X0249417Y0112044D01*
X0248800Y0112661D01*
X0247565Y0112661D01*
X0246948Y0112044D01*
X0245734Y0111427D02*
X0245734Y0108958D01*
X0245734Y0110809D02*
X0243265Y0110809D01*
X0243265Y0111427D02*
X0244499Y0112661D01*
X0245734Y0111427D01*
X0243265Y0111427D02*
X0243265Y0108958D01*
X0242050Y0108958D02*
X0240816Y0110192D01*
X0241433Y0110192D02*
X0239582Y0110192D01*
X0239582Y0108958D02*
X0239582Y0112661D01*
X0241433Y0112661D01*
X0242050Y0112044D01*
X0242050Y0110809D01*
X0241433Y0110192D01*
X0232917Y0108958D02*
X0230448Y0108958D01*
X0229234Y0108958D02*
X0229234Y0111427D01*
X0227999Y0112661D01*
X0226765Y0111427D01*
X0226765Y0108958D01*
X0225550Y0108958D02*
X0224316Y0110192D01*
X0224933Y0110192D02*
X0223082Y0110192D01*
X0223082Y0108958D02*
X0223082Y0112661D01*
X0224933Y0112661D01*
X0225550Y0112044D01*
X0225550Y0110809D01*
X0224933Y0110192D01*
X0226765Y0110809D02*
X0229234Y0110809D01*
X0230448Y0111427D02*
X0231682Y0112661D01*
X0231682Y0108958D01*
X0252265Y0081661D02*
X0254116Y0081661D01*
X0254734Y0081044D01*
X0254734Y0079809D01*
X0254116Y0079192D01*
X0252265Y0079192D01*
X0252265Y0077958D02*
X0252265Y0081661D01*
X0253499Y0079192D02*
X0254734Y0077958D01*
X0255948Y0078575D02*
X0256565Y0077958D01*
X0257800Y0077958D01*
X0258417Y0078575D01*
X0258417Y0081044D01*
X0257800Y0081661D01*
X0256565Y0081661D01*
X0255948Y0081044D01*
X0255948Y0080427D01*
X0256565Y0079809D01*
X0258417Y0079809D01*
X0261582Y0079192D02*
X0263433Y0079192D01*
X0264050Y0079809D01*
X0264050Y0081044D01*
X0263433Y0081661D01*
X0261582Y0081661D01*
X0261582Y0077958D01*
X0262816Y0079192D02*
X0264050Y0077958D01*
X0265265Y0077958D02*
X0267734Y0077958D01*
X0266499Y0077958D02*
X0266499Y0081661D01*
X0265265Y0080427D01*
X0268948Y0081044D02*
X0269565Y0081661D01*
X0270800Y0081661D01*
X0271417Y0081044D01*
X0268948Y0078575D01*
X0269565Y0077958D01*
X0270800Y0077958D01*
X0271417Y0078575D01*
X0271417Y0081044D01*
X0268948Y0081044D02*
X0268948Y0078575D01*
X0173417Y0122575D02*
X0173417Y0123192D01*
X0172800Y0123809D01*
X0170948Y0123809D01*
X0170948Y0122575D01*
X0171565Y0121958D01*
X0172800Y0121958D01*
X0173417Y0122575D01*
X0172182Y0125044D02*
X0170948Y0123809D01*
X0169734Y0123809D02*
X0169116Y0123192D01*
X0167265Y0123192D01*
X0167265Y0121958D02*
X0167265Y0125661D01*
X0169116Y0125661D01*
X0169734Y0125044D01*
X0169734Y0123809D01*
X0168499Y0123192D02*
X0169734Y0121958D01*
X0172182Y0125044D02*
X0173417Y0125661D01*
X0083917Y0093476D02*
X0081448Y0091007D01*
X0082065Y0091624D02*
X0083917Y0089773D01*
X0083917Y0088476D02*
X0083917Y0087859D01*
X0081448Y0085390D01*
X0081448Y0084773D01*
X0080234Y0084773D02*
X0078999Y0086007D01*
X0079616Y0086007D02*
X0077765Y0086007D01*
X0077765Y0084773D02*
X0077765Y0088476D01*
X0079616Y0088476D01*
X0080234Y0087859D01*
X0080234Y0086624D01*
X0079616Y0086007D01*
X0081448Y0088476D02*
X0083917Y0088476D01*
X0081448Y0089773D02*
X0081448Y0093476D01*
X0080234Y0092859D02*
X0077765Y0090390D01*
X0078382Y0089773D01*
X0079616Y0089773D01*
X0080234Y0090390D01*
X0080234Y0092859D01*
X0079616Y0093476D01*
X0078382Y0093476D01*
X0077765Y0092859D01*
X0077765Y0090390D01*
X0076550Y0089773D02*
X0074082Y0089773D01*
X0075316Y0089773D02*
X0075316Y0093476D01*
X0074082Y0092242D01*
D12*
X0187881Y0353308D03*
D13*
X0186839Y0374123D02*
X0169123Y0374123D01*
X0169123Y0376387D01*
X0169123Y0388493D02*
X0186839Y0388493D01*
X0186839Y0386229D01*
X0186839Y0376387D02*
X0186839Y0374123D01*
X0208623Y0356615D02*
X0208623Y0320001D01*
X0226339Y0320001D01*
X0226339Y0356615D01*
X0208623Y0356615D01*
X0191839Y0324493D02*
X0191839Y0322229D01*
X0191839Y0324493D02*
X0174123Y0324493D01*
X0174123Y0322229D01*
X0174123Y0312387D02*
X0174123Y0310123D01*
X0191839Y0310123D01*
X0191830Y0311255D01*
X0191839Y0312387D01*
X0169123Y0386229D02*
X0169132Y0387361D01*
X0169123Y0388493D01*
D14*
X0182410Y0387213D03*
X0182410Y0375402D03*
X0178552Y0323213D03*
X0178552Y0311402D03*
D15*
X0311347Y0333308D03*
X0313616Y0373308D03*
D16*
X0257481Y0377808D02*
X0254981Y0375308D01*
X0249981Y0375308D01*
X0247481Y0377808D01*
X0244981Y0375308D01*
X0239981Y0375308D01*
X0237481Y0377808D01*
X0237481Y0382808D01*
X0239981Y0385308D01*
X0244981Y0385308D01*
X0247481Y0382808D01*
X0249981Y0385308D01*
X0254981Y0385308D01*
X0257481Y0382808D01*
X0257481Y0377808D01*
X0247481Y0377808D02*
X0247481Y0382808D01*
X0238081Y0365708D02*
X0234681Y0365708D01*
X0234681Y0362208D01*
X0234681Y0357408D02*
X0234681Y0353908D01*
X0236281Y0353908D01*
X0238081Y0353908D01*
X0237581Y0355108D02*
X0237513Y0355112D01*
X0237444Y0355111D01*
X0237376Y0355107D01*
X0237308Y0355099D01*
X0237240Y0355088D01*
X0237173Y0355072D01*
X0237107Y0355052D01*
X0237043Y0355029D01*
X0236980Y0355002D01*
X0236918Y0354972D01*
X0236859Y0354938D01*
X0236801Y0354901D01*
X0236746Y0354860D01*
X0236693Y0354817D01*
X0236642Y0354770D01*
X0236595Y0354721D01*
X0236550Y0354669D01*
X0236508Y0354614D01*
X0236469Y0354558D01*
X0236434Y0354499D01*
X0236402Y0354438D01*
X0236374Y0354376D01*
X0236349Y0354311D01*
X0236328Y0354246D01*
X0236311Y0354180D01*
X0236298Y0354112D01*
X0236288Y0354045D01*
X0236283Y0353976D01*
X0236281Y0353908D01*
X0240281Y0358408D02*
X0240281Y0361208D01*
X0213146Y0328269D02*
X0213148Y0328401D01*
X0213154Y0328532D01*
X0213164Y0328663D01*
X0213178Y0328794D01*
X0213196Y0328924D01*
X0213218Y0329054D01*
X0213243Y0329183D01*
X0213273Y0329311D01*
X0213307Y0329439D01*
X0213344Y0329565D01*
X0213385Y0329690D01*
X0213430Y0329813D01*
X0213479Y0329936D01*
X0213532Y0330056D01*
X0213588Y0330175D01*
X0213647Y0330293D01*
X0213710Y0330408D01*
X0213777Y0330521D01*
X0213847Y0330633D01*
X0213921Y0330742D01*
X0213997Y0330849D01*
X0214077Y0330953D01*
X0214160Y0331055D01*
X0214246Y0331155D01*
X0214335Y0331252D01*
X0214427Y0331346D01*
X0214522Y0331437D01*
X0214620Y0331526D01*
X0214720Y0331611D01*
X0214822Y0331693D01*
X0214928Y0331772D01*
X0215035Y0331848D01*
X0215145Y0331921D01*
X0215257Y0331990D01*
X0215371Y0332056D01*
X0215487Y0332118D01*
X0215604Y0332177D01*
X0215724Y0332232D01*
X0215845Y0332283D01*
X0215967Y0332331D01*
X0216091Y0332375D01*
X0216217Y0332416D01*
X0216343Y0332452D01*
X0216471Y0332485D01*
X0216599Y0332513D01*
X0216728Y0332538D01*
X0216858Y0332559D01*
X0216989Y0332576D01*
X0217120Y0332589D01*
X0217251Y0332598D01*
X0217382Y0332603D01*
X0217514Y0332604D01*
X0217645Y0332601D01*
X0217777Y0332594D01*
X0217908Y0332583D01*
X0218039Y0332568D01*
X0218169Y0332549D01*
X0218298Y0332526D01*
X0218427Y0332499D01*
X0218555Y0332469D01*
X0218682Y0332434D01*
X0218808Y0332396D01*
X0218933Y0332354D01*
X0219056Y0332308D01*
X0219178Y0332258D01*
X0219298Y0332205D01*
X0219417Y0332148D01*
X0219534Y0332087D01*
X0219648Y0332023D01*
X0219761Y0331956D01*
X0219872Y0331885D01*
X0219981Y0331811D01*
X0220087Y0331733D01*
X0220191Y0331652D01*
X0220293Y0331569D01*
X0220391Y0331482D01*
X0220488Y0331392D01*
X0220581Y0331299D01*
X0220672Y0331204D01*
X0220759Y0331106D01*
X0220844Y0331005D01*
X0220925Y0330901D01*
X0221003Y0330796D01*
X0221079Y0330688D01*
X0221150Y0330577D01*
X0221219Y0330465D01*
X0221284Y0330350D01*
X0221345Y0330234D01*
X0221403Y0330116D01*
X0221457Y0329996D01*
X0221508Y0329875D01*
X0221555Y0329752D01*
X0221598Y0329627D01*
X0221637Y0329502D01*
X0221673Y0329375D01*
X0221704Y0329247D01*
X0221732Y0329119D01*
X0221756Y0328989D01*
X0221776Y0328859D01*
X0221792Y0328729D01*
X0221804Y0328598D01*
X0221812Y0328466D01*
X0221816Y0328335D01*
X0221816Y0328203D01*
X0221812Y0328072D01*
X0221804Y0327940D01*
X0221792Y0327809D01*
X0221776Y0327679D01*
X0221756Y0327549D01*
X0221732Y0327419D01*
X0221704Y0327291D01*
X0221673Y0327163D01*
X0221637Y0327036D01*
X0221598Y0326911D01*
X0221555Y0326786D01*
X0221508Y0326663D01*
X0221457Y0326542D01*
X0221403Y0326422D01*
X0221345Y0326304D01*
X0221284Y0326188D01*
X0221219Y0326073D01*
X0221150Y0325961D01*
X0221079Y0325850D01*
X0221003Y0325742D01*
X0220925Y0325637D01*
X0220844Y0325533D01*
X0220759Y0325432D01*
X0220672Y0325334D01*
X0220581Y0325239D01*
X0220488Y0325146D01*
X0220391Y0325056D01*
X0220293Y0324969D01*
X0220191Y0324886D01*
X0220087Y0324805D01*
X0219981Y0324727D01*
X0219872Y0324653D01*
X0219761Y0324582D01*
X0219649Y0324515D01*
X0219534Y0324451D01*
X0219417Y0324390D01*
X0219298Y0324333D01*
X0219178Y0324280D01*
X0219056Y0324230D01*
X0218933Y0324184D01*
X0218808Y0324142D01*
X0218682Y0324104D01*
X0218555Y0324069D01*
X0218427Y0324039D01*
X0218298Y0324012D01*
X0218169Y0323989D01*
X0218039Y0323970D01*
X0217908Y0323955D01*
X0217777Y0323944D01*
X0217645Y0323937D01*
X0217514Y0323934D01*
X0217382Y0323935D01*
X0217251Y0323940D01*
X0217120Y0323949D01*
X0216989Y0323962D01*
X0216858Y0323979D01*
X0216728Y0324000D01*
X0216599Y0324025D01*
X0216471Y0324053D01*
X0216343Y0324086D01*
X0216217Y0324122D01*
X0216091Y0324163D01*
X0215967Y0324207D01*
X0215845Y0324255D01*
X0215724Y0324306D01*
X0215604Y0324361D01*
X0215487Y0324420D01*
X0215371Y0324482D01*
X0215257Y0324548D01*
X0215145Y0324617D01*
X0215035Y0324690D01*
X0214928Y0324766D01*
X0214822Y0324845D01*
X0214720Y0324927D01*
X0214620Y0325012D01*
X0214522Y0325101D01*
X0214427Y0325192D01*
X0214335Y0325286D01*
X0214246Y0325383D01*
X0214160Y0325483D01*
X0214077Y0325585D01*
X0213997Y0325689D01*
X0213921Y0325796D01*
X0213847Y0325905D01*
X0213777Y0326017D01*
X0213710Y0326130D01*
X0213647Y0326245D01*
X0213588Y0326363D01*
X0213532Y0326482D01*
X0213479Y0326602D01*
X0213430Y0326725D01*
X0213385Y0326848D01*
X0213344Y0326973D01*
X0213307Y0327099D01*
X0213273Y0327227D01*
X0213243Y0327355D01*
X0213218Y0327484D01*
X0213196Y0327614D01*
X0213178Y0327744D01*
X0213164Y0327875D01*
X0213154Y0328006D01*
X0213148Y0328137D01*
X0213146Y0328269D01*
X0224981Y0313308D02*
X0222481Y0310808D01*
X0222481Y0305808D01*
X0224981Y0303308D01*
X0222481Y0300808D01*
X0222481Y0295808D01*
X0224981Y0293308D01*
X0229981Y0293308D01*
X0232481Y0295808D01*
X0232481Y0300808D01*
X0229981Y0303308D01*
X0224981Y0303308D01*
X0229981Y0303308D02*
X0232481Y0305808D01*
X0232481Y0310808D01*
X0229981Y0313308D01*
X0224981Y0313308D01*
X0173280Y0297607D02*
X0173280Y0285910D01*
X0161682Y0285910D02*
X0161682Y0297607D01*
X0161046Y0244571D02*
X0158218Y0241743D01*
X0160339Y0239622D01*
X0163167Y0242450D02*
X0161046Y0244571D01*
X0156481Y0228308D02*
X0156486Y0228750D01*
X0156503Y0229191D01*
X0156530Y0229632D01*
X0156568Y0230072D01*
X0156616Y0230511D01*
X0156676Y0230949D01*
X0156746Y0231385D01*
X0156827Y0231820D01*
X0156918Y0232252D01*
X0157020Y0232682D01*
X0157133Y0233109D01*
X0157256Y0233533D01*
X0157389Y0233954D01*
X0157533Y0234372D01*
X0157687Y0234786D01*
X0157851Y0235196D01*
X0158025Y0235602D01*
X0158209Y0236004D01*
X0158403Y0236401D01*
X0158606Y0236793D01*
X0158819Y0237180D01*
X0159042Y0237562D01*
X0159274Y0237938D01*
X0159515Y0238308D01*
X0159764Y0238673D01*
X0160023Y0239031D01*
X0160291Y0239382D01*
X0160567Y0239727D01*
X0160851Y0240065D01*
X0161144Y0240396D01*
X0161445Y0240720D01*
X0161753Y0241036D01*
X0162069Y0241344D01*
X0162393Y0241645D01*
X0162724Y0241938D01*
X0163062Y0242222D01*
X0163407Y0242498D01*
X0163758Y0242766D01*
X0164116Y0243025D01*
X0164481Y0243274D01*
X0164851Y0243515D01*
X0165227Y0243747D01*
X0165609Y0243970D01*
X0165996Y0244183D01*
X0166388Y0244386D01*
X0166785Y0244580D01*
X0167187Y0244764D01*
X0167593Y0244938D01*
X0168003Y0245102D01*
X0168417Y0245256D01*
X0168835Y0245400D01*
X0169256Y0245533D01*
X0169680Y0245656D01*
X0170107Y0245769D01*
X0170537Y0245871D01*
X0170969Y0245962D01*
X0171404Y0246043D01*
X0171840Y0246113D01*
X0172278Y0246173D01*
X0172717Y0246221D01*
X0173157Y0246259D01*
X0173598Y0246286D01*
X0174039Y0246303D01*
X0174481Y0246308D01*
X0174923Y0246303D01*
X0175364Y0246286D01*
X0175805Y0246259D01*
X0176245Y0246221D01*
X0176684Y0246173D01*
X0177122Y0246113D01*
X0177558Y0246043D01*
X0177993Y0245962D01*
X0178425Y0245871D01*
X0178855Y0245769D01*
X0179282Y0245656D01*
X0179706Y0245533D01*
X0180127Y0245400D01*
X0180545Y0245256D01*
X0180959Y0245102D01*
X0181369Y0244938D01*
X0181775Y0244764D01*
X0182177Y0244580D01*
X0182574Y0244386D01*
X0182966Y0244183D01*
X0183353Y0243970D01*
X0183735Y0243747D01*
X0184111Y0243515D01*
X0184481Y0243274D01*
X0184846Y0243025D01*
X0185204Y0242766D01*
X0185555Y0242498D01*
X0185900Y0242222D01*
X0186238Y0241938D01*
X0186569Y0241645D01*
X0186893Y0241344D01*
X0187209Y0241036D01*
X0187517Y0240720D01*
X0187818Y0240396D01*
X0188111Y0240065D01*
X0188395Y0239727D01*
X0188671Y0239382D01*
X0188939Y0239031D01*
X0189198Y0238673D01*
X0189447Y0238308D01*
X0189688Y0237938D01*
X0189920Y0237562D01*
X0190143Y0237180D01*
X0190356Y0236793D01*
X0190559Y0236401D01*
X0190753Y0236004D01*
X0190937Y0235602D01*
X0191111Y0235196D01*
X0191275Y0234786D01*
X0191429Y0234372D01*
X0191573Y0233954D01*
X0191706Y0233533D01*
X0191829Y0233109D01*
X0191942Y0232682D01*
X0192044Y0232252D01*
X0192135Y0231820D01*
X0192216Y0231385D01*
X0192286Y0230949D01*
X0192346Y0230511D01*
X0192394Y0230072D01*
X0192432Y0229632D01*
X0192459Y0229191D01*
X0192476Y0228750D01*
X0192481Y0228308D01*
X0192476Y0227866D01*
X0192459Y0227425D01*
X0192432Y0226984D01*
X0192394Y0226544D01*
X0192346Y0226105D01*
X0192286Y0225667D01*
X0192216Y0225231D01*
X0192135Y0224796D01*
X0192044Y0224364D01*
X0191942Y0223934D01*
X0191829Y0223507D01*
X0191706Y0223083D01*
X0191573Y0222662D01*
X0191429Y0222244D01*
X0191275Y0221830D01*
X0191111Y0221420D01*
X0190937Y0221014D01*
X0190753Y0220612D01*
X0190559Y0220215D01*
X0190356Y0219823D01*
X0190143Y0219436D01*
X0189920Y0219054D01*
X0189688Y0218678D01*
X0189447Y0218308D01*
X0189198Y0217943D01*
X0188939Y0217585D01*
X0188671Y0217234D01*
X0188395Y0216889D01*
X0188111Y0216551D01*
X0187818Y0216220D01*
X0187517Y0215896D01*
X0187209Y0215580D01*
X0186893Y0215272D01*
X0186569Y0214971D01*
X0186238Y0214678D01*
X0185900Y0214394D01*
X0185555Y0214118D01*
X0185204Y0213850D01*
X0184846Y0213591D01*
X0184481Y0213342D01*
X0184111Y0213101D01*
X0183735Y0212869D01*
X0183353Y0212646D01*
X0182966Y0212433D01*
X0182574Y0212230D01*
X0182177Y0212036D01*
X0181775Y0211852D01*
X0181369Y0211678D01*
X0180959Y0211514D01*
X0180545Y0211360D01*
X0180127Y0211216D01*
X0179706Y0211083D01*
X0179282Y0210960D01*
X0178855Y0210847D01*
X0178425Y0210745D01*
X0177993Y0210654D01*
X0177558Y0210573D01*
X0177122Y0210503D01*
X0176684Y0210443D01*
X0176245Y0210395D01*
X0175805Y0210357D01*
X0175364Y0210330D01*
X0174923Y0210313D01*
X0174481Y0210308D01*
X0174039Y0210313D01*
X0173598Y0210330D01*
X0173157Y0210357D01*
X0172717Y0210395D01*
X0172278Y0210443D01*
X0171840Y0210503D01*
X0171404Y0210573D01*
X0170969Y0210654D01*
X0170537Y0210745D01*
X0170107Y0210847D01*
X0169680Y0210960D01*
X0169256Y0211083D01*
X0168835Y0211216D01*
X0168417Y0211360D01*
X0168003Y0211514D01*
X0167593Y0211678D01*
X0167187Y0211852D01*
X0166785Y0212036D01*
X0166388Y0212230D01*
X0165996Y0212433D01*
X0165609Y0212646D01*
X0165227Y0212869D01*
X0164851Y0213101D01*
X0164481Y0213342D01*
X0164116Y0213591D01*
X0163758Y0213850D01*
X0163407Y0214118D01*
X0163062Y0214394D01*
X0162724Y0214678D01*
X0162393Y0214971D01*
X0162069Y0215272D01*
X0161753Y0215580D01*
X0161445Y0215896D01*
X0161144Y0216220D01*
X0160851Y0216551D01*
X0160567Y0216889D01*
X0160291Y0217234D01*
X0160023Y0217585D01*
X0159764Y0217943D01*
X0159515Y0218308D01*
X0159274Y0218678D01*
X0159042Y0219054D01*
X0158819Y0219436D01*
X0158606Y0219823D01*
X0158403Y0220215D01*
X0158209Y0220612D01*
X0158025Y0221014D01*
X0157851Y0221420D01*
X0157687Y0221830D01*
X0157533Y0222244D01*
X0157389Y0222662D01*
X0157256Y0223083D01*
X0157133Y0223507D01*
X0157020Y0223934D01*
X0156918Y0224364D01*
X0156827Y0224796D01*
X0156746Y0225231D01*
X0156676Y0225667D01*
X0156616Y0226105D01*
X0156568Y0226544D01*
X0156530Y0226984D01*
X0156503Y0227425D01*
X0156486Y0227866D01*
X0156481Y0228308D01*
X0262081Y0148108D02*
X0266281Y0148108D01*
X0268681Y0148108D01*
X0272881Y0148108D01*
X0268681Y0148108D02*
X0268679Y0148039D01*
X0268673Y0147971D01*
X0268663Y0147903D01*
X0268650Y0147836D01*
X0268632Y0147770D01*
X0268611Y0147705D01*
X0268586Y0147641D01*
X0268558Y0147579D01*
X0268526Y0147518D01*
X0268491Y0147459D01*
X0268452Y0147403D01*
X0268410Y0147348D01*
X0268365Y0147297D01*
X0268317Y0147247D01*
X0268267Y0147201D01*
X0268214Y0147158D01*
X0268158Y0147117D01*
X0268101Y0147080D01*
X0268041Y0147047D01*
X0267979Y0147016D01*
X0267916Y0146990D01*
X0267852Y0146967D01*
X0267786Y0146947D01*
X0267719Y0146932D01*
X0267652Y0146920D01*
X0267584Y0146912D01*
X0267515Y0146908D01*
X0267447Y0146908D01*
X0267378Y0146912D01*
X0267310Y0146920D01*
X0267243Y0146932D01*
X0267176Y0146947D01*
X0267110Y0146967D01*
X0267046Y0146990D01*
X0266983Y0147016D01*
X0266921Y0147047D01*
X0266861Y0147080D01*
X0266804Y0147117D01*
X0266748Y0147158D01*
X0266695Y0147201D01*
X0266645Y0147247D01*
X0266597Y0147297D01*
X0266552Y0147348D01*
X0266510Y0147403D01*
X0266471Y0147459D01*
X0266436Y0147518D01*
X0266404Y0147579D01*
X0266376Y0147641D01*
X0266351Y0147705D01*
X0266330Y0147770D01*
X0266312Y0147836D01*
X0266299Y0147903D01*
X0266289Y0147971D01*
X0266283Y0148039D01*
X0266281Y0148108D01*
X0262081Y0128508D02*
X0272881Y0128508D01*
X0248280Y0099206D02*
X0248280Y0087509D01*
X0236682Y0087509D02*
X0236682Y0099206D01*
X0231280Y0099206D02*
X0231280Y0087509D01*
X0219682Y0087509D02*
X0219682Y0099206D01*
X0225674Y0076174D02*
X0262674Y0076174D01*
X0263674Y0075174D01*
X0264174Y0063674D01*
X0224174Y0063674D02*
X0224674Y0075174D01*
X0225674Y0076174D01*
X0364781Y0117408D02*
X0364781Y0119208D01*
X0373181Y0119208D02*
X0373181Y0117408D01*
X0372081Y0117808D02*
X0372054Y0117871D01*
X0372031Y0117936D01*
X0372011Y0118002D01*
X0371996Y0118069D01*
X0371984Y0118137D01*
X0371976Y0118205D01*
X0371972Y0118274D01*
X0371972Y0118342D01*
X0371976Y0118411D01*
X0371984Y0118479D01*
X0371996Y0118547D01*
X0372011Y0118614D01*
X0372031Y0118680D01*
X0372054Y0118745D01*
X0372081Y0118808D01*
X0377481Y0120808D02*
X0377481Y0125808D01*
X0379981Y0128308D01*
X0384981Y0128308D01*
X0387481Y0125808D01*
X0389981Y0128308D01*
X0394981Y0128308D01*
X0397481Y0125808D01*
X0399981Y0128308D01*
X0404981Y0128308D01*
X0407481Y0125808D01*
X0407481Y0120808D01*
X0404981Y0118308D01*
X0399981Y0118308D01*
X0397481Y0120808D01*
X0394981Y0118308D01*
X0389981Y0118308D01*
X0387481Y0120808D01*
X0384981Y0118308D01*
X0379981Y0118308D01*
X0377481Y0120808D01*
X0387481Y0120808D02*
X0387481Y0125808D01*
X0397481Y0125808D02*
X0397481Y0120808D01*
X0417981Y0108308D02*
X0427981Y0108308D01*
X0427981Y0098308D01*
X0427981Y0088308D01*
X0417981Y0088308D01*
X0417981Y0098308D01*
X0427981Y0098308D01*
X0417981Y0098308D02*
X0417981Y0108308D01*
X0418481Y0338308D02*
X0428481Y0338308D01*
X0428481Y0348308D01*
X0428481Y0358308D01*
X0428481Y0368308D01*
X0418481Y0368308D01*
X0418481Y0358308D01*
X0418481Y0348308D01*
X0418481Y0338308D01*
X0418481Y0348308D02*
X0428481Y0348308D01*
X0428481Y0358308D02*
X0418481Y0358308D01*
X0197481Y0392308D02*
X0196481Y0391308D01*
X0158481Y0391308D01*
X0157481Y0392308D01*
X0157481Y0403808D01*
X0197481Y0403808D02*
X0197481Y0392308D01*
D17*
X0159281Y0228308D02*
X0159286Y0228681D01*
X0159299Y0229054D01*
X0159322Y0229426D01*
X0159354Y0229798D01*
X0159395Y0230169D01*
X0159446Y0230538D01*
X0159505Y0230907D01*
X0159573Y0231273D01*
X0159650Y0231638D01*
X0159737Y0232001D01*
X0159832Y0232362D01*
X0159936Y0232720D01*
X0160048Y0233076D01*
X0160170Y0233429D01*
X0160300Y0233778D01*
X0160438Y0234125D01*
X0160585Y0234468D01*
X0160740Y0234807D01*
X0160904Y0235142D01*
X0161076Y0235473D01*
X0161256Y0235800D01*
X0161444Y0236122D01*
X0161639Y0236440D01*
X0161843Y0236753D01*
X0162054Y0237060D01*
X0162272Y0237363D01*
X0162498Y0237660D01*
X0162731Y0237951D01*
X0162971Y0238236D01*
X0163219Y0238516D01*
X0163472Y0238789D01*
X0163733Y0239056D01*
X0164000Y0239317D01*
X0164273Y0239570D01*
X0164553Y0239818D01*
X0164838Y0240058D01*
X0165129Y0240291D01*
X0165426Y0240517D01*
X0165729Y0240735D01*
X0166036Y0240946D01*
X0166349Y0241150D01*
X0166667Y0241345D01*
X0166989Y0241533D01*
X0167316Y0241713D01*
X0167647Y0241885D01*
X0167982Y0242049D01*
X0168321Y0242204D01*
X0168664Y0242351D01*
X0169011Y0242489D01*
X0169360Y0242619D01*
X0169713Y0242741D01*
X0170069Y0242853D01*
X0170427Y0242957D01*
X0170788Y0243052D01*
X0171151Y0243139D01*
X0171516Y0243216D01*
X0171882Y0243284D01*
X0172251Y0243343D01*
X0172620Y0243394D01*
X0172991Y0243435D01*
X0173363Y0243467D01*
X0173735Y0243490D01*
X0174108Y0243503D01*
X0174481Y0243508D01*
X0174854Y0243503D01*
X0175227Y0243490D01*
X0175599Y0243467D01*
X0175971Y0243435D01*
X0176342Y0243394D01*
X0176711Y0243343D01*
X0177080Y0243284D01*
X0177446Y0243216D01*
X0177811Y0243139D01*
X0178174Y0243052D01*
X0178535Y0242957D01*
X0178893Y0242853D01*
X0179249Y0242741D01*
X0179602Y0242619D01*
X0179951Y0242489D01*
X0180298Y0242351D01*
X0180641Y0242204D01*
X0180980Y0242049D01*
X0181315Y0241885D01*
X0181646Y0241713D01*
X0181973Y0241533D01*
X0182295Y0241345D01*
X0182613Y0241150D01*
X0182926Y0240946D01*
X0183233Y0240735D01*
X0183536Y0240517D01*
X0183833Y0240291D01*
X0184124Y0240058D01*
X0184409Y0239818D01*
X0184689Y0239570D01*
X0184962Y0239317D01*
X0185229Y0239056D01*
X0185490Y0238789D01*
X0185743Y0238516D01*
X0185991Y0238236D01*
X0186231Y0237951D01*
X0186464Y0237660D01*
X0186690Y0237363D01*
X0186908Y0237060D01*
X0187119Y0236753D01*
X0187323Y0236440D01*
X0187518Y0236122D01*
X0187706Y0235800D01*
X0187886Y0235473D01*
X0188058Y0235142D01*
X0188222Y0234807D01*
X0188377Y0234468D01*
X0188524Y0234125D01*
X0188662Y0233778D01*
X0188792Y0233429D01*
X0188914Y0233076D01*
X0189026Y0232720D01*
X0189130Y0232362D01*
X0189225Y0232001D01*
X0189312Y0231638D01*
X0189389Y0231273D01*
X0189457Y0230907D01*
X0189516Y0230538D01*
X0189567Y0230169D01*
X0189608Y0229798D01*
X0189640Y0229426D01*
X0189663Y0229054D01*
X0189676Y0228681D01*
X0189681Y0228308D01*
X0189676Y0227935D01*
X0189663Y0227562D01*
X0189640Y0227190D01*
X0189608Y0226818D01*
X0189567Y0226447D01*
X0189516Y0226078D01*
X0189457Y0225709D01*
X0189389Y0225343D01*
X0189312Y0224978D01*
X0189225Y0224615D01*
X0189130Y0224254D01*
X0189026Y0223896D01*
X0188914Y0223540D01*
X0188792Y0223187D01*
X0188662Y0222838D01*
X0188524Y0222491D01*
X0188377Y0222148D01*
X0188222Y0221809D01*
X0188058Y0221474D01*
X0187886Y0221143D01*
X0187706Y0220816D01*
X0187518Y0220494D01*
X0187323Y0220176D01*
X0187119Y0219863D01*
X0186908Y0219556D01*
X0186690Y0219253D01*
X0186464Y0218956D01*
X0186231Y0218665D01*
X0185991Y0218380D01*
X0185743Y0218100D01*
X0185490Y0217827D01*
X0185229Y0217560D01*
X0184962Y0217299D01*
X0184689Y0217046D01*
X0184409Y0216798D01*
X0184124Y0216558D01*
X0183833Y0216325D01*
X0183536Y0216099D01*
X0183233Y0215881D01*
X0182926Y0215670D01*
X0182613Y0215466D01*
X0182295Y0215271D01*
X0181973Y0215083D01*
X0181646Y0214903D01*
X0181315Y0214731D01*
X0180980Y0214567D01*
X0180641Y0214412D01*
X0180298Y0214265D01*
X0179951Y0214127D01*
X0179602Y0213997D01*
X0179249Y0213875D01*
X0178893Y0213763D01*
X0178535Y0213659D01*
X0178174Y0213564D01*
X0177811Y0213477D01*
X0177446Y0213400D01*
X0177080Y0213332D01*
X0176711Y0213273D01*
X0176342Y0213222D01*
X0175971Y0213181D01*
X0175599Y0213149D01*
X0175227Y0213126D01*
X0174854Y0213113D01*
X0174481Y0213108D01*
X0174108Y0213113D01*
X0173735Y0213126D01*
X0173363Y0213149D01*
X0172991Y0213181D01*
X0172620Y0213222D01*
X0172251Y0213273D01*
X0171882Y0213332D01*
X0171516Y0213400D01*
X0171151Y0213477D01*
X0170788Y0213564D01*
X0170427Y0213659D01*
X0170069Y0213763D01*
X0169713Y0213875D01*
X0169360Y0213997D01*
X0169011Y0214127D01*
X0168664Y0214265D01*
X0168321Y0214412D01*
X0167982Y0214567D01*
X0167647Y0214731D01*
X0167316Y0214903D01*
X0166989Y0215083D01*
X0166667Y0215271D01*
X0166349Y0215466D01*
X0166036Y0215670D01*
X0165729Y0215881D01*
X0165426Y0216099D01*
X0165129Y0216325D01*
X0164838Y0216558D01*
X0164553Y0216798D01*
X0164273Y0217046D01*
X0164000Y0217299D01*
X0163733Y0217560D01*
X0163472Y0217827D01*
X0163219Y0218100D01*
X0162971Y0218380D01*
X0162731Y0218665D01*
X0162498Y0218956D01*
X0162272Y0219253D01*
X0162054Y0219556D01*
X0161843Y0219863D01*
X0161639Y0220176D01*
X0161444Y0220494D01*
X0161256Y0220816D01*
X0161076Y0221143D01*
X0160904Y0221474D01*
X0160740Y0221809D01*
X0160585Y0222148D01*
X0160438Y0222491D01*
X0160300Y0222838D01*
X0160170Y0223187D01*
X0160048Y0223540D01*
X0159936Y0223896D01*
X0159832Y0224254D01*
X0159737Y0224615D01*
X0159650Y0224978D01*
X0159573Y0225343D01*
X0159505Y0225709D01*
X0159446Y0226078D01*
X0159395Y0226447D01*
X0159354Y0226818D01*
X0159322Y0227190D01*
X0159299Y0227562D01*
X0159286Y0227935D01*
X0159281Y0228308D01*
D18*
X0192206Y0218006D02*
X0193407Y0218006D01*
X0192807Y0218006D02*
X0192807Y0214403D01*
X0193407Y0214403D02*
X0192206Y0214403D01*
X0194662Y0215004D02*
X0195262Y0214403D01*
X0196463Y0214403D01*
X0197064Y0215004D01*
X0198345Y0214403D02*
X0200747Y0216805D01*
X0200747Y0217406D01*
X0200146Y0218006D01*
X0198945Y0218006D01*
X0198345Y0217406D01*
X0197064Y0217406D02*
X0196463Y0218006D01*
X0195262Y0218006D01*
X0194662Y0217406D01*
X0194662Y0215004D01*
X0198345Y0214403D02*
X0200747Y0214403D01*
X0261081Y0153111D02*
X0261081Y0150108D01*
X0261682Y0149508D01*
X0262883Y0149508D01*
X0263483Y0150108D01*
X0263483Y0153111D01*
X0264764Y0152510D02*
X0265365Y0153111D01*
X0266566Y0153111D01*
X0267166Y0152510D01*
X0267166Y0151910D01*
X0264764Y0149508D01*
X0267166Y0149508D01*
X0226892Y0057777D02*
X0226892Y0054174D01*
X0225691Y0054174D02*
X0228093Y0054174D01*
X0225691Y0056576D02*
X0226892Y0057777D01*
X0224410Y0057177D02*
X0224410Y0054775D01*
X0223809Y0054174D01*
X0222608Y0054174D01*
X0222008Y0054775D01*
X0222008Y0057177D01*
X0222608Y0057777D01*
X0223809Y0057777D01*
X0224410Y0057177D01*
X0223209Y0055375D02*
X0224410Y0054174D01*
X0368581Y0127108D02*
X0369182Y0126508D01*
X0370383Y0126508D01*
X0370983Y0127108D01*
X0370983Y0130111D01*
X0372264Y0128910D02*
X0373465Y0130111D01*
X0373465Y0126508D01*
X0372264Y0126508D02*
X0374666Y0126508D01*
X0368581Y0127108D02*
X0368581Y0130111D01*
X0408378Y0126426D02*
X0408979Y0127027D01*
X0409579Y0127027D01*
X0410180Y0126426D01*
X0410780Y0127027D01*
X0411381Y0127027D01*
X0411981Y0126426D01*
X0411981Y0125225D01*
X0411381Y0124625D01*
X0410180Y0125826D02*
X0410180Y0126426D01*
X0408378Y0126426D02*
X0408378Y0125225D01*
X0408979Y0124625D01*
X0408979Y0123344D02*
X0410180Y0123344D01*
X0410780Y0122743D01*
X0410780Y0120942D01*
X0411981Y0120942D02*
X0408378Y0120942D01*
X0408378Y0122743D01*
X0408979Y0123344D01*
X0408378Y0119660D02*
X0408378Y0118459D01*
X0408378Y0119060D02*
X0411381Y0119060D01*
X0411981Y0118459D01*
X0411981Y0117859D01*
X0411381Y0117258D01*
X0411116Y0087611D02*
X0409315Y0087611D01*
X0409315Y0084008D01*
X0409315Y0085209D02*
X0411116Y0085209D01*
X0411717Y0085809D01*
X0411717Y0087010D01*
X0411116Y0087611D01*
X0412998Y0085809D02*
X0415400Y0085809D01*
X0414799Y0084008D02*
X0414799Y0087611D01*
X0412998Y0085809D01*
X0408034Y0087611D02*
X0406833Y0087611D01*
X0407433Y0087611D02*
X0407433Y0084608D01*
X0406833Y0084008D01*
X0406232Y0084008D01*
X0405632Y0084608D01*
X0236649Y0287708D02*
X0234247Y0287708D01*
X0235448Y0287708D02*
X0235448Y0291311D01*
X0234247Y0290110D01*
X0232966Y0290710D02*
X0232966Y0289509D01*
X0232366Y0288909D01*
X0230564Y0288909D01*
X0230564Y0287708D02*
X0230564Y0291311D01*
X0232366Y0291311D01*
X0232966Y0290710D01*
X0229283Y0291311D02*
X0228082Y0291311D01*
X0228683Y0291311D02*
X0228683Y0288308D01*
X0228082Y0287708D01*
X0227482Y0287708D01*
X0226881Y0288308D01*
X0405632Y0335108D02*
X0406232Y0334508D01*
X0406833Y0334508D01*
X0407433Y0335108D01*
X0407433Y0338111D01*
X0406833Y0338111D02*
X0408034Y0338111D01*
X0409315Y0338111D02*
X0411116Y0338111D01*
X0411717Y0337510D01*
X0411717Y0336309D01*
X0411116Y0335709D01*
X0409315Y0335709D01*
X0409315Y0334508D02*
X0409315Y0338111D01*
X0412998Y0337510D02*
X0413598Y0338111D01*
X0414799Y0338111D01*
X0415400Y0337510D01*
X0415400Y0336910D01*
X0412998Y0334508D01*
X0415400Y0334508D01*
D19*
X0159281Y0393708D03*
X0261874Y0073774D03*
D20*
X0244174Y0060674D03*
D21*
X0261424Y0063174D03*
X0226924Y0063174D03*
D22*
X0239174Y0063174D03*
X0249174Y0063174D03*
D23*
X0430481Y0093308D02*
X0452981Y0093308D01*
X0452981Y0103308D02*
X0430481Y0103308D01*
X0430981Y0343308D02*
X0453481Y0343308D01*
X0453481Y0353308D02*
X0430981Y0353308D01*
X0430981Y0363308D02*
X0453481Y0363308D01*
D24*
X0429481Y0363308D03*
X0429481Y0353308D03*
X0429481Y0343308D03*
X0428981Y0103308D03*
X0428981Y0093308D03*
D25*
X0415981Y0093308D03*
X0415981Y0103308D03*
X0416481Y0343308D03*
X0416481Y0353308D03*
X0416481Y0363308D03*
D26*
X0295981Y0377914D03*
X0295981Y0327914D03*
D27*
X0052481Y0093623D02*
X0052481Y0074623D01*
X0125981Y0074623D01*
X0125981Y0094623D01*
X0118481Y0094623D01*
X0118481Y0097123D01*
X0125981Y0097123D01*
X0125981Y0094623D01*
X0125981Y0097123D02*
X0125981Y0140123D01*
X0118481Y0140123D01*
X0118481Y0142623D01*
X0125981Y0142623D01*
X0125981Y0140123D01*
X0125981Y0142623D02*
X0125981Y0162623D01*
X0052481Y0162623D01*
X0052481Y0143623D01*
X0049981Y0143623D01*
X0049981Y0093623D01*
X0052481Y0093623D01*
X0052481Y0094623D01*
X0059981Y0094623D01*
X0059981Y0097123D01*
X0052481Y0097123D01*
X0052481Y0140123D01*
X0059981Y0140123D01*
X0059981Y0142623D01*
X0052481Y0142623D01*
X0052481Y0143623D01*
X0052481Y0142623D02*
X0052481Y0140123D01*
X0052481Y0097123D02*
X0052481Y0094623D01*
D28*
X0160231Y0405808D03*
X0194731Y0405808D03*
D29*
X0187481Y0406808D03*
X0177481Y0406808D03*
X0167481Y0406808D03*
D30*
X0172481Y0405808D03*
X0182481Y0405808D03*
M02*
