G75*
%MOIN*%
%OFA0B0*%
%FSLAX25Y25*%
%IPPOS*%
%LPD*%
%AMOC8*
5,1,8,0,0,1.08239X$1,22.5*
%
%ADD10R,0.25209X0.23635*%
%ADD11R,0.12611X0.07099*%
%ADD12R,0.08674X0.08674*%
%ADD13R,0.09265X0.22454*%
%ADD14R,0.06312X0.04737*%
%ADD15R,0.05800X0.13800*%
%ADD16R,0.07800X0.09800*%
%ADD17C,0.05200*%
%ADD18C,0.01200*%
%ADD19R,0.05800X0.10800*%
%ADD20C,0.06800*%
%ADD21R,0.03162X0.09461*%
%ADD22C,0.10800*%
%ADD23R,0.05524X0.05524*%
%ADD24R,0.02800X0.02800*%
%ADD25R,0.07887X0.13398*%
%ADD26R,0.13398X0.07887*%
%ADD27R,0.05300X0.04800*%
%ADD28R,0.05918X0.06706*%
%ADD29R,0.05800X0.06587*%
%ADD30R,0.41784X0.43320*%
%ADD31R,0.09300X0.05000*%
%ADD32R,0.06706X0.05918*%
%ADD33R,0.09461X0.03162*%
%ADD34R,0.06800X0.03800*%
%ADD35OC8,0.06800*%
%ADD36R,0.08600X0.02800*%
%ADD37R,0.06706X0.01902*%
%ADD38R,0.01902X0.06706*%
%ADD39R,0.05524X0.04737*%
%ADD40R,0.05131X0.07887*%
%ADD41R,0.08280X0.14186*%
%ADD42R,0.10249X0.08674*%
%ADD43R,0.09887X0.02769*%
%ADD44C,0.04737*%
%ADD45R,0.04737X0.04737*%
%ADD46R,0.03900X0.04300*%
%ADD47R,0.02375X0.03556*%
%ADD48R,0.04100X0.07100*%
%ADD49R,0.13000X0.07100*%
%ADD50C,0.03778*%
D10*
X0172474Y0334100D03*
D11*
X0200742Y0325124D03*
X0200742Y0343076D03*
D12*
X0194718Y0360100D03*
X0178970Y0360100D03*
X0177470Y0298600D03*
X0193218Y0298600D03*
D13*
X0358454Y0303600D03*
X0372234Y0303600D03*
X0372234Y0344600D03*
X0358454Y0344600D03*
X0382954Y0094600D03*
X0396734Y0094600D03*
D14*
X0213175Y0295360D03*
X0204513Y0299100D03*
X0213175Y0302840D03*
D15*
X0393844Y0293600D03*
X0393844Y0313600D03*
X0393844Y0334600D03*
X0393844Y0354600D03*
D16*
X0374348Y0371600D03*
X0362340Y0371600D03*
X0362340Y0278100D03*
X0374348Y0278100D03*
D17*
X0221344Y0324100D03*
X0221344Y0334100D03*
X0221344Y0344100D03*
D18*
X0252738Y0234372D02*
X0253338Y0233772D01*
X0251350Y0233772D01*
X0249945Y0235177D01*
X0249945Y0237165D01*
X0251350Y0238570D01*
X0253338Y0238570D01*
X0254743Y0237165D01*
X0254743Y0235177D01*
X0253338Y0233772D01*
X0252965Y0234672D01*
X0251723Y0234672D01*
X0250845Y0235550D01*
X0250845Y0236792D01*
X0251723Y0237670D01*
X0252965Y0237670D01*
X0253843Y0236792D01*
X0253843Y0235550D01*
X0252965Y0234672D01*
X0252592Y0235572D01*
X0252096Y0235572D01*
X0251745Y0235923D01*
X0251745Y0236419D01*
X0252096Y0236770D01*
X0252592Y0236770D01*
X0252943Y0236419D01*
X0252943Y0235923D01*
X0252592Y0235572D01*
X0245667Y0227301D02*
X0246267Y0226701D01*
X0244279Y0226701D01*
X0242874Y0228106D01*
X0242874Y0230094D01*
X0244279Y0231499D01*
X0246267Y0231499D01*
X0247672Y0230094D01*
X0247672Y0228106D01*
X0246267Y0226701D01*
X0245894Y0227601D01*
X0244652Y0227601D01*
X0243774Y0228479D01*
X0243774Y0229721D01*
X0244652Y0230599D01*
X0245894Y0230599D01*
X0246772Y0229721D01*
X0246772Y0228479D01*
X0245894Y0227601D01*
X0245521Y0228501D01*
X0245025Y0228501D01*
X0244674Y0228852D01*
X0244674Y0229348D01*
X0245025Y0229699D01*
X0245521Y0229699D01*
X0245872Y0229348D01*
X0245872Y0228852D01*
X0245521Y0228501D01*
X0252738Y0220230D02*
X0253338Y0219630D01*
X0251350Y0219630D01*
X0249945Y0221035D01*
X0249945Y0223023D01*
X0251350Y0224428D01*
X0253338Y0224428D01*
X0254743Y0223023D01*
X0254743Y0221035D01*
X0253338Y0219630D01*
X0252965Y0220530D01*
X0251723Y0220530D01*
X0250845Y0221408D01*
X0250845Y0222650D01*
X0251723Y0223528D01*
X0252965Y0223528D01*
X0253843Y0222650D01*
X0253843Y0221408D01*
X0252965Y0220530D01*
X0252592Y0221430D01*
X0252096Y0221430D01*
X0251745Y0221781D01*
X0251745Y0222277D01*
X0252096Y0222628D01*
X0252592Y0222628D01*
X0252943Y0222277D01*
X0252943Y0221781D01*
X0252592Y0221430D01*
X0259809Y0227301D02*
X0260409Y0226701D01*
X0258421Y0226701D01*
X0257016Y0228106D01*
X0257016Y0230094D01*
X0258421Y0231499D01*
X0260409Y0231499D01*
X0261814Y0230094D01*
X0261814Y0228106D01*
X0260409Y0226701D01*
X0260036Y0227601D01*
X0258794Y0227601D01*
X0257916Y0228479D01*
X0257916Y0229721D01*
X0258794Y0230599D01*
X0260036Y0230599D01*
X0260914Y0229721D01*
X0260914Y0228479D01*
X0260036Y0227601D01*
X0259663Y0228501D01*
X0259167Y0228501D01*
X0258816Y0228852D01*
X0258816Y0229348D01*
X0259167Y0229699D01*
X0259663Y0229699D01*
X0260014Y0229348D01*
X0260014Y0228852D01*
X0259663Y0228501D01*
D19*
X0289344Y0194100D03*
X0289344Y0176100D03*
X0313344Y0176100D03*
X0313344Y0194100D03*
D20*
X0264344Y0281100D02*
X0264344Y0287100D01*
X0254344Y0287100D02*
X0254344Y0281100D01*
X0195844Y0190600D02*
X0195844Y0184600D01*
X0185844Y0184600D02*
X0185844Y0190600D01*
X0175844Y0190600D02*
X0175844Y0184600D01*
X0147344Y0245600D02*
X0147344Y0251600D01*
X0137344Y0251600D02*
X0137344Y0245600D01*
X0106844Y0245600D02*
X0106844Y0251600D01*
X0096844Y0251600D02*
X0096844Y0245600D01*
X0097344Y0170600D02*
X0097344Y0164600D01*
X0107344Y0164600D02*
X0107344Y0170600D01*
X0117344Y0094100D02*
X0117344Y0088100D01*
X0127344Y0088100D02*
X0127344Y0094100D01*
X0137344Y0094100D02*
X0137344Y0088100D01*
X0147344Y0088100D02*
X0147344Y0094100D01*
X0157344Y0094100D02*
X0157344Y0088100D01*
X0338537Y0072966D02*
X0338537Y0066966D01*
X0348537Y0066966D02*
X0348537Y0072966D01*
X0358537Y0072966D02*
X0358537Y0066966D01*
X0420907Y0094100D02*
X0426907Y0094100D01*
X0426907Y0104100D02*
X0420907Y0104100D01*
X0420844Y0314100D02*
X0426844Y0314100D01*
X0426844Y0324100D02*
X0420844Y0324100D01*
X0420844Y0334100D02*
X0426844Y0334100D01*
X0292466Y0386100D02*
X0292466Y0392100D01*
X0282466Y0392100D02*
X0282466Y0386100D01*
X0272466Y0386100D02*
X0272466Y0392100D01*
X0253344Y0386600D02*
X0253344Y0380600D01*
X0243344Y0380600D02*
X0243344Y0386600D01*
X0191844Y0382100D02*
X0191844Y0376100D01*
X0181844Y0376100D02*
X0181844Y0382100D01*
X0171844Y0382100D02*
X0171844Y0376100D01*
D21*
X0363844Y0234336D03*
X0368844Y0234336D03*
X0373844Y0234336D03*
X0378844Y0234336D03*
X0378844Y0213864D03*
X0373844Y0213864D03*
X0368844Y0213864D03*
X0363844Y0213864D03*
X0304344Y0098836D03*
X0299344Y0098836D03*
X0294344Y0098836D03*
X0289344Y0098836D03*
X0289344Y0078364D03*
X0294344Y0078364D03*
X0299344Y0078364D03*
X0304344Y0078364D03*
D22*
X0407313Y0139100D03*
X0417313Y0149100D03*
X0427313Y0139100D03*
X0427313Y0159100D03*
X0407313Y0159100D03*
X0407313Y0194100D03*
X0417313Y0204100D03*
X0427313Y0194100D03*
X0427313Y0214100D03*
X0407313Y0214100D03*
X0406844Y0249100D03*
X0416844Y0259100D03*
X0406844Y0269100D03*
X0426844Y0269100D03*
X0426844Y0249100D03*
D23*
X0327978Y0256600D03*
X0319710Y0256600D03*
X0319710Y0395100D03*
X0327978Y0395100D03*
D24*
X0338844Y0386100D03*
X0263844Y0379100D03*
X0338844Y0266100D03*
X0305344Y0256600D03*
D25*
X0221868Y0279100D03*
X0199820Y0279100D03*
D26*
X0326844Y0115124D03*
X0343844Y0115124D03*
X0343844Y0093076D03*
X0326844Y0093076D03*
D27*
X0258844Y0333100D03*
X0258844Y0340100D03*
X0266844Y0336600D03*
X0256344Y0361100D03*
X0256344Y0368100D03*
X0248344Y0364600D03*
D28*
X0248584Y0348600D03*
X0241104Y0348600D03*
X0241104Y0339100D03*
X0248584Y0339100D03*
X0248584Y0329600D03*
X0241104Y0329600D03*
X0258104Y0320100D03*
X0265584Y0320100D03*
X0265584Y0310600D03*
X0258104Y0310600D03*
X0258104Y0301100D03*
X0265584Y0301100D03*
X0250584Y0266100D03*
X0243104Y0266100D03*
X0243104Y0256600D03*
X0250584Y0256600D03*
X0227084Y0239100D03*
X0219604Y0239100D03*
X0242104Y0199100D03*
X0249584Y0199100D03*
X0262104Y0188600D03*
X0269584Y0188600D03*
X0269584Y0179100D03*
X0262104Y0179100D03*
X0262104Y0169600D03*
X0269584Y0169600D03*
X0243084Y0163100D03*
X0235604Y0163100D03*
X0224084Y0163100D03*
X0216604Y0163100D03*
G36*
X0202267Y0173918D02*
X0206452Y0169733D01*
X0201711Y0164992D01*
X0197526Y0169177D01*
X0202267Y0173918D01*
G37*
G36*
X0196977Y0179208D02*
X0201162Y0175023D01*
X0196421Y0170282D01*
X0192236Y0174467D01*
X0196977Y0179208D01*
G37*
X0167084Y0209600D03*
X0159604Y0209600D03*
X0101084Y0196100D03*
X0093604Y0196100D03*
X0114104Y0124600D03*
X0121584Y0124600D03*
X0133104Y0124600D03*
X0140584Y0124600D03*
X0151604Y0124600D03*
X0159084Y0124600D03*
X0186604Y0129100D03*
X0194084Y0129100D03*
X0194084Y0119600D03*
X0186604Y0119600D03*
X0203604Y0119600D03*
X0211084Y0119600D03*
X0211084Y0129100D03*
X0203604Y0129100D03*
X0229604Y0129100D03*
X0237084Y0129100D03*
X0237084Y0119600D03*
X0229604Y0119600D03*
X0246604Y0119600D03*
X0254084Y0119600D03*
X0254084Y0129100D03*
X0246604Y0129100D03*
X0273604Y0107600D03*
X0281084Y0107600D03*
X0281084Y0098100D03*
X0273604Y0098100D03*
X0273604Y0081600D03*
X0281084Y0081600D03*
X0281084Y0072100D03*
X0273604Y0072100D03*
X0273604Y0062600D03*
X0281084Y0062600D03*
X0255084Y0063100D03*
X0247604Y0063100D03*
X0247604Y0072600D03*
X0255084Y0072600D03*
X0238084Y0072600D03*
X0230604Y0072600D03*
X0230604Y0063100D03*
X0238084Y0063100D03*
X0211584Y0063100D03*
X0204104Y0063100D03*
X0203604Y0072600D03*
X0211084Y0072600D03*
X0194084Y0072600D03*
X0186604Y0072600D03*
X0186604Y0063100D03*
X0194084Y0063100D03*
X0194104Y0095600D03*
X0201584Y0095600D03*
X0240104Y0095600D03*
X0247584Y0095600D03*
X0304604Y0109600D03*
X0312084Y0109600D03*
X0312084Y0119100D03*
X0304604Y0119100D03*
X0313604Y0128600D03*
X0321084Y0128600D03*
X0321084Y0138100D03*
X0313604Y0138100D03*
X0313604Y0154100D03*
X0321084Y0154100D03*
X0338604Y0154100D03*
X0346084Y0154100D03*
X0346084Y0164100D03*
X0338604Y0164100D03*
X0338604Y0138100D03*
X0346084Y0138100D03*
X0346084Y0128600D03*
X0338604Y0128600D03*
X0369604Y0122600D03*
X0377084Y0122600D03*
X0320084Y0072100D03*
X0312604Y0072100D03*
X0312604Y0062600D03*
X0320084Y0062600D03*
X0407604Y0181600D03*
X0415084Y0181600D03*
X0389084Y0193100D03*
X0381604Y0193100D03*
X0381604Y0202600D03*
X0389084Y0202600D03*
X0359084Y0203100D03*
X0351604Y0203100D03*
X0351604Y0193600D03*
X0359084Y0193600D03*
X0357604Y0252100D03*
X0365084Y0252100D03*
X0376104Y0252100D03*
X0383584Y0252100D03*
X0327584Y0265600D03*
X0320104Y0265600D03*
X0205084Y0313100D03*
X0197604Y0313100D03*
X0187584Y0313100D03*
X0180104Y0313100D03*
X0169584Y0313100D03*
X0162104Y0313100D03*
X0140084Y0319600D03*
X0132604Y0319600D03*
X0132604Y0328600D03*
X0140084Y0328600D03*
X0121584Y0328600D03*
X0114104Y0328600D03*
X0114104Y0319600D03*
X0121584Y0319600D03*
X0320104Y0386100D03*
X0327584Y0386100D03*
D29*
X0240809Y0364600D03*
X0223880Y0364600D03*
D30*
X0323844Y0348600D03*
X0323844Y0299600D03*
D31*
X0291044Y0299600D03*
X0291044Y0289600D03*
X0291044Y0309600D03*
X0291044Y0338600D03*
X0291044Y0348600D03*
X0291044Y0358600D03*
D32*
X0266344Y0359340D03*
X0266344Y0351860D03*
X0226844Y0377360D03*
X0226844Y0384840D03*
X0217344Y0384840D03*
X0217344Y0377360D03*
X0207844Y0377360D03*
X0207844Y0384840D03*
X0223344Y0302840D03*
X0223344Y0295360D03*
X0232844Y0295360D03*
X0232844Y0302840D03*
X0157344Y0251840D03*
X0157344Y0244360D03*
X0150844Y0232340D03*
X0150844Y0224860D03*
X0141844Y0224860D03*
X0141844Y0232340D03*
X0127844Y0232340D03*
X0127844Y0224860D03*
X0113844Y0226340D03*
X0113844Y0218860D03*
X0103344Y0218860D03*
X0103344Y0226340D03*
X0093344Y0226340D03*
X0093344Y0218860D03*
X0086844Y0256360D03*
X0086844Y0263840D03*
X0086844Y0279360D03*
X0086844Y0286840D03*
X0111844Y0301360D03*
X0111844Y0308840D03*
X0113844Y0337860D03*
X0113844Y0345340D03*
X0117844Y0261340D03*
X0117844Y0253860D03*
X0126844Y0253860D03*
X0126844Y0261340D03*
X0191344Y0212840D03*
X0191344Y0205360D03*
X0201344Y0205360D03*
X0201344Y0212840D03*
X0231844Y0202840D03*
X0231844Y0195360D03*
X0219844Y0179840D03*
X0219844Y0172360D03*
X0289344Y0163840D03*
X0289344Y0156360D03*
X0299344Y0156360D03*
X0299344Y0163840D03*
X0344344Y0212860D03*
X0344344Y0220340D03*
X0353844Y0220340D03*
X0353844Y0212860D03*
X0367844Y0202340D03*
X0367844Y0194860D03*
X0388344Y0212860D03*
X0388344Y0220340D03*
X0399844Y0229360D03*
X0399844Y0236840D03*
X0409344Y0236840D03*
X0409344Y0229360D03*
X0396844Y0182840D03*
X0396844Y0175360D03*
X0389844Y0162840D03*
X0389844Y0155360D03*
X0380344Y0155360D03*
X0380344Y0162840D03*
X0358844Y0120840D03*
X0358844Y0113360D03*
X0358844Y0103840D03*
X0358844Y0096360D03*
X0368344Y0096360D03*
X0368344Y0103840D03*
X0407844Y0115860D03*
X0407844Y0123340D03*
X0417344Y0123340D03*
X0417344Y0115860D03*
X0413844Y0297860D03*
X0413844Y0305340D03*
X0413844Y0342360D03*
X0413844Y0349840D03*
X0160844Y0110840D03*
X0160844Y0103360D03*
X0151344Y0103360D03*
X0151344Y0110840D03*
X0141844Y0110840D03*
X0132344Y0110840D03*
X0132344Y0103360D03*
X0141844Y0103360D03*
X0122844Y0103360D03*
X0122844Y0110840D03*
X0113344Y0110840D03*
X0113344Y0103360D03*
X0130844Y0138860D03*
X0130844Y0146340D03*
D33*
X0231108Y0171100D03*
X0231108Y0176100D03*
X0231108Y0181100D03*
X0231108Y0186100D03*
X0251580Y0186100D03*
X0251580Y0181100D03*
X0251580Y0176100D03*
X0251580Y0171100D03*
X0278108Y0146600D03*
X0278108Y0141600D03*
X0278108Y0136600D03*
X0278108Y0131600D03*
X0298580Y0131600D03*
X0298580Y0136600D03*
X0298580Y0141600D03*
X0298580Y0146600D03*
X0361108Y0146600D03*
X0361108Y0141600D03*
X0361108Y0136600D03*
X0361108Y0131600D03*
X0381580Y0131600D03*
X0381580Y0136600D03*
X0381580Y0141600D03*
X0381580Y0146600D03*
D34*
X0184844Y0221100D03*
X0184844Y0236100D03*
X0162844Y0236100D03*
X0162844Y0221100D03*
D35*
X0197344Y0224600D03*
X0197344Y0234600D03*
X0197344Y0244600D03*
X0197344Y0254600D03*
X0207344Y0254600D03*
X0207344Y0244600D03*
X0207344Y0234600D03*
X0207344Y0224600D03*
X0156844Y0164600D03*
X0146844Y0164600D03*
X0146844Y0154600D03*
X0146844Y0144600D03*
X0156844Y0144600D03*
X0156844Y0154600D03*
D36*
X0210644Y0110600D03*
X0210644Y0105600D03*
X0210644Y0100600D03*
X0210644Y0095600D03*
X0210644Y0090600D03*
X0210644Y0085600D03*
X0210644Y0080600D03*
X0230044Y0080600D03*
X0230044Y0085600D03*
X0230044Y0090600D03*
X0230044Y0095600D03*
X0230044Y0100600D03*
X0230044Y0105600D03*
X0230044Y0110600D03*
D37*
X0149576Y0185273D03*
X0149576Y0187242D03*
X0149576Y0189210D03*
X0149576Y0191179D03*
X0149576Y0193147D03*
X0149576Y0195116D03*
X0149576Y0197084D03*
X0149576Y0199053D03*
X0149576Y0201021D03*
X0149576Y0202990D03*
X0149576Y0204958D03*
X0149576Y0206927D03*
X0116112Y0206927D03*
X0116112Y0204958D03*
X0116112Y0202990D03*
X0116112Y0201021D03*
X0116112Y0199053D03*
X0116112Y0197084D03*
X0116112Y0195116D03*
X0116112Y0193147D03*
X0116112Y0191179D03*
X0116112Y0189210D03*
X0116112Y0187242D03*
X0116112Y0185273D03*
D38*
X0122017Y0179368D03*
X0123986Y0179368D03*
X0125954Y0179368D03*
X0127923Y0179368D03*
X0129891Y0179368D03*
X0131860Y0179368D03*
X0133828Y0179368D03*
X0135797Y0179368D03*
X0137765Y0179368D03*
X0139734Y0179368D03*
X0141702Y0179368D03*
X0143671Y0179368D03*
X0143671Y0212832D03*
X0141702Y0212832D03*
X0139734Y0212832D03*
X0137765Y0212832D03*
X0135797Y0212832D03*
X0133828Y0212832D03*
X0131860Y0212832D03*
X0129891Y0212832D03*
X0127923Y0212832D03*
X0125954Y0212832D03*
X0123986Y0212832D03*
X0122017Y0212832D03*
D39*
X0101675Y0188100D03*
X0093013Y0188100D03*
D40*
X0092242Y0209100D03*
X0104446Y0209100D03*
D41*
X0124167Y0341600D03*
X0139521Y0341600D03*
D42*
X0405065Y0366777D03*
X0426718Y0366777D03*
X0426718Y0401423D03*
X0405065Y0401423D03*
D43*
X0402844Y0390399D03*
X0402844Y0387250D03*
X0402844Y0384100D03*
X0402844Y0380950D03*
X0402844Y0377801D03*
D44*
X0414907Y0375439D03*
X0414907Y0392761D03*
D45*
X0180344Y0256537D03*
X0180344Y0248663D03*
X0167344Y0248663D03*
X0167344Y0256537D03*
D46*
X0140044Y0302600D03*
X0132444Y0302600D03*
X0136244Y0310600D03*
D47*
X0125403Y0308446D03*
X0120285Y0308446D03*
X0120285Y0301754D03*
X0122844Y0301754D03*
X0125403Y0301754D03*
D48*
X0130244Y0286700D03*
X0139344Y0286700D03*
X0148444Y0286700D03*
X0114444Y0286700D03*
X0105344Y0286700D03*
X0096244Y0286700D03*
D49*
X0105344Y0261500D03*
X0139344Y0261500D03*
D50*
X0106344Y0086600D03*
X0101344Y0096600D03*
X0101344Y0106600D03*
X0101344Y0116600D03*
X0108844Y0119100D03*
X0113844Y0117100D03*
X0118844Y0117100D03*
X0127344Y0116600D03*
X0127344Y0121600D03*
X0127344Y0126600D03*
X0118844Y0131600D03*
X0113844Y0134100D03*
X0116844Y0137600D03*
X0108844Y0139100D03*
X0108844Y0134100D03*
X0108844Y0129100D03*
X0108844Y0124100D03*
X0101344Y0126600D03*
X0101344Y0136600D03*
X0101344Y0146600D03*
X0108844Y0144100D03*
X0108844Y0149100D03*
X0108844Y0154100D03*
X0108844Y0159100D03*
X0113844Y0159100D03*
X0113844Y0154100D03*
X0113844Y0149100D03*
X0113844Y0144100D03*
X0126844Y0154100D03*
X0126844Y0159100D03*
X0126844Y0164100D03*
X0126844Y0169600D03*
X0113844Y0169100D03*
X0113844Y0164100D03*
X0113844Y0174100D03*
X0114344Y0182100D03*
X0102844Y0182100D03*
X0097344Y0182100D03*
X0090344Y0181600D03*
X0090344Y0176600D03*
X0090344Y0171600D03*
X0090344Y0166600D03*
X0090344Y0162100D03*
X0081344Y0166600D03*
X0081344Y0181600D03*
X0081344Y0196600D03*
X0088844Y0202100D03*
X0081344Y0211600D03*
X0081344Y0226600D03*
X0085844Y0236600D03*
X0090344Y0242100D03*
X0090344Y0247600D03*
X0081344Y0246600D03*
X0094344Y0258100D03*
X0094344Y0264600D03*
X0099344Y0270100D03*
X0100844Y0275100D03*
X0100844Y0280600D03*
X0092344Y0280600D03*
X0090344Y0272100D03*
X0081344Y0269100D03*
X0100844Y0286600D03*
X0105344Y0292600D03*
X0105344Y0298100D03*
X0114344Y0292600D03*
X0120344Y0292600D03*
X0120344Y0297600D03*
X0117344Y0301360D03*
X0122844Y0305600D03*
X0120344Y0312100D03*
X0116344Y0314100D03*
X0110844Y0314100D03*
X0105844Y0314600D03*
X0099344Y0321600D03*
X0101844Y0325600D03*
X0106344Y0324600D03*
X0101844Y0330600D03*
X0101844Y0335600D03*
X0101844Y0340600D03*
X0101844Y0345600D03*
X0101844Y0350600D03*
X0105344Y0357600D03*
X0111344Y0350600D03*
X0116844Y0350600D03*
X0119844Y0357600D03*
X0131844Y0346100D03*
X0144844Y0350600D03*
X0147344Y0356100D03*
X0142344Y0362100D03*
X0137344Y0366100D03*
X0142844Y0375600D03*
X0128844Y0381600D03*
X0128844Y0391600D03*
X0145844Y0400600D03*
X0132844Y0410600D03*
X0157844Y0400600D03*
X0158844Y0394100D03*
X0158844Y0389100D03*
X0158844Y0384100D03*
X0158844Y0379100D03*
X0158844Y0374100D03*
X0163844Y0389100D03*
X0163844Y0394100D03*
X0168844Y0394100D03*
X0168844Y0389100D03*
X0173844Y0389100D03*
X0173844Y0394100D03*
X0178844Y0394100D03*
X0178844Y0389100D03*
X0183844Y0389100D03*
X0183844Y0394100D03*
X0188844Y0394100D03*
X0188844Y0389100D03*
X0193844Y0389100D03*
X0193844Y0394100D03*
X0198844Y0394100D03*
X0198844Y0389100D03*
X0203844Y0391600D03*
X0208844Y0391600D03*
X0213844Y0391600D03*
X0218844Y0391600D03*
X0223844Y0391600D03*
X0228844Y0391600D03*
X0233844Y0391600D03*
X0238844Y0391600D03*
X0238844Y0397100D03*
X0233844Y0397100D03*
X0228844Y0397100D03*
X0223844Y0397100D03*
X0218844Y0397100D03*
X0213844Y0397100D03*
X0208844Y0397100D03*
X0203844Y0397100D03*
X0233844Y0379100D03*
X0233844Y0374100D03*
X0233844Y0369600D03*
X0233844Y0364100D03*
X0233844Y0359100D03*
X0233844Y0354100D03*
X0228844Y0354100D03*
X0223844Y0354100D03*
X0218844Y0354100D03*
X0213844Y0354100D03*
X0213844Y0349100D03*
X0213844Y0344100D03*
X0213844Y0339100D03*
X0205844Y0333100D03*
X0198844Y0333100D03*
X0212344Y0322100D03*
X0212344Y0316600D03*
X0212344Y0311100D03*
X0207344Y0319100D03*
X0202344Y0319100D03*
X0193844Y0319100D03*
X0192344Y0306600D03*
X0185344Y0306600D03*
X0185344Y0301600D03*
X0185344Y0296600D03*
X0185344Y0291100D03*
X0190344Y0291100D03*
X0195344Y0291100D03*
X0210844Y0289600D03*
X0210844Y0284600D03*
X0210844Y0279600D03*
X0210844Y0274600D03*
X0212844Y0259600D03*
X0216844Y0257600D03*
X0216844Y0253600D03*
X0216844Y0249600D03*
X0212844Y0249600D03*
X0216844Y0245600D03*
X0220844Y0245600D03*
X0220844Y0249600D03*
X0220844Y0253600D03*
X0220844Y0257600D03*
X0225844Y0249600D03*
X0225844Y0245600D03*
X0229844Y0245600D03*
X0229844Y0249600D03*
X0229844Y0254600D03*
X0251344Y0250600D03*
X0251344Y0246100D03*
X0251344Y0242100D03*
X0256344Y0246100D03*
X0256344Y0250600D03*
X0258344Y0254600D03*
X0256344Y0259100D03*
X0256344Y0263600D03*
X0256344Y0268100D03*
X0256344Y0272100D03*
X0251344Y0272100D03*
X0251344Y0276600D03*
X0261344Y0276600D03*
X0261344Y0272100D03*
X0261344Y0268100D03*
X0261344Y0263600D03*
X0261344Y0259100D03*
X0266344Y0259100D03*
X0266344Y0263600D03*
X0266344Y0268100D03*
X0266344Y0272100D03*
X0271344Y0272100D03*
X0271344Y0268100D03*
X0271344Y0263600D03*
X0271344Y0259100D03*
X0271344Y0250600D03*
X0271344Y0246100D03*
X0270273Y0241600D03*
X0271344Y0237100D03*
X0266344Y0237100D03*
X0261344Y0237100D03*
X0261344Y0246100D03*
X0261344Y0250600D03*
X0266344Y0250600D03*
X0266344Y0246100D03*
X0252344Y0229100D03*
X0247844Y0218600D03*
X0245844Y0205600D03*
X0241344Y0205600D03*
X0237344Y0205600D03*
X0229844Y0208600D03*
X0225844Y0208600D03*
X0225844Y0212600D03*
X0225844Y0216600D03*
X0225844Y0220600D03*
X0225844Y0224600D03*
X0225844Y0228600D03*
X0225844Y0232600D03*
X0229844Y0232600D03*
X0229844Y0228600D03*
X0229844Y0224600D03*
X0229844Y0220600D03*
X0229844Y0216600D03*
X0229844Y0212600D03*
X0220844Y0212600D03*
X0216844Y0212600D03*
X0216844Y0208600D03*
X0220844Y0208600D03*
X0220844Y0216600D03*
X0216844Y0216600D03*
X0216844Y0220600D03*
X0216844Y0224600D03*
X0216844Y0228600D03*
X0216844Y0232600D03*
X0220844Y0232600D03*
X0220844Y0228600D03*
X0220844Y0224600D03*
X0220844Y0220600D03*
X0207844Y0215600D03*
X0207844Y0209600D03*
X0207844Y0204100D03*
X0214344Y0195600D03*
X0211844Y0193100D03*
X0209344Y0190600D03*
X0206844Y0193100D03*
X0204344Y0190600D03*
X0201844Y0193100D03*
X0201844Y0188100D03*
X0204344Y0185600D03*
X0201844Y0183100D03*
X0199344Y0180600D03*
X0201844Y0178100D03*
X0204344Y0180600D03*
X0206844Y0183100D03*
X0209344Y0185600D03*
X0206844Y0188100D03*
X0211844Y0188100D03*
X0214344Y0190600D03*
X0216844Y0193100D03*
X0219344Y0195600D03*
X0225844Y0195600D03*
X0234844Y0190100D03*
X0237344Y0194100D03*
X0237344Y0199600D03*
X0245844Y0194100D03*
X0256844Y0190100D03*
X0260344Y0197600D03*
X0255344Y0202100D03*
X0275344Y0195100D03*
X0281344Y0199600D03*
X0285344Y0201600D03*
X0294344Y0201600D03*
X0297844Y0197600D03*
X0301344Y0201600D03*
X0305844Y0197600D03*
X0306844Y0190600D03*
X0306844Y0185100D03*
X0306844Y0180100D03*
X0300344Y0180100D03*
X0300344Y0175100D03*
X0300344Y0170100D03*
X0309844Y0165100D03*
X0309844Y0159600D03*
X0315844Y0165100D03*
X0320344Y0166600D03*
X0320344Y0171100D03*
X0325344Y0166100D03*
X0333344Y0166600D03*
X0339344Y0170100D03*
X0335844Y0173600D03*
X0345844Y0171600D03*
X0350844Y0172600D03*
X0354344Y0168100D03*
X0358344Y0162600D03*
X0356844Y0155600D03*
X0362344Y0155600D03*
X0367344Y0144100D03*
X0375344Y0139100D03*
X0375344Y0150100D03*
X0388844Y0149100D03*
X0393844Y0149100D03*
X0393844Y0144100D03*
X0401344Y0149100D03*
X0407844Y0149100D03*
X0417344Y0159100D03*
X0418844Y0164100D03*
X0413844Y0164100D03*
X0413844Y0169100D03*
X0408844Y0169100D03*
X0403844Y0169100D03*
X0403844Y0174100D03*
X0408844Y0174100D03*
X0413844Y0174100D03*
X0418844Y0174100D03*
X0418844Y0169100D03*
X0426344Y0166600D03*
X0426344Y0171600D03*
X0426344Y0176600D03*
X0426344Y0181600D03*
X0421344Y0181600D03*
X0421344Y0186600D03*
X0416844Y0194100D03*
X0426844Y0204100D03*
X0416344Y0216600D03*
X0416344Y0221600D03*
X0416344Y0226600D03*
X0416344Y0231600D03*
X0416344Y0236600D03*
X0416344Y0241600D03*
X0421344Y0241600D03*
X0421344Y0236600D03*
X0421344Y0231600D03*
X0421344Y0226600D03*
X0421344Y0221600D03*
X0426344Y0226600D03*
X0426344Y0231600D03*
X0426344Y0236600D03*
X0410844Y0221600D03*
X0406344Y0221600D03*
X0401344Y0221600D03*
X0396344Y0221600D03*
X0396344Y0216600D03*
X0396344Y0211600D03*
X0396344Y0206600D03*
X0394844Y0202600D03*
X0382344Y0213100D03*
X0382344Y0220600D03*
X0377344Y0222100D03*
X0378344Y0227100D03*
X0383844Y0229100D03*
X0391344Y0226600D03*
X0386344Y0237600D03*
X0390844Y0241600D03*
X0396344Y0246600D03*
X0396344Y0251600D03*
X0391344Y0251600D03*
X0391344Y0256600D03*
X0391344Y0268100D03*
X0391344Y0272100D03*
X0391344Y0276600D03*
X0386344Y0276600D03*
X0386344Y0272100D03*
X0386344Y0268100D03*
X0381344Y0268100D03*
X0381344Y0272100D03*
X0381344Y0276600D03*
X0381344Y0281600D03*
X0381344Y0286100D03*
X0376344Y0286100D03*
X0371344Y0286100D03*
X0366344Y0286100D03*
X0386344Y0286100D03*
X0386344Y0281600D03*
X0391344Y0281600D03*
X0396344Y0281600D03*
X0396344Y0276600D03*
X0396344Y0272100D03*
X0396344Y0268100D03*
X0401344Y0276600D03*
X0401344Y0281600D03*
X0401344Y0286600D03*
X0401344Y0291600D03*
X0401344Y0296600D03*
X0401344Y0301600D03*
X0406344Y0301600D03*
X0406344Y0296600D03*
X0406344Y0291600D03*
X0406344Y0286600D03*
X0406344Y0281600D03*
X0406344Y0277100D03*
X0411344Y0276600D03*
X0411344Y0281600D03*
X0411344Y0286600D03*
X0411344Y0291600D03*
X0416344Y0291600D03*
X0416344Y0286600D03*
X0416344Y0281600D03*
X0416344Y0276600D03*
X0421344Y0276600D03*
X0421344Y0281600D03*
X0421344Y0286600D03*
X0421344Y0291600D03*
X0421344Y0296600D03*
X0421344Y0301600D03*
X0426344Y0301600D03*
X0426344Y0296600D03*
X0426344Y0291600D03*
X0426344Y0286600D03*
X0426344Y0281600D03*
X0426344Y0277100D03*
X0430844Y0259100D03*
X0401344Y0241600D03*
X0371844Y0242100D03*
X0367344Y0246600D03*
X0370844Y0248600D03*
X0370844Y0256600D03*
X0360844Y0246600D03*
X0356344Y0246600D03*
X0351344Y0246600D03*
X0351344Y0241600D03*
X0356344Y0241600D03*
X0355844Y0237600D03*
X0360844Y0241600D03*
X0351344Y0251600D03*
X0341344Y0261600D03*
X0336344Y0261600D03*
X0336344Y0256600D03*
X0336344Y0251100D03*
X0331344Y0251100D03*
X0326344Y0251100D03*
X0321344Y0251100D03*
X0316344Y0251100D03*
X0310844Y0249100D03*
X0305344Y0249100D03*
X0300844Y0249100D03*
X0300844Y0244100D03*
X0305344Y0244100D03*
X0305344Y0239100D03*
X0309344Y0239600D03*
X0300844Y0239100D03*
X0288344Y0241600D03*
X0288344Y0235100D03*
X0275344Y0226600D03*
X0309344Y0208600D03*
X0316344Y0208600D03*
X0318344Y0202600D03*
X0318344Y0197600D03*
X0318344Y0190600D03*
X0318344Y0185100D03*
X0312844Y0185100D03*
X0318344Y0178600D03*
X0300344Y0185100D03*
X0300344Y0190600D03*
X0294844Y0190600D03*
X0294844Y0185100D03*
X0294844Y0180100D03*
X0294844Y0175100D03*
X0294844Y0170100D03*
X0284844Y0169100D03*
X0273844Y0165100D03*
X0273844Y0174600D03*
X0273844Y0184100D03*
X0284344Y0185100D03*
X0289344Y0185100D03*
X0255844Y0166100D03*
X0248344Y0166100D03*
X0248344Y0161600D03*
X0252344Y0152600D03*
X0258344Y0150600D03*
X0257844Y0157100D03*
X0263844Y0155100D03*
X0268344Y0147100D03*
X0276344Y0151100D03*
X0284844Y0151100D03*
X0288844Y0147100D03*
X0296344Y0151100D03*
X0305344Y0147100D03*
X0306344Y0141600D03*
X0307844Y0136100D03*
X0307844Y0130600D03*
X0307844Y0125100D03*
X0302344Y0125100D03*
X0297344Y0125100D03*
X0297344Y0119600D03*
X0292344Y0119600D03*
X0292344Y0114100D03*
X0297344Y0114100D03*
X0296844Y0109100D03*
X0292344Y0106100D03*
X0285844Y0107100D03*
X0285844Y0102600D03*
X0285844Y0094600D03*
X0278344Y0088100D03*
X0271844Y0092600D03*
X0266344Y0091600D03*
X0261344Y0091600D03*
X0261344Y0086600D03*
X0261344Y0081600D03*
X0261344Y0076600D03*
X0261344Y0071600D03*
X0255084Y0079100D03*
X0251344Y0081600D03*
X0251344Y0086600D03*
X0246344Y0089100D03*
X0246344Y0083600D03*
X0242344Y0077600D03*
X0242844Y0068100D03*
X0242844Y0057600D03*
X0237844Y0057600D03*
X0232844Y0057600D03*
X0227844Y0057600D03*
X0220344Y0059600D03*
X0217844Y0063100D03*
X0217844Y0069600D03*
X0217844Y0075100D03*
X0222844Y0076600D03*
X0217344Y0080600D03*
X0217844Y0086600D03*
X0222344Y0086600D03*
X0222344Y0091600D03*
X0217844Y0091600D03*
X0198844Y0077600D03*
X0196344Y0084100D03*
X0191344Y0084100D03*
X0191344Y0079100D03*
X0183844Y0081600D03*
X0183844Y0086600D03*
X0183844Y0091600D03*
X0183844Y0096600D03*
X0183844Y0101600D03*
X0183844Y0106600D03*
X0187344Y0110100D03*
X0183844Y0111600D03*
X0190344Y0114100D03*
X0191344Y0106600D03*
X0191344Y0101600D03*
X0196344Y0101600D03*
X0196344Y0106600D03*
X0198344Y0114100D03*
X0198844Y0124600D03*
X0188344Y0135100D03*
X0201844Y0151600D03*
X0204844Y0148600D03*
X0208344Y0151600D03*
X0211344Y0154600D03*
X0214344Y0157600D03*
X0205844Y0161600D03*
X0201844Y0161100D03*
X0199344Y0163600D03*
X0196844Y0166100D03*
X0193344Y0169600D03*
X0190844Y0172100D03*
X0188344Y0174600D03*
X0185844Y0172100D03*
X0183344Y0174600D03*
X0179844Y0173600D03*
X0182344Y0171100D03*
X0184844Y0168600D03*
X0187344Y0166100D03*
X0188344Y0169600D03*
X0190844Y0167100D03*
X0180844Y0157600D03*
X0177844Y0160600D03*
X0174844Y0163600D03*
X0171844Y0166600D03*
X0168844Y0169600D03*
X0165844Y0172600D03*
X0165844Y0180600D03*
X0159344Y0181100D03*
X0152844Y0181100D03*
X0156844Y0186100D03*
X0164844Y0194100D03*
X0167844Y0191100D03*
X0170844Y0194100D03*
X0180844Y0194100D03*
X0178344Y0202100D03*
X0183844Y0202100D03*
X0183344Y0209600D03*
X0183344Y0215600D03*
X0181344Y0226600D03*
X0181344Y0231600D03*
X0186344Y0231600D03*
X0186344Y0226600D03*
X0196344Y0218100D03*
X0202344Y0229600D03*
X0202344Y0239600D03*
X0202344Y0249100D03*
X0212844Y0239600D03*
X0191344Y0239100D03*
X0186344Y0246600D03*
X0186344Y0251600D03*
X0186344Y0256600D03*
X0190844Y0259100D03*
X0179344Y0263100D03*
X0178844Y0271600D03*
X0169844Y0267600D03*
X0168344Y0263100D03*
X0165844Y0271600D03*
X0162344Y0275100D03*
X0156844Y0275100D03*
X0156844Y0280600D03*
X0150844Y0280600D03*
X0150844Y0275100D03*
X0143844Y0275100D03*
X0144344Y0270100D03*
X0149344Y0265600D03*
X0154344Y0265600D03*
X0158844Y0262600D03*
X0161344Y0258100D03*
X0153344Y0258100D03*
X0148844Y0258100D03*
X0142344Y0255600D03*
X0132844Y0255600D03*
X0129344Y0243600D03*
X0124844Y0243600D03*
X0126344Y0239600D03*
X0118344Y0242100D03*
X0113344Y0242100D03*
X0113344Y0247600D03*
X0118344Y0247600D03*
X0111344Y0255600D03*
X0101844Y0255600D03*
X0101844Y0242100D03*
X0104344Y0238100D03*
X0113344Y0235600D03*
X0113344Y0231600D03*
X0118344Y0231600D03*
X0118344Y0235600D03*
X0132844Y0228600D03*
X0137344Y0238100D03*
X0133844Y0241600D03*
X0142344Y0241600D03*
X0151844Y0241600D03*
X0161344Y0231600D03*
X0165844Y0231600D03*
X0165844Y0226600D03*
X0161344Y0226600D03*
X0151344Y0219100D03*
X0146844Y0219100D03*
X0146844Y0215100D03*
X0151844Y0210100D03*
X0156344Y0215100D03*
X0143344Y0201100D03*
X0143344Y0196600D03*
X0143844Y0193100D03*
X0143844Y0189100D03*
X0139844Y0191100D03*
X0134844Y0196600D03*
X0134844Y0201600D03*
X0134844Y0206100D03*
X0138844Y0207100D03*
X0126844Y0207100D03*
X0126844Y0203100D03*
X0121344Y0203100D03*
X0121344Y0199100D03*
X0124844Y0196600D03*
X0129891Y0191100D03*
X0124344Y0188100D03*
X0126344Y0185100D03*
X0132844Y0185100D03*
X0109844Y0194100D03*
X0106344Y0194100D03*
X0106344Y0200100D03*
X0109844Y0200100D03*
X0121344Y0207100D03*
X0116344Y0211600D03*
X0111344Y0211600D03*
X0108344Y0222600D03*
X0098344Y0222600D03*
X0110844Y0270100D03*
X0109844Y0280600D03*
X0109844Y0286600D03*
X0120344Y0286600D03*
X0125344Y0286600D03*
X0125344Y0292600D03*
X0125344Y0297600D03*
X0134844Y0292600D03*
X0134844Y0286600D03*
X0134844Y0280600D03*
X0134844Y0275100D03*
X0133844Y0270100D03*
X0125344Y0280600D03*
X0120344Y0280600D03*
X0136344Y0299100D03*
X0136344Y0306600D03*
X0142844Y0311600D03*
X0145344Y0315100D03*
X0145344Y0320100D03*
X0145344Y0324600D03*
X0145344Y0330100D03*
X0156344Y0316600D03*
X0156344Y0311600D03*
X0156344Y0306600D03*
X0156344Y0301600D03*
X0161344Y0301600D03*
X0161344Y0296600D03*
X0161344Y0306600D03*
X0146844Y0293100D03*
X0143844Y0286600D03*
X0143844Y0280600D03*
X0162844Y0240600D03*
X0167344Y0242600D03*
X0179844Y0242600D03*
X0190844Y0194100D03*
X0190844Y0181600D03*
X0176344Y0174600D03*
X0205344Y0174600D03*
X0207844Y0172100D03*
X0210344Y0174600D03*
X0207844Y0177100D03*
X0210344Y0179600D03*
X0212844Y0177100D03*
X0212844Y0182100D03*
X0215844Y0185100D03*
X0223844Y0185600D03*
X0237344Y0178600D03*
X0239344Y0174600D03*
X0244844Y0169100D03*
X0229844Y0159600D03*
X0224844Y0168600D03*
X0214344Y0168600D03*
X0206844Y0165600D03*
X0215844Y0139100D03*
X0212344Y0136100D03*
X0215844Y0124100D03*
X0215844Y0115100D03*
X0210644Y0114100D03*
X0225344Y0115100D03*
X0230044Y0114100D03*
X0241844Y0114100D03*
X0246344Y0105100D03*
X0243344Y0101600D03*
X0252844Y0103100D03*
X0258844Y0100100D03*
X0261344Y0096600D03*
X0266344Y0096600D03*
X0266344Y0101600D03*
X0266344Y0106600D03*
X0255844Y0114100D03*
X0252344Y0110600D03*
X0241844Y0124100D03*
X0240844Y0134600D03*
X0236844Y0137100D03*
X0228344Y0135600D03*
X0225844Y0139100D03*
X0225344Y0124100D03*
X0247344Y0134600D03*
X0255344Y0134600D03*
X0271344Y0136600D03*
X0271844Y0129100D03*
X0282844Y0121600D03*
X0279344Y0118600D03*
X0282844Y0114600D03*
X0272844Y0118600D03*
X0285844Y0131100D03*
X0286344Y0136100D03*
X0291344Y0136100D03*
X0317344Y0143100D03*
X0321084Y0146100D03*
X0317344Y0149100D03*
X0325844Y0149600D03*
X0333844Y0149600D03*
X0333844Y0142600D03*
X0325844Y0142600D03*
X0325844Y0133100D03*
X0333844Y0133100D03*
X0333844Y0124600D03*
X0325844Y0124600D03*
X0345844Y0146100D03*
X0350844Y0150100D03*
X0352344Y0142100D03*
X0351844Y0133100D03*
X0352344Y0124600D03*
X0359344Y0126600D03*
X0364344Y0121600D03*
X0364344Y0116100D03*
X0364344Y0110600D03*
X0372344Y0110100D03*
X0373344Y0117100D03*
X0384344Y0120100D03*
X0383344Y0126600D03*
X0371844Y0128600D03*
X0401344Y0126600D03*
X0401344Y0121600D03*
X0401344Y0116600D03*
X0401344Y0131600D03*
X0406344Y0131600D03*
X0411344Y0131600D03*
X0423844Y0129100D03*
X0423844Y0124100D03*
X0428844Y0124100D03*
X0428844Y0129100D03*
X0428844Y0119100D03*
X0423844Y0119100D03*
X0423844Y0114100D03*
X0428844Y0114100D03*
X0428844Y0089100D03*
X0418844Y0089100D03*
X0408844Y0089100D03*
X0408844Y0079100D03*
X0408844Y0069100D03*
X0398844Y0069100D03*
X0388844Y0069100D03*
X0378844Y0069100D03*
X0371844Y0089600D03*
X0364844Y0089100D03*
X0358844Y0089600D03*
X0351844Y0102600D03*
X0345844Y0104100D03*
X0337344Y0104100D03*
X0328844Y0104100D03*
X0320844Y0104100D03*
X0314844Y0101100D03*
X0310344Y0101600D03*
X0310344Y0095100D03*
X0314844Y0094100D03*
X0314844Y0084600D03*
X0310344Y0084100D03*
X0314844Y0079600D03*
X0320844Y0079600D03*
X0326344Y0082100D03*
X0326344Y0077100D03*
X0326344Y0071600D03*
X0326344Y0066600D03*
X0326344Y0061600D03*
X0303844Y0059100D03*
X0298844Y0059100D03*
X0293844Y0059100D03*
X0288844Y0059100D03*
X0286844Y0063100D03*
X0288844Y0069100D03*
X0293844Y0069100D03*
X0293844Y0064100D03*
X0298844Y0064100D03*
X0298844Y0069100D03*
X0304344Y0069100D03*
X0303844Y0064100D03*
X0285844Y0076600D03*
X0285844Y0082100D03*
X0295844Y0085600D03*
X0304344Y0085600D03*
X0301844Y0092600D03*
X0266344Y0086600D03*
X0261344Y0063100D03*
X0263844Y0057600D03*
X0258344Y0057600D03*
X0252844Y0057600D03*
X0247844Y0057600D03*
X0269344Y0057600D03*
X0277344Y0056600D03*
X0226344Y0068100D03*
X0199344Y0067600D03*
X0199344Y0059100D03*
X0179344Y0060100D03*
X0166344Y0086600D03*
X0166344Y0091600D03*
X0166344Y0096600D03*
X0168844Y0101600D03*
X0168844Y0106600D03*
X0168844Y0111600D03*
X0168844Y0116600D03*
X0163844Y0116600D03*
X0168844Y0121600D03*
X0165344Y0124600D03*
X0168844Y0126600D03*
X0168844Y0131600D03*
X0161344Y0131600D03*
X0156344Y0131600D03*
X0152844Y0134600D03*
X0146344Y0129100D03*
X0146344Y0124100D03*
X0146344Y0119600D03*
X0132344Y0116600D03*
X0138344Y0137600D03*
X0136844Y0141600D03*
X0141344Y0141600D03*
X0136844Y0146600D03*
X0136844Y0154600D03*
X0142844Y0159600D03*
X0168344Y0146100D03*
X0191344Y0089100D03*
X0196344Y0089100D03*
X0333844Y0159100D03*
X0338344Y0182600D03*
X0340844Y0188600D03*
X0346344Y0181600D03*
X0351344Y0181600D03*
X0355844Y0188100D03*
X0364844Y0188100D03*
X0370844Y0188100D03*
X0380344Y0187600D03*
X0386844Y0187600D03*
X0384344Y0178600D03*
X0383844Y0174100D03*
X0378844Y0174100D03*
X0373844Y0174100D03*
X0368844Y0174100D03*
X0363844Y0174100D03*
X0368844Y0169100D03*
X0373844Y0169100D03*
X0373844Y0164100D03*
X0378844Y0169100D03*
X0383844Y0169100D03*
X0389344Y0169100D03*
X0401844Y0188100D03*
X0396844Y0190600D03*
X0359844Y0209100D03*
X0359844Y0219100D03*
X0342344Y0228600D03*
X0337344Y0225600D03*
X0332844Y0225100D03*
X0332844Y0236600D03*
X0326344Y0238100D03*
X0321344Y0238100D03*
X0316344Y0239600D03*
X0311344Y0256600D03*
X0311344Y0261600D03*
X0306344Y0261600D03*
X0306344Y0266600D03*
X0311344Y0266600D03*
X0299844Y0264100D03*
X0299844Y0269100D03*
X0299844Y0274100D03*
X0299844Y0279100D03*
X0299844Y0284100D03*
X0299844Y0289100D03*
X0299844Y0294100D03*
X0299844Y0299100D03*
X0299844Y0304100D03*
X0299844Y0309100D03*
X0299844Y0314100D03*
X0299844Y0319100D03*
X0299844Y0324100D03*
X0304844Y0324100D03*
X0309844Y0324100D03*
X0314844Y0324100D03*
X0319844Y0324100D03*
X0324844Y0324100D03*
X0329844Y0324100D03*
X0334844Y0324100D03*
X0339844Y0324100D03*
X0344844Y0324100D03*
X0349844Y0324100D03*
X0354844Y0324100D03*
X0359844Y0324100D03*
X0364844Y0324100D03*
X0369844Y0324100D03*
X0374844Y0324100D03*
X0379844Y0324100D03*
X0384844Y0324100D03*
X0389844Y0324100D03*
X0394844Y0324100D03*
X0399844Y0324100D03*
X0404844Y0324100D03*
X0409844Y0324100D03*
X0414844Y0324100D03*
X0414844Y0320600D03*
X0414844Y0327600D03*
X0421344Y0346600D03*
X0421344Y0351600D03*
X0421344Y0356600D03*
X0416344Y0356600D03*
X0411344Y0356600D03*
X0406344Y0356600D03*
X0401344Y0356600D03*
X0401344Y0351600D03*
X0401344Y0346600D03*
X0406344Y0346600D03*
X0406344Y0351600D03*
X0416344Y0361600D03*
X0416344Y0366600D03*
X0426344Y0356600D03*
X0426344Y0351600D03*
X0426344Y0346600D03*
X0396344Y0366600D03*
X0391344Y0366600D03*
X0386344Y0366600D03*
X0386344Y0362100D03*
X0381344Y0362100D03*
X0381344Y0366600D03*
X0381344Y0371600D03*
X0381344Y0376600D03*
X0386344Y0376600D03*
X0386344Y0371600D03*
X0391344Y0371600D03*
X0391344Y0376600D03*
X0396344Y0371600D03*
X0386344Y0381600D03*
X0381344Y0381600D03*
X0376344Y0381600D03*
X0371344Y0381600D03*
X0366344Y0381600D03*
X0361344Y0386600D03*
X0356344Y0391600D03*
X0356344Y0396600D03*
X0351344Y0396600D03*
X0346344Y0396600D03*
X0341344Y0396600D03*
X0336344Y0396600D03*
X0336344Y0391600D03*
X0346344Y0391600D03*
X0351344Y0386600D03*
X0361344Y0396600D03*
X0366344Y0396600D03*
X0366344Y0391600D03*
X0371344Y0386600D03*
X0376344Y0391600D03*
X0371344Y0396600D03*
X0381344Y0386600D03*
X0391344Y0401600D03*
X0381344Y0411600D03*
X0401344Y0411600D03*
X0416344Y0411600D03*
X0426344Y0386600D03*
X0376344Y0362100D03*
X0371344Y0362100D03*
X0366844Y0362100D03*
X0311344Y0386600D03*
X0306344Y0391600D03*
X0301344Y0386600D03*
X0301344Y0396600D03*
X0292344Y0398600D03*
X0282344Y0398600D03*
X0272344Y0398600D03*
X0263844Y0397100D03*
X0258844Y0397100D03*
X0258844Y0391600D03*
X0263844Y0391600D03*
X0261344Y0386600D03*
X0253844Y0394100D03*
X0248844Y0394100D03*
X0243844Y0394100D03*
X0238844Y0375600D03*
X0248844Y0375600D03*
X0258844Y0376100D03*
X0279344Y0377100D03*
X0284844Y0377100D03*
X0299844Y0369100D03*
X0299844Y0364100D03*
X0299844Y0359100D03*
X0299844Y0354100D03*
X0299844Y0349100D03*
X0299844Y0344100D03*
X0299844Y0339100D03*
X0299844Y0334100D03*
X0299844Y0329100D03*
X0293844Y0329100D03*
X0288844Y0329100D03*
X0288844Y0324100D03*
X0288844Y0319100D03*
X0293844Y0319100D03*
X0293844Y0324100D03*
X0271844Y0324100D03*
X0271844Y0329100D03*
X0271844Y0334100D03*
X0271844Y0339100D03*
X0271844Y0344100D03*
X0261844Y0346100D03*
X0256344Y0346100D03*
X0256344Y0350600D03*
X0251344Y0354600D03*
X0245344Y0354600D03*
X0233844Y0349100D03*
X0228844Y0349100D03*
X0223844Y0349100D03*
X0218844Y0349100D03*
X0228844Y0344100D03*
X0228844Y0339100D03*
X0228844Y0334100D03*
X0233844Y0334100D03*
X0233844Y0329100D03*
X0226344Y0329100D03*
X0227844Y0322100D03*
X0226344Y0316600D03*
X0226344Y0311100D03*
X0219344Y0311100D03*
X0219344Y0316600D03*
X0233844Y0316600D03*
X0233844Y0311100D03*
X0240844Y0311100D03*
X0240844Y0316600D03*
X0240844Y0322100D03*
X0246344Y0316600D03*
X0246344Y0311100D03*
X0252844Y0315100D03*
X0252344Y0322100D03*
X0254344Y0327600D03*
X0253844Y0334600D03*
X0233844Y0339100D03*
X0233844Y0344100D03*
X0216344Y0329100D03*
X0233844Y0322100D03*
X0240844Y0304100D03*
X0246344Y0304100D03*
X0246344Y0297600D03*
X0240844Y0297600D03*
X0240844Y0290600D03*
X0246344Y0290600D03*
X0253844Y0294100D03*
X0258844Y0294100D03*
X0271344Y0293100D03*
X0271344Y0299100D03*
X0271344Y0304100D03*
X0271344Y0309100D03*
X0271344Y0314100D03*
X0252844Y0305600D03*
X0234344Y0290600D03*
X0228344Y0290600D03*
X0222344Y0290600D03*
X0216844Y0290600D03*
X0271344Y0286600D03*
X0271344Y0281600D03*
X0271344Y0276600D03*
X0340844Y0205600D03*
X0340844Y0197100D03*
X0347344Y0198600D03*
X0351344Y0268100D03*
X0356344Y0268100D03*
X0361344Y0268100D03*
X0366344Y0268100D03*
X0371344Y0268100D03*
X0376344Y0268100D03*
X0427344Y0149100D03*
X0428844Y0079100D03*
X0418844Y0079100D03*
X0418844Y0069100D03*
X0428844Y0069100D03*
X0126844Y0320100D03*
X0126844Y0325100D03*
X0126844Y0330100D03*
X0109344Y0333100D03*
X0095344Y0318600D03*
X0095344Y0312600D03*
X0095344Y0306600D03*
X0094844Y0300100D03*
X0092344Y0292100D03*
X0086344Y0296600D03*
X0103844Y0366600D03*
X0118844Y0371600D03*
X0311344Y0397100D03*
M02*
