%
M48
M72
T01C0.01378
T02C0.02400
T03C0.03200
T04C0.04000
T05C0.05906
T06C0.06299
T07C0.08200
%
T01
X152481Y78308
X222481Y113308
X242717Y93347
X257481Y125808
X297481Y93308
X307481Y140808
X340355Y144135
X342481Y123308
X367481Y83308
X407481Y138308
X407481Y198308
X362481Y218308
X332481Y193308
X332481Y178308
X292481Y178308
X272481Y228308
X277481Y233308
X332481Y258308
X332481Y303308
X347481Y303308
X362481Y303308
X377481Y303308
X352481Y353308
X342481Y353308
X332481Y353308
X322481Y353308
X312481Y353308
X302481Y353308
X317481Y393308
X332481Y393308
X347481Y393308
X362481Y393308
X377481Y393308
X317481Y303308
X217481Y263308
X217481Y188308
X167481Y158308
X77481Y208308
X132481Y263308
X142481Y348308
X142481Y353308
X142481Y358308
X147481Y358308
X152481Y358308
X152481Y353308
X147481Y353308
X147481Y348308
X152481Y348308
X92481Y393308
T02
X217481Y348308
X217481Y338308
X217481Y328308
T03
X174481Y235379
X167410Y228308
X174481Y221237
X181552Y228308
T04
X227481Y298308
X227481Y308308
X242481Y380308
X252481Y380308
X187481Y398308
X177481Y398308
X167481Y398308
X410981Y363308
X410981Y353308
X410981Y343308
X402481Y123308
X392481Y123308
X382481Y123308
X410481Y103308
X410481Y93308
X254174Y69174
X244174Y69174
X234174Y69174
T05
X401481Y168308
X401481Y233308
T06
X391481Y243308
X411481Y243308
X411481Y223308
X391481Y223308
X391481Y178308
X391481Y158308
X411481Y158308
X411481Y178308
T07
X79981Y118623
X99981Y118623
X119981Y118623
M30
