G75*
%MOIN*%
%OFA0B0*%
%FSLAX25Y25*%
%IPPOS*%
%LPD*%
%AMOC8*
5,1,8,0,0,1.08239X$1,22.5*
%
%ADD10R,0.24409X0.22835*%
%ADD11R,0.11811X0.06299*%
%ADD12R,0.04331X0.03937*%
%ADD13R,0.03937X0.04331*%
%ADD14R,0.07874X0.07874*%
%ADD15R,0.08465X0.21654*%
%ADD16R,0.03937X0.05512*%
%ADD17R,0.05000X0.13000*%
%ADD18R,0.07000X0.09000*%
%ADD19R,0.05000X0.10000*%
%ADD20R,0.08661X0.02362*%
%ADD21R,0.01400X0.04600*%
%ADD22R,0.07800X0.02200*%
%ADD23R,0.04724X0.04724*%
%ADD24R,0.02000X0.02000*%
%ADD25R,0.05512X0.03937*%
%ADD26R,0.05200X0.02200*%
%ADD27R,0.06299X0.07874*%
%ADD28R,0.12598X0.07087*%
D10*
X0168111Y0353308D03*
D11*
X0196379Y0362284D03*
X0196379Y0344331D03*
D12*
X0194135Y0353308D03*
X0200828Y0353308D03*
X0182481Y0335654D03*
X0182481Y0328961D03*
X0173981Y0328961D03*
X0173981Y0335654D03*
X0160828Y0313308D03*
X0154135Y0313308D03*
X0154135Y0268308D03*
X0160828Y0268308D03*
X0174135Y0268308D03*
X0180828Y0268308D03*
X0148347Y0222461D03*
X0148347Y0215769D03*
X0234481Y0319961D03*
X0234481Y0326654D03*
X0242981Y0326654D03*
X0242981Y0319961D03*
X0251481Y0319961D03*
X0251481Y0326654D03*
X0259981Y0326654D03*
X0259981Y0319961D03*
X0260981Y0300154D03*
X0252481Y0300154D03*
X0252481Y0293461D03*
X0260981Y0293461D03*
X0287481Y0324961D03*
X0287481Y0331654D03*
X0259981Y0349461D03*
X0259981Y0356154D03*
X0251481Y0356154D03*
X0251481Y0349461D03*
X0227481Y0369961D03*
X0227481Y0376654D03*
X0287481Y0374961D03*
X0287481Y0381654D03*
X0389135Y0369800D03*
X0395828Y0369800D03*
X0395828Y0336816D03*
X0389135Y0336816D03*
X0322481Y0226654D03*
X0322481Y0219961D03*
X0322481Y0211654D03*
X0322481Y0204961D03*
X0362481Y0205654D03*
X0362481Y0198961D03*
X0370981Y0198961D03*
X0370981Y0205654D03*
X0379481Y0205654D03*
X0379481Y0198961D03*
X0340828Y0133308D03*
X0334135Y0133308D03*
X0265981Y0091654D03*
X0257481Y0091654D03*
X0257481Y0084961D03*
X0265981Y0084961D03*
D13*
X0164135Y0128308D03*
X0170828Y0128308D03*
X0222135Y0130308D03*
X0228828Y0130308D03*
X0239981Y0130654D03*
X0239981Y0123961D03*
X0248481Y0123961D03*
X0248481Y0130654D03*
X0257481Y0104654D03*
X0257481Y0097961D03*
X0286981Y0140961D03*
X0286981Y0147654D03*
X0295481Y0147654D03*
X0295481Y0140961D03*
X0349135Y0133308D03*
X0355828Y0133308D03*
X0359481Y0121654D03*
X0359481Y0114961D03*
X0350981Y0114961D03*
X0350981Y0121654D03*
X0345828Y0193308D03*
X0339135Y0193308D03*
X0322481Y0191961D03*
X0322481Y0198654D03*
X0313981Y0198654D03*
X0313981Y0191961D03*
X0313981Y0204961D03*
X0313981Y0211654D03*
X0347981Y0221461D03*
X0347981Y0228154D03*
X0356981Y0228154D03*
X0356981Y0221461D03*
X0369135Y0223308D03*
X0375828Y0223308D03*
X0375828Y0233308D03*
X0369135Y0233308D03*
X0369135Y0243308D03*
X0375828Y0243308D03*
X0243981Y0293461D03*
X0243981Y0300154D03*
X0202481Y0312961D03*
X0202481Y0319654D03*
X0207481Y0369961D03*
X0207481Y0376654D03*
X0217481Y0376654D03*
X0217481Y0369961D03*
D14*
X0185855Y0381308D03*
X0170107Y0381308D03*
X0175107Y0317308D03*
X0190855Y0317308D03*
D15*
X0330591Y0334808D03*
X0344371Y0334808D03*
X0344371Y0371808D03*
X0330591Y0371808D03*
X0334371Y0103308D03*
X0320591Y0103308D03*
D16*
X0196481Y0326977D03*
X0192741Y0335639D03*
X0200221Y0335639D03*
X0238741Y0333977D03*
X0246221Y0333977D03*
X0242481Y0342639D03*
X0253741Y0342639D03*
X0261221Y0342639D03*
X0257481Y0333977D03*
D17*
X0367481Y0343308D03*
X0367481Y0363308D03*
X0367481Y0383308D03*
X0367481Y0323308D03*
D18*
X0318485Y0333308D03*
X0306477Y0333308D03*
X0306477Y0373308D03*
X0318485Y0373308D03*
D19*
X0237481Y0157808D03*
X0237481Y0139808D03*
X0212481Y0139808D03*
X0212481Y0157808D03*
D20*
X0332245Y0200808D03*
X0332245Y0205808D03*
X0332245Y0210808D03*
X0332245Y0215808D03*
X0352717Y0215808D03*
X0352717Y0210808D03*
X0352717Y0205808D03*
X0352717Y0200808D03*
D21*
X0366381Y0122408D03*
X0368981Y0122408D03*
X0371581Y0122408D03*
X0371581Y0114208D03*
X0368981Y0114208D03*
X0366381Y0114208D03*
D22*
X0277181Y0130808D03*
X0277181Y0135808D03*
X0277181Y0140808D03*
X0277181Y0145808D03*
X0257781Y0145808D03*
X0257781Y0140808D03*
X0257781Y0135808D03*
X0257781Y0130808D03*
D23*
X0295981Y0324174D03*
X0295981Y0332442D03*
X0295981Y0374174D03*
X0295981Y0382442D03*
D24*
X0287481Y0358308D03*
X0287481Y0348308D03*
D25*
X0260812Y0310308D03*
X0252150Y0314048D03*
X0252150Y0306568D03*
D26*
X0241481Y0356008D03*
X0241481Y0363608D03*
X0233481Y0359808D03*
D27*
X0361969Y0103308D03*
X0372993Y0103308D03*
D28*
X0242481Y0104331D03*
X0225481Y0104331D03*
X0225481Y0082284D03*
X0242481Y0082284D03*
X0167481Y0280784D03*
X0167481Y0302831D03*
M02*
