%
M48
M72
T01C0.01378
T02C0.02400
T03C0.03200
T04C0.03937
T05C0.04000
T06C0.05906
T07C0.06299
%
T01
X106344Y86600
X101344Y96600
X101344Y106600
X101344Y116600
X108844Y119100
X113844Y117100
X118844Y117100
X127344Y116600
X127344Y121600
X127344Y126600
X118844Y131600
X113844Y134100
X116844Y137600
X108844Y139100
X108844Y134100
X108844Y129100
X108844Y124100
X101344Y126600
X101344Y136600
X101344Y146600
X108844Y144100
X108844Y149100
X108844Y154100
X108844Y159100
X113844Y159100
X113844Y154100
X113844Y149100
X113844Y144100
X126844Y154100
X126844Y159100
X126844Y164100
X126844Y169600
X113844Y169100
X113844Y164100
X113844Y174100
X114344Y182100
X102844Y182100
X97344Y182100
X90344Y181600
X90344Y176600
X90344Y171600
X90344Y166600
X90344Y162100
X81344Y166600
X81344Y181600
X81344Y196600
X88844Y202100
X81344Y211600
X81344Y226600
X85844Y236600
X90344Y242100
X90344Y247600
X81344Y246600
X94344Y258100
X94344Y264600
X99344Y270100
X100844Y275100
X100844Y280600
X92344Y280600
X90344Y272100
X81344Y269100
X100844Y286600
X105344Y292600
X105344Y298100
X114344Y292600
X120344Y292600
X120344Y297600
X117344Y301360
X122844Y305600
X120344Y312100
X116344Y314100
X110844Y314100
X105844Y314600
X99344Y321600
X101844Y325600
X106344Y324600
X101844Y330600
X101844Y335600
X101844Y340600
X101844Y345600
X101844Y350600
X105344Y357600
X111344Y350600
X116844Y350600
X119844Y357600
X131844Y346100
X144844Y350600
X147344Y356100
X142344Y362100
X137344Y366100
X142844Y375600
X128844Y381600
X128844Y391600
X145844Y400600
X132844Y410600
X157844Y400600
X158844Y394100
X158844Y389100
X158844Y384100
X158844Y379100
X158844Y374100
X163844Y389100
X163844Y394100
X168844Y394100
X168844Y389100
X173844Y389100
X173844Y394100
X178844Y394100
X178844Y389100
X183844Y389100
X183844Y394100
X188844Y394100
X188844Y389100
X193844Y389100
X193844Y394100
X198844Y394100
X198844Y389100
X203844Y391600
X208844Y391600
X213844Y391600
X218844Y391600
X223844Y391600
X228844Y391600
X233844Y391600
X238844Y391600
X238844Y397100
X233844Y397100
X228844Y397100
X223844Y397100
X218844Y397100
X213844Y397100
X208844Y397100
X203844Y397100
X233844Y379100
X233844Y374100
X233844Y369600
X233844Y364100
X233844Y359100
X233844Y354100
X228844Y354100
X223844Y354100
X218844Y354100
X213844Y354100
X213844Y349100
X213844Y344100
X213844Y339100
X205844Y333100
X198844Y333100
X212344Y322100
X212344Y316600
X212344Y311100
X207344Y319100
X202344Y319100
X193844Y319100
X192344Y306600
X185344Y306600
X185344Y301600
X185344Y296600
X185344Y291100
X190344Y291100
X195344Y291100
X210844Y289600
X210844Y284600
X210844Y279600
X210844Y274600
X212844Y259600
X216844Y257600
X216844Y253600
X216844Y249600
X212844Y249600
X216844Y245600
X220844Y245600
X220844Y249600
X220844Y253600
X220844Y257600
X225844Y249600
X225844Y245600
X229844Y245600
X229844Y249600
X229844Y254600
X251344Y250600
X251344Y246100
X251344Y242100
X256344Y246100
X256344Y250600
X258344Y254600
X256344Y259100
X256344Y263600
X256344Y268100
X256344Y272100
X251344Y272100
X251344Y276600
X261344Y276600
X261344Y272100
X261344Y268100
X261344Y263600
X261344Y259100
X266344Y259100
X266344Y263600
X266344Y268100
X266344Y272100
X271344Y272100
X271344Y268100
X271344Y263600
X271344Y259100
X271344Y250600
X271344Y246100
X270273Y241600
X271344Y237100
X266344Y237100
X261344Y237100
X261344Y246100
X261344Y250600
X266344Y250600
X266344Y246100
X252344Y229100
X247844Y218600
X245844Y205600
X241344Y205600
X237344Y205600
X229844Y208600
X225844Y208600
X225844Y212600
X225844Y216600
X225844Y220600
X225844Y224600
X225844Y228600
X225844Y232600
X229844Y232600
X229844Y228600
X229844Y224600
X229844Y220600
X229844Y216600
X229844Y212600
X220844Y212600
X216844Y212600
X216844Y208600
X220844Y208600
X220844Y216600
X216844Y216600
X216844Y220600
X216844Y224600
X216844Y228600
X216844Y232600
X220844Y232600
X220844Y228600
X220844Y224600
X220844Y220600
X207844Y215600
X207844Y209600
X207844Y204100
X214344Y195600
X211844Y193100
X209344Y190600
X206844Y193100
X204344Y190600
X201844Y193100
X201844Y188100
X204344Y185600
X201844Y183100
X199344Y180600
X201844Y178100
X204344Y180600
X206844Y183100
X209344Y185600
X206844Y188100
X211844Y188100
X214344Y190600
X216844Y193100
X219344Y195600
X225844Y195600
X234844Y190100
X237344Y194100
X237344Y199600
X245844Y194100
X256844Y190100
X260344Y197600
X255344Y202100
X275344Y195100
X281344Y199600
X285344Y201600
X294344Y201600
X297844Y197600
X301344Y201600
X305844Y197600
X306844Y190600
X306844Y185100
X306844Y180100
X300344Y180100
X300344Y175100
X300344Y170100
X309844Y165100
X309844Y159600
X315844Y165100
X320344Y166600
X320344Y171100
X325344Y166100
X333344Y166600
X339344Y170100
X335844Y173600
X345844Y171600
X350844Y172600
X354344Y168100
X358344Y162600
X356844Y155600
X362344Y155600
X367344Y144100
X375344Y139100
X375344Y150100
X388844Y149100
X393844Y149100
X393844Y144100
X401344Y149100
X407844Y149100
X417344Y159100
X418844Y164100
X413844Y164100
X413844Y169100
X408844Y169100
X403844Y169100
X403844Y174100
X408844Y174100
X413844Y174100
X418844Y174100
X418844Y169100
X426344Y166600
X426344Y171600
X426344Y176600
X426344Y181600
X421344Y181600
X421344Y186600
X416844Y194100
X426844Y204100
X416344Y216600
X416344Y221600
X416344Y226600
X416344Y231600
X416344Y236600
X416344Y241600
X421344Y241600
X421344Y236600
X421344Y231600
X421344Y226600
X421344Y221600
X426344Y226600
X426344Y231600
X426344Y236600
X410844Y221600
X406344Y221600
X401344Y221600
X396344Y221600
X396344Y216600
X396344Y211600
X396344Y206600
X394844Y202600
X382344Y213100
X382344Y220600
X377344Y222100
X378344Y227100
X383844Y229100
X391344Y226600
X386344Y237600
X390844Y241600
X396344Y246600
X396344Y251600
X391344Y251600
X391344Y256600
X391344Y268100
X391344Y272100
X391344Y276600
X386344Y276600
X386344Y272100
X386344Y268100
X381344Y268100
X381344Y272100
X381344Y276600
X381344Y281600
X381344Y286100
X376344Y286100
X371344Y286100
X366344Y286100
X386344Y286100
X386344Y281600
X391344Y281600
X396344Y281600
X396344Y276600
X396344Y272100
X396344Y268100
X401344Y276600
X401344Y281600
X401344Y286600
X401344Y291600
X401344Y296600
X401344Y301600
X406344Y301600
X406344Y296600
X406344Y291600
X406344Y286600
X406344Y281600
X406344Y277100
X411344Y276600
X411344Y281600
X411344Y286600
X411344Y291600
X416344Y291600
X416344Y286600
X416344Y281600
X416344Y276600
X421344Y276600
X421344Y281600
X421344Y286600
X421344Y291600
X421344Y296600
X421344Y301600
X426344Y301600
X426344Y296600
X426344Y291600
X426344Y286600
X426344Y281600
X426344Y277100
X430844Y259100
X401344Y241600
X371844Y242100
X367344Y246600
X370844Y248600
X370844Y256600
X360844Y246600
X356344Y246600
X351344Y246600
X351344Y241600
X356344Y241600
X355844Y237600
X360844Y241600
X351344Y251600
X341344Y261600
X336344Y261600
X336344Y256600
X336344Y251100
X331344Y251100
X326344Y251100
X321344Y251100
X316344Y251100
X310844Y249100
X305344Y249100
X300844Y249100
X300844Y244100
X305344Y244100
X305344Y239100
X309344Y239600
X300844Y239100
X288344Y241600
X288344Y235100
X275344Y226600
X309344Y208600
X316344Y208600
X318344Y202600
X318344Y197600
X318344Y190600
X318344Y185100
X312844Y185100
X318344Y178600
X300344Y185100
X300344Y190600
X294844Y190600
X294844Y185100
X294844Y180100
X294844Y175100
X294844Y170100
X284844Y169100
X273844Y165100
X273844Y174600
X273844Y184100
X284344Y185100
X289344Y185100
X255844Y166100
X248344Y166100
X248344Y161600
X252344Y152600
X258344Y150600
X257844Y157100
X263844Y155100
X268344Y147100
X276344Y151100
X284844Y151100
X288844Y147100
X296344Y151100
X305344Y147100
X306344Y141600
X307844Y136100
X307844Y130600
X307844Y125100
X302344Y125100
X297344Y125100
X297344Y119600
X292344Y119600
X292344Y114100
X297344Y114100
X296844Y109100
X292344Y106100
X285844Y107100
X285844Y102600
X285844Y94600
X278344Y88100
X271844Y92600
X266344Y91600
X261344Y91600
X261344Y86600
X261344Y81600
X261344Y76600
X261344Y71600
X255084Y79100
X251344Y81600
X251344Y86600
X246344Y89100
X246344Y83600
X242344Y77600
X242844Y68100
X242844Y57600
X237844Y57600
X232844Y57600
X227844Y57600
X220344Y59600
X217844Y63100
X217844Y69600
X217844Y75100
X222844Y76600
X217344Y80600
X217844Y86600
X222344Y86600
X222344Y91600
X217844Y91600
X198844Y77600
X196344Y84100
X191344Y84100
X191344Y79100
X183844Y81600
X183844Y86600
X183844Y91600
X183844Y96600
X183844Y101600
X183844Y106600
X187344Y110100
X183844Y111600
X190344Y114100
X191344Y106600
X191344Y101600
X196344Y101600
X196344Y106600
X198344Y114100
X198844Y124600
X188344Y135100
X201844Y151600
X204844Y148600
X208344Y151600
X211344Y154600
X214344Y157600
X205844Y161600
X201844Y161100
X199344Y163600
X196844Y166100
X193344Y169600
X190844Y172100
X188344Y174600
X185844Y172100
X183344Y174600
X179844Y173600
X182344Y171100
X184844Y168600
X187344Y166100
X188344Y169600
X190844Y167100
X180844Y157600
X177844Y160600
X174844Y163600
X171844Y166600
X168844Y169600
X165844Y172600
X165844Y180600
X159344Y181100
X152844Y181100
X156844Y186100
X164844Y194100
X167844Y191100
X170844Y194100
X180844Y194100
X178344Y202100
X183844Y202100
X183344Y209600
X183344Y215600
X181344Y226600
X181344Y231600
X186344Y231600
X186344Y226600
X196344Y218100
X202344Y229600
X202344Y239600
X202344Y249100
X212844Y239600
X191344Y239100
X186344Y246600
X186344Y251600
X186344Y256600
X190844Y259100
X179344Y263100
X178844Y271600
X169844Y267600
X168344Y263100
X165844Y271600
X162344Y275100
X156844Y275100
X156844Y280600
X150844Y280600
X150844Y275100
X143844Y275100
X144344Y270100
X149344Y265600
X154344Y265600
X158844Y262600
X161344Y258100
X153344Y258100
X148844Y258100
X142344Y255600
X132844Y255600
X129344Y243600
X124844Y243600
X126344Y239600
X118344Y242100
X113344Y242100
X113344Y247600
X118344Y247600
X111344Y255600
X101844Y255600
X101844Y242100
X104344Y238100
X113344Y235600
X113344Y231600
X118344Y231600
X118344Y235600
X132844Y228600
X137344Y238100
X133844Y241600
X142344Y241600
X151844Y241600
X161344Y231600
X165844Y231600
X165844Y226600
X161344Y226600
X151344Y219100
X146844Y219100
X146844Y215100
X151844Y210100
X156344Y215100
X143344Y201100
X143344Y196600
X143844Y193100
X143844Y189100
X139844Y191100
X134844Y196600
X134844Y201600
X134844Y206100
X138844Y207100
X126844Y207100
X126844Y203100
X121344Y203100
X121344Y199100
X124844Y196600
X129891Y191100
X124344Y188100
X126344Y185100
X132844Y185100
X109844Y194100
X106344Y194100
X106344Y200100
X109844Y200100
X121344Y207100
X116344Y211600
X111344Y211600
X108344Y222600
X98344Y222600
X110844Y270100
X109844Y280600
X109844Y286600
X120344Y286600
X125344Y286600
X125344Y292600
X125344Y297600
X134844Y292600
X134844Y286600
X134844Y280600
X134844Y275100
X133844Y270100
X125344Y280600
X120344Y280600
X136344Y299100
X136344Y306600
X142844Y311600
X145344Y315100
X145344Y320100
X145344Y324600
X145344Y330100
X156344Y316600
X156344Y311600
X156344Y306600
X156344Y301600
X161344Y301600
X161344Y296600
X161344Y306600
X146844Y293100
X143844Y286600
X143844Y280600
X162844Y240600
X167344Y242600
X179844Y242600
X190844Y194100
X190844Y181600
X176344Y174600
X205344Y174600
X207844Y172100
X210344Y174600
X207844Y177100
X210344Y179600
X212844Y177100
X212844Y182100
X215844Y185100
X223844Y185600
X237344Y178600
X239344Y174600
X244844Y169100
X229844Y159600
X224844Y168600
X214344Y168600
X206844Y165600
X215844Y139100
X212344Y136100
X215844Y124100
X215844Y115100
X210644Y114100
X225344Y115100
X230044Y114100
X241844Y114100
X246344Y105100
X243344Y101600
X252844Y103100
X258844Y100100
X261344Y96600
X266344Y96600
X266344Y101600
X266344Y106600
X255844Y114100
X252344Y110600
X241844Y124100
X240844Y134600
X236844Y137100
X228344Y135600
X225844Y139100
X225344Y124100
X247344Y134600
X255344Y134600
X271344Y136600
X271844Y129100
X282844Y121600
X279344Y118600
X282844Y114600
X272844Y118600
X285844Y131100
X286344Y136100
X291344Y136100
X317344Y143100
X321084Y146100
X317344Y149100
X325844Y149600
X333844Y149600
X333844Y142600
X325844Y142600
X325844Y133100
X333844Y133100
X333844Y124600
X325844Y124600
X345844Y146100
X350844Y150100
X352344Y142100
X351844Y133100
X352344Y124600
X359344Y126600
X364344Y121600
X364344Y116100
X364344Y110600
X372344Y110100
X373344Y117100
X384344Y120100
X383344Y126600
X371844Y128600
X401344Y126600
X401344Y121600
X401344Y116600
X401344Y131600
X406344Y131600
X411344Y131600
X423844Y129100
X423844Y124100
X428844Y124100
X428844Y129100
X428844Y119100
X423844Y119100
X423844Y114100
X428844Y114100
X428844Y89100
X418844Y89100
X408844Y89100
X408844Y79100
X408844Y69100
X398844Y69100
X388844Y69100
X378844Y69100
X371844Y89600
X364844Y89100
X358844Y89600
X351844Y102600
X345844Y104100
X337344Y104100
X328844Y104100
X320844Y104100
X314844Y101100
X310344Y101600
X310344Y95100
X314844Y94100
X314844Y84600
X310344Y84100
X314844Y79600
X320844Y79600
X326344Y82100
X326344Y77100
X326344Y71600
X326344Y66600
X326344Y61600
X303844Y59100
X298844Y59100
X293844Y59100
X288844Y59100
X286844Y63100
X288844Y69100
X293844Y69100
X293844Y64100
X298844Y64100
X298844Y69100
X304344Y69100
X303844Y64100
X285844Y76600
X285844Y82100
X295844Y85600
X304344Y85600
X301844Y92600
X266344Y86600
X261344Y63100
X263844Y57600
X258344Y57600
X252844Y57600
X247844Y57600
X269344Y57600
X277344Y56600
X226344Y68100
X199344Y67600
X199344Y59100
X179344Y60100
X166344Y86600
X166344Y91600
X166344Y96600
X168844Y101600
X168844Y106600
X168844Y111600
X168844Y116600
X163844Y116600
X168844Y121600
X165344Y124600
X168844Y126600
X168844Y131600
X161344Y131600
X156344Y131600
X152844Y134600
X146344Y129100
X146344Y124100
X146344Y119600
X132344Y116600
X138344Y137600
X136844Y141600
X141344Y141600
X136844Y146600
X136844Y154600
X142844Y159600
X168344Y146100
X191344Y89100
X196344Y89100
X333844Y159100
X338344Y182600
X340844Y188600
X346344Y181600
X351344Y181600
X355844Y188100
X364844Y188100
X370844Y188100
X380344Y187600
X386844Y187600
X384344Y178600
X383844Y174100
X378844Y174100
X373844Y174100
X368844Y174100
X363844Y174100
X368844Y169100
X373844Y169100
X373844Y164100
X378844Y169100
X383844Y169100
X389344Y169100
X401844Y188100
X396844Y190600
X359844Y209100
X359844Y219100
X342344Y228600
X337344Y225600
X332844Y225100
X332844Y236600
X326344Y238100
X321344Y238100
X316344Y239600
X311344Y256600
X311344Y261600
X306344Y261600
X306344Y266600
X311344Y266600
X299844Y264100
X299844Y269100
X299844Y274100
X299844Y279100
X299844Y284100
X299844Y289100
X299844Y294100
X299844Y299100
X299844Y304100
X299844Y309100
X299844Y314100
X299844Y319100
X299844Y324100
X304844Y324100
X309844Y324100
X314844Y324100
X319844Y324100
X324844Y324100
X329844Y324100
X334844Y324100
X339844Y324100
X344844Y324100
X349844Y324100
X354844Y324100
X359844Y324100
X364844Y324100
X369844Y324100
X374844Y324100
X379844Y324100
X384844Y324100
X389844Y324100
X394844Y324100
X399844Y324100
X404844Y324100
X409844Y324100
X414844Y324100
X414844Y320600
X414844Y327600
X421344Y346600
X421344Y351600
X421344Y356600
X416344Y356600
X411344Y356600
X406344Y356600
X401344Y356600
X401344Y351600
X401344Y346600
X406344Y346600
X406344Y351600
X416344Y361600
X416344Y366600
X426344Y356600
X426344Y351600
X426344Y346600
X396344Y366600
X391344Y366600
X386344Y366600
X386344Y362100
X381344Y362100
X381344Y366600
X381344Y371600
X381344Y376600
X386344Y376600
X386344Y371600
X391344Y371600
X391344Y376600
X396344Y371600
X386344Y381600
X381344Y381600
X376344Y381600
X371344Y381600
X366344Y381600
X361344Y386600
X356344Y391600
X356344Y396600
X351344Y396600
X346344Y396600
X341344Y396600
X336344Y396600
X336344Y391600
X346344Y391600
X351344Y386600
X361344Y396600
X366344Y396600
X366344Y391600
X371344Y386600
X376344Y391600
X371344Y396600
X381344Y386600
X391344Y401600
X381344Y411600
X401344Y411600
X416344Y411600
X426344Y386600
X376344Y362100
X371344Y362100
X366844Y362100
X311344Y386600
X306344Y391600
X301344Y386600
X301344Y396600
X292344Y398600
X282344Y398600
X272344Y398600
X263844Y397100
X258844Y397100
X258844Y391600
X263844Y391600
X261344Y386600
X253844Y394100
X248844Y394100
X243844Y394100
X238844Y375600
X248844Y375600
X258844Y376100
X279344Y377100
X284844Y377100
X299844Y369100
X299844Y364100
X299844Y359100
X299844Y354100
X299844Y349100
X299844Y344100
X299844Y339100
X299844Y334100
X299844Y329100
X293844Y329100
X288844Y329100
X288844Y324100
X288844Y319100
X293844Y319100
X293844Y324100
X271844Y324100
X271844Y329100
X271844Y334100
X271844Y339100
X271844Y344100
X261844Y346100
X256344Y346100
X256344Y350600
X251344Y354600
X245344Y354600
X233844Y349100
X228844Y349100
X223844Y349100
X218844Y349100
X228844Y344100
X228844Y339100
X228844Y334100
X233844Y334100
X233844Y329100
X226344Y329100
X227844Y322100
X226344Y316600
X226344Y311100
X219344Y311100
X219344Y316600
X233844Y316600
X233844Y311100
X240844Y311100
X240844Y316600
X240844Y322100
X246344Y316600
X246344Y311100
X252844Y315100
X252344Y322100
X254344Y327600
X253844Y334600
X233844Y339100
X233844Y344100
X216344Y329100
X233844Y322100
X240844Y304100
X246344Y304100
X246344Y297600
X240844Y297600
X240844Y290600
X246344Y290600
X253844Y294100
X258844Y294100
X271344Y293100
X271344Y299100
X271344Y304100
X271344Y309100
X271344Y314100
X252844Y305600
X234344Y290600
X228344Y290600
X222344Y290600
X216844Y290600
X271344Y286600
X271344Y281600
X271344Y276600
X340844Y205600
X340844Y197100
X347344Y198600
X351344Y268100
X356344Y268100
X361344Y268100
X366344Y268100
X371344Y268100
X376344Y268100
X427344Y149100
X428844Y79100
X418844Y79100
X418844Y69100
X428844Y69100
X126844Y320100
X126844Y325100
X126844Y330100
X109344Y333100
X95344Y318600
X95344Y312600
X95344Y306600
X94844Y300100
X92344Y292100
X86344Y296600
X103844Y366600
X118844Y371600
X311344Y397100
T02
X221344Y344100
X221344Y334100
X221344Y324100
T03
X252344Y236171
X245273Y229100
X252344Y222029
X259415Y229100
T04
X414907Y375439
X414907Y392761
T05
X423844Y334100
X423844Y324100
X423844Y314100
X292466Y389100
X282466Y389100
X272466Y389100
X253344Y383600
X243344Y383600
X191844Y379100
X181844Y379100
X171844Y379100
X254344Y284100
X264344Y284100
X207344Y254600
X197344Y254600
X197344Y244600
X197344Y234600
X197344Y224600
X207344Y224600
X207344Y234600
X207344Y244600
X195844Y187600
X185844Y187600
X175844Y187600
X156844Y164600
X146844Y164600
X146844Y154600
X146844Y144600
X156844Y144600
X156844Y154600
X107344Y167600
X97344Y167600
X117344Y91100
X127344Y91100
X137344Y91100
X147344Y91100
X157344Y91100
X147344Y248600
X137344Y248600
X106844Y248600
X96844Y248600
X338537Y69966
X348537Y69966
X358537Y69966
X423907Y94100
X423907Y104100
T06
X417313Y149100
X417313Y204100
X416844Y259100
T07
X406844Y249100
X406844Y269100
X426844Y269100
X426844Y249100
X427313Y214100
X427313Y194100
X407313Y194100
X407313Y214100
X407313Y159100
X427313Y159100
X427313Y139100
X407313Y139100
M30
