G75*
%MOIN*%
%OFA0B0*%
%FSLAX25Y25*%
%IPPOS*%
%LPD*%
%AMOC8*
5,1,8,0,0,1.08239X$1,22.5*
%
%ADD10R,0.24409X0.22835*%
%ADD11R,0.11811X0.06299*%
%ADD12R,0.07874X0.07874*%
%ADD13R,0.08465X0.21654*%
%ADD14R,0.05512X0.03937*%
%ADD15R,0.05000X0.13000*%
%ADD16R,0.07000X0.09000*%
%ADD17R,0.05000X0.10000*%
%ADD18R,0.02362X0.08661*%
%ADD19R,0.04724X0.04724*%
%ADD20R,0.02000X0.02000*%
%ADD21R,0.07087X0.12598*%
%ADD22R,0.12598X0.07087*%
%ADD23R,0.04500X0.04000*%
%ADD24R,0.05118X0.05906*%
%ADD25R,0.05000X0.05787*%
%ADD26R,0.40984X0.42520*%
%ADD27R,0.08500X0.04200*%
%ADD28R,0.05906X0.05118*%
%ADD29R,0.08661X0.02362*%
%ADD30R,0.06000X0.03000*%
%ADD31R,0.07800X0.02000*%
%ADD32R,0.05906X0.01102*%
%ADD33R,0.01102X0.05906*%
%ADD34R,0.04724X0.03937*%
%ADD35R,0.04331X0.07087*%
%ADD36R,0.07480X0.13386*%
%ADD37R,0.09449X0.07874*%
%ADD38R,0.09087X0.01969*%
%ADD39R,0.03937X0.03937*%
%ADD40R,0.03100X0.03500*%
%ADD41R,0.01575X0.02756*%
%ADD42R,0.03300X0.06300*%
%ADD43R,0.12200X0.06300*%
D10*
X0172474Y0334100D03*
D11*
X0200742Y0325124D03*
X0200742Y0343076D03*
D12*
X0194718Y0360100D03*
X0178970Y0360100D03*
X0177470Y0298600D03*
X0193218Y0298600D03*
D13*
X0358454Y0303600D03*
X0372234Y0303600D03*
X0372234Y0344600D03*
X0358454Y0344600D03*
X0382954Y0094600D03*
X0396734Y0094600D03*
D14*
X0213175Y0295360D03*
X0204513Y0299100D03*
X0213175Y0302840D03*
D15*
X0393844Y0293600D03*
X0393844Y0313600D03*
X0393844Y0334600D03*
X0393844Y0354600D03*
D16*
X0374348Y0371600D03*
X0362340Y0371600D03*
X0362340Y0278100D03*
X0374348Y0278100D03*
D17*
X0313344Y0194100D03*
X0313344Y0176100D03*
X0289344Y0176100D03*
X0289344Y0194100D03*
D18*
X0363844Y0213864D03*
X0368844Y0213864D03*
X0373844Y0213864D03*
X0378844Y0213864D03*
X0378844Y0234336D03*
X0373844Y0234336D03*
X0368844Y0234336D03*
X0363844Y0234336D03*
X0304344Y0098836D03*
X0299344Y0098836D03*
X0294344Y0098836D03*
X0289344Y0098836D03*
X0289344Y0078364D03*
X0294344Y0078364D03*
X0299344Y0078364D03*
X0304344Y0078364D03*
D19*
X0319710Y0256600D03*
X0327978Y0256600D03*
X0327978Y0395100D03*
X0319710Y0395100D03*
D20*
X0338844Y0386100D03*
X0263844Y0379100D03*
X0338844Y0266100D03*
X0305344Y0256600D03*
D21*
X0221868Y0279100D03*
X0199820Y0279100D03*
D22*
X0326844Y0115124D03*
X0343844Y0115124D03*
X0343844Y0093076D03*
X0326844Y0093076D03*
D23*
X0258844Y0333100D03*
X0258844Y0340100D03*
X0266844Y0336600D03*
X0256344Y0361100D03*
X0256344Y0368100D03*
X0248344Y0364600D03*
D24*
X0248584Y0348600D03*
X0241104Y0348600D03*
X0241104Y0339100D03*
X0248584Y0339100D03*
X0248584Y0329600D03*
X0241104Y0329600D03*
X0258104Y0320100D03*
X0265584Y0320100D03*
X0265584Y0310600D03*
X0258104Y0310600D03*
X0258104Y0301100D03*
X0265584Y0301100D03*
X0250584Y0266100D03*
X0243104Y0266100D03*
X0243104Y0256600D03*
X0250584Y0256600D03*
X0227084Y0239100D03*
X0219604Y0239100D03*
X0242104Y0199100D03*
X0249584Y0199100D03*
X0262104Y0188600D03*
X0269584Y0188600D03*
X0269584Y0179100D03*
X0262104Y0179100D03*
X0262104Y0169600D03*
X0269584Y0169600D03*
X0243084Y0163100D03*
X0235604Y0163100D03*
X0224084Y0163100D03*
X0216604Y0163100D03*
G36*
X0202267Y0173352D02*
X0205886Y0169733D01*
X0201711Y0165558D01*
X0198092Y0169177D01*
X0202267Y0173352D01*
G37*
G36*
X0196977Y0178642D02*
X0200596Y0175023D01*
X0196421Y0170848D01*
X0192802Y0174467D01*
X0196977Y0178642D01*
G37*
X0167084Y0209600D03*
X0159604Y0209600D03*
X0101084Y0196100D03*
X0093604Y0196100D03*
X0114104Y0124600D03*
X0121584Y0124600D03*
X0133104Y0124600D03*
X0140584Y0124600D03*
X0151604Y0124600D03*
X0159084Y0124600D03*
X0186604Y0129100D03*
X0194084Y0129100D03*
X0194084Y0119600D03*
X0186604Y0119600D03*
X0203604Y0119600D03*
X0211084Y0119600D03*
X0211084Y0129100D03*
X0203604Y0129100D03*
X0229604Y0129100D03*
X0237084Y0129100D03*
X0237084Y0119600D03*
X0229604Y0119600D03*
X0246604Y0119600D03*
X0254084Y0119600D03*
X0254084Y0129100D03*
X0246604Y0129100D03*
X0273604Y0107600D03*
X0281084Y0107600D03*
X0281084Y0098100D03*
X0273604Y0098100D03*
X0273604Y0081600D03*
X0281084Y0081600D03*
X0281084Y0072100D03*
X0273604Y0072100D03*
X0273604Y0062600D03*
X0281084Y0062600D03*
X0255084Y0063100D03*
X0247604Y0063100D03*
X0247604Y0072600D03*
X0255084Y0072600D03*
X0238084Y0072600D03*
X0230604Y0072600D03*
X0230604Y0063100D03*
X0238084Y0063100D03*
X0211584Y0063100D03*
X0204104Y0063100D03*
X0203604Y0072600D03*
X0211084Y0072600D03*
X0194084Y0072600D03*
X0186604Y0072600D03*
X0186604Y0063100D03*
X0194084Y0063100D03*
X0194104Y0095600D03*
X0201584Y0095600D03*
X0240104Y0095600D03*
X0247584Y0095600D03*
X0304604Y0109600D03*
X0312084Y0109600D03*
X0312084Y0119100D03*
X0304604Y0119100D03*
X0313604Y0128600D03*
X0321084Y0128600D03*
X0321084Y0138100D03*
X0313604Y0138100D03*
X0313604Y0154100D03*
X0321084Y0154100D03*
X0338604Y0154100D03*
X0346084Y0154100D03*
X0346084Y0164100D03*
X0338604Y0164100D03*
X0338604Y0138100D03*
X0346084Y0138100D03*
X0346084Y0128600D03*
X0338604Y0128600D03*
X0369604Y0122600D03*
X0377084Y0122600D03*
X0320084Y0072100D03*
X0312604Y0072100D03*
X0312604Y0062600D03*
X0320084Y0062600D03*
X0407604Y0181600D03*
X0415084Y0181600D03*
X0389084Y0193100D03*
X0381604Y0193100D03*
X0381604Y0202600D03*
X0389084Y0202600D03*
X0359084Y0203100D03*
X0351604Y0203100D03*
X0351604Y0193600D03*
X0359084Y0193600D03*
X0357604Y0252100D03*
X0365084Y0252100D03*
X0376104Y0252100D03*
X0383584Y0252100D03*
X0327584Y0265600D03*
X0320104Y0265600D03*
X0205084Y0313100D03*
X0197604Y0313100D03*
X0187584Y0313100D03*
X0180104Y0313100D03*
X0169584Y0313100D03*
X0162104Y0313100D03*
X0140084Y0319600D03*
X0132604Y0319600D03*
X0132604Y0328600D03*
X0140084Y0328600D03*
X0121584Y0328600D03*
X0114104Y0328600D03*
X0114104Y0319600D03*
X0121584Y0319600D03*
X0320104Y0386100D03*
X0327584Y0386100D03*
D25*
X0240809Y0364600D03*
X0223880Y0364600D03*
D26*
X0323844Y0348600D03*
X0323844Y0299600D03*
D27*
X0291044Y0299600D03*
X0291044Y0289600D03*
X0291044Y0309600D03*
X0291044Y0338600D03*
X0291044Y0348600D03*
X0291044Y0358600D03*
D28*
X0113344Y0103360D03*
X0113344Y0110840D03*
X0122844Y0110840D03*
X0122844Y0103360D03*
X0132344Y0103360D03*
X0141844Y0103360D03*
X0141844Y0110840D03*
X0132344Y0110840D03*
X0151344Y0110840D03*
X0151344Y0103360D03*
X0160844Y0103360D03*
X0160844Y0110840D03*
X0130844Y0138860D03*
X0130844Y0146340D03*
X0191344Y0205360D03*
X0191344Y0212840D03*
X0201344Y0212840D03*
X0201344Y0205360D03*
X0231844Y0202840D03*
X0231844Y0195360D03*
X0219844Y0179840D03*
X0219844Y0172360D03*
X0289344Y0163840D03*
X0289344Y0156360D03*
X0299344Y0156360D03*
X0299344Y0163840D03*
X0344344Y0212860D03*
X0344344Y0220340D03*
X0353844Y0220340D03*
X0353844Y0212860D03*
X0367844Y0202340D03*
X0367844Y0194860D03*
X0388344Y0212860D03*
X0388344Y0220340D03*
X0399844Y0229360D03*
X0399844Y0236840D03*
X0409344Y0236840D03*
X0409344Y0229360D03*
X0396844Y0182840D03*
X0396844Y0175360D03*
X0389844Y0162840D03*
X0389844Y0155360D03*
X0380344Y0155360D03*
X0380344Y0162840D03*
X0358844Y0120840D03*
X0358844Y0113360D03*
X0358844Y0103840D03*
X0358844Y0096360D03*
X0368344Y0096360D03*
X0368344Y0103840D03*
X0407844Y0115860D03*
X0407844Y0123340D03*
X0417344Y0123340D03*
X0417344Y0115860D03*
X0232844Y0295360D03*
X0232844Y0302840D03*
X0223344Y0302840D03*
X0223344Y0295360D03*
X0266344Y0351860D03*
X0266344Y0359340D03*
X0226844Y0377360D03*
X0226844Y0384840D03*
X0217344Y0384840D03*
X0217344Y0377360D03*
X0207844Y0377360D03*
X0207844Y0384840D03*
X0113844Y0345340D03*
X0113844Y0337860D03*
X0111844Y0308840D03*
X0111844Y0301360D03*
X0086844Y0286840D03*
X0086844Y0279360D03*
X0086844Y0263840D03*
X0086844Y0256360D03*
X0093344Y0226340D03*
X0093344Y0218860D03*
X0103344Y0218860D03*
X0103344Y0226340D03*
X0113844Y0226340D03*
X0113844Y0218860D03*
X0127844Y0224860D03*
X0127844Y0232340D03*
X0141844Y0232340D03*
X0141844Y0224860D03*
X0150844Y0224860D03*
X0150844Y0232340D03*
X0157344Y0244360D03*
X0157344Y0251840D03*
X0126844Y0253860D03*
X0126844Y0261340D03*
X0117844Y0261340D03*
X0117844Y0253860D03*
X0413844Y0297860D03*
X0413844Y0305340D03*
X0413844Y0342360D03*
X0413844Y0349840D03*
D29*
X0251580Y0186100D03*
X0251580Y0181100D03*
X0251580Y0176100D03*
X0251580Y0171100D03*
X0231108Y0171100D03*
X0231108Y0176100D03*
X0231108Y0181100D03*
X0231108Y0186100D03*
X0278108Y0146600D03*
X0278108Y0141600D03*
X0278108Y0136600D03*
X0278108Y0131600D03*
X0298580Y0131600D03*
X0298580Y0136600D03*
X0298580Y0141600D03*
X0298580Y0146600D03*
X0361108Y0146600D03*
X0361108Y0141600D03*
X0361108Y0136600D03*
X0361108Y0131600D03*
X0381580Y0131600D03*
X0381580Y0136600D03*
X0381580Y0141600D03*
X0381580Y0146600D03*
D30*
X0184844Y0221100D03*
X0184844Y0236100D03*
X0162844Y0236100D03*
X0162844Y0221100D03*
D31*
X0210644Y0110600D03*
X0210644Y0105600D03*
X0210644Y0100600D03*
X0210644Y0095600D03*
X0210644Y0090600D03*
X0210644Y0085600D03*
X0210644Y0080600D03*
X0230044Y0080600D03*
X0230044Y0085600D03*
X0230044Y0090600D03*
X0230044Y0095600D03*
X0230044Y0100600D03*
X0230044Y0105600D03*
X0230044Y0110600D03*
D32*
X0149576Y0185273D03*
X0149576Y0187242D03*
X0149576Y0189210D03*
X0149576Y0191179D03*
X0149576Y0193147D03*
X0149576Y0195116D03*
X0149576Y0197084D03*
X0149576Y0199053D03*
X0149576Y0201021D03*
X0149576Y0202990D03*
X0149576Y0204958D03*
X0149576Y0206927D03*
X0116112Y0206927D03*
X0116112Y0204958D03*
X0116112Y0202990D03*
X0116112Y0201021D03*
X0116112Y0199053D03*
X0116112Y0197084D03*
X0116112Y0195116D03*
X0116112Y0193147D03*
X0116112Y0191179D03*
X0116112Y0189210D03*
X0116112Y0187242D03*
X0116112Y0185273D03*
D33*
X0122017Y0179368D03*
X0123986Y0179368D03*
X0125954Y0179368D03*
X0127923Y0179368D03*
X0129891Y0179368D03*
X0131860Y0179368D03*
X0133828Y0179368D03*
X0135797Y0179368D03*
X0137765Y0179368D03*
X0139734Y0179368D03*
X0141702Y0179368D03*
X0143671Y0179368D03*
X0143671Y0212832D03*
X0141702Y0212832D03*
X0139734Y0212832D03*
X0137765Y0212832D03*
X0135797Y0212832D03*
X0133828Y0212832D03*
X0131860Y0212832D03*
X0129891Y0212832D03*
X0127923Y0212832D03*
X0125954Y0212832D03*
X0123986Y0212832D03*
X0122017Y0212832D03*
D34*
X0101675Y0188100D03*
X0093013Y0188100D03*
D35*
X0092242Y0209100D03*
X0104446Y0209100D03*
D36*
X0124167Y0341600D03*
X0139521Y0341600D03*
D37*
X0405065Y0366777D03*
X0426718Y0366777D03*
X0426718Y0401423D03*
X0405065Y0401423D03*
D38*
X0402844Y0390399D03*
X0402844Y0387250D03*
X0402844Y0384100D03*
X0402844Y0380950D03*
X0402844Y0377801D03*
D39*
X0180344Y0256537D03*
X0180344Y0248663D03*
X0167344Y0248663D03*
X0167344Y0256537D03*
D40*
X0140044Y0302600D03*
X0132444Y0302600D03*
X0136244Y0310600D03*
D41*
X0125403Y0308446D03*
X0120285Y0308446D03*
X0120285Y0301754D03*
X0122844Y0301754D03*
X0125403Y0301754D03*
D42*
X0130244Y0286700D03*
X0139344Y0286700D03*
X0148444Y0286700D03*
X0114444Y0286700D03*
X0105344Y0286700D03*
X0096244Y0286700D03*
D43*
X0105344Y0261500D03*
X0139344Y0261500D03*
M02*
