%
M48
M72
T01C0.01378
T02C0.03937
T03C0.04000
T04C0.11024
T05C0.13000
%
T01
X94500Y73933
X95500Y80933
X104000Y101433
X118000Y93933
X128000Y93933
X139000Y93933
X157000Y108433
X141500Y118933
X141500Y128933
X131500Y128933
X131500Y118933
X121500Y118933
X121500Y128933
X111500Y128933
X111500Y118933
X91500Y130933
X102500Y147433
X96500Y153933
X89500Y153433
X74500Y154433
X108500Y175933
X117000Y165433
X119000Y161433
X131500Y154933
X131500Y138933
X121500Y138933
X111500Y138933
X141500Y138933
X151000Y146933
X152000Y161433
X160500Y172933
X151500Y186433
X159000Y191433
X164000Y191433
X164000Y196433
X159000Y196433
X147000Y206433
X142000Y200433
X130000Y200433
X130000Y206433
X121500Y201933
X112500Y201933
X99000Y213933
X89000Y191433
X122000Y176433
X131000Y174433
X141000Y215933
X169000Y213933
X174000Y213933
X179000Y213933
X179000Y196433
X174000Y196433
X184000Y196433
X204000Y186433
X204000Y206433
X224000Y204933
X224000Y212933
X241500Y200933
X224000Y171433
X204000Y156433
X204000Y141433
X184000Y151433
X184000Y126433
X176500Y124433
X179000Y113933
X179000Y106433
X178000Y86433
X166500Y84933
X161500Y85433
X173000Y66933
X193000Y81933
X206000Y90433
X204000Y96433
X199000Y96433
X206500Y108933
X206500Y118933
X215000Y88433
X227500Y79933
X234000Y73433
X218500Y68933
X215500Y64433
X195000Y65433
X251500Y63933
X251500Y138933
X177500Y174933
X171500Y233933
X134000Y241433
X81500Y101433
X126500Y58933
T02
X241563Y215272
X241563Y232594
T03
X248500Y188933
X248500Y178933
X220909Y125744
X220909Y114839
X220909Y103933
X220909Y93028
X220909Y82122
X232091Y87594
X232091Y98500
X232091Y109366
X232091Y120272
X154000Y83933
X154000Y73933
X144000Y73933
X144000Y83933
X131500Y83933
X131500Y73933
X121500Y73933
X121500Y83933
X86500Y83933
X86500Y73933
X76500Y73933
X76500Y83933
X76500Y93933
X86500Y93933
X86500Y63933
X76500Y63933
X101500Y183933
X111500Y183933
X121500Y183933
X121500Y193933
X111500Y193933
X101500Y193933
X111500Y218933
X111500Y228933
X121500Y228933
X121500Y218933
T04
X71000Y38933
X201500Y38933
X201500Y240933
X71500Y240933
T05
X226500Y153146
X226500Y54720
M30
