G75*
%MOIN*%
%OFA0B0*%
%FSLAX25Y25*%
%IPPOS*%
%LPD*%
%AMOC8*
5,1,8,0,0,1.08239X$1,22.5*
%
%ADD10R,0.08200X0.08200*%
%ADD11C,0.08200*%
%ADD12C,0.20800*%
%ADD13C,0.07200*%
%ADD14C,0.04737*%
%ADD15OC8,0.07200*%
%ADD16C,0.21800*%
D10*
X0220909Y0125744D03*
D11*
X0220909Y0114839D03*
X0220909Y0103933D03*
X0220909Y0093028D03*
X0220909Y0082122D03*
X0232091Y0087594D03*
X0232091Y0098500D03*
X0232091Y0109366D03*
X0232091Y0120272D03*
D12*
X0226500Y0153146D03*
X0226500Y0054720D03*
D13*
X0245300Y0178933D02*
X0251700Y0178933D01*
X0251700Y0188933D02*
X0245300Y0188933D01*
X0221700Y0186933D02*
X0215300Y0186933D01*
X0215300Y0196933D02*
X0221700Y0196933D01*
D14*
X0241563Y0215272D03*
X0241563Y0232594D03*
D15*
X0121500Y0228933D03*
X0121500Y0218933D03*
X0111500Y0218933D03*
X0111500Y0228933D03*
X0111500Y0193933D03*
X0101500Y0193933D03*
X0101500Y0183933D03*
X0111500Y0183933D03*
X0121500Y0183933D03*
X0121500Y0193933D03*
X0086500Y0093933D03*
X0076500Y0093933D03*
X0076500Y0083933D03*
X0076500Y0073933D03*
X0086500Y0073933D03*
X0086500Y0083933D03*
X0086500Y0063933D03*
X0076500Y0063933D03*
X0121500Y0073933D03*
X0131500Y0073933D03*
X0131500Y0083933D03*
X0121500Y0083933D03*
X0141500Y0083933D03*
X0141500Y0073933D03*
X0151500Y0073933D03*
X0151500Y0083933D03*
D16*
X0071000Y0038933D03*
X0201500Y0038933D03*
X0201500Y0240933D03*
X0071500Y0240933D03*
M02*
