G75*
%MOIN*%
%OFA0B0*%
%FSLAX25Y25*%
%IPPOS*%
%LPD*%
%AMOC8*
5,1,8,0,0,1.08239X$1,22.5*
%
%ADD10R,0.05118X0.05906*%
%ADD11R,0.01969X0.05906*%
%ADD12R,0.05906X0.01969*%
%ADD13R,0.05906X0.05118*%
%ADD14R,0.03300X0.06300*%
%ADD15R,0.12200X0.06300*%
%ADD16R,0.07480X0.13386*%
%ADD17R,0.09449X0.07874*%
%ADD18R,0.09087X0.01969*%
%ADD19R,0.03000X0.06000*%
%ADD20R,0.05118X0.04331*%
%ADD21R,0.04724X0.03937*%
%ADD22R,0.02362X0.08661*%
%ADD23R,0.05000X0.10000*%
%ADD24R,0.04724X0.04724*%
%ADD25R,0.05000X0.05787*%
D10*
X0102760Y0071933D03*
X0110240Y0071933D03*
X0110240Y0080933D03*
X0102760Y0080933D03*
X0102760Y0089933D03*
X0110240Y0089933D03*
X0085240Y0108433D03*
X0077760Y0108433D03*
X0077760Y0135933D03*
X0085240Y0135933D03*
X0085240Y0145933D03*
X0077760Y0145933D03*
X0143260Y0163433D03*
X0150740Y0163433D03*
X0160760Y0163433D03*
X0168240Y0163433D03*
X0169740Y0150433D03*
X0162260Y0150433D03*
X0162760Y0133433D03*
X0170240Y0133433D03*
X0187260Y0115433D03*
X0194740Y0115433D03*
X0194740Y0105933D03*
X0187260Y0105933D03*
X0201260Y0082933D03*
X0208740Y0082933D03*
X0208740Y0069933D03*
X0201260Y0069933D03*
X0201260Y0060433D03*
X0208740Y0060433D03*
X0189740Y0060433D03*
X0182260Y0060433D03*
X0169240Y0060433D03*
X0161760Y0060433D03*
X0161760Y0069433D03*
X0169240Y0069433D03*
X0169240Y0078433D03*
X0161760Y0078433D03*
X0157740Y0100433D03*
X0150260Y0100433D03*
X0147760Y0218933D03*
X0155240Y0218933D03*
X0155240Y0227433D03*
X0147760Y0227433D03*
D11*
X0142248Y0146768D03*
X0139098Y0146768D03*
X0135949Y0146768D03*
X0132799Y0146768D03*
X0129650Y0146768D03*
X0126500Y0146768D03*
X0123350Y0146768D03*
X0120201Y0146768D03*
X0117051Y0146768D03*
X0113902Y0146768D03*
X0110752Y0146768D03*
X0110752Y0101098D03*
X0113902Y0101098D03*
X0117051Y0101098D03*
X0120201Y0101098D03*
X0123350Y0101098D03*
X0126500Y0101098D03*
X0129650Y0101098D03*
X0132799Y0101098D03*
X0135949Y0101098D03*
X0139098Y0101098D03*
X0142248Y0101098D03*
D12*
X0149335Y0108185D03*
X0149335Y0111335D03*
X0149335Y0114484D03*
X0149335Y0117634D03*
X0149335Y0120783D03*
X0149335Y0123933D03*
X0149335Y0127083D03*
X0149335Y0130232D03*
X0149335Y0133382D03*
X0149335Y0136531D03*
X0149335Y0139681D03*
X0103665Y0139681D03*
X0103665Y0136531D03*
X0103665Y0133382D03*
X0103665Y0130232D03*
X0103665Y0127083D03*
X0103665Y0123933D03*
X0103665Y0120783D03*
X0103665Y0117634D03*
X0103665Y0114484D03*
X0103665Y0111335D03*
X0103665Y0108185D03*
D13*
X0096500Y0160193D03*
X0096500Y0167673D03*
X0128500Y0167673D03*
X0128500Y0160193D03*
X0143500Y0185193D03*
X0143500Y0192673D03*
X0174000Y0208693D03*
X0174000Y0216173D03*
X0183000Y0216173D03*
X0183000Y0208693D03*
X0218500Y0207193D03*
X0218500Y0214673D03*
X0203500Y0171673D03*
X0203500Y0164193D03*
X0194500Y0164193D03*
X0194500Y0171673D03*
X0185500Y0171673D03*
X0185500Y0164193D03*
D14*
X0177600Y0174833D03*
X0168500Y0174833D03*
X0159400Y0174833D03*
D15*
X0168500Y0200033D03*
D16*
X0193323Y0211933D03*
X0208677Y0211933D03*
D17*
X0231720Y0206610D03*
X0253374Y0206610D03*
X0253374Y0241256D03*
X0231720Y0241256D03*
D18*
X0229500Y0230232D03*
X0229500Y0227083D03*
X0229500Y0223933D03*
X0229500Y0220783D03*
X0229500Y0217634D03*
D19*
X0084000Y0179933D03*
X0069000Y0179933D03*
X0069000Y0157933D03*
X0084000Y0157933D03*
D20*
X0086028Y0127476D03*
X0086028Y0120390D03*
X0076972Y0120390D03*
X0076972Y0127476D03*
D21*
X0161669Y0141933D03*
X0170331Y0141933D03*
D22*
X0177000Y0094169D03*
X0182000Y0094169D03*
X0187000Y0094169D03*
X0192000Y0094169D03*
X0192000Y0073697D03*
X0187000Y0073697D03*
X0182000Y0073697D03*
X0177000Y0073697D03*
D23*
X0193500Y0131433D03*
X0193500Y0149433D03*
D24*
X0151134Y0173933D03*
X0142866Y0173933D03*
D25*
X0189035Y0190433D03*
X0205965Y0190433D03*
M02*
